<svg width="1034" height="524" viewBox="0 0 1034 524" fill="none" xmlns="http://www.w3.org/2000/svg">
<path d="M1022.67 236.732C1028.98 232.97 1041.62 219.398 1027.75 217.894C1021.15 217.178 1009.13 225.657 996.913 234.137C983.453 243.479 969.756 252.822 962.816 249.864C949.578 244.222 1018.92 179.529 989.296 170.878C971.26 165.612 952.335 173.752 934.402 181.067C914.272 189.278 896.137 196.612 896.573 185.973C896.788 180.736 953.338 146.914 904.797 126.603C877.882 115.342 828.599 132.286 781.438 148.683C743.534 161.861 703.55 178.66 664.641 164.299C607.012 143.029 621.448 4.01979 453.892 0H0V451.914C0 451.914 34.3648 534.78 227.662 522.82C420.961 510.859 575.758 382.437 600.512 371.935C637.519 356.234 670.326 362.972 653.144 385.183C635.961 407.394 666.149 438 735.465 438C852.486 438 882.712 210.585 955.035 199.902C963.446 198.659 951.323 216.095 942.781 233.529C934.383 250.671 929.448 267.814 950.892 267.205C970.24 266.657 1014.53 228.488 1019.07 226.527C1035.77 219.321 1020.36 236.18 1020.36 236.18L1022.67 236.732Z" fill="#3843D6"/>
</svg>
