<svg width="500" height="500" viewBox="0 0 500 500" fill="none" xmlns="http://www.w3.org/2000/svg">
<path d="M451.261 94.699H228.682V408.072H451.261V94.699Z" fill="#EBEBEB"/>
<path d="M422.359 60.022C424.647 58.64 427.082 57.591 429.594 56.878L431.084 49.717L443.183 49.505L444.924 56.609C447.46 57.234 449.931 58.196 452.265 59.497L458.38 55.489L467.085 63.895L463.295 70.146C464.678 72.434 465.726 74.871 466.439 77.382L473.599 78.872L473.812 90.971L466.708 92.713C466.083 95.248 465.121 97.718 463.82 100.053L467.827 106.168L459.423 114.874L453.172 111.084C450.884 112.467 448.448 113.514 445.936 114.228L444.445 121.389L432.346 121.601L430.605 114.497C428.07 113.872 425.599 112.91 423.264 111.609L417.149 115.617L408.443 107.212L412.233 100.961C410.85 98.673 409.802 96.237 409.089 93.725L401.928 92.235L401.716 80.136L408.82 78.394C409.445 75.859 410.407 73.388 411.708 71.054L407.7 64.939L416.105 56.233L422.359 60.022ZM428.809 76.14C423.829 81.298 423.974 89.516 429.132 94.495C434.29 99.475 442.508 99.33 447.487 94.172C452.466 89.014 452.323 80.796 447.164 75.817C442.006 70.838 433.788 70.983 428.809 76.14Z" fill="#E0E0E0"/>
<path d="M428.809 76.1401C428.809 76.1401 429.488 75.1831 431.226 74.0191C432.932 72.8831 435.914 71.6181 439.695 72.0171C441.557 72.2261 443.594 72.8331 445.451 74.0621C447.288 75.2901 449.023 77.0381 450.106 79.3061C450.676 80.4201 451.072 81.6581 451.287 82.9501C451.52 84.2391 451.554 85.5961 451.36 86.9461C451.031 89.6581 449.749 92.3301 447.756 94.4301C445.727 96.4961 443.101 97.8721 440.402 98.2971C439.059 98.5391 437.702 98.5531 436.405 98.3651C435.106 98.1961 433.855 97.8441 432.721 97.3131C430.415 96.3101 428.607 94.6381 427.316 92.8451C426.023 91.0321 425.345 89.0171 425.071 87.1641C424.539 83.3991 425.699 80.3751 426.775 78.6301C427.876 76.8521 428.809 76.1401 428.809 76.1401C428.879 76.1991 428.025 76.9921 427.025 78.7741C426.047 80.5251 425.013 83.4791 425.59 87.0841C425.887 88.8591 426.564 90.7741 427.818 92.4871C429.072 94.1801 430.807 95.7551 433 96.6861C434.078 97.1821 435.265 97.5071 436.497 97.6601C437.726 97.8311 439.011 97.8121 440.279 97.5781C442.831 97.1681 445.302 95.8641 447.22 93.9131C449.101 91.9271 450.316 89.4121 450.636 86.8481C450.825 85.5721 450.799 84.2881 450.584 83.0661C450.388 81.8421 450.022 80.6671 449.488 79.6071C448.48 77.4481 446.846 75.7701 445.11 74.5761C443.355 73.3831 441.417 72.7731 439.633 72.5391C436.01 72.0881 433.094 73.2261 431.378 74.2651C429.632 75.3271 428.871 76.2091 428.809 76.1401Z" fill="#E0E0E0"/>
<path d="M422.359 60.022C422.359 60.032 422.224 59.961 421.956 59.809C421.662 59.639 421.268 59.411 420.757 59.116C419.664 58.47 418.089 57.54 416.045 56.333L416.192 56.314C414.053 58.556 411.24 61.503 407.838 65.068L407.86 64.834C409.081 66.682 410.44 68.735 411.892 70.933L411.965 71.043L411.901 71.16C410.713 73.312 409.714 75.763 409.06 78.452L409.025 78.595L408.88 78.631C406.667 79.18 404.272 79.774 401.781 80.393L401.983 80.131C402.059 83.94 402.139 87.983 402.223 92.228L401.99 91.947C404.207 92.404 406.65 92.907 409.153 93.423L409.335 93.461L409.386 93.64C410.051 95.976 411.09 98.459 412.509 100.794L412.61 100.96L412.509 101.127C411.337 103.066 410.044 105.205 408.728 107.383L408.675 106.972C411.412 109.609 414.365 112.452 417.39 115.367L416.959 115.327C418.862 114.077 420.953 112.704 423.07 111.313L423.249 111.196L423.436 111.3C425.57 112.489 428.064 113.505 430.69 114.148L430.902 114.199L430.954 114.411C431.501 116.636 432.098 119.063 432.7 121.514L432.339 121.236C436.17 121.167 440.276 121.093 444.438 121.018L444.083 121.312C444.553 119.05 445.06 116.609 445.571 114.151L445.617 113.93L445.833 113.869C448.216 113.195 450.683 112.153 452.971 110.768L452.977 110.764L453.172 110.648L453.362 110.764C455.461 112.037 457.547 113.301 459.613 114.555L459.153 114.614C461.994 111.673 464.797 108.771 467.56 105.911L467.517 106.369C466.169 104.31 464.834 102.271 463.512 100.252L463.391 100.067L463.499 99.874C464.784 97.572 465.739 95.123 466.356 92.625L466.409 92.413L466.621 92.362C469.024 91.775 471.39 91.197 473.726 90.626L473.456 90.976C473.388 86.846 473.321 82.811 473.255 78.878L473.527 79.207C471.098 78.699 468.713 78.199 466.369 77.708L466.171 77.666L466.116 77.472C465.391 74.907 464.333 72.497 463.017 70.312L462.916 70.144L463.017 69.978C464.32 67.837 465.584 65.761 466.817 63.734L466.867 64.117C463.811 61.154 460.926 58.357 458.179 55.694L458.533 55.727C456.379 57.131 454.358 58.449 452.409 59.72L452.273 59.809L452.133 59.73C449.696 58.367 447.253 57.445 444.863 56.846L444.718 56.81L444.684 56.667C444.06 54.083 443.497 51.756 442.966 49.558L443.184 49.725C438.497 49.787 434.503 49.839 431.084 49.884L431.244 49.751C430.631 52.607 430.127 54.951 429.708 56.903L429.692 56.974L429.623 56.993C427.063 57.708 425.261 58.543 424.09 59.121C423.531 59.413 423.102 59.637 422.789 59.801C422.498 59.963 422.359 60.033 422.359 60.022C422.36 60.013 422.497 59.917 422.762 59.747C423.039 59.577 423.458 59.322 424.037 59.012C425.195 58.396 426.99 57.519 429.561 56.762L429.477 56.852C429.871 54.895 430.344 52.546 430.921 49.682L430.947 49.552L431.082 49.549C434.5 49.474 438.493 49.387 443.18 49.284L443.355 49.28L443.398 49.452C443.944 51.647 444.521 53.97 445.163 56.549L444.984 56.37C447.417 56.964 449.908 57.887 452.396 59.262L452.12 59.272C454.063 57.991 456.078 56.664 458.225 55.249L458.415 55.124L458.58 55.283C461.337 57.934 464.234 60.72 467.302 63.67L467.48 63.841L467.352 64.053C466.125 66.084 464.869 68.164 463.573 70.31L463.574 69.977C464.926 72.206 466.015 74.667 466.763 77.288L466.51 77.053C468.855 77.538 471.242 78.032 473.672 78.534L473.94 78.589L473.945 78.863C474.018 82.797 474.093 86.831 474.17 90.961L474.175 91.244L473.9 91.312C471.564 91.887 469.199 92.468 466.798 93.059L467.062 92.795C466.433 95.356 465.458 97.866 464.143 100.227L464.129 99.849C465.453 101.867 466.79 103.904 468.139 105.962L468.3 106.208L468.096 106.42C465.335 109.281 462.533 112.185 459.694 115.128L459.488 115.342L459.234 115.188C457.167 113.935 455.081 112.671 452.982 111.399H453.367L453.36 111.403C451.014 112.824 448.483 113.892 446.04 114.582L446.302 114.301C445.79 116.759 445.281 119.2 444.811 121.461L444.751 121.75L444.456 121.755C440.294 121.826 436.188 121.896 432.357 121.962L432.066 121.967L431.997 121.684C431.398 119.232 430.804 116.805 430.26 114.579L430.524 114.843C427.834 114.182 425.281 113.137 423.098 111.914L423.464 111.901C421.344 113.288 419.251 114.657 417.345 115.903L417.113 116.055L416.914 115.863C413.895 112.941 410.95 110.091 408.219 107.447L408.028 107.262L408.166 107.036C409.489 104.862 410.787 102.727 411.965 100.791V101.123C410.522 98.733 409.469 96.192 408.8 93.805L409.033 94.021C406.531 93.496 404.091 92.983 401.875 92.517L401.646 92.469L401.642 92.236C401.577 87.991 401.516 83.947 401.458 80.137L401.455 79.924L401.66 79.874C404.155 79.27 406.553 78.689 408.769 78.152L408.59 78.331C409.272 75.601 410.302 73.119 411.524 70.943L411.532 71.169C410.097 68.96 408.756 66.896 407.549 65.038L407.466 64.91L407.571 64.803C411.014 61.278 413.861 58.363 416.026 56.146L416.093 56.077L416.173 56.127C418.171 57.37 419.71 58.328 420.778 58.993C421.282 59.313 421.672 59.561 421.962 59.745C422.224 59.92 422.359 60.012 422.359 60.022Z" fill="#E0E0E0"/>
<path d="M369.565 35.534C370.934 34.707 372.392 34.079 373.896 33.652L374.788 29.365L382.031 29.238L383.073 33.49C384.591 33.864 386.07 34.44 387.468 35.219L391.128 32.82L396.339 37.852L394.07 41.594C394.898 42.964 395.525 44.422 395.952 45.926L400.238 46.818L400.365 54.06L396.113 55.103C395.739 56.62 395.163 58.099 394.384 59.497L396.783 63.158L391.752 68.369L388.01 66.1C386.64 66.928 385.182 67.555 383.679 67.982L382.787 72.269L375.545 72.396L374.503 68.143C372.985 67.769 371.507 67.193 370.109 66.414L366.449 68.813L361.238 63.782L363.507 60.04C362.679 58.671 362.052 57.213 361.625 55.709L357.339 54.817L357.212 47.575L361.465 46.532C361.839 45.015 362.415 43.536 363.194 42.138L360.795 38.478L365.826 33.267L369.565 35.534ZM373.426 45.182C370.445 48.27 370.531 53.189 373.619 56.17C376.706 59.151 381.626 59.064 384.606 55.977C387.587 52.89 387.5 47.97 384.413 44.989C381.326 42.008 376.407 42.095 373.426 45.182Z" fill="#F5F5F5"/>
<path d="M373.426 45.1819C373.426 45.1819 373.832 44.6089 374.873 43.9119C375.894 43.2319 377.679 42.4749 379.942 42.7129C381.056 42.8379 382.276 43.2019 383.387 43.9369C384.487 44.6719 385.525 45.7179 386.174 47.0759C386.515 47.7429 386.752 48.4839 386.881 49.2569C387.021 50.0289 387.04 50.8409 386.925 51.6489C386.728 53.2719 385.961 54.8719 384.768 56.1289C383.554 57.3659 381.982 58.1899 380.366 58.4439C379.562 58.5889 378.75 58.5969 377.973 58.4849C377.195 58.3839 376.447 58.1729 375.768 57.8549C374.388 57.2549 373.306 56.2539 372.532 55.1809C371.758 54.0959 371.352 52.8899 371.188 51.7809C370.87 49.5269 371.564 47.7169 372.208 46.6729C372.867 45.6079 373.426 45.1819 373.426 45.1819C373.468 45.2179 372.957 45.6919 372.358 46.7589C371.773 47.8069 371.154 49.5749 371.499 51.7329C371.677 52.7959 372.082 53.9419 372.833 54.9669C373.583 55.9809 374.622 56.9229 375.935 57.4809C376.58 57.7779 377.291 57.9729 378.028 58.0639C378.764 58.1669 379.532 58.1549 380.292 58.0149C381.82 57.7699 383.299 56.9889 384.447 55.8209C385.573 54.6319 386.3 53.1269 386.492 51.5919C386.605 50.8279 386.59 50.0599 386.461 49.3279C386.344 48.5949 386.125 47.8909 385.805 47.2569C385.202 45.9649 384.223 44.9599 383.184 44.2459C382.133 43.5319 380.973 43.1669 379.905 43.0269C377.736 42.7569 375.991 43.4379 374.964 44.0599C373.919 44.6949 373.463 45.2229 373.426 45.1819Z" fill="#F5F5F5"/>
<path d="M369.565 35.534C369.565 35.54 369.484 35.498 369.324 35.407C369.148 35.305 368.912 35.169 368.606 34.992C367.952 34.606 367.009 34.049 365.786 33.326L365.874 33.314C364.594 34.656 362.91 36.42 360.873 38.554L360.886 38.414C361.617 39.52 362.43 40.749 363.3 42.065L363.343 42.131L363.305 42.201C362.594 43.489 361.996 44.956 361.604 46.566L361.583 46.652L361.497 46.673C360.172 47.002 358.739 47.357 357.247 47.728L357.368 47.571C357.413 49.851 357.461 52.272 357.512 54.813L357.373 54.645C358.7 54.919 360.162 55.22 361.661 55.529L361.77 55.552L361.801 55.659C362.199 57.057 362.821 58.544 363.67 59.941L363.73 60.04L363.67 60.14C362.968 61.301 362.195 62.581 361.407 63.885L361.375 63.639C363.013 65.217 364.781 66.919 366.592 68.664L366.334 68.64C367.473 67.892 368.725 67.07 369.992 66.237L370.099 66.167L370.211 66.229C371.488 66.941 372.981 67.549 374.553 67.934L374.68 67.965L374.711 68.092C375.038 69.424 375.396 70.876 375.756 72.344L375.54 72.178C377.833 72.137 380.291 72.093 382.782 72.048L382.569 72.224C382.85 70.87 383.154 69.409 383.46 67.938L383.487 67.806L383.617 67.769C385.043 67.365 386.521 66.742 387.89 65.913L387.894 65.911L388.011 65.842L388.125 65.911C389.381 66.673 390.63 67.43 391.867 68.18L391.592 68.216C393.293 66.455 394.971 64.718 396.624 63.006L396.598 63.28C395.791 62.048 394.992 60.827 394.201 59.619L394.128 59.508L394.193 59.393C394.962 58.015 395.534 56.549 395.903 55.054L395.935 54.927L396.062 54.896C397.5 54.544 398.916 54.198 400.315 53.857L400.153 54.067C400.112 51.595 400.072 49.179 400.033 46.825L400.196 47.022C398.742 46.718 397.314 46.418 395.911 46.125L395.792 46.1L395.759 45.984C395.325 44.448 394.692 43.006 393.904 41.698L393.844 41.598L393.904 41.498C394.684 40.216 395.44 38.974 396.179 37.76L396.209 37.989C394.38 36.215 392.652 34.541 391.008 32.947L391.22 32.967C389.93 33.807 388.721 34.596 387.554 35.357L387.472 35.41L387.388 35.363C385.929 34.547 384.467 33.995 383.036 33.637L382.95 33.615L382.929 33.529C382.555 31.982 382.219 30.589 381.901 29.273L382.031 29.373C379.225 29.41 376.835 29.441 374.788 29.468L374.884 29.388C374.517 31.098 374.216 32.5 373.965 33.669L373.956 33.712L373.915 33.724C372.382 34.152 371.304 34.652 370.603 34.998C370.268 35.173 370.012 35.307 369.824 35.405C369.648 35.498 369.565 35.54 369.565 35.534C369.565 35.528 369.648 35.471 369.806 35.37C369.972 35.268 370.222 35.115 370.569 34.93C371.262 34.561 372.337 34.036 373.875 33.583L373.825 33.637C374.061 32.466 374.344 31.059 374.689 29.345L374.705 29.267L374.786 29.265C376.832 29.22 379.222 29.168 382.028 29.106L382.133 29.104L382.159 29.207C382.486 30.521 382.831 31.912 383.215 33.455L383.108 33.348C384.564 33.703 386.056 34.256 387.545 35.079L387.38 35.085C388.543 34.318 389.749 33.524 391.035 32.677L391.148 32.602L391.247 32.697C392.897 34.284 394.631 35.952 396.468 37.718L396.574 37.82L396.497 37.947C395.763 39.163 395.01 40.408 394.235 41.693V41.494C395.044 42.829 395.696 44.302 396.144 45.871L395.993 45.73C397.397 46.02 398.826 46.316 400.28 46.617L400.44 46.65L400.443 46.814C400.487 49.169 400.532 51.584 400.577 54.056L400.58 54.225L400.415 54.266C399.017 54.61 397.601 54.958 396.164 55.312L396.322 55.154C395.946 56.687 395.362 58.189 394.575 59.603L394.567 59.377C395.359 60.585 396.159 61.805 396.968 63.036L397.065 63.183L396.943 63.31C395.29 65.023 393.613 66.761 391.913 68.523L391.79 68.651L391.638 68.559C390.401 67.809 389.152 67.052 387.896 66.291H388.126L388.122 66.293C386.718 67.144 385.203 67.783 383.74 68.196L383.897 68.027C383.59 69.498 383.286 70.96 383.004 72.313L382.968 72.486L382.791 72.489C380.299 72.532 377.842 72.574 375.548 72.613L375.374 72.616L375.333 72.447C374.974 70.979 374.619 69.526 374.293 68.194L374.451 68.352C372.841 67.956 371.312 67.331 370.006 66.599L370.225 66.591C368.956 67.421 367.703 68.241 366.562 68.987L366.423 69.078L366.304 68.963C364.497 67.214 362.734 65.508 361.099 63.925L360.985 63.815L361.067 63.679C361.859 62.377 362.636 61.099 363.341 59.941V60.14C362.477 58.709 361.847 57.188 361.446 55.76L361.585 55.89C360.088 55.576 358.627 55.268 357.3 54.989L357.163 54.96L357.161 54.82C357.122 52.279 357.085 49.858 357.05 47.577L357.048 47.45L357.171 47.42C358.664 47.058 360.1 46.711 361.426 46.389L361.319 46.496C361.727 44.862 362.344 43.376 363.075 42.073L363.08 42.208C362.221 40.886 361.418 39.65 360.696 38.538L360.647 38.462L360.71 38.398C362.771 36.288 364.475 34.543 365.771 33.216L365.811 33.175L365.859 33.205C367.055 33.949 367.976 34.522 368.616 34.92C368.918 35.112 369.151 35.26 369.325 35.37C369.484 35.472 369.565 35.528 369.565 35.534Z" fill="#F5F5F5"/>
<path d="M175.565 51.486H44.65V268.187H175.565V51.486Z" fill="#E0E0E0"/>
<path d="M171.211 51.486H40.296V268.187H171.211V51.486Z" fill="#EBEBEB"/>
<path d="M165.636 55.881H45.87V263.793H165.636V55.881Z" fill="#FAFAFA"/>
<path d="M142.317 82.897H68.671V236.776H142.317V82.897Z" fill="#EBEBEB"/>
<path d="M68.671 182.324C68.501 167.95 81.425 153.917 95.66 151.91C102.448 150.953 109.659 152.3 116.002 149.7C127.323 145.058 130.925 130.017 142.318 125.556L142.838 236.777H68.671V182.324Z" fill="#E0E0E0"/>
<path d="M355.867 419.617C357.372 418.708 358.973 418.018 360.625 417.549L361.605 412.839L369.563 412.699L370.708 417.371C372.376 417.782 374.001 418.414 375.536 419.271L379.558 416.635L385.284 422.163L382.791 426.274C383.701 427.779 384.39 429.381 384.859 431.033L389.568 432.013L389.708 439.97L385.036 441.116C384.625 442.783 383.992 444.408 383.136 445.944L385.772 449.966L380.244 455.692L376.132 453.199C374.627 454.108 373.025 454.798 371.373 455.267L370.393 459.977L362.436 460.116L361.291 455.444C359.624 455.033 357.999 454.4 356.463 453.544L352.441 456.18L346.715 450.652L349.208 446.541C348.299 445.036 347.609 443.434 347.14 441.782L342.43 440.802L342.29 432.845L346.962 431.699C347.373 430.032 348.006 428.407 348.862 426.871L346.226 422.849L351.754 417.123L355.867 419.617ZM360.109 430.218C356.834 433.61 356.929 439.015 360.321 442.291C363.713 445.566 369.118 445.471 372.393 442.079C375.668 438.687 375.573 433.282 372.181 430.007C368.789 426.731 363.384 426.826 360.109 430.218Z" fill="#F5F5F5"/>
<path d="M470.797 466.91C470.797 466.91 471.269 466.891 472.228 466.881C473.198 466.875 474.641 466.866 476.583 466.853V466.966C454.083 467.083 362.45 467.17 252.904 467.17C189.526 467.14 132.16 467.113 90.625 467.094C69.868 467.059 53.07 467.031 41.448 467.011C35.649 466.99 31.145 466.973 28.078 466.962C26.557 466.951 25.395 466.942 24.601 466.936C23.818 466.927 23.416 466.909 23.416 466.909C23.416 466.909 23.817 466.891 24.601 466.882C25.395 466.876 26.557 466.867 28.078 466.856C31.145 466.845 35.65 466.828 41.448 466.807C53.069 466.787 69.868 466.759 90.625 466.724C132.161 466.704 189.527 466.677 252.904 466.648C362.45 466.648 454.083 466.735 476.583 466.852V466.966C474.641 466.953 473.197 466.944 472.228 466.938C471.269 466.93 470.797 466.91 470.797 466.91Z" fill="#263238"/>
<path d="M433.388 78.365H209.255V394.616H433.388V78.365Z" fill="white"/>
<path d="M433.389 394.617C433.387 392.514 433.292 265.195 433.152 78.366L433.389 78.603C365.611 78.61 289.485 78.618 209.282 78.627H209.256L209.516 78.367C209.497 196.878 209.48 306.467 209.466 394.618L209.255 394.407C345.392 394.534 431.655 394.615 433.389 394.617C431.656 394.619 345.392 394.7 209.256 394.828H209.045V394.617C209.031 306.465 209.014 196.877 208.995 78.366V78.105H209.256H209.282C289.485 78.113 365.611 78.121 433.389 78.129H433.626V78.366C433.486 265.194 433.391 392.515 433.389 394.617Z" fill="#263238"/>
<path d="M313.347 310.275H231.041C227.348 310.275 224.353 307.281 224.353 303.587V295.025C224.353 291.332 227.347 288.337 231.041 288.337H313.347C317.041 288.337 320.035 291.331 320.035 295.025V303.587C320.035 307.28 317.041 310.275 313.347 310.275Z" fill="#F5F5F5"/>
<path d="M413.179 310.275H332.996C329.303 310.275 326.308 307.281 326.308 303.587V295.025C326.308 291.332 329.302 288.337 332.996 288.337H413.179C416.873 288.337 419.867 291.331 419.867 295.025V303.587C419.867 307.28 416.873 310.275 413.179 310.275Z" fill="#F5F5F5"/>
<path d="M414.505 355.242H230.589C226.896 355.242 223.901 352.248 223.901 348.554V339.992C223.901 336.298 226.895 333.304 230.589 333.304H414.504C418.197 333.304 421.192 336.298 421.192 339.992V348.554C421.192 352.248 418.198 355.242 414.505 355.242Z" fill="#F5F5F5"/>
<path d="M268.284 279.51C268.284 279.654 259.036 279.77 247.631 279.77C236.222 279.77 226.976 279.653 226.976 279.51C226.976 279.367 236.222 279.25 247.631 279.25C259.037 279.25 268.284 279.367 268.284 279.51Z" fill="#263238"/>
<path d="M366 279.51C366 279.654 358.718 279.77 349.738 279.77C340.755 279.77 333.475 279.653 333.475 279.51C333.475 279.367 340.755 279.25 349.738 279.25C358.718 279.25 366 279.367 366 279.51Z" fill="#263238"/>
<path d="M294.499 324.25C294.499 324.394 279.499 324.51 260.999 324.51C242.493 324.51 227.496 324.393 227.496 324.25C227.496 324.106 242.493 323.99 260.999 323.99C279.499 323.989 294.499 324.106 294.499 324.25Z" fill="#263238"/>
<path d="M414.684 262.515H226.887C223.293 262.515 220.379 259.601 220.379 256.007V245.042C220.379 241.448 223.293 238.534 226.887 238.534H414.684C418.278 238.534 421.192 241.448 421.192 245.042V256.007C421.192 259.601 418.279 262.515 414.684 262.515Z" fill="#E0E0E0"/>
<path d="M363.559 250.525C363.559 250.669 345.742 250.785 323.768 250.785C301.787 250.785 283.974 250.668 283.974 250.525C283.974 250.381 301.787 250.265 323.768 250.265C345.742 250.264 363.559 250.381 363.559 250.525Z" fill="#263238"/>
<path d="M414.684 116.708H226.887C223.293 116.708 220.379 113.794 220.379 110.2V99.2349C220.379 95.6399 223.293 92.7269 226.887 92.7269H414.684C418.278 92.7269 421.192 95.6409 421.192 99.2349V110.2C421.192 113.794 418.279 116.708 414.684 116.708Z" fill="#E0E0E0"/>
<path d="M363.559 104.717C363.559 104.861 345.742 104.977 323.768 104.977C301.787 104.977 283.974 104.86 283.974 104.717C283.974 104.573 301.787 104.457 323.768 104.457C345.742 104.457 363.559 104.573 363.559 104.717Z" fill="#263238"/>
<path d="M433.389 122.515C433.389 122.659 383.166 122.775 321.227 122.775C259.266 122.775 209.054 122.658 209.054 122.515C209.054 122.371 259.266 122.255 321.227 122.255C383.166 122.254 433.389 122.371 433.389 122.515Z" fill="#EBEBEB"/>
<path d="M433.389 228.602C433.389 228.746 383.166 228.862 321.227 228.862C259.266 228.862 209.054 228.745 209.054 228.602C209.054 228.458 259.266 228.342 321.227 228.342C383.166 228.342 433.389 228.459 433.389 228.602Z" fill="#EBEBEB"/>
<path d="M313.347 168.494H231.041C227.348 168.494 224.353 165.5 224.353 161.806V153.244C224.353 149.551 227.347 146.556 231.041 146.556H313.347C317.041 146.556 320.035 149.55 320.035 153.244V161.806C320.035 165.5 317.041 168.494 313.347 168.494Z" fill="#F5F5F5"/>
<path d="M413.179 168.494H332.996C329.303 168.494 326.308 165.5 326.308 161.806V153.244C326.308 149.551 329.302 146.556 332.996 146.556H413.179C416.873 146.556 419.867 149.55 419.867 153.244V161.806C419.867 165.5 416.873 168.494 413.179 168.494Z" fill="#F5F5F5"/>
<path d="M414.505 213.461H230.589C226.896 213.461 223.901 210.467 223.901 206.773V198.211C223.901 194.518 226.895 191.523 230.589 191.523H414.504C418.197 191.523 421.192 194.517 421.192 198.211V206.773C421.192 210.467 418.198 213.461 414.505 213.461Z" fill="#F5F5F5"/>
<path d="M268.284 137.73C268.284 137.874 259.036 137.99 247.631 137.99C236.222 137.99 226.976 137.873 226.976 137.73C226.976 137.586 236.222 137.47 247.631 137.47C259.037 137.469 268.284 137.586 268.284 137.73Z" fill="#263238"/>
<path d="M366 137.73C366 137.874 358.718 137.99 349.738 137.99C340.755 137.99 333.475 137.873 333.475 137.73C333.475 137.586 340.755 137.47 349.738 137.47C358.718 137.469 366 137.586 366 137.73Z" fill="#263238"/>
<path d="M294.499 182.469C294.499 182.613 279.499 182.729 260.999 182.729C242.493 182.729 227.496 182.612 227.496 182.469C227.496 182.325 242.493 182.209 260.999 182.209C279.499 182.209 294.499 182.326 294.499 182.469Z" fill="#263238"/>
<path d="M414.27 368.573C414.27 368.717 399.639 368.833 381.594 368.833C363.543 368.833 348.915 368.716 348.915 368.573C348.915 368.429 363.543 368.313 381.594 368.313C399.639 368.313 414.27 368.43 414.27 368.573Z" fill="#263238"/>
<path d="M305.335 159.832C305.335 159.832 304.816 160.019 303.787 160.22C302.759 160.408 301.211 160.61 299.218 160.478C297.237 160.33 294.787 159.867 292.241 158.567C291.613 158.227 290.99 157.798 290.466 157.223C289.936 156.658 289.544 155.909 289.398 155.09C289.254 154.28 289.351 153.342 289.913 152.61C290.481 151.885 291.502 151.534 292.441 151.806C292.911 151.94 293.332 152.292 293.552 152.743C293.778 153.19 293.828 153.719 293.741 154.202C293.568 155.178 293.022 156.043 292.358 156.768C291.055 158.241 289.332 159.458 287.34 160.196C285.356 160.936 283.095 161.213 280.861 160.784C279.748 160.561 278.627 160.147 277.693 159.391C276.779 158.652 276.021 157.496 276.152 156.185C276.213 155.553 276.464 154.952 276.842 154.442C277.219 153.938 277.742 153.487 278.418 153.341C279.093 153.168 279.834 153.458 280.289 153.957C280.754 154.468 280.95 155.152 280.96 155.805C280.975 156.463 280.82 157.123 280.499 157.709C280.168 158.304 279.681 158.763 279.141 159.134C278.048 159.875 276.78 160.215 275.562 160.57C273.133 161.26 270.478 162.003 267.779 161.397C266.461 161.084 265.177 160.458 264.198 159.455C263.225 158.47 262.561 157.079 262.646 155.63C262.683 154.743 263.02 153.816 263.729 153.202C264.477 152.583 265.539 152.519 266.369 152.921C266.784 153.121 267.168 153.448 267.366 153.892C267.565 154.332 267.601 154.825 267.485 155.273C267.25 156.186 266.582 156.825 265.923 157.333C263.186 159.231 260.065 160.36 256.922 160.754C255.365 160.949 253.717 160.968 252.234 160.343C250.765 159.725 249.589 158.394 249.352 156.811C249.101 155.221 250.162 153.551 251.736 153.214C252.522 153.054 253.384 153.371 253.87 153.98C254.377 154.574 254.589 155.333 254.62 156.058C254.658 156.789 254.497 157.52 254.163 158.166C253.802 158.802 253.304 159.311 252.742 159.719C251.61 160.53 250.31 160.929 249.073 161.256C246.621 161.908 244.038 162.363 241.752 161.521C240.635 161.102 239.66 160.393 238.971 159.495C238.288 158.597 237.888 157.495 237.985 156.411C238.088 155.34 238.596 154.375 239.32 153.695C240.04 153.015 241.068 152.662 241.989 152.897L242.097 152.925L242.1 153.032C242.169 155.231 241.244 157.098 240.139 158.35C239.038 159.638 237.729 160.359 236.635 160.738C235.524 161.113 234.607 161.114 234.009 161.073C233.412 160.99 233.111 160.904 233.111 160.904C233.098 160.807 234.388 161.343 236.583 160.59C237.645 160.196 238.911 159.471 239.966 158.201C241.026 156.967 241.894 155.147 241.808 153.045L241.919 153.18C241.105 152.983 240.198 153.295 239.536 153.926C238.875 154.556 238.41 155.462 238.324 156.438C238.171 158.437 239.781 160.408 241.885 161.158C244.034 161.939 246.531 161.506 248.962 160.844C250.183 160.517 251.434 160.118 252.479 159.36C252.995 158.985 253.454 158.502 253.764 157.951C254.052 157.388 254.198 156.731 254.16 156.077C254.132 155.429 253.932 154.763 253.515 154.281C253.115 153.786 252.445 153.55 251.824 153.675C250.55 153.94 249.594 155.393 249.83 156.741C250.033 158.114 251.095 159.333 252.424 159.884C253.777 160.453 255.336 160.445 256.857 160.251C259.91 159.868 262.982 158.743 265.609 156.918C266.225 156.449 266.804 155.857 266.978 155.147C267.17 154.436 266.83 153.684 266.141 153.387C265.484 153.062 264.615 153.13 264.065 153.595C263.496 154.088 263.196 154.867 263.164 155.655C263.088 156.936 263.676 158.182 264.567 159.089C265.46 160.008 266.658 160.597 267.894 160.891C270.413 161.464 272.996 160.768 275.418 160.078C276.64 159.726 277.859 159.391 278.854 158.716C279.344 158.384 279.786 157.958 280.058 157.465C280.333 156.965 280.474 156.382 280.46 155.814C280.454 155.248 280.28 154.682 279.922 154.289C279.564 153.903 279.022 153.687 278.518 153.818C277.487 154.064 276.738 155.185 276.627 156.234C276.506 157.305 277.155 158.356 277.987 159.026C278.834 159.719 279.891 160.119 280.946 160.333C283.085 160.752 285.268 160.496 287.188 159.789C289.115 159.085 290.788 157.916 292.056 156.498C292.697 155.811 293.202 154.997 293.359 154.136C293.537 153.292 293.129 152.369 292.331 152.155C291.563 151.921 290.659 152.218 290.188 152.824C289.702 153.442 289.597 154.285 289.724 155.031C289.972 156.584 291.184 157.659 292.381 158.309C294.856 159.605 297.28 160.098 299.234 160.274C301.204 160.436 302.743 160.268 303.77 160.114C304.284 160.028 304.675 159.958 304.936 159.899C305.197 159.846 305.333 159.823 305.335 159.832Z" fill="#FF725E"/>
<path d="M403.169 158.639C403.169 158.639 402.769 158.921 401.912 159.264C401.06 159.606 399.738 160.028 397.974 160.09C396.228 160.149 394.011 159.848 391.795 158.646C390.709 158.045 389.549 157.259 388.787 156.003C388.422 155.377 388.163 154.632 388.247 153.83C388.345 153.05 388.73 152.277 389.408 151.768C389.745 151.519 390.175 151.351 390.626 151.365C391.076 151.373 391.51 151.577 391.839 151.881C392.484 152.511 392.753 153.444 392.649 154.345C392.526 155.256 392.025 156.069 391.394 156.724C390.757 157.383 390.005 157.917 389.206 158.394C387.599 159.337 385.727 159.973 383.743 160.142C381.777 160.296 379.64 160.082 377.77 159.027C376.846 158.51 375.991 157.769 375.455 156.787C375.191 156.296 374.989 155.776 374.925 155.192C374.874 154.616 374.97 154.037 375.171 153.502C375.574 152.443 376.387 151.474 377.553 151.099C378.13 150.916 378.81 150.967 379.35 151.279C379.905 151.565 380.304 152.078 380.554 152.625C381.041 153.733 380.969 155.052 380.422 156.127C379.889 157.214 379 158.063 378.041 158.748C376.102 160.112 373.752 160.923 371.329 161.068C368.905 161.206 366.478 160.678 364.384 159.575C363.341 159.021 362.363 158.341 361.56 157.47C360.766 156.611 360.146 155.488 360.159 154.258C360.199 153.032 360.928 151.867 362.085 151.407C362.661 151.175 363.377 151.264 363.881 151.622C364.396 151.977 364.712 152.525 364.873 153.081C365.22 154.219 364.836 155.439 364.199 156.316C363.563 157.224 362.733 157.907 361.897 158.534C358.5 161.028 354.233 161.784 350.6 160.95C348.793 160.535 347.061 159.664 346.019 158.206C345.501 157.498 345.172 156.63 345.17 155.774C345.146 154.92 345.371 154.092 345.773 153.381C346.184 152.68 346.832 152.098 347.62 151.909C348.403 151.713 349.22 151.949 349.807 152.397C350.976 153.32 351.465 154.792 351.282 156.064C351.091 157.348 350.334 158.364 349.516 159.055C348.682 159.75 347.759 160.164 346.904 160.38C345.18 160.798 343.797 160.677 342.886 160.631C342.45 160.593 342.106 160.562 341.844 160.539C341.61 160.513 341.49 160.495 341.491 160.486C341.492 160.477 341.613 160.477 341.848 160.486C342.11 160.496 342.455 160.509 342.891 160.526C343.8 160.539 345.178 160.623 346.851 160.184C347.679 159.959 348.563 159.544 349.354 158.866C350.13 158.192 350.83 157.216 350.993 156.022C351.154 154.858 350.671 153.478 349.609 152.662C349.077 152.267 348.376 152.076 347.703 152.249C347.031 152.415 346.463 152.924 346.091 153.566C345.352 154.859 345.323 156.661 346.345 157.971C347.311 159.31 348.955 160.139 350.696 160.528C354.209 161.316 358.342 160.566 361.614 158.146C362.42 157.539 363.222 156.868 363.798 156.036C364.382 155.216 364.692 154.183 364.396 153.217C364.259 152.744 363.992 152.301 363.6 152.034C363.21 151.766 362.708 151.701 362.259 151.879C361.35 152.226 360.685 153.259 360.67 154.264C360.659 155.307 361.198 156.321 361.941 157.12C362.687 157.929 363.627 158.585 364.628 159.114C366.636 160.169 368.969 160.678 371.3 160.545C373.63 160.405 375.885 159.626 377.741 158.323C378.659 157.669 379.483 156.872 379.961 155.897C380.453 154.94 380.504 153.785 380.089 152.83C379.696 151.872 378.654 151.254 377.697 151.581C376.744 151.877 375.987 152.739 375.636 153.677C375.458 154.149 375.375 154.653 375.416 155.143C375.466 155.624 375.649 156.116 375.884 156.551C376.362 157.433 377.141 158.121 378.007 158.609C379.753 159.605 381.804 159.826 383.705 159.685C385.618 159.53 387.43 158.925 388.987 158.021C389.762 157.565 390.496 157.047 391.093 156.434C391.688 155.826 392.139 155.082 392.25 154.294C392.35 153.515 392.103 152.678 391.574 152.161C391.041 151.626 390.194 151.619 389.626 152.065C389.044 152.49 388.683 153.187 388.595 153.871C388.514 154.556 388.738 155.257 389.073 155.835C389.769 157.012 390.881 157.794 391.936 158.391C394.084 159.587 396.251 159.916 397.969 159.888C399.704 159.859 401.018 159.474 401.874 159.167C402.736 158.858 403.152 158.607 403.169 158.639Z" fill="#FF725E"/>
<path d="M310.204 202.808C310.208 202.816 310.078 202.882 309.82 203.002C309.539 203.129 309.159 203.302 308.672 203.523C307.659 203.971 306.161 204.627 304.188 205.368C302.214 206.095 299.744 206.905 296.768 207.343C295.283 207.562 293.674 207.672 291.97 207.634C290.279 207.579 288.439 207.509 286.63 206.827C284.838 206.185 283.121 204.698 282.574 202.602C282.297 201.579 282.376 200.384 282.967 199.413C283.524 198.455 284.513 197.641 285.731 197.55C286.963 197.455 288.107 198.318 288.601 199.403C289.134 200.48 289.25 201.779 288.854 202.96C288.471 204.134 287.688 205.151 286.76 205.965C285.828 206.787 284.757 207.444 283.619 207.99C281.36 209.06 278.634 209.65 276.027 208.877C273.432 208.12 271.297 205.833 270.752 203.063C270.631 202.369 270.62 201.651 270.738 200.946C270.833 200.241 271.139 199.531 271.598 198.965C272.051 198.405 272.699 197.888 273.524 197.854C274.342 197.821 275.116 198.396 275.371 199.144C275.866 200.63 275.369 202.163 274.633 203.395C273.894 204.638 272.957 205.778 271.83 206.716C269.603 208.617 266.687 209.672 263.825 209.561C260.971 209.474 258.187 208.392 256.159 206.475C255.172 205.508 254.362 204.288 254.128 202.898C254.017 202.217 254.013 201.485 254.262 200.815C254.503 200.152 254.916 199.569 255.434 199.111C255.948 198.651 256.595 198.324 257.297 198.235C258.002 198.122 258.743 198.388 259.266 198.85C260.307 199.834 260.491 201.345 260.161 202.597C259.809 203.871 258.976 204.899 258.087 205.739C257.182 206.574 256.209 207.305 255.179 207.911C253.121 209.126 250.872 209.861 248.648 210.13C246.425 210.389 244.217 210.233 242.231 209.554C241.244 209.206 240.32 208.687 239.591 207.973C238.85 207.273 238.353 206.341 238.161 205.39C237.961 204.44 238.022 203.44 238.421 202.582C238.805 201.727 239.616 201.056 240.521 200.946C241.411 200.811 242.306 201.081 242.961 201.615C243.623 202.158 243.909 203.072 243.737 203.842C243.588 204.629 243.102 205.256 242.582 205.731C242.055 206.212 241.467 206.563 240.889 206.854C239.73 207.418 238.622 207.825 237.604 208.109C235.566 208.685 233.913 208.802 232.806 208.822C231.695 208.835 231.116 208.75 231.116 208.75C231.117 208.741 231.262 208.738 231.546 208.741C231.829 208.743 232.251 208.743 232.803 208.717C233.903 208.663 235.54 208.514 237.548 207.914C238.551 207.618 239.642 207.201 240.778 206.631C241.337 206.342 241.904 205.994 242.399 205.531C242.89 205.074 243.326 204.488 243.45 203.788C243.592 203.09 243.342 202.332 242.76 201.852C242.18 201.385 241.361 201.143 240.572 201.272C239.773 201.38 239.091 201.95 238.738 202.73C238.384 203.505 238.329 204.429 238.521 205.312C238.86 207.136 240.472 208.55 242.365 209.175C244.271 209.817 246.437 209.963 248.596 209.701C250.76 209.43 252.948 208.706 254.946 207.517C255.945 206.925 256.891 206.209 257.764 205.399C258.621 204.586 259.387 203.617 259.698 202.471C259.996 201.36 259.797 200.003 258.939 199.213C258.074 198.387 256.648 198.655 255.762 199.485C255.307 199.889 254.942 200.407 254.735 200.982C254.522 201.552 254.525 202.191 254.626 202.812C254.835 204.061 255.582 205.198 256.515 206.109C258.428 207.917 261.114 208.967 263.841 209.043C266.579 209.146 269.355 208.142 271.496 206.317C272.577 205.418 273.477 204.323 274.186 203.132C274.542 202.528 274.823 201.925 274.953 201.258C275.093 200.607 275.108 199.915 274.891 199.332C274.692 198.748 274.124 198.353 273.542 198.371C272.954 198.386 272.396 198.795 272.002 199.288C271.171 200.289 271.057 201.709 271.257 202.971C271.752 205.531 273.763 207.701 276.171 208.4C278.614 209.132 281.226 208.587 283.417 207.556C285.589 206.511 287.684 204.993 288.423 202.815C288.785 201.758 288.683 200.57 288.206 199.6C287.757 198.619 286.787 197.907 285.761 197.98C284.738 198.046 283.835 198.758 283.33 199.623C282.796 200.491 282.718 201.549 282.967 202.502C283.464 204.442 285.052 205.857 286.765 206.482C288.494 207.148 290.303 207.235 291.981 207.301C293.666 207.352 295.258 207.257 296.731 207.053C299.68 206.647 302.144 205.871 304.122 205.176C306.099 204.466 307.608 203.841 308.634 203.424C309.13 203.223 309.517 203.067 309.802 202.951C310.063 202.849 310.2 202.8 310.204 202.808Z" fill="#FF725E"/>
<path d="M405.039 422.83C405.039 422.83 382.028 396.346 373.344 369.861C364.661 343.377 368.785 346.416 368.785 346.416C368.785 346.416 380.508 372.143 389.408 384.57C398.309 396.997 414.156 415.232 414.156 415.232L405.039 422.83Z" fill="#455A64"/>
<path d="M409.625 350.542C408.883 349.249 406.907 349.921 407.129 351.395C408.532 360.698 411.564 382.529 411.445 396.688C411.29 415.082 411.451 422.192 411.451 422.192H421.029C421.029 422.192 419.329 384.168 417.165 372.575C415.647 364.446 412.427 355.422 409.625 350.542Z" fill="#455A64"/>
<path d="M414.846 419.1C414.846 419.1 420.874 406.425 422.729 390.505C423.518 383.734 422.111 374.584 420.018 362.373C419.004 356.458 418.775 351.958 418.807 348.837C418.832 346.479 421.944 345.708 423.097 347.765C424.253 349.828 427.598 356.874 428.448 361.291C430.766 373.348 433.394 379.376 431.385 390.814C429.376 402.252 421.956 419.873 421.956 419.873L414.846 419.1Z" fill="#455A64"/>
<path d="M423.473 419.874C423.473 419.874 448.738 365.578 450.489 357.523C452.24 349.468 458.194 330.906 458.894 331.957C459.595 333.008 460.645 342.814 456.092 354.021C451.539 365.228 432.099 421.528 432.099 421.528H423.472" fill="#455A64"/>
<path d="M412.08 417.444C412.069 417.459 411.825 417.291 411.372 416.958C410.924 416.618 410.243 416.14 409.415 415.464C407.733 414.143 405.373 412.133 402.625 409.47C397.11 404.174 390.246 396.007 384.295 385.944C378.332 375.883 374.321 366.043 371.783 358.841C370.512 355.235 369.585 352.283 368.984 350.232C368.675 349.209 368.463 348.407 368.313 347.864C368.167 347.321 368.099 347.033 368.117 347.028C368.135 347.023 368.238 347.3 368.417 347.833C368.608 348.414 368.863 349.192 369.184 350.169C369.846 352.199 370.827 355.128 372.142 358.711C374.767 365.867 378.82 375.649 384.759 385.668C390.685 395.689 397.466 403.85 402.892 409.197C405.596 411.885 407.91 413.932 409.547 415.3C410.353 416 411.012 416.503 411.438 416.871C411.87 417.233 412.091 417.429 412.08 417.444Z" fill="#263238"/>
<path d="M414.844 391.397C414.807 391.4 414.728 390.832 414.617 389.804C414.497 388.68 414.34 387.215 414.151 385.452C413.751 381.779 413.127 376.713 412.234 371.148C411.337 365.582 410.342 360.575 409.571 356.962C409.197 355.228 408.887 353.789 408.649 352.683C408.432 351.672 408.329 351.108 408.365 351.099C408.401 351.09 408.573 351.636 408.853 352.632C409.136 353.628 409.51 355.078 409.943 356.877C410.811 360.475 411.868 365.483 412.767 371.062C413.662 376.64 414.227 381.726 414.531 385.415C414.684 387.259 414.783 388.754 414.826 389.788C414.873 390.822 414.881 391.394 414.844 391.397Z" fill="#263238"/>
<path d="M420.762 347.34C420.779 347.333 420.882 347.571 421.06 348.03C421.252 348.541 421.503 349.211 421.817 350.047C422.151 350.922 422.536 352.001 422.901 353.28C423.277 354.555 423.764 355.992 424.129 357.627C424.329 358.442 424.537 359.294 424.755 360.18C424.967 361.069 425.117 362.009 425.311 362.975C425.723 364.903 425.979 366.993 426.285 369.187C426.779 373.589 427.049 378.462 426.888 383.576C426.682 388.69 426.064 393.533 425.256 397.888C424.793 400.055 424.389 402.121 423.839 404.015C423.577 404.964 423.36 405.891 423.084 406.763C422.804 407.632 422.535 408.467 422.277 409.265C421.795 410.87 421.207 412.268 420.741 413.513C420.285 414.762 419.824 415.811 419.428 416.659C419.055 417.47 418.756 418.12 418.528 418.616C418.317 419.061 418.198 419.29 418.181 419.283C418.164 419.275 418.25 419.03 418.429 418.572C418.633 418.067 418.9 417.404 419.234 416.577C419.599 415.718 420.03 414.661 420.458 413.405C420.896 412.154 421.457 410.752 421.913 409.146C422.159 408.348 422.416 407.513 422.683 406.645C422.947 405.774 423.153 404.849 423.404 403.902C423.932 402.013 424.318 399.953 424.765 397.795C425.542 393.457 426.141 388.641 426.346 383.556C426.505 378.471 426.252 373.625 425.788 369.244C425.496 367.06 425.259 364.978 424.868 363.056C424.685 362.093 424.546 361.155 424.345 360.268C424.14 359.383 423.944 358.532 423.756 357.718C423.416 356.084 422.956 354.645 422.609 353.366C422.272 352.083 421.918 350.998 421.615 350.115C421.341 349.267 421.122 348.586 420.954 348.068C420.813 347.597 420.745 347.346 420.762 347.34Z" fill="#263238"/>
<path d="M458.605 333.048C458.614 333.05 458.607 333.132 458.585 333.291C458.555 333.482 458.518 333.714 458.473 333.997C458.362 334.615 458.222 335.532 457.975 336.699C457.487 339.035 456.675 342.396 455.41 346.474C454.152 350.553 452.426 355.336 450.379 360.589C448.341 365.846 445.972 371.572 443.729 377.669C441.451 383.755 439.697 389.696 438.048 395.086C436.414 400.481 434.864 405.323 433.366 409.321C431.883 413.324 430.455 416.477 429.377 418.606C428.86 419.682 428.394 420.484 428.094 421.036C427.952 421.285 427.836 421.489 427.741 421.657C427.659 421.795 427.613 421.864 427.604 421.86C427.596 421.855 427.626 421.778 427.692 421.631C427.775 421.457 427.875 421.245 427.998 420.986C428.266 420.419 428.701 419.603 429.188 418.516C430.205 416.364 431.575 413.2 433.008 409.191C434.456 405.187 435.965 400.346 437.572 394.944C439.194 389.549 440.939 383.588 443.222 377.484C445.47 371.373 447.854 365.651 449.916 360.409C451.986 355.171 453.745 350.413 455.046 346.36C456.353 342.309 457.22 338.972 457.77 336.655C458.048 335.497 458.221 334.588 458.366 333.978C458.432 333.699 458.486 333.471 458.53 333.283C458.571 333.125 458.596 333.046 458.605 333.048Z" fill="#263238"/>
<path d="M380.697 321.055C379.105 319.473 376.457 321.128 377.116 323.273C377.784 325.448 378.796 328.262 380.291 331.437C383.764 338.818 393.967 365.302 398.743 379.847C403.519 394.392 410.249 421.527 410.249 421.527L420.448 419.873C420.448 419.873 411.117 375.288 402 359.223C394.674 346.316 387.348 327.663 380.697 321.055Z" fill="#455A64"/>
<path d="M401.535 388.944C401.57 388.932 401.755 389.367 402.061 390.166C402.363 390.966 402.774 392.134 403.237 393.59C404.176 396.499 405.326 400.563 406.484 405.077C407.639 409.594 408.601 413.702 409.272 416.68C409.578 418.089 409.835 419.273 410.039 420.214C410.209 421.051 410.286 421.518 410.25 421.527C410.214 421.536 410.068 421.086 409.835 420.263C409.586 419.333 409.273 418.163 408.901 416.769C408.121 413.701 407.095 409.669 405.961 405.21C404.804 400.701 403.715 396.63 402.872 393.7C402.469 392.317 402.131 391.155 401.862 390.232C401.618 389.415 401.499 388.956 401.535 388.944Z" fill="#263238"/>
<path d="M415.372 420.7C415.363 420.701 415.343 420.609 415.314 420.428C415.283 420.216 415.245 419.952 415.198 419.625C415.091 418.92 414.996 417.873 414.78 416.537C414.406 413.858 413.737 409.997 412.642 405.287C411.553 400.576 409.965 395.034 407.868 388.994C405.776 382.952 403.152 376.423 400.179 369.666C394.179 356.169 388.185 344.197 384.247 335.344C382.256 330.928 380.715 327.323 379.7 324.811C379.182 323.56 378.812 322.575 378.553 321.91C378.438 321.6 378.345 321.35 378.27 321.15C378.209 320.978 378.182 320.888 378.191 320.884C378.2 320.881 378.244 320.964 378.321 321.129C378.409 321.324 378.518 321.568 378.654 321.869C378.954 322.561 379.368 323.517 379.894 324.729C380.968 327.214 382.561 330.792 384.595 335.185C388.619 343.99 394.665 355.93 400.674 369.448C403.652 376.215 406.268 382.764 408.339 388.831C410.416 394.896 411.971 400.466 413.015 405.201C414.066 409.935 414.679 413.816 414.989 416.508C415.173 417.851 415.235 418.903 415.307 419.613C415.332 419.943 415.353 420.209 415.369 420.422C415.381 420.605 415.382 420.699 415.372 420.7Z" fill="#263238"/>
<path d="M420.448 419.874C420.411 419.879 420.29 419.268 420.104 418.16C419.901 416.962 419.634 415.382 419.31 413.471C418.607 409.52 417.534 404.077 415.991 398.154C414.464 392.224 412.743 386.95 411.419 383.161C410.769 381.335 410.231 379.826 409.824 378.682C409.442 377.626 409.247 377.035 409.282 377.021C409.317 377.007 409.578 377.572 410.02 378.606C410.459 379.641 411.074 381.148 411.778 383.032C413.196 386.795 414.981 392.069 416.513 398.019C418.061 403.962 419.078 409.435 419.686 413.41C419.976 415.4 420.199 417.012 420.312 418.132C420.434 419.249 420.485 419.869 420.448 419.874Z" fill="#263238"/>
<path d="M441.38 418.408H401.572V466.91H441.38V418.408Z" fill="#FF725E"/>
<g opacity="0.3">
<path d="M441.38 418.408H401.572V466.91H441.38V418.408Z" fill="black"/>
</g>
<path d="M428.681 418.408H393.363V466.91H428.681V418.408Z" fill="#FF725E"/>
<path d="M105.183 161.261L104.051 252.377C103.858 267.872 106.742 290.673 131.254 289.86C152.468 287.551 158.096 267.468 158.261 253.008C158.339 246.149 158.419 240.429 158.473 239.725C158.473 239.725 181.695 237.831 183.656 214.894C184.603 203.81 184.695 180.82 184.537 160.022C184.368 137.684 167.046 119.233 144.768 117.606L142.553 117.444C118.564 117.095 104.868 137.273 105.183 161.261Z" fill="#FFBE9D"/>
<path d="M158.472 239.726C158.472 239.726 143.939 239.518 129.226 228.706C129.226 228.706 135.293 246.007 158.352 245.612L158.472 239.726Z" fill="#EB996E"/>
<path d="M145.322 169.422C144.866 169.886 142.218 167.754 138.374 167.651C134.537 167.491 131.662 169.433 131.258 168.939C131.059 168.719 131.534 167.871 132.786 166.991C134.02 166.114 136.106 165.288 138.499 165.37C140.892 165.455 142.88 166.417 144.012 167.376C145.169 168.34 145.545 169.215 145.322 169.422Z" fill="#263238"/>
<path d="M145.206 177.371C145.144 179.013 143.703 180.314 141.987 180.282C140.275 180.249 138.933 178.894 138.995 177.252C139.056 175.611 140.498 174.307 142.211 174.339C143.927 174.372 145.268 175.729 145.206 177.371Z" fill="#263238"/>
<path d="M154.948 196.154C154.946 195.952 157.167 195.733 160.753 195.539C161.661 195.512 162.526 195.395 162.723 194.792C162.983 194.157 162.677 193.158 162.317 192.078C161.629 189.836 160.91 187.486 160.154 185.023C157.167 174.986 155.076 166.76 155.481 166.643C155.887 166.526 158.636 174.567 161.622 184.604C162.337 187.077 163.021 189.436 163.671 191.691C163.937 192.74 164.438 193.944 163.88 195.261C163.588 195.916 162.892 196.356 162.303 196.469C161.712 196.603 161.205 196.576 160.757 196.57C157.166 196.501 154.947 196.356 154.948 196.154Z" fill="#263238"/>
<path d="M143.687 154.973C143.316 155.826 140.239 155.184 136.555 155.373C132.867 155.484 129.843 156.375 129.416 155.555C129.227 155.163 129.801 154.378 131.053 153.618C132.295 152.859 134.236 152.193 136.446 152.1C138.655 152.013 140.636 152.519 141.925 153.175C143.224 153.832 143.849 154.568 143.687 154.973Z" fill="#263238"/>
<path d="M180.184 162.095C179.781 162.79 176.782 162.019 173.148 161.906C169.514 161.728 166.498 162.259 166.114 161.533C165.946 161.187 166.545 160.564 167.812 160.012C169.067 159.46 171.008 159.039 173.187 159.124C175.365 159.213 177.292 159.789 178.531 160.44C179.78 161.092 180.362 161.762 180.184 162.095Z" fill="#263238"/>
<path d="M105.816 178.397C105.437 178.199 90.382 172.58 89.738 188.311C89.093 204.043 105.02 201.445 105.066 200.995C105.112 200.545 105.816 178.397 105.816 178.397Z" fill="#FFBE9D"/>
<path d="M100.505 194.838C100.438 194.785 100.223 195.019 99.751 195.212C99.291 195.4 98.508 195.511 97.7 195.17C96.063 194.492 94.772 191.796 94.812 188.957C94.831 187.524 95.187 186.172 95.74 185.065C96.268 183.934 97.045 183.16 97.888 183.046C98.728 182.888 99.3 183.413 99.474 183.863C99.667 184.312 99.554 184.621 99.636 184.652C99.679 184.693 99.985 184.402 99.884 183.747C99.832 183.432 99.663 183.053 99.306 182.736C98.941 182.414 98.392 182.234 97.807 182.274C96.59 182.308 95.453 183.38 94.844 184.596C94.169 185.815 93.735 187.332 93.714 188.942C93.685 192.116 95.187 195.149 97.434 195.9C98.529 196.234 99.466 195.938 99.957 195.586C100.461 195.218 100.558 194.869 100.505 194.838Z" fill="#EB996E"/>
<path d="M151.236 207.047C151.408 206.65 148.325 205.727 146.159 202.835C145.076 201.412 144.451 199.86 143.982 198.727C143.523 197.585 143.175 196.868 143.005 196.921C142.845 196.971 142.884 197.744 143.137 198.987C143.4 200.216 143.936 201.972 145.162 203.589C146.37 205.222 147.99 206.197 149.18 206.665C150.382 207.151 151.194 207.181 151.236 207.047Z" fill="#263238"/>
<path d="M180.355 170.87C179.899 171.334 177.251 169.202 173.407 169.099C169.57 168.939 166.695 170.881 166.291 170.387C166.092 170.167 166.566 169.319 167.819 168.439C169.053 167.562 171.139 166.737 173.532 166.818C175.925 166.903 177.913 167.865 179.045 168.824C180.203 169.787 180.579 170.663 180.355 170.87Z" fill="#263238"/>
<path d="M179.725 178.487C179.663 180.129 178.222 181.43 176.506 181.397C174.794 181.364 173.452 180.009 173.514 178.367C173.575 176.726 175.017 175.422 176.73 175.454C178.446 175.488 179.787 176.845 179.725 178.487Z" fill="#263238"/>
<path d="M200.538 129.563C197.585 124.4 190.441 122.139 185.055 124.664C186.47 117.441 182.576 109.507 175.996 106.209C169.416 102.911 160.729 104.538 155.788 109.993C155.478 108.037 154.099 106.363 152.404 105.338C150.71 104.313 148.725 103.867 146.757 103.653C140.631 102.987 134.291 104.484 129.11 107.821C126.395 109.569 124.02 111.825 122.086 114.411C112.989 113.341 103.341 116.671 97.176 123.5C89.785 131.686 88.393 150.658 96.487 167.046L98.393 177.321C100.931 177.314 103.254 177.495 104.818 178.902C106.944 180.814 107.895 184.411 111.428 183.045C113.226 182.35 114.867 178.577 115.469 176.746C119.463 164.589 120.788 151.566 119.346 138.853C121.86 136.173 124.895 133.982 128.231 132.44L127.959 132.685C134.369 130.458 141.62 128.268 147.703 131.278C152.421 133.613 155.194 138.508 158.721 142.415C165.406 149.819 174.423 153.842 184.389 154.271C184.728 160.73 184.186 169.859 184.524 176.317L189.957 165.971L189.962 166.022C190.407 165.265 190.775 164.501 191.131 163.736L191.253 163.504V163.475C191.254 163.472 191.255 163.47 191.257 163.467C192.251 162.66 193.004 161.181 194.683 159.258C197.928 155.541 198.827 149.937 196.909 145.392C201.816 142.03 203.491 134.727 200.538 129.563Z" fill="#263238"/>
<path d="M193.132 159.855C193.125 159.849 193.118 159.843 193.111 159.837L193.132 159.855Z" fill="#263238"/>
<path d="M191.134 129.8C191.15 129.796 191.189 129.911 191.249 130.138C191.313 130.363 191.372 130.707 191.393 131.156C191.439 132.043 191.293 133.406 190.477 134.843C190.069 135.554 189.493 136.272 188.72 136.878C187.944 137.471 186.956 137.938 185.852 138.101C183.676 138.458 180.98 137.721 179.294 135.632L179.684 135.297C180.429 136.095 180.837 137.242 180.792 138.382C180.751 139.913 180.085 141.357 179.034 142.346C177.963 143.329 176.6 143.8 175.314 143.929C172.699 144.184 170.43 143.206 168.847 142.15C167.238 141.078 166.138 139.971 165.39 139.212C164.647 138.444 164.265 137.994 164.289 137.97C164.316 137.943 164.748 138.346 165.531 139.066C166.318 139.777 167.45 140.834 169.045 141.839C170.617 142.833 172.803 143.717 175.263 143.451C176.467 143.319 177.73 142.862 178.686 141.973C179.628 141.081 180.238 139.75 180.273 138.37C180.312 137.34 179.95 136.345 179.31 135.649L179.7 135.314C181.233 137.235 183.75 137.96 185.785 137.651C187.878 137.371 189.394 135.998 190.184 134.67C191.001 133.323 191.197 132.022 191.208 131.159C191.215 130.285 191.087 129.81 191.134 129.8Z" fill="#455A64"/>
<path d="M171.449 112.56C171.458 112.545 171.574 112.596 171.787 112.71C171.997 112.83 172.303 113.016 172.664 113.302C173.377 113.867 174.387 114.827 175.037 116.383C175.694 117.9 175.778 120.157 174.497 122.051C173.873 122.979 172.855 123.769 171.63 124.019C170.426 124.272 169.057 124.079 167.964 123.308C167.62 123.061 167.328 122.754 167.092 122.44L167.542 122.186C168.044 123.362 167.909 124.673 167.424 125.721C166.948 126.785 166.085 127.609 165.135 128.065C163.202 128.994 161.168 128.691 159.776 128.054C158.354 127.406 157.449 126.508 156.889 125.876C156.33 125.232 156.101 124.82 156.124 124.805C156.157 124.78 156.439 125.152 157.032 125.743C157.624 126.323 158.545 127.152 159.918 127.727C161.257 128.293 163.174 128.521 164.926 127.645C165.787 127.213 166.541 126.476 166.966 125.513C167.396 124.565 167.5 123.403 167.065 122.392L166.234 120.461L167.515 122.137C167.72 122.405 167.97 122.67 168.268 122.885C169.216 123.556 170.447 123.741 171.525 123.519C172.616 123.302 173.518 122.618 174.103 121.777C175.294 120.061 175.274 117.967 174.695 116.518C174.125 115.029 173.193 114.056 172.535 113.458C171.864 112.854 171.424 112.6 171.449 112.56Z" fill="#455A64"/>
<path d="M304.949 227.255L268.652 254.972C266.496 256.619 266.177 259.744 267.957 261.792C269.594 263.676 272.419 263.952 274.39 262.421L310.388 234.447L315.259 224.843L304.949 227.255Z" fill="#FF725E"/>
<path opacity="0.5" d="M310.595 225.934L313.169 228.93L310.388 234.446C310.388 234.446 307.723 234.581 307.967 231.936C307.967 231.936 305.263 232.216 305.771 229.417C305.771 229.417 303.884 229.248 304.948 227.255L310.595 225.934Z" fill="white"/>
<path d="M268.652 254.973L274.609 262.25L276.609 260.697L270.896 253.259L268.652 254.973Z" fill="#263238"/>
<path d="M265.975 324.457L264.67 324.223L291.412 277.477L287.185 264.001C287.185 264.001 282.285 244.808 286.368 239.908C286.368 239.908 295.3 229.395 298.198 229.54C301.096 229.685 303.414 230.264 303.993 232.438C303.993 232.438 308.919 231.859 310.223 233.452C311.527 235.046 312.541 236.929 312.541 236.929C312.541 236.929 317.902 236.494 319.35 241.131C319.35 241.131 324.421 243.739 324.855 247.506C325.29 251.273 323.841 268.803 322.247 273.295C320.653 277.786 314.713 287.203 312.975 301.112C311.237 315.02 305.109 324.048 299.663 344.376L284.869 350.226L265.975 324.457Z" fill="#FFBE9D"/>
<path d="M303.739 232.142C303.848 232.294 302.007 233.51 300.618 235.756C299.196 237.981 298.898 240.168 298.713 240.136C298.562 240.154 298.596 237.802 300.103 235.433C301.585 233.048 303.689 231.997 303.739 232.142Z" fill="#EB996E"/>
<path d="M312.252 236.922C312.352 237.078 310.595 238.138 309.197 240.157C307.769 242.156 307.367 244.167 307.186 244.126C307.033 244.133 307.181 241.944 308.699 239.807C310.197 237.656 312.207 236.775 312.252 236.922Z" fill="#EB996E"/>
<path d="M319.066 240.984C319.179 241.124 317.847 242.288 316.626 244.055C315.388 245.81 314.754 247.462 314.584 247.404C314.432 247.37 314.829 245.554 316.128 243.707C317.413 241.852 318.981 240.853 319.066 240.984Z" fill="#EB996E"/>
<path d="M293.954 242.521C293.859 242.669 292.654 241.877 290.986 242.013C289.314 242.103 288.227 243.051 288.113 242.917C288.06 242.866 288.255 242.539 288.741 242.179C289.221 241.819 290.016 241.471 290.944 241.407C291.872 241.346 292.707 241.583 293.231 241.875C293.762 242.166 293.999 242.463 293.954 242.521Z" fill="#EB996E"/>
<path d="M304.617 249.189C304.449 249.25 303.947 247.689 302.41 246.546C300.901 245.366 299.263 245.296 299.277 245.117C299.275 245.043 299.689 244.947 300.362 245.033C301.031 245.116 301.947 245.431 302.778 246.062C303.606 246.696 304.153 247.496 304.41 248.119C304.672 248.747 304.688 249.171 304.617 249.189Z" fill="#EB996E"/>
<path d="M315.207 251.451C315.077 251.577 313.914 250.258 311.919 249.742C309.936 249.18 308.266 249.732 308.218 249.557C308.191 249.489 308.572 249.245 309.276 249.077C309.975 248.908 311.004 248.866 312.078 249.154C313.151 249.447 314.018 250.002 314.536 250.501C315.059 251.002 315.265 251.405 315.207 251.451Z" fill="#EB996E"/>
<path d="M45.408 302.438C45.408 302.438 29.02 395.522 29.811 404.225C30.602 412.929 34.961 426.775 44.848 429.149C54.735 431.523 63.834 429.149 63.834 429.149L51.966 314.816L45.408 302.438Z" fill="#FF725E"/>
<path d="M93.396 254.425C93.396 254.425 73.782 268.367 69.447 272.468C51.314 289.618 47.519 296.636 45.409 302.438C43.299 308.24 57.997 443.01 57.997 443.01L60.975 466.556L198.642 466.911V346.608L177.959 261.944L165.232 258.322L162.663 248.23C162.663 248.23 146.85 236.554 120.768 236.218C112.744 236.114 101.395 239.267 95.054 244.186L93.396 254.425Z" fill="#FF725E"/>
<path d="M162.561 262.292C162.561 262.292 176.709 261.655 177.959 261.944C182.319 262.95 194.295 273.928 207.934 287.456C220.946 300.362 246.549 327.214 246.549 327.214C246.549 327.214 251.151 322.568 256.399 328.769L276.61 299.368C276.61 299.368 306.947 303.094 311.717 325.992C311.717 325.992 302.419 343.745 294.803 356.438C294.803 356.438 266.608 403.226 244.338 394.754C223.996 387.015 198.488 366.319 194.897 361.897L164.947 340.526C164.947 340.526 144.434 301.409 153.498 281.851C162.561 262.292 162.561 262.292 162.561 262.292Z" fill="#FF725E"/>
<path d="M165.231 258.322C165.225 258.342 164.975 258.29 164.505 258.173C163.976 258.034 163.299 257.855 162.462 257.634C160.686 257.182 158.105 256.563 154.884 255.955C148.452 254.689 139.457 253.493 129.476 252.822C119.489 252.214 110.409 252.27 103.886 252.898C100.622 253.178 97.999 253.585 96.198 253.912C95.35 254.08 94.664 254.215 94.127 254.322C93.651 254.409 93.399 254.445 93.393 254.425C93.388 254.405 93.63 254.329 94.097 254.203C94.629 254.068 95.309 253.895 96.15 253.681C97.944 253.281 100.571 252.807 103.843 252.471C110.385 251.731 119.498 251.606 129.513 252.216C139.522 252.889 148.536 254.155 154.967 255.534C158.187 256.198 160.762 256.884 162.524 257.407C163.349 257.673 164.017 257.888 164.539 258.057C165.001 258.211 165.238 258.302 165.231 258.322Z" fill="#263238"/>
<path d="M111.609 251.318C111.443 251.341 110.985 249.037 110.587 246.172C110.189 243.306 110.001 240.965 110.167 240.942C110.333 240.919 110.791 243.223 111.189 246.088C111.588 248.954 111.776 251.295 111.609 251.318Z" fill="#263238"/>
<path d="M116.75 250.877C116.605 250.932 115.734 248.676 115.538 245.728C115.325 242.78 115.876 240.426 116.027 240.46C116.206 240.486 115.936 242.82 116.144 245.686C116.334 248.552 116.924 250.827 116.75 250.877Z" fill="#263238"/>
<g opacity="0.3">
<path d="M93.849 254.307C115.394 258.12 137.233 254.342 160.033 257.04C138.017 252.483 115.091 250.323 93.849 254.307Z" fill="black"/>
</g>
<g opacity="0.3">
<path d="M56.042 429.326C43.923 400.944 45.357 368.863 47.001 338.046L56.042 429.326Z" fill="black"/>
</g>
<path d="M45.408 322.731C45.418 322.73 45.44 322.851 45.472 323.089C45.505 323.36 45.547 323.708 45.599 324.144C45.702 325.114 45.846 326.475 46.03 328.207C46.384 331.779 46.888 336.877 47.51 343.158C48.741 355.784 50.423 373.227 52.427 392.476C54.438 411.731 56.444 429.14 58.05 441.722C58.84 448.014 59.521 453.101 59.998 456.616C60.226 458.342 60.405 459.698 60.533 460.665C60.584 461.102 60.625 461.45 60.657 461.72C60.682 461.958 60.689 462.081 60.679 462.083C60.669 462.085 60.641 461.965 60.596 461.73C60.549 461.461 60.488 461.116 60.412 460.683C60.257 459.72 60.04 458.369 59.764 456.65C59.214 453.145 58.469 448.065 57.624 441.778C55.909 429.206 53.834 411.798 51.823 392.539C49.818 373.286 48.204 355.834 47.082 343.198C46.541 336.909 46.102 331.806 45.794 328.229C45.659 326.493 45.553 325.129 45.477 324.156C45.449 323.717 45.427 323.368 45.41 323.095C45.399 322.855 45.398 322.732 45.408 322.731Z" fill="#263238"/>
<path d="M138.613 307.502C138.613 307.523 138.307 307.539 137.725 307.549C137.085 307.553 136.24 307.559 135.183 307.566C132.976 307.557 129.782 307.59 125.839 307.682C117.952 307.86 107.06 308.438 95.107 309.853C83.152 311.283 72.427 313.277 64.719 314.955C60.864 315.791 57.752 316.509 55.609 317.035C54.58 317.276 53.757 317.469 53.134 317.615C52.566 317.741 52.266 317.797 52.26 317.777C52.255 317.757 52.545 317.661 53.102 317.497C53.718 317.323 54.532 317.094 55.55 316.807C57.677 316.21 60.776 315.427 64.625 314.537C72.319 312.749 83.055 310.683 95.035 309.251C107.012 307.833 117.932 307.321 125.831 307.254C129.781 307.217 132.978 307.25 135.186 307.331C136.243 307.371 137.088 307.404 137.728 307.428C138.309 307.456 138.613 307.481 138.613 307.502Z" fill="#263238"/>
<path d="M85.747 337.642C85.579 337.636 85.895 324.746 86.454 308.855C87.012 292.958 87.6 280.081 87.768 280.087C87.936 280.093 87.619 292.98 87.061 308.877C86.503 324.768 85.915 337.648 85.747 337.642Z" fill="#263238"/>
<path d="M156.104 336.049C156.086 336.059 155.908 335.78 155.588 335.241C155.245 334.65 154.785 333.861 154.208 332.869C152.978 330.755 151.25 327.788 149.128 324.143C147.04 320.433 144.543 315.959 142.757 310.567C141.888 307.871 141.202 304.959 140.857 301.888C140.547 298.814 140.558 295.609 140.83 292.35C141.43 285.861 142.829 279.679 145.375 274.581C146.628 272.031 148.161 269.776 149.856 267.895C151.555 266.017 153.418 264.539 155.239 263.401C158.904 261.125 162.406 260.318 164.789 260.202C167.19 260.072 168.491 260.408 168.491 260.408C168.485 260.488 167.17 260.237 164.807 260.438C162.461 260.624 159.039 261.483 155.468 263.765C153.694 264.906 151.88 266.377 150.23 268.233C148.586 270.09 147.096 272.314 145.877 274.83C143.4 279.857 142.031 285.965 141.435 292.409C141.167 295.632 141.152 298.794 141.449 301.826C141.781 304.855 142.445 307.727 143.289 310.396C145.023 315.732 147.465 320.205 149.502 323.935C151.553 327.619 153.224 330.618 154.413 332.754C154.949 333.77 155.375 334.579 155.694 335.183C155.981 335.741 156.123 336.039 156.104 336.049Z" fill="#263238"/>
<g opacity="0.3">
<path d="M54.488 317.707C63.184 317.259 71.843 316.117 80.358 314.295C79.305 318.052 78.815 321.967 78.91 325.868C81.605 322.843 83.59 319.19 84.661 315.283C85.259 319.54 87.678 323.51 91.187 325.992C92.047 322.132 92.245 318.125 91.769 314.199C104.641 312.648 117.444 310.529 130.129 307.85C104.461 307.221 78.703 310.428 53.973 317.331" fill="black"/>
</g>
<path d="M219.99 381.874C219.98 381.889 219.776 381.766 219.396 381.52C218.976 381.24 218.43 380.875 217.751 380.422C216.328 379.461 214.285 378.048 211.772 376.284C206.747 372.757 199.859 367.806 192.348 362.207C184.836 356.604 178.126 351.414 173.312 347.603C170.905 345.698 168.968 344.143 167.641 343.053C167.013 342.532 166.508 342.112 166.12 341.79C165.776 341.497 165.6 341.336 165.612 341.322C165.623 341.308 165.82 341.441 166.185 341.708C166.589 342.011 167.114 342.405 167.766 342.894C169.178 343.975 171.137 345.475 173.538 347.312C178.408 351.047 185.151 356.189 192.659 361.789C200.166 367.386 207.016 372.382 211.986 375.984C214.432 377.761 216.429 379.211 217.867 380.256C218.523 380.742 219.05 381.133 219.455 381.433C219.817 381.708 220.001 381.859 219.99 381.874Z" fill="#263238"/>
<path d="M253.592 351.186C253.501 351.182 253.559 349.674 253.384 347.256C253.213 344.84 252.724 341.513 251.633 337.982C250.531 334.453 249.047 331.435 247.818 329.347C246.592 327.255 245.689 326.046 245.762 325.992C245.791 325.97 246.039 326.254 246.466 326.788C246.899 327.317 247.474 328.125 248.132 329.156C249.453 331.214 251.013 334.25 252.13 337.827C253.237 341.406 253.673 344.791 253.751 347.235C253.793 348.458 253.778 349.449 253.721 350.13C253.672 350.813 253.628 351.188 253.592 351.186Z" fill="#263238"/>
<path d="M259.786 348.924C259.702 348.908 259.893 347.74 260.038 345.844C260.185 343.949 260.231 341.317 259.904 338.438C259.569 335.559 258.926 333.006 258.353 331.194C257.781 329.38 257.33 328.286 257.408 328.252C257.441 328.237 257.587 328.496 257.823 328.978C258.065 329.458 258.368 330.174 258.701 331.075C259.37 332.875 260.081 335.455 260.421 338.377C260.754 341.299 260.648 343.973 260.405 345.878C260.285 346.831 260.152 347.598 260.026 348.12C259.905 348.646 259.821 348.931 259.786 348.924Z" fill="#263238"/>
<path d="M306.75 336.049C306.721 336.056 306.764 335.856 306.518 335.674C306.402 335.59 306.216 335.451 306.113 335.234C305.995 335.025 305.92 334.767 305.776 334.526C305.51 334.026 304.845 333.637 304.362 332.898C303.865 332.184 303.497 331.267 303.156 330.258C302.543 328.227 301.543 325.902 299.724 323.782C298.835 322.716 297.774 321.704 296.632 320.701C295.488 319.7 294.254 318.728 292.902 317.852C291.544 316.936 290.287 316.02 288.911 315.375C287.54 314.704 286.216 314.056 284.951 313.437C283.685 312.84 282.512 312.222 281.362 311.729C280.217 311.241 279.146 310.785 278.159 310.364C277.671 310.14 277.203 309.988 276.765 309.728C276.341 309.474 275.988 309.199 275.629 309C275.261 308.804 274.915 308.62 274.591 308.449C274.264 308.276 274.001 308.05 273.762 307.899C273.269 307.592 272.834 307.422 272.558 307.273C272.277 307.13 272.141 307.035 272.149 307.02C272.158 307.003 272.309 307.066 272.601 307.177C272.889 307.294 273.333 307.43 273.867 307.725C274.372 308.081 274.984 308.367 275.769 308.745C276.155 308.944 276.526 309.214 276.931 309.441C277.323 309.663 277.827 309.82 278.309 310.028C279.3 310.429 280.376 310.864 281.527 311.33C282.681 311.804 283.882 312.417 285.163 313.006C286.432 313.616 287.76 314.255 289.137 314.917C290.543 315.567 291.862 316.521 293.189 317.417C294.559 318.304 295.817 319.3 296.968 320.317C298.117 321.336 299.191 322.373 300.092 323.475C301.935 325.656 302.942 328.105 303.505 330.142C303.821 331.15 304.155 332.044 304.604 332.736C305.021 333.438 305.669 333.848 305.953 334.427C306.099 334.707 306.156 334.967 306.252 335.164C306.337 335.373 306.467 335.481 306.589 335.596C306.845 335.838 306.756 336.068 306.75 336.049Z" fill="#263238"/>
<path d="M178.462 464.58C178.318 464.58 178.202 439.278 178.202 408.074C178.202 376.859 178.319 351.563 178.462 351.563C178.606 351.563 178.722 376.86 178.722 408.074C178.723 439.278 178.606 464.58 178.462 464.58Z" fill="#263238"/>
</svg>
