<svg width="618" height="152" viewBox="0 0 618 152" fill="none" xmlns="http://www.w3.org/2000/svg">
<circle cx="32" cy="32" r="12" fill="#3843D6" fill-opacity="0.2"/>
<circle cx="93.5555" cy="32" r="12" fill="#3843D6" fill-opacity="0.2"/>
<circle cx="155.111" cy="32" r="12" fill="#3843D6" fill-opacity="0.2"/>
<circle cx="216.667" cy="32" r="12" fill="#3843D6" fill-opacity="0.2"/>
<circle cx="278.222" cy="32" r="12" fill="#3843D6" fill-opacity="0.2"/>
<circle cx="339.778" cy="32" r="12" fill="#3843D6" fill-opacity="0.2"/>
<circle cx="401.333" cy="32" r="12" fill="#3843D6" fill-opacity="0.2"/>
<circle cx="462.889" cy="32" r="12" fill="#3843D6" fill-opacity="0.2"/>
<circle cx="524.444" cy="32" r="12" fill="#3843D6" fill-opacity="0.2"/>
<circle cx="586" cy="32" r="12" fill="#3843D6" fill-opacity="0.2"/>
<circle cx="32" cy="76" r="12" fill="#3843D6" fill-opacity="0.2"/>
<circle cx="93.5555" cy="76" r="12" fill="#3843D6" fill-opacity="0.2"/>
<circle cx="155.111" cy="76" r="12" fill="#3843D6" fill-opacity="0.2"/>
<circle cx="216.667" cy="76" r="12" fill="#3843D6" fill-opacity="0.2"/>
<circle cx="278.222" cy="76" r="12" fill="#3843D6" fill-opacity="0.2"/>
<circle cx="339.778" cy="76" r="12" fill="#3843D6" fill-opacity="0.2"/>
<circle cx="401.333" cy="76" r="12" fill="#3843D6" fill-opacity="0.2"/>
<circle cx="462.889" cy="76" r="12" fill="#3843D6" fill-opacity="0.2"/>
<circle cx="524.444" cy="76" r="12" fill="#3843D6" fill-opacity="0.2"/>
<circle cx="586" cy="76" r="12" fill="#3843D6" fill-opacity="0.2"/>
<circle cx="32" cy="120" r="12" fill="#3843D6" fill-opacity="0.2"/>
<circle cx="93.5555" cy="120" r="12" fill="#3843D6" fill-opacity="0.2"/>
<circle cx="155.111" cy="120" r="12" fill="#3843D6" fill-opacity="0.2"/>
<circle cx="216.667" cy="120" r="12" fill="#3843D6" fill-opacity="0.2"/>
<circle cx="278.222" cy="120" r="12" fill="#3843D6" fill-opacity="0.2"/>
<circle cx="339.778" cy="120" r="12" fill="#3843D6" fill-opacity="0.2"/>
<circle cx="401.333" cy="120" r="12" fill="#3843D6" fill-opacity="0.2"/>
<circle cx="462.889" cy="120" r="12" fill="#3843D6" fill-opacity="0.2"/>
<circle cx="524.444" cy="120" r="12" fill="#3843D6" fill-opacity="0.2"/>
<circle cx="586" cy="120" r="12" fill="#3843D6" fill-opacity="0.2"/>
</svg>
