<svg width="500" height="500" viewBox="0 0 500 500" fill="none" xmlns="http://www.w3.org/2000/svg">
<path d="M111.948 232.314L115.652 239.82C115.841 240.203 116.207 240.469 116.63 240.531L124.913 241.735C125.979 241.89 126.404 243.199 125.633 243.951L119.64 249.793C119.334 250.091 119.194 250.522 119.266 250.943L120.681 259.192C120.863 260.253 119.749 261.063 118.796 260.562L111.388 256.667C111.01 256.468 110.557 256.468 110.179 256.667L102.771 260.562C101.818 261.063 100.704 260.254 100.886 259.192L102.301 250.943C102.373 250.522 102.234 250.091 101.927 249.793L95.934 243.951C95.163 243.199 95.588 241.89 96.654 241.735L104.937 240.531C105.36 240.47 105.726 240.204 105.915 239.82L109.619 232.314C110.095 231.348 111.472 231.348 111.948 232.314Z" fill="#E0E0E0"/>
<path d="M78.078 188.93L80.641 194.122C80.772 194.387 81.025 194.571 81.318 194.614L87.048 195.447C87.785 195.554 88.08 196.46 87.546 196.98L83.4 201.022C83.188 201.228 83.091 201.526 83.141 201.818L84.12 207.525C84.246 208.259 83.475 208.819 82.816 208.472L77.691 205.778C77.429 205.64 77.116 205.64 76.855 205.778L71.73 208.472C71.071 208.819 70.3 208.259 70.426 207.525L71.405 201.818C71.455 201.526 71.358 201.229 71.147 201.022L67.001 196.98C66.467 196.46 66.762 195.554 67.499 195.447L73.229 194.614C73.522 194.571 73.775 194.388 73.906 194.122L76.469 188.93C76.796 188.262 77.748 188.262 78.078 188.93Z" fill="#E0E0E0"/>
<path d="M263.477 54.767L265.253 58.365C265.344 58.549 265.519 58.676 265.722 58.706L269.693 59.283C270.204 59.357 270.408 59.985 270.038 60.345L267.165 63.146C267.018 63.289 266.951 63.495 266.986 63.697L267.664 67.652C267.751 68.161 267.217 68.549 266.76 68.309L263.208 66.442C263.026 66.347 262.81 66.347 262.628 66.442L259.076 68.309C258.619 68.549 258.085 68.161 258.172 67.652L258.85 63.697C258.885 63.495 258.818 63.289 258.671 63.146L255.798 60.345C255.428 59.985 255.632 59.357 256.143 59.283L260.114 58.706C260.317 58.677 260.492 58.549 260.583 58.365L262.359 54.767C262.589 54.304 263.249 54.304 263.477 54.767Z" fill="#E0E0E0"/>
<path d="M418.522 240.266L420.298 243.864C420.389 244.048 420.564 244.175 420.767 244.205L424.738 244.782C425.249 244.856 425.453 245.484 425.083 245.844L422.21 248.645C422.063 248.788 421.996 248.994 422.031 249.196L422.709 253.151C422.796 253.66 422.262 254.048 421.805 253.808L418.253 251.941C418.072 251.846 417.855 251.846 417.673 251.941L414.121 253.808C413.664 254.048 413.13 253.66 413.217 253.151L413.895 249.196C413.93 248.994 413.863 248.788 413.716 248.645L410.843 245.844C410.473 245.484 410.677 244.856 411.188 244.782L415.159 244.205C415.362 244.176 415.537 244.048 415.628 243.864L417.404 240.266C417.633 239.803 418.293 239.803 418.522 240.266Z" fill="#E0E0E0"/>
<path d="M377.466 223.692L380.395 229.628C380.545 229.931 380.834 230.141 381.169 230.19L387.719 231.142C388.562 231.265 388.898 232.3 388.288 232.895L383.548 237.515C383.306 237.751 383.195 238.091 383.253 238.424L384.372 244.948C384.516 245.787 383.635 246.427 382.881 246.031L377.022 242.951C376.723 242.794 376.365 242.794 376.066 242.951L370.207 246.031C369.453 246.427 368.572 245.787 368.716 244.948L369.835 238.424C369.892 238.091 369.782 237.751 369.539 237.515L364.799 232.895C364.189 232.301 364.526 231.265 365.368 231.142L371.918 230.19C372.253 230.141 372.542 229.931 372.692 229.628L375.621 223.692C376 222.929 377.089 222.929 377.466 223.692Z" fill="#E0E0E0"/>
<path d="M78.838 296.218L80.951 300.5C81.059 300.719 81.268 300.87 81.509 300.906L86.234 301.593C86.842 301.681 87.085 302.428 86.645 302.857L83.226 306.19C83.051 306.36 82.972 306.605 83.013 306.846L83.82 311.552C83.924 312.157 83.288 312.619 82.745 312.333L78.519 310.111C78.303 309.997 78.045 309.997 77.829 310.111L73.603 312.333C73.059 312.619 72.424 312.157 72.528 311.552L73.335 306.846C73.376 306.605 73.296 306.36 73.122 306.19L69.703 302.857C69.263 302.428 69.506 301.681 70.114 301.593L74.839 300.906C75.08 300.871 75.289 300.719 75.397 300.5L77.51 296.218C77.781 295.667 78.566 295.667 78.838 296.218Z" fill="#E0E0E0"/>
<path d="M179.488 59.634L168.009 59.696L168.317 116.813L179.796 116.751L179.488 59.634Z" fill="#E0E0E0"/>
<path d="M98.2849 59.7955L68.5599 59.953L68.727 91.486L98.452 91.3285L98.2849 59.7955Z" fill="#EBEBEB"/>
<path d="M127.875 59.6255L98.15 59.786L98.3203 91.318L128.045 91.1575L127.875 59.6255Z" fill="#F5F5F5"/>
<path d="M68.608 68.6571C88.362 68.8201 108.165 68.7051 127.917 68.3841C128.323 68.3781 128.321 67.7551 127.913 67.7531C108.159 67.6441 88.355 67.7411 68.605 68.1161C68.257 68.1221 68.259 68.6541 68.608 68.6571Z" fill="#E0E0E0"/>
<path d="M104.039 90.7924L50.0332 91.084L50.1719 116.781L104.178 116.489L104.039 90.7924Z" fill="#EBEBEB"/>
<path d="M157.79 90.502L103.784 90.7936L103.923 116.49L157.929 116.198L157.79 90.502Z" fill="#F5F5F5"/>
<path d="M50.067 98.231C85.944 98.637 121.947 98.273 157.822 97.699C158.229 97.692 158.226 97.069 157.819 97.067C121.939 96.877 85.935 96.899 50.064 97.689C49.716 97.698 49.718 98.228 50.067 98.231Z" fill="#E0E0E0"/>
<path d="M239.106 116.781H29.871V125.987H239.106V116.781Z" fill="#E0E0E0"/>
<path d="M72.621 121.207H64.127V152.619H72.621V121.207Z" fill="#E0E0E0"/>
<path d="M199.417 121.207H190.923V152.619H199.417V121.207Z" fill="#E0E0E0"/>
<path d="M190.688 38.3343L179.209 38.3963L179.633 116.952L191.112 116.89L190.688 38.3343Z" fill="#EBEBEB"/>
<path d="M208.624 52.9581L190.788 53.0544L191.132 116.715L208.968 116.619L208.624 52.9581Z" fill="#F5F5F5"/>
<path d="M208.499 65.229C208.499 65.4 204.506 65.538 199.582 65.538C194.656 65.538 190.664 65.4 190.664 65.229C190.664 65.058 194.656 64.92 199.582 64.92C204.506 64.92 208.499 65.059 208.499 65.229Z" fill="#E0E0E0"/>
<path d="M208.499 62.555C208.499 62.725 204.506 62.864 199.582 62.864C194.656 62.864 190.664 62.726 190.664 62.555C190.664 62.384 194.656 62.246 199.582 62.246C204.506 62.246 208.499 62.384 208.499 62.555Z" fill="#E0E0E0"/>
<path d="M208.499 107.047C208.499 107.218 204.506 107.356 199.582 107.356C194.656 107.356 190.664 107.218 190.664 107.047C190.664 106.876 194.656 106.738 199.582 106.738C204.506 106.738 208.499 106.876 208.499 107.047Z" fill="#E0E0E0"/>
<path d="M208.499 104.372C208.499 104.543 204.506 104.681 199.582 104.681C194.656 104.681 190.664 104.543 190.664 104.372C190.664 104.201 194.656 104.063 199.582 104.063C204.506 104.063 208.499 104.202 208.499 104.372Z" fill="#E0E0E0"/>
<path d="M199.868 98.537C199.697 98.537 199.559 92.114 199.559 84.193C199.559 76.269 199.697 69.848 199.868 69.848C200.039 69.848 200.177 76.269 200.177 84.193C200.177 92.115 200.039 98.537 199.868 98.537Z" fill="#E0E0E0"/>
<path d="M228.106 68.598H208.692V116.649H228.106V68.598Z" fill="#EBEBEB"/>
<path d="M188.075 51.754C188.075 53.576 186.598 55.053 184.776 55.053C182.954 55.053 181.477 53.576 181.477 51.754C181.477 49.932 182.954 48.455 184.776 48.455C186.598 48.455 188.075 49.931 188.075 51.754Z" fill="#E0E0E0"/>
<path d="M185.795 60.827H183.756V107.558H185.795V60.827Z" fill="#E0E0E0"/>
<path d="M458.526 77.408H317.385V203.681H458.526V77.408Z" fill="#FAFAFA"/>
<path d="M458.526 203.68C458.526 203.68 458.502 202.87 458.49 201.336C458.482 199.787 458.469 197.521 458.453 194.57C458.434 188.641 458.406 179.976 458.37 168.938C458.33 146.875 458.274 115.349 458.205 77.407L458.525 77.727C417.878 77.744 369.368 77.763 317.397 77.784H317.384L317.761 77.407C317.745 123.347 317.729 166.575 317.716 203.679L317.384 203.347C359.489 203.416 394.73 203.474 419.467 203.515C431.843 203.553 441.587 203.582 448.259 203.602C451.583 203.619 454.136 203.632 455.881 203.641C456.735 203.649 457.388 203.656 457.847 203.66C458.291 203.668 458.526 203.68 458.526 203.68C458.526 203.68 458.317 203.693 457.886 203.699C457.435 203.703 456.795 203.71 455.956 203.718C454.226 203.727 451.694 203.74 448.399 203.757C441.744 203.777 432.026 203.807 419.682 203.845C394.893 203.885 359.579 203.943 317.386 204.013L317.054 204.014V203.681C317.04 166.577 317.025 123.348 317.009 77.409V77.032H317.386H317.399C369.37 77.053 417.879 77.073 458.527 77.089H458.848V77.409C458.78 115.435 458.723 147.031 458.683 169.143C458.647 180.15 458.619 188.791 458.6 194.703C458.584 197.627 458.572 199.872 458.563 201.407C458.549 202.918 458.526 203.68 458.526 203.68Z" fill="#E0E0E0"/>
<path d="M371.503 99.844C371.503 100.052 364.074 100.221 354.912 100.221C345.747 100.221 338.319 100.052 338.319 99.844C338.319 99.636 345.746 99.467 354.912 99.467C364.074 99.467 371.503 99.636 371.503 99.844Z" fill="#E0E0E0"/>
<path d="M431.307 109.325C431.307 109.534 410.898 109.702 385.728 109.702C360.549 109.702 340.144 109.533 340.144 109.325C340.144 109.117 360.549 108.948 385.728 108.948C410.898 108.948 431.307 109.117 431.307 109.325Z" fill="#E0E0E0"/>
<path d="M344.509 125.385H338.563V131.331H344.509V125.385Z" fill="#E0E0E0"/>
<path d="M359.146 125.385H353.2V131.331H359.146V125.385Z" fill="#E0E0E0"/>
<path d="M374.053 125.115H368.107V131.061H374.053V125.115Z" fill="#E0E0E0"/>
<path d="M388.42 125.385H382.474V131.331H388.42V125.385Z" fill="#E0E0E0"/>
<path d="M403.056 125.385H397.11V131.331H403.056V125.385Z" fill="#E0E0E0"/>
<path d="M417.693 125.385H411.747V131.331H417.693V125.385Z" fill="#E0E0E0"/>
<path d="M432.33 125.385H426.384V131.331H432.33V125.385Z" fill="#EBEBEB"/>
<path d="M344.509 138.027H338.563V143.973H344.509V138.027Z" fill="#EBEBEB"/>
<path d="M359.146 138.027H353.2V143.973H359.146V138.027Z" fill="#E0E0E0"/>
<path d="M373.783 138.027H367.837V143.973H373.783V138.027Z" fill="#EBEBEB"/>
<path d="M388.42 138.027H382.474V143.973H388.42V138.027Z" fill="#E0E0E0"/>
<path d="M403.056 138.027H397.11V143.973H403.056V138.027Z" fill="#E0E0E0"/>
<path d="M417.963 137.756H412.017V143.702H417.963V137.756Z" fill="#E0E0E0"/>
<path d="M432.33 138.027H426.384V143.973H432.33V138.027Z" fill="#E0E0E0"/>
<path d="M344.509 150.668H338.563V156.614H344.509V150.668Z" fill="#E0E0E0"/>
<path d="M359.416 150.398H353.47V156.344H359.416V150.398Z" fill="#E0E0E0"/>
<path d="M373.783 150.668H367.837V156.614H373.783V150.668Z" fill="#E0E0E0"/>
<path d="M388.42 150.668H382.474V156.614H388.42V150.668Z" fill="#EBEBEB"/>
<path d="M403.056 150.668H397.11V156.614H403.056V150.668Z" fill="#E0E0E0"/>
<path d="M417.693 150.668H411.747V156.614H417.693V150.668Z" fill="#E0E0E0"/>
<path d="M432.33 150.668H426.384V156.614H432.33V150.668Z" fill="#E0E0E0"/>
<path d="M344.509 163.309H338.563V169.255H344.509V163.309Z" fill="#E0E0E0"/>
<path d="M359.146 163.309H353.2V169.255H359.146V163.309Z" fill="#E0E0E0"/>
<path d="M373.783 163.309H367.837V169.255H373.783V163.309Z" fill="#E0E0E0"/>
<path d="M388.689 163.039H382.743V168.985H388.689V163.039Z" fill="#E0E0E0"/>
<path d="M403.056 163.309H397.11V169.255H403.056V163.309Z" fill="#E0E0E0"/>
<path d="M417.693 163.309H411.747V169.255H417.693V163.309Z" fill="#EBEBEB"/>
<path d="M432.33 163.309H426.384V169.255H432.33V163.309Z" fill="#E0E0E0"/>
<path d="M344.509 175.95H338.563V181.896H344.509V175.95Z" fill="#E0E0E0"/>
<path d="M359.146 175.95H353.2V181.896H359.146V175.95Z" fill="#EBEBEB"/>
<path d="M373.783 175.95H367.837V181.896H373.783V175.95Z" fill="#E0E0E0"/>
<path d="M388.42 175.95H382.474V181.896H388.42V175.95Z" fill="#E0E0E0"/>
<path d="M403.056 175.95H397.11V181.896H403.056V175.95Z" fill="#E0E0E0"/>
<path d="M417.963 175.68H412.017V181.626H417.963V175.68Z" fill="#E0E0E0"/>
<path d="M432.33 175.95H426.384V181.896H432.33V175.95Z" fill="#E0E0E0"/>
<path d="M48.49 399.648C48.49 400.313 48.49 436.416 48.49 436.416H42.351V440.407H48.49V465.015H163.241V442.624H154.741V437.747H163.241V430.431H167.019V427.105H162.533V399.648H48.49Z" fill="#EBEBEB"/>
<path d="M132.769 399.755V464.606H163.242V442.214H154.742V437.746L163.242 437.898V430.582L167.093 430.587L167.02 426.806L162.533 426.695V399.648L132.769 399.755Z" fill="#E0E0E0"/>
<path d="M134.94 439.879C134.94 440.104 114.175 440.286 88.567 440.286C62.95 440.286 42.189 440.104 42.189 439.879C42.189 439.654 62.949 439.471 88.567 439.471C114.175 439.471 134.94 439.654 134.94 439.879Z" fill="#E0E0E0"/>
<path d="M134.94 436.144C134.94 436.369 114.175 436.552 88.567 436.552C62.95 436.552 42.189 436.37 42.189 436.144C42.189 435.919 62.949 435.737 88.567 435.737C114.175 435.737 134.94 435.919 134.94 436.144Z" fill="#E0E0E0"/>
<path d="M140.897 426.092C140.897 426.317 120.133 426.499 94.524 426.499C68.906 426.499 48.147 426.317 48.147 426.092C48.147 425.867 68.907 425.685 94.524 425.685C120.132 425.685 140.897 425.867 140.897 426.092Z" fill="#E0E0E0"/>
<path d="M141.47 453.483C141.47 453.708 120.705 453.891 95.097 453.891C69.479 453.891 48.719 453.709 48.719 453.483C48.719 453.258 69.479 453.076 95.097 453.076C120.705 453.076 141.47 453.259 141.47 453.483Z" fill="#E0E0E0"/>
<path d="M63.379 338.385C63.379 339.015 63.379 373.231 63.379 373.231H57.561V377.013H63.379V400.335H172.132V379.114H164.076V374.492H172.132V367.559H175.712V364.407H171.461V338.386L63.379 338.385Z" fill="#F5F5F5"/>
<path d="M143.252 338.486V399.947H172.132V378.726H164.076V374.491L172.132 374.635V367.701L175.782 367.706L175.712 364.123L171.461 364.018V338.385L143.252 338.486Z" fill="#E0E0E0"/>
<path d="M145.31 376.512C145.31 376.725 125.631 376.898 101.361 376.898C77.083 376.898 57.408 376.725 57.408 376.512C57.408 376.299 77.083 376.126 101.361 376.126C125.63 376.126 145.31 376.299 145.31 376.512Z" fill="#E0E0E0"/>
<path d="M145.31 372.973C145.31 373.187 125.631 373.359 101.361 373.359C77.083 373.359 57.408 373.186 57.408 372.973C57.408 372.76 77.083 372.587 101.361 372.587C125.63 372.587 145.31 372.76 145.31 372.973Z" fill="#E0E0E0"/>
<path d="M150.955 363.447C150.955 363.661 131.276 363.833 107.006 363.833C82.728 363.833 63.053 363.66 63.053 363.447C63.053 363.234 82.728 363.061 107.006 363.061C131.276 363.06 150.955 363.233 150.955 363.447Z" fill="#E0E0E0"/>
<path d="M151.498 389.406C151.498 389.62 131.819 389.792 107.549 389.792C83.271 389.792 63.596 389.619 63.596 389.406C63.596 389.193 83.271 389.02 107.549 389.02C131.819 389.02 151.498 389.193 151.498 389.406Z" fill="#E0E0E0"/>
<path d="M395.176 353.565C389.228 350.496 382.224 350.097 375.62 351.189C372.072 351.775 368.374 352.837 365.96 355.502C363.546 358.167 363.089 362.856 365.86 365.146C367.51 366.509 369.811 366.716 371.951 366.691C377.12 366.631 382.856 365.72 386.986 368.831C389.342 370.605 390.911 373.556 393.728 374.428C396.484 375.282 399.594 373.655 401.056 371.168C402.517 368.681 402.566 365.571 401.885 362.768C401.885 362.768 401.168 356.656 395.176 353.565Z" fill="#EBEBEB"/>
<path d="M408.803 327.258C405.166 332.453 398.097 330.733 394.819 327.562C391.541 324.391 390.156 319.796 388.895 315.413C386.014 305.4 383.109 294.896 385.251 284.699C385.892 281.65 387.031 278.61 389.174 276.349C391.316 274.087 394.61 272.742 397.622 273.538C401.186 274.48 403.402 277.97 405.002 281.292C409.708 291.053 412.2 301.875 412.237 312.712C412.255 317.772 411.658 323.08 408.803 327.258Z" fill="#EBEBEB"/>
<path d="M418.791 334.711C414.842 330.024 414.093 323.188 415.85 317.317C417.607 311.445 421.577 306.451 426.152 302.372C431.516 297.591 437.822 293.87 444.601 291.487C447.269 290.549 450.083 289.809 452.898 290.077C455.713 290.345 458.548 291.785 459.861 294.289C461.802 297.992 459.941 302.483 457.928 306.148C454.381 312.604 450.325 318.78 445.811 324.6C442.179 329.282 438.019 333.901 432.484 336.017C426.949 338.133 421.199 337.884 418.265 334.045" fill="#EBEBEB"/>
<path d="M409.05 405.62C408.982 405.624 408.871 404.783 408.721 403.26C408.554 401.542 408.344 399.385 408.094 396.818C407.794 394.107 407.398 390.882 406.645 387.369C405.894 383.865 404.72 380.068 403.211 376.217C401.648 372.389 399.743 368.909 397.516 366.126C395.305 363.331 392.734 361.308 390.316 360.14C387.907 358.95 385.746 358.467 384.253 358.252C382.747 358.097 381.903 357.979 381.903 357.912C381.902 357.845 382.747 357.834 384.295 357.875C385.828 357.977 388.078 358.366 390.617 359.52C393.164 360.65 395.892 362.704 398.212 365.558C400.55 368.399 402.525 371.955 404.115 375.852C405.65 379.771 406.808 383.607 407.525 387.187C408.24 390.761 408.567 394.022 408.781 396.755C408.985 399.491 409.063 401.706 409.1 403.237C409.133 404.767 409.116 405.616 409.05 405.62Z" fill="#E0E0E0"/>
<path d="M408.606 400.663C408.573 400.661 408.552 400.284 408.543 399.567C408.545 398.744 408.548 397.707 408.551 396.435C408.559 393.717 408.557 389.783 408.412 384.926C408.172 375.211 407.335 364.756 405.72 350.016C404.19 336.156 402.137 320.025 399.97 309.538C399.505 307.153 399.037 305.006 398.597 303.127C398.177 301.243 397.818 299.619 397.472 298.305C397.175 297.068 396.933 296.06 396.74 295.261C396.583 294.562 396.516 294.19 396.548 294.18C396.58 294.171 396.711 294.524 396.929 295.207C397.168 295.995 397.469 296.989 397.838 298.208C398.242 299.51 398.655 301.124 399.127 303C399.619 304.872 400.135 307.013 400.644 309.395C402.788 318.898 405.058 332.179 406.689 346.955C408.308 361.726 409.037 375.175 409.102 384.914C409.16 389.784 409.056 393.725 408.932 396.445C408.854 397.717 408.791 398.753 408.741 399.575C408.684 400.29 408.639 400.664 408.606 400.663Z" fill="#E0E0E0"/>
<path d="M408.541 374.723C408.473 374.721 408.485 373.558 408.564 371.451C408.684 369.348 408.973 366.309 409.566 362.587C410.194 358.873 411.071 354.463 412.449 349.672C413.046 347.481 414.45 342.233 417.85 334.39C422.33 323.763 428.416 315.075 433.71 309.694C434.952 308.266 436.335 307.235 437.441 306.226C438.014 305.742 438.519 305.259 439.035 304.877C439.553 304.52 440.035 304.188 440.483 303.879C442.226 302.687 443.201 302.059 443.237 302.116C443.394 302.328 439.334 304.717 434.208 310.171C429.103 315.612 423.187 324.241 418.744 334.778C416.266 340.493 414.538 345.591 413.313 349.92C411.897 354.665 410.956 359.03 410.245 362.707C409.57 366.392 409.178 369.401 408.942 371.484C408.747 373.569 408.608 374.725 408.541 374.723Z" fill="#E0E0E0"/>
<path d="M433.613 420.481L431.014 456.091H385.267L382.667 420.481H433.613Z" fill="#E0E0E0"/>
<path d="M438.032 406.445H377.209V420.481H438.032V406.445Z" fill="#E0E0E0"/>
<path d="M438.032 454.728V458.619H435.174H378.214V454.728H438.032Z" fill="#EBEBEB"/>
<path d="M432.373 465.467L435.174 458.619H380.393L383.661 465.467H432.373Z" fill="#E0E0E0"/>
<path d="M383.517 432.119C383.507 432.127 383.579 432.238 383.73 432.446C383.911 432.687 384.136 432.985 384.413 433.353C385.063 434.184 385.955 435.327 387.078 436.763L387.196 436.915L387.311 436.756C388.986 434.439 391.224 431.345 393.858 427.701H393.481C395.428 430.459 397.598 433.53 399.927 436.828L400.129 437.114L400.355 436.845C402.734 434.015 405.317 430.941 408 427.749L407.559 427.743C407.692 427.91 407.835 428.091 407.98 428.272C410.351 431.244 412.646 434.121 414.816 436.842L415.044 437.128L415.254 436.831C417.575 433.547 419.743 430.479 421.703 427.706L421.328 427.724C424.506 431.345 427.202 434.417 429.271 436.773L429.412 436.934L429.52 436.753C430.567 434.994 431.402 433.591 432.007 432.575C432.267 432.122 432.477 431.755 432.645 431.462C432.785 431.208 432.852 431.073 432.84 431.065C432.828 431.058 432.737 431.178 432.574 431.418C432.388 431.699 432.156 432.052 431.868 432.489C431.233 433.487 430.356 434.864 429.257 436.591L429.506 436.571C427.47 434.186 424.818 431.077 421.691 427.411L421.494 427.18L421.316 427.429C419.338 430.19 417.15 433.244 414.809 436.513L415.247 436.501C413.082 433.776 410.793 430.895 408.428 427.919C408.284 427.738 408.14 427.557 408.007 427.39L407.79 427.117L407.566 427.384C404.891 430.582 402.315 433.661 399.942 436.497L400.37 436.514C398.018 433.233 395.827 430.176 393.86 427.433L393.669 427.167L393.483 427.433C390.904 431.116 388.714 434.245 387.074 436.587L387.307 436.58C386.139 435.18 385.211 434.067 384.535 433.256C384.234 432.908 383.99 432.625 383.793 432.397C383.62 432.205 383.527 432.111 383.517 432.119Z" fill="#F5F5F5"/>
<path d="M382.031 420.246C382.031 420.403 393.494 420.531 407.63 420.531C421.772 420.531 433.232 420.403 433.232 420.246C433.232 420.089 421.772 419.961 407.63 419.961C393.494 419.961 382.031 420.089 382.031 420.246Z" fill="#F5F5F5"/>
<path d="M379.72 459.003C379.72 459.16 392.178 459.288 407.542 459.288C422.911 459.288 435.366 459.16 435.366 459.003C435.366 458.846 422.911 458.718 407.542 458.718C392.177 458.718 379.72 458.845 379.72 459.003Z" fill="#F5F5F5"/>
<path d="M448.064 465.303C448.064 465.447 359.381 465.563 250.009 465.563C140.6 465.563 51.935 465.446 51.935 465.303C51.935 465.159 140.599 465.043 250.009 465.043C359.381 465.043 448.064 465.159 448.064 465.303Z" fill="#263238"/>
<path d="M267.494 93.594C267.92 86.079 272.541 81.457 279.016 77.62C285.491 73.783 293.887 73.402 300.683 76.638C305.228 78.802 309.206 82.497 314.199 83.141C322.42 84.202 330.202 76.584 338.27 78.486C343.046 79.612 346.685 84.39 346.501 89.293C346.318 94.196 342.332 98.689 337.486 99.455C342.87 100.235 345.917 107.045 343.927 112.108C341.936 117.171 336.286 120.108 330.847 120.226C325.408 120.344 320.181 118.124 315.476 115.394C310.771 112.663 306.379 109.379 301.472 107.031C296.565 104.683 290.92 103.311 285.663 104.71C278.546 106.604 273.503 113.324 271.647 120.451C269.79 127.578 270.591 135.106 271.696 142.388C272.802 149.67 274.205 157.014 273.513 164.346C273.431 165.207 273.24 166.192 272.483 166.61C271.389 167.213 270.136 166.181 269.331 165.226C260.237 154.445 253.29 141.861 249.014 128.421C246.53 120.615 245.161 113.017 248.142 105.388C251.123 97.759 261.17 90.493 267.494 93.594Z" fill="#263238"/>
<path d="M260.561 129.909L272.594 204.147C274.841 218.01 283.85 231.405 305.606 226.853C324.184 221.48 322.804 208.116 320.383 191.639C320.383 191.639 340.819 186.323 338.989 165.541C338.104 155.498 334.598 134.96 331.21 116.416C327.572 96.501 309.228 82.732 289.085 84.757L287.082 84.958C265.614 88.391 256.535 108.543 260.561 129.909Z" fill="#FFBF9D"/>
<path d="M320.383 191.639C320.383 191.639 307.377 193.722 292.553 186.366C292.553 186.366 300.703 201.806 321.227 197.854L320.383 191.639Z" fill="#FF9A6C"/>
<path d="M324.169 137.207C324.382 138.767 323.237 140.233 321.611 140.485C319.989 140.736 318.5 139.68 318.287 138.12C318.074 136.56 319.219 135.092 320.841 134.84C322.466 134.587 323.956 135.647 324.169 137.207Z" fill="#263238"/>
<path d="M327.775 127.051C327.446 127.474 325.034 126.038 321.844 126.368C318.654 126.651 316.478 128.527 316.093 128.172C315.905 128.016 316.209 127.28 317.154 126.436C318.083 125.596 319.722 124.705 321.71 124.514C323.698 124.325 325.443 124.888 326.479 125.541C327.537 126.195 327.939 126.86 327.775 127.051Z" fill="#263238"/>
<path d="M294.283 139.118C294.496 140.678 293.35 142.144 291.726 142.396C290.105 142.648 288.615 141.591 288.402 140.031C288.189 138.471 289.335 137.003 290.957 136.752C292.581 136.498 294.071 137.558 294.283 139.118Z" fill="#263238"/>
<path d="M296.481 130.799C296.152 131.223 293.736 129.787 290.549 130.116C287.36 130.399 285.183 132.275 284.797 131.919C284.61 131.763 284.911 131.029 285.86 130.184C286.789 129.343 288.428 128.453 290.415 128.261C292.403 128.073 294.148 128.636 295.185 129.288C296.239 129.942 296.643 130.608 296.481 130.799Z" fill="#263238"/>
<path d="M310.436 153.291C310.403 153.111 312.351 152.569 315.523 151.835C316.329 151.669 317.084 151.43 317.165 150.86C317.298 150.252 316.869 149.408 316.379 148.5C315.415 146.606 314.406 144.621 313.346 142.54C309.113 134.046 305.962 127.028 306.305 126.861C306.649 126.693 310.359 133.443 314.591 141.937C315.616 144.034 316.594 146.032 317.527 147.944C317.928 148.839 318.564 149.836 318.271 151.099C318.113 151.729 317.56 152.232 317.052 152.424C316.546 152.636 316.088 152.691 315.688 152.756C312.47 153.255 310.466 153.471 310.436 153.291Z" fill="#263238"/>
<path d="M296.048 118.215C295.82 119.114 292.594 119.023 288.897 119.851C285.183 120.604 282.275 122.003 281.701 121.275C281.442 120.925 281.886 120.056 283.022 119.093C284.147 118.133 285.997 117.142 288.219 116.667C290.441 116.196 292.534 116.345 293.952 116.763C295.382 117.179 296.141 117.79 296.048 118.215Z" fill="#263238"/>
<path d="M325.674 117.938C325.186 118.719 322.913 118.188 320.267 118.418C317.613 118.555 315.436 119.395 314.845 118.689C314.582 118.344 314.861 117.583 315.77 116.799C316.665 116.019 318.22 115.299 320.041 115.171C321.863 115.046 323.502 115.544 324.496 116.194C325.505 116.844 325.887 117.559 325.674 117.938Z" fill="#263238"/>
<path d="M263.802 145.108C263.433 144.99 249.115 142.324 250.996 156.469C252.876 170.615 266.689 165.809 266.66 165.4C266.63 164.991 263.802 145.108 263.802 145.108Z" fill="#FFBF9D"/>
<path d="M261.627 160.615C261.558 160.578 261.403 160.821 261.012 161.067C260.631 161.307 259.949 161.528 259.175 161.35C257.608 161 256.034 158.794 255.627 156.255C255.42 154.972 255.527 153.71 255.848 152.635C256.143 151.543 256.715 150.731 257.45 150.497C258.175 150.225 258.768 150.604 258.994 150.979C259.236 151.349 259.184 151.643 259.262 151.658C259.306 151.688 259.534 151.381 259.342 150.811C259.246 150.538 259.036 150.226 258.668 149.999C258.292 149.768 257.774 149.694 257.257 149.82C256.176 150.041 255.328 151.174 254.974 152.355C254.561 153.549 254.411 154.971 254.643 156.412C255.113 159.25 256.927 161.723 259.05 162.043C260.08 162.17 260.87 161.76 261.254 161.369C261.647 160.96 261.679 160.634 261.627 160.615Z" fill="#FF9A6C"/>
<path d="M329.516 97.06C327.258 93.167 323.637 90.237 319.792 87.897C311.503 82.855 301.678 80.183 292.011 81.005C282.344 81.827 272.912 86.27 266.605 93.641C261.558 99.539 258.634 107.093 257.7 114.799C256.766 122.505 257.75 130.365 259.877 137.831C260.811 141.108 262.069 144.481 264.657 146.697C266.274 148.081 268.889 148.837 270.439 147.377C271.351 146.517 271.581 145.177 271.762 143.937C273.392 132.712 274.902 120.666 269.831 110.521C272.188 106.711 275.017 103.102 278.702 100.555C282.387 98.008 287.027 96.612 291.418 97.495C297.941 98.807 302.456 104.569 307.936 108.343C315.768 113.737 326.273 115.017 335.171 111.664L329.516 97.06Z" fill="#263238"/>
<path d="M313.244 161.91C313.016 163.242 312.78 164.595 312.184 165.808C311.588 167.021 310.57 168.096 309.261 168.435C307.867 168.797 306.335 168.247 305.305 167.242C304.274 166.236 303.702 164.832 303.47 163.411C303.261 162.126 303.526 160.484 304.76 160.069C305.274 159.896 305.835 159.991 306.368 160.088C308.773 160.523 311.179 160.958 313.584 161.394" fill="#FF9A6C"/>
<path d="M311.733 167.938C311.655 167.736 310.319 168.635 308.094 168.242C307.017 168.05 305.762 167.486 304.902 166.366C304.046 165.262 303.578 163.621 303.904 162.033C303.974 161.638 304.124 161.259 304.276 160.917C304.482 160.585 304.436 160.608 304.732 160.59C305.018 160.606 305.499 160.721 305.885 160.785C306.287 160.858 306.683 160.931 307.071 161.001C308.615 161.279 310.01 161.513 311.184 161.692C313.532 162.05 315.001 162.189 315.034 162.025C315.067 161.861 313.658 161.424 311.352 160.851C310.199 160.564 308.823 160.243 307.291 159.905C306.906 159.821 306.513 159.735 306.113 159.648C305.691 159.57 305.359 159.458 304.794 159.402C304.519 159.383 304.142 159.419 303.813 159.637C303.492 159.853 303.322 160.137 303.201 160.37C302.987 160.828 302.809 161.29 302.717 161.788C302.315 163.77 302.925 165.743 304.033 167.067C305.165 168.42 306.73 168.987 307.98 169.09C309.253 169.208 310.266 168.904 310.885 168.599C311.51 168.288 311.772 167.998 311.733 167.938Z" fill="#263238"/>
<path d="M343.01 81.375C343.041 81.367 343.136 81.685 343.29 82.306C343.388 82.932 343.536 83.88 343.383 85.096C343.152 87.489 341.755 91.063 338.251 93.786C334.771 96.547 329.268 97.658 323.599 96.792C317.854 96.006 312.115 93.246 306.11 90.775C300.134 88.302 293.95 86.635 288.428 87.647C282.91 88.583 278.63 91.758 275.817 94.863C272.959 98.004 271.36 101.123 270.427 103.302C269.522 105.508 269.207 106.802 269.114 106.777C269.083 106.769 269.144 106.443 269.29 105.826C269.414 105.202 269.701 104.312 270.091 103.169C270.933 100.921 272.465 97.699 275.329 94.425C278.146 91.193 282.518 87.836 288.281 86.806C294.052 85.705 300.433 87.425 306.457 89.917C312.511 92.413 318.158 95.144 323.723 95.948C329.227 96.834 334.504 95.82 337.856 93.265C341.251 90.732 342.697 87.346 343.026 85.05C343.383 82.697 342.888 81.388 343.01 81.375Z" fill="#455A64"/>
<path d="M250.126 124.467C250.027 124.458 250.029 122.926 250.679 120.558C251.301 118.196 252.65 115.007 254.971 112.04C256.117 110.55 257.401 109.289 258.652 108.248C259.904 107.206 261.262 106.443 262.532 106.212C263.799 105.973 264.858 106.225 265.486 106.545C266.122 106.873 266.357 107.202 266.321 107.241C266.281 107.38 264.966 106.266 262.675 106.851C260.451 107.42 257.952 109.812 255.701 112.609C253.464 115.469 252.07 118.495 251.305 120.751C250.513 123.007 250.28 124.491 250.126 124.467Z" fill="#455A64"/>
<path d="M253.876 136.713C253.778 136.697 253.906 135.166 254.679 132.818C255.443 130.476 256.973 127.357 259.398 124.447C261.834 121.544 264.634 119.486 266.803 118.32C268.977 117.143 270.461 116.746 270.494 116.84C270.553 116.984 269.17 117.593 267.136 118.883C265.101 120.165 262.466 122.232 260.107 125.041C257.761 127.858 256.193 130.817 255.291 133.047C254.383 135.277 254.027 136.746 253.876 136.713Z" fill="#455A64"/>
<path d="M330.084 216.819C330.084 216.819 345.254 236.387 348.901 243.739C352.548 251.091 378.707 332.303 378.707 332.303L367.362 337.071L330.084 216.819Z" fill="#455A64"/>
<path d="M269.046 198.502V188.694L324.165 206.615L338.934 230.25L350.314 263.258L318.406 215.307L269.046 198.502Z" fill="#EBEBEB"/>
<path d="M265.773 207.929C265.773 207.929 242.386 235.905 242.892 254.091C243.391 272 267.68 380.831 267.68 380.831L261.8 400.28L255.433 465.102H387.927L378.707 332.303C377.235 332.216 349.658 256.194 349.658 256.194L318.839 213.397L268.085 195.11L265.773 207.929Z" fill="#455A64"/>
<path d="M366.739 300.673C366.739 300.673 376.006 300.306 380.845 302.466C385.684 304.626 389.779 303.546 393.202 310.242C396.625 316.938 400.622 319.962 401.464 330.115C402.306 340.267 391.341 363.775 384.101 367.079C376.862 370.382 366.739 300.673 366.739 300.673Z" fill="#455A64"/>
<g opacity="0.3">
<path d="M263.091 299.75C263.091 299.75 317.26 350.596 324.153 355.458C331.045 360.321 332.064 391.073 340.553 391.656C349.042 392.239 376.545 371.897 376.545 371.897L295.054 295.129L263.091 299.75Z" fill="black"/>
</g>
<path d="M339.373 345.277C339.373 345.277 327.593 360.354 326.243 364.132C324.894 367.91 323.584 370.422 325.023 371.682C326.462 372.942 327.713 373.093 329.153 372.545C331.074 371.814 340.541 359.32 340.541 359.32C340.541 359.32 327.982 377.234 327.411 380.324C326.836 383.432 329.3 384.912 332.179 384.372C335.058 383.832 340.541 375.736 340.541 375.736C340.541 375.736 332.77 384.732 334.409 386.261C336.047 387.79 337.937 387.97 340.096 386.891C342.255 385.812 347.742 378.705 347.742 378.705C347.742 378.705 343.964 382.753 346.033 383.743C348.102 384.733 348.282 384.842 350.081 383.348C351.88 381.854 367.762 366.307 367.762 366.307L357.728 359.455L339.373 345.277Z" fill="#FFBF9D"/>
<path d="M344.204 354.488C344.261 354.537 343.532 355.484 342.356 357.014C341.084 358.671 339.506 360.725 337.761 362.997C335.956 365.329 334.266 367.401 332.993 368.858C331.721 370.316 330.88 371.169 330.829 371.124C330.772 371.074 331.514 370.137 332.71 368.623C333.995 366.977 335.588 364.936 337.35 362.678C339.154 360.349 340.815 358.256 342.07 356.783C343.322 355.308 344.152 354.444 344.204 354.488Z" fill="#FF9A6C"/>
<path d="M352.546 361.712C352.656 361.805 349.844 365.305 346.266 369.528C342.687 373.753 339.698 377.101 339.589 377.008C339.479 376.915 342.291 373.416 345.869 369.192C349.446 364.968 352.436 361.619 352.546 361.712Z" fill="#FF9A6C"/>
<path d="M359.237 366.238C359.343 366.335 356.396 369.726 352.655 373.812C348.913 377.899 345.795 381.132 345.688 381.035C345.582 380.938 348.528 377.547 352.27 373.46C356.012 369.375 359.131 366.141 359.237 366.238Z" fill="#FF9A6C"/>
<path d="M272.94 225.344C280.546 223.73 290.213 223.058 297.566 227.228L337.761 263.486C337.761 263.486 394.409 327.04 396.633 330.582C398.858 334.124 401.842 355.04 393.258 365.698C384.674 376.356 375.04 372.258 364.024 369.746C355.306 367.759 294.398 323.004 269.36 304.415C260.702 297.987 254.346 288.883 251.563 278.464C249.895 272.218 248.793 264.974 249.548 257.801" fill="#455A64"/>
<path d="M249.548 257.801C249.548 257.801 249.534 258.156 249.482 258.845C249.433 259.534 249.381 260.562 249.364 261.909C249.348 264.601 249.545 268.593 250.544 273.616C251.055 276.122 251.711 278.899 252.743 281.833C253.764 284.77 255.224 287.838 257.126 290.928C259.049 294.002 261.449 297.087 264.401 299.955C267.311 302.874 270.933 305.327 274.602 308.071C289.356 318.94 306.95 331.852 326.761 345.798C331.718 349.278 336.818 352.816 342.073 356.363C347.336 359.893 352.722 363.498 358.413 366.796C359.845 367.594 361.287 368.417 362.799 369.045C363.543 369.374 364.32 369.559 365.149 369.749L367.59 370.342C370.842 371.147 374.119 371.982 377.483 372.299C380.82 372.586 384.329 372.217 387.294 370.511C390.26 368.873 392.752 366.315 394.548 363.383C397.435 358.384 398.499 352.577 398.692 346.949C398.795 344.122 398.688 341.299 398.345 338.526C398.175 337.139 397.948 335.765 397.658 334.411C397.311 333.088 397.029 331.689 396.31 330.583C394.665 328.422 392.815 326.338 391.056 324.264C389.269 322.2 387.495 320.152 385.736 318.12C382.193 314.077 378.709 310.1 375.29 306.198C361.535 290.658 348.827 276.302 337.606 263.625L337.622 263.641C321.009 248.609 307.311 236.215 297.483 227.322L297.505 227.338C293.939 225.334 290.302 224.633 287.211 224.333C284.096 224.061 281.449 224.211 279.335 224.404C277.218 224.609 275.622 224.879 274.553 225.06C274.027 225.156 273.628 225.23 273.348 225.281C273.078 225.329 272.941 225.346 272.941 225.346C272.941 225.346 273.478 225.212 274.542 224.995C275.608 224.792 277.203 224.501 279.323 224.275C281.441 224.061 284.096 223.889 287.229 224.143C290.339 224.425 294.008 225.11 297.629 227.122L297.64 227.128L297.651 227.138C307.506 236.001 321.242 248.353 337.901 263.335L337.909 263.342L337.917 263.351C349.188 275.983 361.935 290.305 375.663 305.873C379.086 309.773 382.573 313.748 386.12 317.789C387.881 319.821 389.657 321.869 391.446 323.933C393.219 326.024 395.033 328.054 396.744 330.305C396.96 330.584 397.082 330.942 397.253 331.259C397.393 331.589 397.491 331.926 397.611 332.26C397.839 332.93 397.988 333.617 398.163 334.299C398.458 335.674 398.688 337.064 398.86 338.465C399.207 341.267 399.316 344.113 399.213 346.969C399.017 352.652 397.953 358.532 394.997 363.654C393.145 366.67 390.622 369.264 387.546 370.97C384.477 372.735 380.837 373.114 377.441 372.818C374.017 372.494 370.718 371.65 367.469 370.845L365.034 370.253C364.238 370.072 363.385 369.868 362.607 369.524C361.047 368.875 359.606 368.049 358.162 367.244C352.446 363.927 347.063 360.318 341.797 356.78C336.541 353.227 331.443 349.682 326.487 346.195C306.685 332.223 289.113 319.28 274.385 308.371C270.731 305.624 267.098 303.148 264.171 300.195C261.208 297.299 258.803 294.186 256.88 291.085C254.978 287.969 253.523 284.877 252.51 281.919C251.486 278.962 250.843 276.175 250.346 273.659C249.374 268.615 249.21 264.608 249.26 261.911C249.325 259.206 249.548 257.801 249.548 257.801Z" fill="#263238"/>
<path d="M351.451 260.853C351.446 260.86 351.368 260.81 351.222 260.706C351.054 260.581 350.843 260.425 350.583 260.232C350.035 259.797 349.18 259.211 348.177 258.337C346.112 256.658 343.277 254.048 339.887 250.716C336.495 247.385 332.577 243.301 328.123 238.878C325.879 236.686 323.525 234.38 320.956 232.137C318.401 229.882 315.672 227.628 312.656 225.647C311.442 224.769 310.12 224.098 308.885 223.346L308.713 223.241L308.754 223.059C308.962 222.148 309.166 221.25 309.367 220.37L309.542 220.673C297.338 216.831 286.548 213.435 278.764 210.984C274.926 209.752 271.831 208.759 269.654 208.061C268.617 207.718 267.8 207.447 267.205 207.25C266.95 207.16 266.743 207.088 266.574 207.028C266.433 206.975 266.362 206.945 266.364 206.937C266.367 206.929 266.442 206.944 266.588 206.981C266.76 207.028 266.972 207.086 267.233 207.157C267.835 207.333 268.661 207.575 269.709 207.882C271.898 208.545 275.008 209.487 278.866 210.656C286.663 213.065 297.471 216.404 309.695 220.18L309.923 220.25L309.87 220.483C309.671 221.363 309.467 222.261 309.26 223.173L309.13 222.887C310.379 223.646 311.72 224.326 312.944 225.212C315.99 227.213 318.731 229.484 321.293 231.753C323.87 234.011 326.222 236.33 328.461 238.536C332.903 242.985 336.792 247.093 340.147 250.453C343.499 253.815 346.289 256.458 348.308 258.181C349.289 259.077 350.121 259.687 350.648 260.148C350.896 260.358 351.096 260.527 351.255 260.663C351.39 260.782 351.457 260.846 351.451 260.853Z" fill="#263238"/>
<path d="M371.343 301.788C371.323 301.854 370.905 301.083 370.213 299.743C369.499 298.325 368.518 296.377 367.318 293.997C364.899 289.133 361.596 282.395 357.981 274.938C354.365 267.478 351.122 260.71 348.802 255.799C347.674 253.384 346.752 251.408 346.08 249.97C345.788 249.318 345.551 248.789 345.365 248.373C345.207 248.005 345.132 247.809 345.148 247.801C345.164 247.793 345.271 247.975 345.46 248.328C345.669 248.733 345.935 249.248 346.263 249.882C346.971 251.302 347.944 253.254 349.134 255.639C351.545 260.574 354.825 267.29 358.45 274.711C362.029 282.152 365.269 288.886 367.649 293.836C368.786 296.246 369.717 298.218 370.394 299.654C371.031 301.021 371.387 301.821 371.343 301.788Z" fill="#263238"/>
<path d="M277.707 411.492C277.712 411.486 277.834 411.49 278.068 411.505C278.324 411.524 278.665 411.548 279.1 411.58C280.028 411.656 281.354 411.764 283.056 411.903C286.511 412.201 291.485 412.63 297.677 413.163C310.083 414.271 327.361 415.814 346.968 417.565L346.695 417.883C345.672 413.757 344.602 409.441 343.511 405.042C343.012 403.027 342.518 401.029 342.035 399.079L342.257 399.274C320.228 396.718 300.657 394.447 287.064 392.87L287.234 392.783C283.993 398.526 281.495 403.161 279.865 406.384C279.052 407.996 278.457 409.258 278.104 410.129C277.926 410.564 277.809 410.903 277.757 411.135C277.692 411.37 277.722 411.48 277.707 411.492C277.67 411.509 277.655 410.971 278.013 410.096C278.339 409.207 278.908 407.93 279.696 406.302C281.277 403.047 283.728 398.386 286.932 392.615L286.987 392.515L287.102 392.528C300.701 394.063 320.279 396.272 342.315 398.759L342.494 398.779L342.537 398.955C343.02 400.904 343.515 402.902 344.015 404.917C345.104 409.316 346.171 413.632 347.192 417.759L347.279 418.111L346.919 418.077C327.263 416.239 309.941 414.619 297.504 413.456C291.337 412.86 286.383 412.381 282.942 412.048C281.263 411.878 279.955 411.745 279.039 411.652C278.616 411.605 278.284 411.568 278.036 411.541C277.814 411.515 277.702 411.498 277.707 411.492Z" fill="#263238"/>
<g opacity="0.3">
<path d="M279.503 411.656L281.87 417.822L346.944 421.704V417.822L279.503 411.656Z" fill="black"/>
</g>
<path d="M190.028 101.561C189.828 98.084 186.937 95.166 183.615 94.12C180.293 93.074 176.66 93.602 173.354 94.699C166.143 97.091 160.084 101.995 154.2 106.8C145.071 114.256 136.204 124.487 132.717 135.746C130.091 144.226 129.331 149.766 132.028 158.782C134.414 166.759 136.303 174.495 135.829 181.166C135.08 191.716 133.8 194.197 131.09 204.548C129.395 211.024 135.164 227.951 135.164 227.951L171.654 213.993C184.681 207.87 212.723 196.448 212.723 196.448L190.028 101.561Z" fill="#263238"/>
<path d="M169.511 225.286C169.568 216.412 169.656 210.234 169.651 210.298C169.651 210.298 153.721 206.622 150.511 183.896C148.915 172.594 148.082 154.628 149.293 139.538C150.383 125.956 159.678 109.428 173.202 111.094L215.323 122.513C219.431 123.019 220.806 126.522 220.653 130.659L220.962 132.602L217.876 197.476L219.204 225.069C218.665 237.396 206.468 248.605 194.141 249.17C180.5 249.796 169.423 238.941 169.511 225.286Z" fill="#FFBF9D"/>
<path d="M158.83 157.63C158.749 159.164 159.982 160.497 161.583 160.611C163.181 160.724 164.544 159.576 164.624 158.042C164.704 156.508 163.472 155.173 161.875 155.059C160.273 154.946 158.91 156.097 158.83 157.63Z" fill="#263238"/>
<path d="M155.007 149.756C155.361 150.141 157.591 148.549 160.719 148.611C163.844 148.628 166.112 150.276 166.458 149.9C166.628 149.733 166.272 149.043 165.285 148.297C164.314 147.556 162.648 146.822 160.699 146.797C158.751 146.774 157.1 147.464 156.145 148.181C155.17 148.903 154.832 149.583 155.007 149.756Z" fill="#263238"/>
<path d="M188.102 157.286C188.021 158.82 189.254 160.153 190.854 160.267C192.452 160.38 193.815 159.232 193.895 157.698C193.975 156.164 192.743 154.829 191.145 154.716C189.545 154.601 188.182 155.752 188.102 157.286Z" fill="#263238"/>
<path d="M185.005 149.667C185.36 150.052 187.593 148.46 190.718 148.523C193.842 148.54 196.111 150.188 196.457 149.811C196.626 149.644 196.275 148.954 195.284 148.209C194.313 147.467 192.647 146.734 190.698 146.708C188.75 146.686 187.099 147.375 186.144 148.093C185.171 148.814 184.831 149.494 185.005 149.667Z" fill="#263238"/>
<path d="M172.447 173.322C172.465 173.145 170.526 172.775 167.382 172.318C166.585 172.222 165.832 172.05 165.707 171.503C165.528 170.922 165.878 170.067 166.28 169.145C167.064 167.225 167.885 165.213 168.747 163.104C172.175 154.501 174.672 147.422 174.325 147.287C173.978 147.152 170.915 154.015 167.487 162.618C166.661 164.74 165.871 166.762 165.119 168.697C164.801 169.599 164.264 170.62 164.651 171.825C164.856 172.425 165.434 172.869 165.944 173.015C166.453 173.18 166.902 173.196 167.297 173.227C170.465 173.452 172.432 173.5 172.447 173.322Z" fill="#263238"/>
<path d="M169.65 210.298C169.65 210.298 184.881 211.543 200.142 202.723C200.142 202.723 192.211 218.588 169.563 216.078L169.65 210.298Z" fill="#FF9A6C"/>
<path d="M183.999 138.607C184.365 139.435 187.454 138.819 191.145 139.01C194.841 139.126 197.867 139.996 198.3 139.202C198.492 138.823 197.923 138.06 196.673 137.32C195.433 136.581 193.492 135.93 191.277 135.836C189.062 135.746 187.074 136.233 185.777 136.867C184.471 137.501 183.84 138.214 183.999 138.607Z" fill="#263238"/>
<path d="M154.128 139.991C154.767 140.712 157.329 140.019 160.395 140.037C163.461 139.964 166.048 140.612 166.658 139.879C166.926 139.523 166.529 138.804 165.406 138.112C164.3 137.423 162.44 136.843 160.333 136.86C158.226 136.88 156.389 137.493 155.311 138.202C154.215 138.914 153.847 139.639 154.128 139.991Z" fill="#263238"/>
<path d="M173.189 181.032C173.895 179.724 176.494 177.861 179.253 178.256H179.252C179.329 178.254 179.404 178.254 179.471 178.259C180.773 178.355 182.06 179.148 182.52 180.369C182.941 181.487 182.614 182.798 181.869 183.731C181.124 184.664 180.013 185.25 178.861 185.564C177.375 185.969 175.688 185.925 174.411 185.064C173.135 184.203 172.458 182.387 173.189 181.032Z" fill="#FF9A6C"/>
<path d="M181.942 176.293C181.787 176.268 181.596 177.083 181.017 178.247C180.45 179.405 179.411 180.908 177.814 182.02C176.215 183.13 174.444 183.581 173.161 183.709C171.869 183.847 171.038 183.742 171.008 183.896C170.976 184.014 171.78 184.383 173.189 184.428C174.578 184.482 176.594 184.106 178.395 182.855C180.194 181.603 181.248 179.844 181.681 178.523C182.129 177.186 182.063 176.304 181.942 176.293Z" fill="#263238"/>
<path d="M148.715 165.708L144.017 146.707C139.8 140.886 143.092 131.392 146.084 124.856C149.076 118.32 154.774 113.315 161.118 109.935C167.461 106.555 174.471 104.647 181.45 102.925C178.862 111.395 172.336 119.575 164.702 124.063C164.702 124.063 153.128 131.969 151.042 141.295C148.76 151.49 148.715 165.708 148.715 165.708Z" fill="#263238"/>
<path d="M175.074 114.929L208.141 134.802C208.141 134.802 209.163 149.866 215.188 164.537C221.29 159.319 225.06 169.375 226.891 161.645C226.987 161.242 225.212 177.861 218.819 178.381L217.767 196.447L249.305 188.692C249.305 188.692 247.609 166.786 242.227 153.498C238.88 145.233 237.109 138.307 233.805 130.025C231.304 123.756 226.863 114.39 223.524 109.93C216.355 100.354 189.829 99.93 189.829 99.93C178.134 102.69 186.007 101.375 176.163 108.265L172.798 117.302" fill="#263238"/>
<path d="M215.183 164.413C215.16 159.637 220.27 156.168 224.61 158.323C226.993 159.506 228.907 162.043 228.976 167.111C229.161 180.625 215.295 178.038 215.266 177.65C215.249 177.411 215.21 170.005 215.183 164.413Z" fill="#FFBF9D"/>
<path d="M219.403 172.47C219.464 172.426 219.646 172.632 220.054 172.808C220.452 172.98 221.133 173.093 221.848 172.819C223.296 172.274 224.49 169.989 224.523 167.552C224.541 166.322 224.263 165.154 223.805 164.191C223.371 163.208 222.71 162.527 221.975 162.41C221.244 162.256 220.731 162.693 220.568 163.076C220.389 163.456 220.48 163.725 220.407 163.75C220.369 163.784 220.108 163.527 220.211 162.968C220.264 162.699 220.422 162.378 220.741 162.113C221.068 161.845 221.552 161.703 222.063 161.75C223.126 161.806 224.095 162.751 224.599 163.808C225.16 164.869 225.503 166.181 225.482 167.563C225.431 170.288 224.045 172.857 222.062 173.45C221.097 173.712 220.284 173.437 219.863 173.124C219.433 172.796 219.356 172.495 219.403 172.47Z" fill="#FF9A6C"/>
<path d="M190.837 99.898C190.864 99.919 190.666 100.211 190.267 100.711C189.856 101.199 189.236 101.883 188.432 102.687C186.829 104.302 184.519 106.426 181.961 108.756C179.4 111.086 177.098 113.207 175.465 114.777C173.829 116.344 172.86 117.356 172.8 117.304C172.773 117.28 172.985 116.999 173.393 116.51C173.796 116.017 174.42 115.339 175.205 114.517C176.778 112.874 179.048 110.703 181.611 108.371C184.123 106.095 186.394 104.037 188.177 102.421C189.856 100.899 190.778 99.853 190.837 99.898Z" fill="#455A64"/>
<path d="M154.053 111.352C154.03 111.331 154.329 110.947 154.932 110.309C155.532 109.668 156.45 108.783 157.68 107.801C160.129 105.845 163.93 103.537 168.606 102.298C170.929 101.68 173.347 101.527 175.383 102.21C177.415 102.851 178.968 104.256 179.588 105.763C180.227 107.266 180.079 108.654 179.78 109.484C179.637 109.909 179.451 110.207 179.322 110.399C179.179 110.585 179.099 110.676 179.084 110.666C179.035 110.636 179.363 110.255 179.587 109.424C179.815 108.613 179.892 107.3 179.252 105.913C178.634 104.534 177.167 103.25 175.238 102.667C173.312 102.048 171.009 102.198 168.738 102.801C164.153 104.017 160.384 106.233 157.907 108.092C155.417 109.966 154.125 111.424 154.053 111.352Z" fill="#455A64"/>
<path d="M146.485 124.948C146.46 124.922 146.769 124.577 147.35 123.976C147.932 123.376 148.786 122.519 149.869 121.488C152.043 119.449 155.134 116.63 159.15 114.372C161.161 113.277 163.191 112.362 165.193 112.037C167.18 111.685 169.097 112.021 170.415 112.822C171.75 113.603 172.5 114.675 172.816 115.46C172.968 115.86 173.043 116.183 173.068 116.405C173.09 116.628 173.093 116.743 173.075 116.746C173.024 116.755 172.981 116.284 172.632 115.544C172.273 114.818 171.52 113.843 170.235 113.144C168.965 112.429 167.179 112.151 165.275 112.51C163.365 112.844 161.385 113.748 159.404 114.827C155.455 117.046 152.351 119.794 150.119 121.759C149.07 122.702 148.189 123.494 147.491 124.122C146.867 124.678 146.51 124.974 146.485 124.948Z" fill="#455A64"/>
<path d="M225.654 178.968C225.743 181.576 223.701 183.762 221.093 183.851C218.485 183.94 216.299 181.898 216.21 179.29C216.121 176.682 218.163 174.496 220.771 174.407C223.378 174.318 225.565 176.36 225.654 178.968Z" fill="#455A64"/>
<path d="M139.025 314.046C137.891 314.802 125.423 317.824 122.4 325.759C119.377 333.694 103.336 349.823 114.946 365.563L139.025 352.208V314.046Z" fill="#455A64"/>
<path d="M114.939 365.595L114.926 365.578C112.817 362.719 111.493 359.648 110.994 356.453C110.554 353.64 110.722 350.75 111.507 347.614C112.938 341.902 116.187 336.575 118.796 332.295C120.35 329.746 121.693 327.545 122.376 325.751C124.85 319.257 133.633 316.051 137.384 314.682C138.209 314.38 138.805 314.163 139.01 314.027L139.048 314.001V352.225L139.035 352.232L114.939 365.595ZM139 314.091C138.761 314.232 138.184 314.443 137.402 314.728C133.657 316.094 124.889 319.295 122.423 325.768C121.738 327.566 120.394 329.77 118.839 332.321C116.231 336.598 112.985 341.922 111.556 347.626C110.772 350.755 110.604 353.64 111.043 356.445C111.541 359.626 112.856 362.682 114.953 365.531L139 352.194V314.091Z" fill="#263238"/>
<path d="M166.798 248.276L168.771 221.051L218.33 200.373L220.09 210.532L186.329 227.71L166.798 248.276Z" fill="#E0E0E0"/>
<path d="M220.09 204.537C220.09 204.537 189.729 216.819 176.262 228.818C163.597 240.103 137.261 284.579 134.441 296.708C131.62 308.837 132.173 342.393 132.173 342.393C132.173 342.393 132.104 377.01 132.104 377.856C132.104 378.702 110.385 434.551 114.334 465.014H238.161C238.161 465.014 241.828 422.14 233.366 405.498C224.904 388.856 224.622 392.241 224.622 392.241C224.622 392.241 229.699 386.6 229.135 381.523C228.571 376.446 225.468 372.215 225.468 372.215L247.187 304.519C247.187 304.519 249.444 270.389 243.52 247.542C237.967 226.123 235.9 227.334 228.956 220.485C228.807 220.338 229.049 220.673 228.956 220.485L222.645 215.308L220.09 204.537Z" fill="#455A64"/>
<path d="M139.025 411.492C138.637 410.031 148.401 392.699 148.401 392.699L204.367 402.095L208.262 417.821L139.025 411.492Z" fill="#455A64"/>
<path d="M139.025 411.492C139.03 411.486 139.153 411.49 139.387 411.505C139.643 411.523 139.985 411.548 140.421 411.58C141.351 411.656 142.679 411.764 144.382 411.903C147.842 412.201 152.821 412.63 159.017 413.164C171.43 414.273 188.708 415.816 208.285 417.565L208.012 417.883C207.067 414.071 206.076 410.074 205.067 406.006C204.745 404.705 204.425 403.412 204.114 402.158L204.323 402.352C182.016 398.572 162.127 395.201 148.371 392.87L148.551 392.784C145.313 398.522 142.815 403.156 141.184 406.38C140.37 407.993 139.775 409.255 139.421 410.128C139.243 410.564 139.125 410.902 139.073 411.135C139.01 411.37 139.04 411.48 139.025 411.492C138.988 411.509 138.973 410.97 139.331 410.094C139.657 409.204 140.227 407.926 141.015 406.297C142.596 403.041 145.048 398.379 148.249 392.614L148.308 392.508L148.429 392.528C162.191 394.817 182.09 398.127 204.409 401.839L204.577 401.867L204.618 402.033C204.929 403.287 205.249 404.581 205.571 405.881C206.578 409.95 207.567 413.947 208.51 417.76L208.597 418.112L208.236 418.078C188.609 416.243 171.287 414.623 158.842 413.459C152.672 412.863 147.712 412.383 144.266 412.05C142.585 411.88 141.275 411.747 140.357 411.654C139.934 411.607 139.601 411.57 139.352 411.542C139.132 411.515 139.02 411.498 139.025 411.492Z" fill="#263238"/>
<g opacity="0.3">
<path d="M127.005 384.602L128.255 394.741C137.18 401.061 149.802 399.856 159.346 394.516C168.89 389.176 175.976 380.409 182.523 371.649C202.367 345.099 219.656 316.426 231.448 285.447C200.686 322.381 158.065 347.92 127.005 384.602Z" fill="black"/>
</g>
<path d="M226.982 233.193C237.375 241.464 246.431 267.34 230.345 289.711C230.345 289.711 160.044 385.088 148.402 392.7C136.76 400.312 121.088 395.834 116.61 384.64C112.132 373.446 113.923 362.699 120.192 355.087C126.461 347.475 167.656 274.935 167.656 274.935C167.656 274.935 177.054 241.31 193.061 231.55" fill="#455A64"/>
<path d="M193.06 231.549C193.06 231.549 192.82 231.728 192.338 232.058C191.843 232.37 191.153 232.899 190.259 233.612C188.488 235.057 186.088 237.477 183.485 241.007C178.304 248.074 172.428 259.629 167.821 274.981L167.814 275.003L167.805 275.02C158.762 290.934 147.478 310.741 134.342 332.972C131.032 338.515 127.64 344.228 123.983 349.981C123.031 351.399 122.16 352.87 121.102 354.257C120.594 354.969 120.076 355.656 119.552 356.331C119.034 357.015 118.571 357.743 118.119 358.477C117.225 359.956 116.517 361.547 115.907 363.18C115.355 364.835 114.914 366.538 114.667 368.286C114.189 371.777 114.327 375.398 115.12 378.909C115.316 379.788 115.525 380.665 115.806 381.526C116.043 382.4 116.375 383.245 116.686 384.099C116.997 384.953 117.44 385.74 117.821 386.561L118.563 387.7C118.804 388.085 119.053 388.465 119.365 388.798C121.658 391.613 124.784 393.809 128.307 394.966C131.81 396.151 135.636 396.53 139.347 395.921C142.764 395.36 146.049 394.027 148.824 392.049C151.492 389.924 153.778 387.305 156.072 384.797C160.615 379.706 164.897 374.512 169.065 369.381C177.383 359.101 185.216 349.029 192.63 339.4C200.04 329.767 207.016 320.563 213.518 311.928C216.759 307.604 219.889 303.427 222.898 299.413C224.397 297.401 225.865 295.43 227.302 293.502C228.719 291.559 230.199 289.72 231.383 287.763C233.99 283.99 235.69 279.919 236.969 276.012C237.242 275.017 237.51 274.037 237.775 273.071C238.043 272.106 238.137 271.117 238.323 270.164C238.732 268.258 238.755 266.367 238.917 264.556C239.152 257.265 237.65 251.034 235.801 246.274C233.931 241.489 231.621 238.168 229.87 236.129C229.42 235.627 229.063 235.145 228.686 234.798C228.312 234.451 227.997 234.159 227.741 233.921C227.234 233.448 226.983 233.195 226.983 233.195C226.983 233.195 227.257 233.42 227.777 233.881C228.039 234.115 228.361 234.402 228.743 234.742C229.128 235.084 229.492 235.562 229.951 236.061C231.734 238.086 234.083 241.405 235.991 246.2C237.877 250.971 239.418 257.228 239.209 264.568C239.053 266.391 239.035 268.296 238.631 270.216C238.447 271.176 238.355 272.172 238.089 273.145C237.825 274.119 237.558 275.107 237.287 276.11C236.011 280.05 234.309 284.156 231.692 287.966C230.498 289.948 229.025 291.786 227.613 293.732C226.18 295.664 224.716 297.639 223.222 299.654C220.22 303.675 217.098 307.858 213.865 312.189C207.378 320.836 200.414 330.051 193.013 339.694C185.607 349.333 177.781 359.413 169.464 369.704C165.295 374.841 161.013 380.04 156.461 385.145C155.331 386.428 154.154 387.68 152.962 388.926C151.746 390.151 150.546 391.4 149.136 392.469C146.276 394.508 142.932 395.861 139.432 396.437C135.637 397.06 131.726 396.674 128.14 395.46C124.535 394.274 121.324 392.024 118.964 389.124C118.643 388.78 118.387 388.389 118.138 387.993L117.374 386.819C116.981 385.976 116.523 385.153 116.208 384.288C115.893 383.422 115.557 382.565 115.317 381.679C115.033 380.805 114.821 379.914 114.622 379.022C113.818 375.456 113.678 371.772 114.168 368.217C114.421 366.437 114.87 364.701 115.435 363.015C116.057 361.35 116.781 359.729 117.693 358.222C118.154 357.475 118.627 356.733 119.155 356.036C119.694 355.342 120.217 354.651 120.71 353.959C121.745 352.605 122.626 351.124 123.572 349.717C127.227 343.979 130.625 338.269 133.94 332.733C147.099 310.523 158.422 290.738 167.511 274.853L167.495 274.891C172.159 259.506 178.093 247.959 183.34 240.899C185.975 237.374 188.407 234.966 190.203 233.54C191.111 232.837 191.811 232.319 192.316 232.02C192.803 231.7 193.06 231.549 193.06 231.549Z" fill="#263238"/>
<path d="M162.057 305.382C162.057 305.382 160.248 300.645 156.634 300.019C153.02 299.393 146.022 300.058 146.022 300.058C146.022 300.058 142.939 302.376 142.968 305.557C142.997 308.738 143.619 310.964 143.619 310.964C143.619 310.964 141.085 307.553 137.758 310.785C134.431 314.017 131.504 320.562 131.504 320.562C131.504 320.562 127.074 321.98 125.387 324.13C123.699 326.28 122.703 329.762 122.703 329.762C122.703 329.762 119.076 331.968 119.643 336.677C120.21 341.386 124.341 343.366 124.341 343.366C124.341 343.366 137.545 353.1 139.163 351.844C140.781 350.587 144.08 348.598 139.327 344.393C134.574 340.188 131.601 337.538 131.601 337.538L133.839 334.084C133.839 334.084 146.764 342.967 148.836 342.541C150.908 342.115 154.438 342.043 152.993 338.856C151.547 335.668 139.457 326.366 139.457 326.366L140.891 321.381C140.891 321.381 154.859 330.846 157.154 329.331C159.449 327.816 161.487 327.11 159.165 323.993C156.843 320.876 146.745 313.421 146.745 313.421L150.881 309.561C150.882 309.558 160.637 311.215 162.057 305.382Z" fill="#FFBF9D"/>
<path d="M222.646 215.307C222.648 215.316 222.53 215.351 222.299 215.414C222.042 215.482 221.703 215.571 221.272 215.685C220.37 215.925 219.038 216.27 217.333 216.755C213.928 217.728 208.996 219.172 203.117 221.522C201.649 222.111 200.124 222.763 198.569 223.51C197.789 223.879 196.997 224.261 196.212 224.694C195.82 224.908 195.41 225.107 195.022 225.339C194.649 225.591 194.253 225.811 193.889 226.095C190.95 228.336 188.274 231.321 185.509 234.45C180.031 240.782 174.443 248.116 168.715 255.905C162.996 263.708 157.706 271.256 152.969 278.171C150.603 281.63 148.377 284.933 146.324 288.043C144.26 291.15 142.401 294.071 141.013 296.915C138.201 302.584 136.545 307.459 135.446 310.821C134.904 312.508 134.514 313.827 134.252 314.723C134.128 315.151 134.031 315.488 133.957 315.743C133.889 315.972 133.852 316.089 133.843 316.087C133.835 316.085 133.854 315.963 133.905 315.73C133.966 315.471 134.047 315.129 134.15 314.696C134.379 313.79 134.738 312.46 135.252 310.761C136.294 307.373 137.899 302.471 140.683 296.751C142.057 293.88 143.917 290.919 145.963 287.806C148.003 284.683 150.216 281.369 152.573 277.9C157.291 270.966 162.572 263.405 168.296 255.596C174.029 247.8 179.634 240.468 185.149 234.134C187.937 231.001 190.623 228.021 193.636 225.746C194.009 225.458 194.425 225.228 194.812 224.97C195.211 224.735 195.62 224.539 196.018 224.324C196.812 223.892 197.611 223.512 198.398 223.145C199.967 222.404 201.503 221.76 202.981 221.179C208.899 218.865 213.854 217.473 217.28 216.559C218.995 216.104 220.337 215.789 221.247 215.583C221.683 215.49 222.026 215.417 222.287 215.362C222.522 215.316 222.644 215.299 222.646 215.307Z" fill="#263238"/>
<path d="M214.787 386.237C214.768 386.267 214.218 385.955 213.24 385.363C212.257 384.779 210.87 383.873 209.194 382.7C205.839 380.36 201.391 376.836 196.955 372.432C192.525 368.018 188.977 363.588 186.62 360.246C185.438 358.576 184.525 357.195 183.935 356.215C183.338 355.24 183.023 354.692 183.053 354.673C183.083 354.654 183.456 355.165 184.104 356.104C184.744 357.048 185.702 358.394 186.917 360.03C189.342 363.305 192.916 367.672 197.322 372.063C201.735 376.444 206.121 379.993 209.409 382.401C211.052 383.607 212.402 384.557 213.35 385.193C214.293 385.836 214.806 386.207 214.787 386.237Z" fill="#263238"/>
<g opacity="0.3">
<path d="M140.821 411.656L142.514 417.822L205.889 417.605L140.821 411.656Z" fill="black"/>
</g>
</svg>
