<svg width="500" height="500" viewBox="0 0 500 500" fill="none" xmlns="http://www.w3.org/2000/svg">
<path d="M317.524 250.717C269.485 250.261 226.012 249.849 194.501 249.55C178.781 249.475 166.056 249.414 157.219 249.372C152.841 249.382 149.434 249.39 147.082 249.395C145.947 249.41 145.072 249.422 144.446 249.43C143.852 249.444 143.548 249.461 143.548 249.479C143.548 249.497 143.852 249.516 144.446 249.536C145.073 249.551 145.947 249.571 147.082 249.598C149.434 249.627 152.841 249.67 157.218 249.724C166.054 249.771 178.78 249.839 194.5 249.923C226.013 249.943 269.487 249.97 317.528 250C365.545 249.995 409.027 250.058 440.505 250.287C456.244 250.399 468.981 250.546 477.784 250.714C482.185 250.798 485.603 250.885 487.92 250.974C490.237 251.063 491.454 251.152 491.454 251.238C491.453 251.323 490.236 251.401 487.918 251.466C485.6 251.531 482.182 251.585 477.78 251.624C468.975 251.702 456.237 251.721 440.498 251.674C409.019 251.584 365.539 251.207 317.524 250.717Z" fill="#EBEBEB"/>
<path d="M316.567 261.407C269.184 253.591 226.305 246.518 195.225 241.391C179.708 238.909 167.146 236.9 158.423 235.505C154.097 234.845 150.73 234.332 148.405 233.978C147.281 233.82 146.415 233.698 145.795 233.611C145.206 233.535 144.903 233.505 144.899 233.523C144.896 233.541 145.193 233.608 145.777 233.719C146.394 233.83 147.254 233.985 148.37 234.186C150.689 234.576 154.047 235.141 158.363 235.867C167.085 237.269 179.645 239.287 195.16 241.78C226.287 246.626 269.23 253.312 316.684 260.7C364.119 268.048 407.064 274.769 438.124 279.819C453.654 282.341 466.214 284.44 474.883 285.956C479.218 286.714 482.58 287.326 484.854 287.77C487.129 288.214 488.316 288.49 488.302 288.576C488.288 288.662 487.073 288.553 484.773 288.263C482.473 287.974 479.087 287.504 474.732 286.868C466.022 285.598 453.435 283.665 437.895 281.207C406.812 276.296 363.92 269.255 316.567 261.407Z" fill="#EBEBEB"/>
<path d="M313.923 271.817C268.38 256.738 227.167 243.092 197.293 233.201C182.366 228.341 170.282 224.406 161.89 221.673C157.723 220.35 154.48 219.321 152.24 218.61C151.155 218.28 150.32 218.025 149.721 217.843C149.151 217.676 148.857 217.6 148.851 217.618C148.845 217.636 149.128 217.748 149.686 217.949C150.277 218.155 151.102 218.441 152.173 218.814C154.401 219.56 157.626 220.639 161.772 222.027C170.162 224.766 182.242 228.71 197.166 233.582C227.131 243.2 268.471 256.47 314.153 271.133C359.824 285.753 401.16 299.058 431.025 308.869C445.959 313.772 458.026 317.796 466.345 320.641C470.504 322.063 473.726 323.19 475.902 323.983C478.077 324.776 479.206 325.234 479.178 325.317C479.15 325.4 477.967 325.105 475.741 324.462C473.516 323.82 470.247 322.83 466.048 321.527C457.649 318.921 445.528 315.059 430.574 310.217C400.663 300.54 359.43 286.925 313.923 271.817Z" fill="#EBEBEB"/>
<path d="M309.653 281.676C267.082 259.721 228.557 239.852 200.633 225.451C186.667 218.334 175.361 212.573 167.511 208.573C163.607 206.619 160.568 205.099 158.472 204.05C157.453 203.555 156.669 203.173 156.107 202.9C155.571 202.647 155.293 202.525 155.284 202.541C155.275 202.558 155.537 202.712 156.056 202.997C156.606 203.291 157.376 203.702 158.374 204.236C160.454 205.317 163.468 206.884 167.341 208.897C175.188 212.903 186.49 218.672 200.451 225.799C228.507 239.949 267.213 259.472 309.984 281.045C352.751 302.574 391.449 322.13 419.377 336.453C433.342 343.612 444.618 349.457 452.38 353.555C456.261 355.604 459.264 357.216 461.286 358.335C463.308 359.454 464.35 360.08 464.31 360.157C464.27 360.234 463.15 359.757 461.055 358.776C458.96 357.795 455.891 356.31 451.952 354.37C444.075 350.492 432.721 344.795 418.726 337.693C390.733 323.495 352.185 303.653 309.653 281.676Z" fill="#EBEBEB"/>
<path d="M303.866 290.757C265.298 262.509 230.397 236.946 205.098 218.417C192.432 209.235 182.179 201.802 175.059 196.64C171.513 194.108 168.753 192.139 166.847 190.778C165.92 190.132 165.205 189.635 164.694 189.278C164.205 188.945 163.949 188.782 163.938 188.797C163.927 188.812 164.161 189.004 164.629 189.366C165.127 189.742 165.821 190.266 166.722 190.947C168.606 192.336 171.334 194.348 174.841 196.933C181.958 202.1 192.205 209.54 204.865 218.731C230.334 237.032 265.47 262.281 304.296 290.181C343.125 318.038 378.247 343.319 403.561 361.771C416.22 370.995 426.43 378.506 433.447 383.751C436.956 386.373 439.666 388.428 441.486 389.846C443.306 391.263 444.236 392.042 444.184 392.112C444.132 392.182 443.101 391.538 441.187 390.247C439.274 388.955 436.477 387.016 432.894 384.493C425.728 379.448 415.417 372.072 402.72 362.9C377.321 344.559 342.393 319.02 303.866 290.757Z" fill="#EBEBEB"/>
<path d="M296.717 298.834C263.073 265.015 232.628 234.41 210.559 212.226C199.496 201.213 190.539 192.297 184.32 186.106C181.216 183.061 178.801 180.692 177.133 179.056C176.319 178.275 175.692 177.674 175.242 177.244C174.812 176.84 174.584 176.64 174.571 176.653C174.557 176.666 174.759 176.892 175.164 177.321C175.596 177.769 176.2 178.393 176.983 179.203C178.625 180.864 181.003 183.27 184.059 186.361C190.274 192.556 199.224 201.478 210.28 212.498C232.552 234.483 263.278 264.814 297.232 298.331C331.195 331.805 361.901 362.166 383.997 384.276C395.048 395.329 403.949 404.315 410.053 410.572C413.105 413.7 415.459 416.146 417.033 417.825C418.608 419.504 419.403 420.416 419.341 420.477C419.279 420.538 418.362 419.744 416.675 418.174C414.989 416.604 412.532 414.259 409.391 411.218C403.108 405.135 394.086 396.267 382.99 385.259C360.794 363.248 330.317 332.662 296.717 298.834Z" fill="#EBEBEB"/>
<path d="M288.383 305.717C260.483 267.148 235.235 232.246 216.935 206.947C207.743 194.371 200.302 184.19 195.135 177.121C192.549 173.637 190.537 170.927 189.147 169.055C188.466 168.159 187.941 167.469 187.565 166.975C187.204 166.51 187.011 166.277 186.995 166.288C186.98 166.299 187.142 166.553 187.475 167.039C187.831 167.547 188.328 168.256 188.974 169.178C190.334 171.071 192.304 173.812 194.835 177.334C199.997 184.407 207.431 194.593 216.614 207.175C235.147 232.309 260.716 266.983 288.97 305.3C317.24 343.576 342.785 378.277 361.125 403.507C370.297 416.12 377.673 426.363 382.716 433.48C385.238 437.039 387.177 439.815 388.467 441.716C389.757 443.616 390.399 444.639 390.328 444.69C390.257 444.741 389.477 443.816 388.058 442.007C386.64 440.198 384.583 437.505 381.959 434.018C376.712 427.046 369.198 416.902 359.973 404.326C341.519 379.176 316.238 344.287 288.383 305.717Z" fill="#EBEBEB"/>
<path d="M279.062 311.233C257.621 268.836 238.219 230.47 224.155 202.66C217.07 188.821 211.334 177.619 207.351 169.839C205.349 166 203.791 163.012 202.715 160.949C202.184 159.959 201.775 159.197 201.482 158.651C201.198 158.136 201.044 157.877 201.027 157.885C201.01 157.894 201.13 158.17 201.382 158.701C201.653 159.258 202.032 160.035 202.523 161.045C203.566 163.124 205.077 166.135 207.018 170.005C210.995 177.787 216.722 188.994 223.797 202.838C238.118 230.52 257.876 268.71 279.709 310.911C301.564 353.074 321.295 391.287 335.409 419.035C342.469 432.908 348.13 444.161 351.982 451.969C353.908 455.873 355.383 458.914 356.356 460.99C357.329 463.066 357.801 464.176 357.722 464.215C357.643 464.254 357.019 463.221 355.904 461.215C354.789 459.21 353.185 456.233 351.146 452.385C347.068 444.69 341.255 433.512 334.137 419.668C319.895 391.984 300.458 353.625 279.062 311.233Z" fill="#EBEBEB"/>
<path d="M268.978 315.24C254.569 270.044 241.53 229.145 232.079 199.499C227.289 184.734 223.412 172.78 220.72 164.48C219.355 160.378 218.293 157.186 217.559 154.982C217.192 153.922 216.91 153.106 216.707 152.521C216.509 151.969 216.399 151.688 216.38 151.694C216.362 151.7 216.436 151.991 216.6 152.555C216.779 153.147 217.029 153.974 217.353 155.047C218.051 157.262 219.062 160.47 220.361 164.593C223.047 172.895 226.915 184.851 231.692 199.62C241.419 229.179 254.839 269.959 269.668 315.022C284.526 360.051 297.915 400.848 307.426 430.441C312.185 445.236 315.979 457.228 318.537 465.536C319.816 469.69 320.787 472.923 321.416 475.124C322.046 477.325 322.334 478.495 322.249 478.521C322.165 478.547 321.713 477.43 320.931 475.277C320.15 473.124 319.04 469.935 317.64 465.819C314.84 457.587 310.883 445.646 306.062 430.871C296.418 401.321 283.343 360.424 268.978 315.24Z" fill="#EBEBEB"/>
<path d="M258.377 317.631C251.358 270.763 245.006 228.35 240.401 197.606C238.027 182.281 236.106 169.875 234.772 161.261C234.079 156.998 233.539 153.681 233.167 151.391C232.974 150.287 232.826 149.438 232.719 148.829C232.612 148.253 232.547 147.959 232.529 147.962C232.511 147.965 232.538 148.264 232.61 148.846C232.692 149.459 232.807 150.313 232.956 151.423C233.292 153.719 233.779 157.044 234.405 161.317C235.733 169.933 237.645 182.34 240.007 197.666C244.896 228.366 251.642 270.721 259.095 317.523C266.582 364.297 273.294 406.664 277.965 437.363C280.304 452.712 282.138 465.144 283.339 473.745C283.94 478.046 284.382 481.389 284.653 483.66C284.924 485.931 285.022 487.131 284.935 487.144C284.848 487.157 284.58 485.983 284.152 483.736C283.724 481.488 283.138 478.167 282.413 473.885C280.962 465.321 278.959 452.915 276.556 437.575C271.743 406.897 265.356 364.481 258.377 317.631Z" fill="#EBEBEB"/>
<path d="M247.525 318.358C247.957 270.983 248.349 228.112 248.633 197.036C248.699 181.534 248.753 168.984 248.79 160.27C248.777 155.953 248.767 152.593 248.76 150.274C248.744 149.154 248.731 148.292 248.722 147.674C248.707 147.088 248.691 146.788 248.673 146.788C248.655 146.788 248.635 147.088 248.615 147.673C248.6 148.291 248.58 149.153 248.554 150.272C248.526 152.591 248.485 155.951 248.433 160.268C248.391 168.983 248.329 181.532 248.254 197.034C248.253 228.111 248.252 270.984 248.251 318.36C248.286 365.713 248.249 408.594 248.036 439.636C247.932 455.157 247.791 467.719 247.626 476.4C247.544 480.741 247.457 484.111 247.368 486.396C247.279 488.681 247.19 489.881 247.103 489.881C247.016 489.881 246.937 488.68 246.87 486.394C246.802 484.108 246.746 480.737 246.704 476.396C246.619 467.714 246.592 455.151 246.631 439.63C246.702 408.589 247.057 365.709 247.525 318.358Z" fill="#EBEBEB"/>
<path d="M236.685 317.421C244.581 270.689 251.726 228.399 256.905 197.744C259.412 182.44 261.441 170.051 262.85 161.448C263.516 157.181 264.034 153.86 264.392 151.568C264.552 150.459 264.674 149.606 264.763 148.994C264.84 148.413 264.87 148.114 264.852 148.111C264.833 148.108 264.766 148.401 264.653 148.976C264.541 149.584 264.384 150.432 264.181 151.534C263.787 153.821 263.216 157.133 262.483 161.389C261.068 169.991 259.029 182.379 256.51 197.681C251.615 228.38 244.863 270.733 237.401 317.535C229.98 364.319 223.192 406.674 218.09 437.307C215.542 452.624 213.422 465.011 211.89 473.561C211.124 477.836 210.506 481.152 210.057 483.396C209.608 485.64 209.329 486.811 209.242 486.797C209.155 486.783 209.265 485.585 209.557 483.316C209.849 481.047 210.324 477.708 210.965 473.413C212.248 464.823 214.199 452.409 216.683 437.082C221.644 406.428 228.756 364.124 236.685 317.421Z" fill="#EBEBEB"/>
<path d="M226.126 314.82C241.388 269.898 255.2 229.246 265.21 199.779C270.129 185.056 274.111 173.136 276.877 164.859C278.216 160.749 279.257 157.55 279.976 155.341C280.31 154.271 280.568 153.447 280.752 152.856C280.921 152.294 280.998 152.004 280.98 151.998C280.962 151.992 280.848 152.271 280.645 152.822C280.437 153.405 280.146 154.219 279.77 155.275C279.015 157.473 277.922 160.654 276.518 164.743C273.746 173.018 269.754 184.935 264.824 199.654C255.089 229.211 241.66 269.987 226.82 315.047C212.023 360.095 198.558 400.869 188.628 430.327C183.666 445.057 179.593 456.96 176.713 465.165C175.274 469.268 174.133 472.446 173.331 474.592C172.529 476.738 172.065 477.851 171.98 477.823C171.896 477.796 172.195 476.629 172.844 474.434C173.494 472.239 174.495 469.015 175.814 464.873C178.451 456.589 182.36 444.633 187.26 429.883C197.056 400.378 210.836 359.708 226.126 314.82Z" fill="#EBEBEB"/>
<path d="M216.126 310.616C238.362 268.62 258.485 230.615 273.071 203.068C280.279 189.291 286.114 178.138 290.165 170.393C292.144 166.541 293.683 163.544 294.746 161.476C295.248 160.471 295.634 159.697 295.91 159.143C296.167 158.615 296.29 158.34 296.273 158.331C296.256 158.323 296.1 158.581 295.812 159.093C295.514 159.636 295.098 160.395 294.557 161.38C293.462 163.432 291.875 166.405 289.836 170.226C285.779 177.967 279.935 189.116 272.717 202.888C258.386 230.564 238.614 268.748 216.765 310.941C194.96 353.13 175.155 391.304 160.649 418.855C153.398 432.632 147.479 443.755 143.328 451.412C141.253 455.241 139.62 458.203 138.487 460.198C137.354 462.193 136.719 463.221 136.642 463.181C136.564 463.141 137.047 462.036 138.04 459.97C139.034 457.904 140.538 454.876 142.502 450.991C146.43 443.22 152.199 432.02 159.392 418.215C173.772 390.601 193.868 352.574 216.126 310.616Z" fill="#EBEBEB"/>
<path d="M206.915 304.915C235.535 266.863 261.435 232.428 280.208 207.469C289.511 194.973 297.042 184.856 302.272 177.832C304.837 174.333 306.833 171.611 308.211 169.731C308.865 168.816 309.369 168.111 309.731 167.606C310.068 167.124 310.233 166.871 310.218 166.86C310.203 166.849 310.008 167.08 309.642 167.541C309.261 168.032 308.73 168.717 308.041 169.606C306.633 171.465 304.596 174.157 301.976 177.616C296.741 184.637 289.203 194.748 279.891 207.238C261.349 232.365 235.768 267.031 207.5 305.339C179.277 343.648 153.663 378.3 134.968 403.276C125.623 415.765 118.012 425.839 112.698 432.762C110.041 436.223 107.959 438.898 106.523 440.693C105.087 442.489 104.297 443.406 104.227 443.355C104.156 443.304 104.808 442.287 106.117 440.398C107.425 438.51 109.391 435.751 111.946 432.217C117.057 425.147 124.531 414.974 133.823 402.446C152.404 377.388 178.28 342.926 206.915 304.915Z" fill="#EBEBEB"/>
<path d="M198.72 297.87C232.993 264.671 264.008 234.627 286.489 212.85C297.65 201.933 306.685 193.095 312.959 186.958C316.045 183.895 318.446 181.512 320.104 179.866C320.895 179.063 321.504 178.444 321.94 178.001C322.349 177.576 322.553 177.352 322.539 177.339C322.526 177.326 322.297 177.524 321.862 177.924C321.408 178.351 320.776 178.946 319.954 179.719C318.271 181.339 315.833 183.686 312.7 186.702C306.422 192.835 297.381 201.667 286.212 212.576C263.932 234.553 233.195 264.874 199.229 298.378C165.306 331.892 134.539 362.192 112.132 383.996C100.931 394.9 91.824 403.684 85.483 409.708C82.313 412.72 79.834 415.042 78.133 416.596C76.432 418.15 75.507 418.935 75.445 418.874C75.383 418.813 76.188 417.908 77.778 416.244C79.368 414.58 81.745 412.156 84.827 409.056C90.991 402.856 99.978 393.953 111.133 383.004C133.443 361.1 164.438 331.026 198.72 297.87Z" fill="#EBEBEB"/>
<path d="M191.735 289.655C230.827 262.117 266.204 237.197 291.846 219.134C304.593 210.062 314.912 202.717 322.077 197.617C325.608 195.065 328.355 193.079 330.253 191.707C331.161 191.035 331.86 190.517 332.361 190.146C332.832 189.789 333.068 189.599 333.057 189.584C333.046 189.569 332.789 189.73 332.297 190.058C331.781 190.41 331.063 190.901 330.129 191.538C328.21 192.88 325.432 194.824 321.862 197.323C314.693 202.418 304.369 209.756 291.616 218.819C266.141 237.112 230.996 262.349 192.16 290.236C153.365 318.139 118.193 343.352 92.62 361.454C79.835 370.507 69.454 377.788 62.24 382.765C58.633 385.254 55.818 387.168 53.892 388.441C51.966 389.715 50.929 390.349 50.877 390.278C50.826 390.208 51.763 389.438 53.597 388.037C55.43 386.637 58.16 384.607 61.694 382.018C68.761 376.839 79.042 369.423 91.789 360.317C117.279 342.102 152.641 317.149 191.735 289.655Z" fill="#EBEBEB"/>
<path d="M186.135 280.467C229.113 259.296 268.005 240.138 296.197 226.251C310.225 219.255 321.582 213.592 329.468 209.659C333.36 207.682 336.389 206.144 338.479 205.082C339.483 204.557 340.255 204.154 340.809 203.864C341.331 203.584 341.594 203.432 341.585 203.415C341.576 203.398 341.296 203.517 340.758 203.765C340.194 204.033 339.405 204.407 338.382 204.892C336.275 205.922 333.222 207.413 329.299 209.33C321.41 213.257 310.05 218.912 296.017 225.898C267.956 240.038 229.242 259.547 186.462 281.105C143.721 302.685 104.985 322.166 76.857 336.102C62.794 343.073 51.386 348.662 43.471 352.466C39.514 354.368 36.43 355.824 34.326 356.785C32.222 357.746 31.097 358.211 31.057 358.134C31.017 358.056 32.065 357.44 34.098 356.339C36.131 355.238 39.149 353.654 43.049 351.641C50.849 347.615 62.18 341.875 76.214 334.847C104.278 320.786 143.162 301.593 186.135 280.467Z" fill="#EBEBEB"/>
<path d="M182.067 270.524C227.887 256.286 269.352 243.401 299.408 234.062C314.377 229.329 326.496 225.498 334.911 222.838C339.07 221.489 342.306 220.44 344.54 219.715C345.614 219.353 346.442 219.074 347.035 218.874C347.595 218.678 347.879 218.569 347.873 218.551C347.867 218.533 347.572 218.607 347 218.768C346.4 218.945 345.562 219.192 344.474 219.512C342.228 220.202 338.976 221.201 334.796 222.485C326.379 225.139 314.257 228.961 299.284 233.682C269.316 243.293 227.973 256.553 182.287 271.205C136.636 285.886 95.275 299.115 65.274 308.514C50.274 313.216 38.117 316.966 29.693 319.494C25.481 320.758 22.204 321.717 19.973 322.339C17.741 322.961 16.556 323.246 16.529 323.163C16.502 323.08 17.635 322.633 19.818 321.861C22.001 321.089 25.234 319.993 29.407 318.61C37.753 315.844 49.858 311.933 64.838 307.17C94.796 297.639 136.258 284.72 182.067 270.524Z" fill="#EBEBEB"/>
<path d="M179.635 260.072C227.156 253.12 270.161 246.829 301.332 242.27C316.87 239.92 329.449 238.017 338.183 236.696C342.506 236.01 345.869 235.476 348.191 235.107C349.31 234.916 350.171 234.769 350.789 234.664C351.373 234.558 351.671 234.494 351.668 234.476C351.665 234.458 351.362 234.485 350.772 234.556C350.151 234.638 349.284 234.751 348.158 234.899C345.83 235.232 342.459 235.714 338.127 236.334C329.391 237.649 316.811 239.543 301.271 241.882C270.143 246.723 227.199 253.401 179.745 260.781C132.32 268.194 89.363 274.839 58.236 279.465C42.673 281.781 30.068 283.598 21.347 284.788C16.986 285.383 13.597 285.822 11.294 286.09C8.991 286.358 7.775 286.456 7.761 286.37C7.748 286.284 8.938 286.019 11.217 285.596C13.496 285.173 16.863 284.592 21.205 283.874C29.888 282.438 42.467 280.454 58.02 278.075C89.125 273.309 132.132 266.983 179.635 260.072Z" fill="#EBEBEB"/>
<path d="M178.891 249.372C226.931 249.769 270.404 250.128 301.915 250.389C317.635 250.445 330.361 250.49 339.198 250.521C343.576 250.506 346.982 250.493 349.334 250.485C350.469 250.468 351.344 250.455 351.97 250.446C352.564 250.431 352.868 250.415 352.868 250.397C352.868 250.379 352.564 250.36 351.97 250.341C351.344 250.327 350.469 250.307 349.334 250.282C346.982 250.256 343.575 250.218 339.198 250.168C330.361 250.132 317.635 250.079 301.915 250.014C270.403 250.033 226.928 250.058 178.887 250.087C130.87 250.151 87.387 250.141 55.909 249.95C40.17 249.858 27.432 249.726 18.629 249.569C14.227 249.491 10.81 249.407 8.493 249.321C6.176 249.235 4.959 249.147 4.959 249.062C4.959 248.977 6.177 248.898 8.494 248.83C10.812 248.762 14.23 248.704 18.632 248.66C27.436 248.571 40.175 248.537 55.914 248.565C87.395 248.615 130.876 248.94 178.891 249.372Z" fill="#EBEBEB"/>
<path d="M179.834 238.68C227.227 246.437 270.115 253.456 301.202 258.544C316.722 261.006 329.286 263 338.011 264.384C342.339 265.038 345.706 265.547 348.031 265.899C349.155 266.056 350.021 266.176 350.642 266.263C351.231 266.339 351.535 266.368 351.537 266.35C351.54 266.332 351.243 266.265 350.66 266.155C350.043 266.045 349.183 265.891 348.065 265.691C345.746 265.304 342.387 264.743 338.071 264.023C329.347 262.632 316.785 260.63 301.266 258.156C270.133 253.349 227.181 246.717 179.718 239.388C132.273 232.1 89.319 225.432 58.254 220.421C42.72 217.918 30.158 215.835 21.487 214.33C17.151 213.578 13.789 212.97 11.513 212.529C9.237 212.088 8.05 211.813 8.063 211.727C8.077 211.641 9.293 211.749 11.593 212.035C13.894 212.321 17.28 212.787 21.635 213.417C30.346 214.676 42.936 216.593 58.48 219.032C89.57 223.904 132.471 230.891 179.834 238.68Z" fill="#EBEBEB"/>
<path d="M182.465 228.266C228.027 243.288 269.258 256.882 299.145 266.736C314.078 271.578 326.167 275.497 334.563 278.219C338.732 279.536 341.976 280.561 344.216 281.269C345.301 281.598 346.137 281.851 346.736 282.033C347.306 282.199 347.601 282.275 347.607 282.257C347.613 282.239 347.33 282.127 346.772 281.927C346.18 281.722 345.355 281.436 344.284 281.065C342.055 280.322 338.828 279.246 334.681 277.864C326.288 275.136 314.202 271.207 299.273 266.354C269.295 256.773 227.938 243.555 182.237 228.95C136.547 214.387 95.193 201.134 65.316 191.36C50.376 186.476 38.304 182.467 29.982 179.633C25.821 178.216 22.597 177.093 20.421 176.303C18.245 175.513 17.115 175.057 17.143 174.973C17.171 174.89 18.354 175.184 20.581 175.823C22.807 176.462 26.077 177.448 30.278 178.745C38.68 181.34 50.806 185.187 65.767 190.01C95.688 199.652 136.938 213.216 182.465 228.266Z" fill="#EBEBEB"/>
<path d="M186.722 218.402C229.322 240.304 267.872 260.124 295.814 274.491C309.789 281.59 321.102 287.337 328.958 291.328C332.865 293.277 335.905 294.793 338.003 295.84C339.023 296.334 339.807 296.714 340.369 296.987C340.905 297.24 341.184 297.361 341.193 297.344C341.202 297.328 340.94 297.174 340.42 296.889C339.869 296.596 339.1 296.185 338.101 295.653C336.019 294.574 333.003 293.012 329.128 291.003C321.275 287.007 309.966 281.251 295.997 274.142C267.923 260.026 229.192 240.552 186.392 219.033C143.597 197.557 104.875 178.049 76.929 163.761C62.955 156.62 51.671 150.789 43.904 146.7C40.021 144.656 37.016 143.048 34.992 141.931C32.968 140.814 31.925 140.19 31.965 140.113C32.005 140.036 33.126 140.512 35.222 141.49C37.318 142.468 40.389 143.949 44.33 145.884C52.212 149.752 63.573 155.435 77.577 162.52C105.588 176.684 144.161 196.478 186.722 218.402Z" fill="#EBEBEB"/>
<path d="M192.497 209.314C231.101 237.514 266.035 263.034 291.357 281.531C304.035 290.697 314.297 298.118 321.424 303.271C324.974 305.798 327.736 307.764 329.642 309.122C330.571 309.767 331.286 310.264 331.798 310.619C332.287 310.952 332.543 311.114 332.555 311.099C332.566 311.084 332.332 310.892 331.864 310.531C331.366 310.156 330.671 309.632 329.768 308.953C327.882 307.566 325.152 305.558 321.642 302.977C314.519 297.819 304.261 290.392 291.59 281.217C266.098 262.947 230.93 237.742 192.068 209.89C153.203 182.081 118.049 156.844 92.712 138.423C80.041 129.215 69.821 121.716 62.798 116.48C59.286 113.862 56.573 111.81 54.751 110.396C52.929 108.981 51.998 108.203 52.05 108.133C52.102 108.063 53.134 108.705 55.049 109.994C56.964 111.283 59.763 113.22 63.349 115.738C70.521 120.774 80.842 128.138 93.551 137.294C118.974 155.603 153.935 181.099 192.497 209.314Z" fill="#EBEBEB"/>
<path d="M199.636 201.228C233.322 235.006 263.807 265.573 285.903 287.729C296.98 298.728 305.948 307.633 312.175 313.816C315.283 316.857 317.701 319.223 319.371 320.857C320.186 321.637 320.814 322.237 321.264 322.667C321.695 323.071 321.923 323.27 321.936 323.257C321.949 323.244 321.748 323.018 321.342 322.59C320.909 322.143 320.305 321.519 319.521 320.71C317.877 319.051 315.496 316.648 312.436 313.561C306.213 307.374 297.252 298.463 286.182 287.456C263.882 265.498 233.117 235.205 199.122 201.731C165.117 168.299 134.371 137.976 112.247 115.893C101.182 104.854 92.27 95.879 86.157 89.63C83.101 86.505 80.744 84.063 79.168 82.386C77.592 80.709 76.795 79.798 76.857 79.737C76.919 79.676 77.837 80.469 79.525 82.036C81.213 83.603 83.673 85.946 86.818 88.983C93.109 95.058 102.142 103.915 113.253 114.909C135.478 136.893 165.993 167.441 199.636 201.228Z" fill="#EBEBEB"/>
<path d="M207.962 194.335C235.911 232.869 261.203 267.74 279.536 293.017C288.744 305.582 296.198 315.753 301.374 322.816C303.965 326.296 305.98 329.005 307.372 330.875C308.055 331.77 308.58 332.459 308.957 332.953C309.319 333.417 309.512 333.65 309.527 333.639C309.542 333.628 309.379 333.374 309.046 332.889C308.689 332.381 308.191 331.672 307.544 330.752C306.182 328.861 304.209 326.122 301.673 322.603C296.502 315.536 289.055 305.36 279.856 292.789C261.291 267.678 235.678 233.035 207.374 194.754C179.055 156.513 153.466 121.844 135.094 96.636C125.905 84.034 118.517 73.801 113.465 66.69C110.939 63.135 108.997 60.36 107.704 58.462C106.411 56.564 105.768 55.541 105.839 55.491C105.91 55.44 106.692 56.364 108.113 58.171C109.534 59.978 111.594 62.669 114.222 66.152C119.478 73.117 127.005 83.252 136.246 95.817C154.732 120.941 180.057 155.799 207.962 194.335Z" fill="#EBEBEB"/>
<path d="M217.275 188.806C238.77 231.176 258.222 269.518 272.321 297.311C279.424 311.141 285.174 322.336 289.167 330.111C291.174 333.948 292.736 336.934 293.814 338.995C294.347 339.984 294.756 340.746 295.05 341.292C295.334 341.806 295.488 342.066 295.505 342.057C295.522 342.049 295.401 341.773 295.149 341.242C294.877 340.685 294.497 339.908 294.005 338.9C292.959 336.822 291.445 333.813 289.499 329.946C285.512 322.169 279.77 310.969 272.677 297.134C258.32 269.47 238.513 231.305 216.626 189.131C194.717 146.995 174.937 108.807 160.787 81.077C153.71 67.213 148.034 55.966 144.172 48.164C142.241 44.263 140.762 41.223 139.787 39.148C138.812 37.073 138.338 35.964 138.417 35.925C138.495 35.886 139.122 36.918 140.239 38.922C141.356 40.926 142.965 43.901 145.008 47.746C149.096 55.436 154.923 66.607 162.059 80.441C176.338 108.107 195.825 146.441 217.275 188.806Z" fill="#EBEBEB"/>
<path d="M227.354 184.787C241.821 229.965 254.913 270.848 264.403 300.482C269.211 315.241 273.104 327.189 275.807 335.487C277.177 339.587 278.244 342.778 278.98 344.981C279.348 346.04 279.632 346.856 279.835 347.441C280.034 347.993 280.145 348.273 280.163 348.267C280.181 348.261 280.106 347.97 279.942 347.407C279.762 346.815 279.511 345.989 279.186 344.916C278.485 342.702 277.47 339.495 276.165 335.374C273.469 327.075 269.585 315.124 264.788 300.361C255.023 270.814 241.551 230.051 226.663 185.007C211.747 139.997 198.305 99.216 188.756 69.636C183.978 54.847 180.168 42.859 177.599 34.555C176.314 30.403 175.34 27.171 174.708 24.971C174.076 22.771 173.786 21.602 173.87 21.575C173.954 21.548 174.408 22.665 175.192 24.817C175.976 26.969 177.089 30.157 178.495 34.271C181.305 42.499 185.279 54.435 190.118 69.205C199.803 98.741 212.931 139.621 227.354 184.787Z" fill="#EBEBEB"/>
<path d="M237.952 182.383C245.031 229.242 251.438 271.648 256.081 302.385C258.474 317.707 260.412 330.11 261.757 338.723C262.456 342.985 262.999 346.301 263.374 348.591C263.568 349.694 263.718 350.544 263.825 351.153C263.933 351.729 263.998 352.023 264.016 352.02C264.035 352.017 264.007 351.718 263.935 351.136C263.852 350.524 263.736 349.669 263.585 348.559C263.246 346.263 262.755 342.939 262.123 338.667C260.784 330.053 258.856 317.648 256.474 302.325C251.546 271.631 244.746 229.285 237.233 182.491C229.686 135.727 222.92 93.368 218.209 62.675C215.851 47.329 214 34.9 212.788 26.3C212.182 22 211.735 18.658 211.461 16.387C211.187 14.116 211.087 12.917 211.174 12.904C211.261 12.891 211.531 14.064 211.961 16.312C212.391 18.559 212.982 21.88 213.713 26.161C215.175 34.723 217.194 47.127 219.617 62.463C224.471 93.134 230.913 135.542 237.952 182.383Z" fill="#EBEBEB"/>
<path d="M248.801 181.642C248.429 229.017 248.092 271.889 247.848 302.965C247.801 318.467 247.764 331.017 247.737 339.732C247.756 344.049 247.77 347.409 247.78 349.728C247.798 350.848 247.811 351.71 247.821 352.328C247.836 352.914 247.854 353.214 247.872 353.214C247.89 353.214 247.909 352.914 247.929 352.329C247.943 351.711 247.962 350.849 247.987 349.73C248.012 347.411 248.049 344.051 248.096 339.734C248.127 331.019 248.172 318.47 248.228 302.968C248.189 271.892 248.135 229.018 248.076 181.642C247.981 134.289 247.964 91.408 248.137 60.365C248.221 44.843 248.347 32.282 248.5 23.601C248.577 19.26 248.659 15.89 248.745 13.605C248.831 11.32 248.919 10.12 249.006 10.12C249.092 10.12 249.173 11.321 249.243 13.607C249.314 15.893 249.374 19.264 249.422 23.605C249.518 32.287 249.561 44.849 249.542 60.371C249.51 91.411 249.209 134.291 248.801 181.642Z" fill="#EBEBEB"/>
<path d="M259.643 182.566C251.808 229.308 244.718 271.608 239.579 302.268C237.092 317.575 235.079 329.967 233.681 338.572C233.02 342.84 232.507 346.161 232.152 348.454C231.994 349.563 231.872 350.417 231.785 351.029C231.709 351.61 231.679 351.909 231.698 351.912C231.717 351.915 231.784 351.622 231.896 351.046C232.007 350.438 232.163 349.589 232.365 348.487C232.756 346.2 233.322 342.887 234.05 338.63C235.454 330.026 237.477 317.636 239.975 302.33C244.829 271.624 251.527 229.263 258.928 182.452C266.288 135.659 273.021 93.295 278.083 62.656C280.611 47.336 282.715 34.946 284.236 26.394C284.996 22.118 285.61 18.801 286.056 16.557C286.502 14.313 286.78 13.141 286.867 13.155C286.954 13.169 286.846 14.367 286.557 16.636C286.268 18.905 285.798 22.244 285.162 26.54C283.891 35.132 281.955 47.548 279.491 62.878C274.568 93.54 267.511 135.853 259.643 182.566Z" fill="#EBEBEB"/>
<path d="M270.205 185.153C255.002 230.094 241.244 270.764 231.271 300.244C226.371 314.974 222.405 326.898 219.65 335.179C218.317 339.291 217.279 342.491 216.563 344.701C216.23 345.771 215.974 346.595 215.79 347.187C215.622 347.749 215.545 348.04 215.564 348.046C215.582 348.052 215.696 347.773 215.898 347.222C216.105 346.638 216.394 345.825 216.77 344.768C217.522 342.569 218.611 339.386 220.01 335.296C222.771 327.017 226.747 315.096 231.659 300.37C241.355 270.801 254.731 230.007 269.512 184.929C284.249 139.862 297.661 99.071 307.553 69.601C312.496 54.865 316.553 42.956 319.422 34.748C320.856 30.643 321.993 27.464 322.792 25.317C323.592 23.17 324.054 22.057 324.138 22.084C324.223 22.111 323.925 23.278 323.278 25.474C322.631 27.67 321.634 30.895 320.321 35.039C317.695 43.327 313.802 55.288 308.921 70.044C299.164 99.558 285.437 140.246 270.205 185.153Z" fill="#EBEBEB"/>
<path d="M280.211 189.345C258.029 231.369 237.956 269.399 223.406 296.964C216.216 310.75 210.395 321.911 206.354 329.66C204.38 333.514 202.845 336.513 201.785 338.583C201.285 339.589 200.9 340.363 200.624 340.917C200.368 341.446 200.245 341.721 200.262 341.729C200.279 341.738 200.435 341.479 200.722 340.967C201.02 340.423 201.435 339.664 201.974 338.679C203.066 336.625 204.649 333.65 206.683 329.827C210.73 322.08 216.559 310.924 223.759 297.143C238.054 269.448 257.777 231.24 279.57 189.019C301.32 146.802 321.076 108.603 335.546 81.034C342.779 67.248 348.684 56.117 352.825 48.455C354.895 44.624 356.524 41.659 357.655 39.663C358.786 37.667 359.419 36.638 359.497 36.677C359.575 36.717 359.093 37.822 358.103 39.89C357.112 41.958 355.612 44.987 353.653 48.875C349.735 56.651 343.981 67.858 336.805 81.673C322.461 109.307 302.414 147.359 280.211 189.345Z" fill="#EBEBEB"/>
<path d="M289.429 195.034C260.858 233.122 235.003 267.589 216.262 292.572C206.975 305.08 199.457 315.206 194.237 322.237C191.677 325.739 189.684 328.464 188.309 330.346C187.655 331.262 187.152 331.967 186.792 332.473C186.455 332.956 186.291 333.209 186.306 333.22C186.321 333.231 186.516 333 186.881 332.538C187.261 332.047 187.792 331.361 188.48 330.471C189.885 328.611 191.92 325.916 194.534 322.453C199.76 315.425 207.285 305.305 216.581 292.803C235.091 267.652 260.627 232.954 288.845 194.612C317.019 156.267 342.588 121.583 361.251 96.584C370.58 84.083 378.178 73.999 383.482 67.07C386.135 63.605 388.213 60.928 389.647 59.131C391.081 57.333 391.869 56.415 391.94 56.466C392.01 56.517 391.36 57.535 390.054 59.425C388.748 61.314 386.786 64.076 384.235 67.614C379.133 74.69 371.673 84.873 362.396 97.412C343.847 122.494 318.016 156.988 289.429 195.034Z" fill="#EBEBEB"/>
<path d="M297.634 202.07C263.404 235.312 232.428 265.394 209.975 287.199C198.828 298.13 189.805 306.979 183.538 313.124C180.456 316.191 178.058 318.577 176.403 320.225C175.613 321.029 175.004 321.649 174.569 322.093C174.16 322.518 173.957 322.743 173.97 322.756C173.983 322.769 174.212 322.571 174.646 322.17C175.099 321.743 175.731 321.147 176.552 320.373C178.233 318.751 180.668 316.401 183.797 313.381C190.067 307.24 199.097 298.397 210.251 287.473C232.502 265.468 263.2 235.109 297.123 201.562C331.003 168.006 361.731 137.667 384.109 115.835C395.296 104.917 404.392 96.121 410.725 90.09C413.892 87.074 416.367 84.749 418.067 83.193C419.766 81.637 420.69 80.851 420.751 80.912C420.813 80.973 420.009 81.879 418.421 83.545C416.833 85.211 414.459 87.638 411.381 90.741C405.225 96.948 396.249 105.863 385.108 116.826C362.83 138.758 331.873 168.87 297.634 202.07Z" fill="#EBEBEB"/>
<path d="M304.629 210.276C265.572 237.863 230.228 262.828 204.609 280.923C191.874 290.011 181.565 297.369 174.405 302.478C170.877 305.035 168.132 307.024 166.237 308.398C165.329 309.072 164.631 309.59 164.13 309.962C163.66 310.319 163.424 310.51 163.435 310.525C163.446 310.54 163.703 310.379 164.195 310.05C164.71 309.698 165.428 309.206 166.361 308.567C168.278 307.222 171.053 305.275 174.621 302.772C181.784 297.668 192.098 290.317 204.84 281.238C230.291 262.913 265.404 237.633 304.204 209.696C342.963 181.744 378.102 156.487 403.652 138.353C416.425 129.284 426.797 121.99 434.004 117.004C437.608 114.51 440.42 112.593 442.344 111.317C444.268 110.041 445.305 109.406 445.356 109.476C445.407 109.546 444.471 110.318 442.639 111.72C440.807 113.122 438.08 115.156 434.55 117.749C427.49 122.937 417.218 130.366 404.483 139.487C379.017 157.735 343.687 182.733 304.629 210.276Z" fill="#EBEBEB"/>
<path d="M310.241 219.457C267.291 240.682 228.423 259.889 200.25 273.812C186.231 280.826 174.882 286.503 167.001 290.446C163.112 292.428 160.085 293.97 157.996 295.035C156.993 295.561 156.221 295.965 155.668 296.255C155.146 296.536 154.883 296.688 154.892 296.704C154.901 296.721 155.18 296.602 155.718 296.353C156.282 296.084 157.07 295.71 158.093 295.223C160.199 294.191 163.25 292.695 167.17 290.773C175.054 286.836 186.407 281.167 200.431 274.163C228.474 259.987 267.162 240.43 309.914 218.818C352.627 197.184 391.337 177.654 419.447 163.682C433.501 156.693 444.902 151.089 452.811 147.276C456.766 145.369 459.847 143.909 461.951 142.946C464.054 141.983 465.179 141.516 465.218 141.593C465.258 141.671 464.211 142.289 462.18 143.392C460.149 144.495 457.133 146.083 453.235 148.101C445.44 152.137 434.116 157.891 420.092 164.937C392.045 179.034 353.186 198.276 310.241 219.457Z" fill="#EBEBEB"/>
<path d="M314.323 229.394C268.521 243.69 227.073 256.627 197.029 266.005C182.066 270.757 169.952 274.603 161.541 277.274C157.384 278.628 154.149 279.682 151.916 280.409C150.842 280.773 150.015 281.053 149.422 281.253C148.863 281.449 148.579 281.559 148.585 281.577C148.591 281.595 148.886 281.521 149.457 281.359C150.057 281.181 150.894 280.934 151.982 280.612C154.227 279.919 157.478 278.916 161.656 277.627C170.07 274.963 182.186 271.125 197.153 266.385C227.108 256.736 268.434 243.423 314.101 228.713C359.733 213.974 401.077 200.692 431.066 191.256C446.06 186.535 458.212 182.769 466.632 180.231C470.842 178.962 474.118 177.998 476.349 177.373C478.58 176.748 479.764 176.462 479.792 176.545C479.819 176.628 478.686 177.076 476.505 177.851C474.323 178.625 471.091 179.726 466.92 181.114C458.578 183.891 446.477 187.817 431.504 192.599C401.558 202.168 360.113 215.14 314.323 229.394Z" fill="#EBEBEB"/>
<path d="M316.768 239.843C269.256 246.855 226.26 253.2 195.094 257.799C179.559 260.169 166.983 262.088 158.25 263.42C153.929 264.112 150.566 264.65 148.244 265.022C147.125 265.214 146.264 265.362 145.647 265.469C145.063 265.576 144.765 265.64 144.768 265.658C144.771 265.677 145.074 265.649 145.664 265.577C146.285 265.495 147.152 265.38 148.277 265.231C150.604 264.895 153.975 264.408 158.307 263.783C167.041 262.457 179.619 260.547 195.155 258.189C226.277 253.309 269.212 246.576 316.657 239.137C364.072 231.664 407.021 224.965 438.142 220.299C453.702 217.963 466.304 216.131 475.024 214.93C479.384 214.329 482.773 213.886 485.076 213.615C487.379 213.344 488.594 213.244 488.608 213.33C488.622 213.416 487.432 213.683 485.153 214.108C482.875 214.534 479.508 215.119 475.167 215.842C466.486 217.289 453.909 219.288 438.359 221.687C407.26 226.492 364.261 232.872 316.768 239.843Z" fill="#EBEBEB"/>
<path d="M378.885 371.399C373.227 364.741 365.401 360.732 359.962 359.202C354.869 357.768 347.148 356.462 339.287 358.379C334.405 359.57 330.129 361.87 326.579 365.217C322.374 369.181 319.163 374.647 317.036 381.463C316.717 382.486 316.823 383.568 317.335 384.512C317.849 385.46 318.704 386.144 319.743 386.436L333.097 390.195C334.981 390.725 336.997 389.775 337.785 387.985C339.556 383.964 344.026 377.612 354.068 380.253C361.72 382.269 363.308 388.661 363.636 391.318C364.171 395.641 362.468 400.111 359.082 403.273C353.879 408.131 347.09 407.188 343.506 406.194C339.384 405.05 335.094 407.45 333.942 411.543L329.897 425.913C329.306 428.012 330.533 430.199 332.632 430.79L345.643 434.452C347.742 435.043 349.929 433.816 350.52 431.717L351.37 428.698C351.39 428.626 351.453 428.576 351.53 428.571C354.769 428.366 361.185 427.476 367.771 423.808C376.179 419.126 381.882 411.633 384.724 401.539C388.791 387.094 383.793 377.175 378.885 371.399Z" fill="#E0E0E0"/>
<path d="M338.767 436.421L337.629 436.101C332.188 434.569 326.514 437.75 324.983 443.192C323.452 448.634 326.632 454.307 332.074 455.838L333.212 456.158C338.653 457.69 344.327 454.509 345.858 449.067C347.389 443.625 344.209 437.953 338.767 436.421Z" fill="#E0E0E0"/>
<path d="M407.562 291.81C403.633 289.658 399.15 289.173 396.265 289.436C393.563 289.683 389.626 290.472 386.213 292.83C384.093 294.295 382.467 296.18 381.38 298.433C380.093 301.102 379.557 304.308 379.787 307.961C379.822 308.509 380.071 309.008 380.489 309.366C380.909 309.726 381.444 309.896 381.995 309.846L389.079 309.199C390.079 309.108 390.87 308.284 390.919 307.282C391.03 305.032 392.007 301.171 397.3 300.596C401.334 300.159 403.265 302.929 403.909 304.141C404.957 306.113 404.961 308.565 403.919 310.7C402.318 313.98 398.894 314.772 396.995 314.953C394.812 315.16 393.197 317.096 393.395 319.267L394.091 326.89C394.193 328.003 395.181 328.826 396.294 328.725L403.196 328.095C404.309 327.993 405.132 327.005 405.03 325.892L404.884 324.29C404.88 324.252 404.901 324.216 404.937 324.2C406.45 323.509 409.36 321.906 411.842 318.943C415.01 315.16 416.369 310.527 415.88 305.173C415.181 297.51 410.971 293.677 407.562 291.81Z" fill="#F5F5F5"/>
<path d="M400.265 330.298L399.661 330.353C396.775 330.617 394.641 333.179 394.904 336.066C395.168 338.953 397.73 341.086 400.617 340.823L401.221 340.768C404.107 340.504 406.241 337.942 405.978 335.055C405.714 332.168 403.151 330.034 400.265 330.298Z" fill="#F5F5F5"/>
<path d="M123.88 129.071C121.218 126.448 117.732 125.037 115.357 124.59C113.133 124.172 109.794 123.907 106.518 125.021C104.483 125.713 102.748 126.855 101.362 128.415C99.72 130.263 98.559 132.713 97.911 135.697C97.814 136.145 97.9 136.602 98.154 136.985C98.409 137.37 98.799 137.628 99.253 137.714L105.085 138.81C105.908 138.965 106.731 138.484 106.999 137.691C107.601 135.911 109.266 133.036 113.644 133.781C116.98 134.351 117.898 137.014 118.139 138.133C118.53 139.955 117.974 141.923 116.651 143.398C114.618 145.665 111.69 145.52 110.125 145.231C108.326 144.9 106.589 146.084 106.253 147.872L105.073 154.147C104.901 155.063 105.506 155.949 106.422 156.121L112.104 157.189C113.02 157.361 113.906 156.756 114.078 155.84L114.326 154.522C114.332 154.49 114.357 154.467 114.389 154.462C115.761 154.252 118.461 153.63 121.128 151.819C124.533 149.506 126.68 146.099 127.508 141.691C128.694 135.382 126.19 131.346 123.88 129.071Z" fill="#F5F5F5"/>
<path d="M109.248 158.289L108.751 158.196C106.375 157.749 104.078 159.319 103.631 161.695C103.184 164.071 104.754 166.368 107.13 166.815L107.627 166.908C110.003 167.355 112.3 165.785 112.747 163.409C113.193 161.033 111.624 158.736 109.248 158.289Z" fill="#F5F5F5"/>
<path d="M397.009 131.075C393.088 128.908 388.608 128.405 385.722 128.657C383.019 128.893 379.079 129.666 375.657 132.011C373.531 133.467 371.898 135.346 370.802 137.595C369.504 140.259 368.955 143.462 369.171 147.117C369.203 147.665 369.451 148.165 369.867 148.525C370.286 148.887 370.82 149.059 371.371 149.011L378.457 148.392C379.457 148.305 380.251 147.484 380.305 146.482C380.425 144.232 381.417 140.376 386.712 139.821C390.748 139.4 392.668 142.178 393.307 143.393C394.347 145.369 394.341 147.822 393.291 149.952C391.677 153.226 388.25 154.004 386.35 154.177C384.166 154.376 382.543 156.305 382.733 158.477L383.399 166.102C383.496 167.216 384.481 168.042 385.595 167.945L392.499 167.342C393.613 167.245 394.439 166.26 394.342 165.146L394.202 163.544C394.199 163.506 394.22 163.47 394.256 163.454C395.772 162.769 398.688 161.178 401.182 158.225C404.365 154.455 405.742 149.827 405.274 144.471C404.606 136.806 400.41 132.955 397.009 131.075Z" fill="#EBEBEB"/>
<path d="M389.559 169.534L388.955 169.587C386.068 169.839 383.924 172.393 384.176 175.281C384.428 178.169 386.982 180.313 389.87 180.06L390.474 180.007C393.361 179.755 395.505 177.201 395.253 174.313C395.001 171.426 392.447 169.282 389.559 169.534Z" fill="#EBEBEB"/>
<path d="M183.956 361.509C179.049 359.198 173.596 358.942 170.13 359.473C166.883 359.97 162.184 361.214 158.233 364.316C155.779 366.242 153.953 368.64 152.806 371.443C151.447 374.763 151.035 378.677 151.583 383.075C151.665 383.735 152.003 384.32 152.535 384.722C153.069 385.126 153.728 385.293 154.39 385.191L162.903 383.887C164.104 383.703 164.999 382.649 164.986 381.435C164.955 378.708 165.851 373.97 172.205 372.885C177.048 372.06 179.586 375.265 180.454 376.683C181.866 378.989 182.051 381.952 180.949 384.609C179.256 388.691 175.176 389.901 172.895 390.259C170.272 390.671 168.463 393.128 168.862 395.738L170.265 404.898C170.47 406.236 171.725 407.157 173.063 406.953L181.357 405.683C182.695 405.478 183.616 404.223 183.412 402.885L183.117 400.96C183.11 400.914 183.133 400.869 183.175 400.847C184.953 399.9 188.351 397.749 191.132 393.985C194.682 389.18 195.982 383.481 194.997 377.046C193.584 367.837 188.213 363.514 183.956 361.509Z" fill="#EBEBEB"/>
<path d="M177.974 408.559L177.248 408.67C173.779 409.201 171.389 412.456 171.921 415.924C172.453 419.392 175.707 421.783 179.175 421.251L179.901 421.14C183.37 420.609 185.76 417.355 185.228 413.886C184.697 410.418 181.442 408.028 177.974 408.559Z" fill="#EBEBEB"/>
<path d="M109.308 188.164C102.408 184.93 94.747 184.583 89.877 185.338C85.317 186.045 78.717 187.804 73.174 192.171C69.731 194.884 67.172 198.257 65.567 202.198C63.666 206.866 63.098 212.366 63.878 218.544C63.995 219.471 64.471 220.292 65.219 220.855C65.97 221.421 66.896 221.654 67.826 221.51L79.783 219.657C81.47 219.396 82.725 217.912 82.703 216.206C82.652 212.374 83.899 205.716 92.823 204.175C99.625 203.004 103.199 207.501 104.422 209.49C106.412 212.727 106.679 216.889 105.138 220.625C102.769 226.364 97.041 228.074 93.836 228.583C90.151 229.168 87.616 232.625 88.184 236.291L90.178 249.158C90.469 251.037 92.235 252.329 94.114 252.038L105.764 250.233C107.643 249.942 108.935 248.176 108.644 246.297L108.225 243.594C108.215 243.529 108.247 243.467 108.306 243.435C110.802 242.1 115.57 239.07 119.468 233.775C124.444 227.015 126.256 219.005 124.856 209.967C122.851 197.03 115.294 190.97 109.308 188.164Z" fill="#EBEBEB"/>
<path d="M101.021 254.282L100.002 254.44C95.13 255.195 91.78 259.773 92.535 264.645C93.29 269.517 97.868 272.867 102.74 272.112L103.759 271.954C108.631 271.199 111.981 266.621 111.226 261.749C110.471 256.877 105.893 253.527 101.021 254.282Z" fill="#EBEBEB"/>
<path d="M277.718 106.669L286.731 108.171C291.162 113.467 297.227 117.52 304.502 119.456C321.66 124.022 339.813 114.601 345.991 97.956C353.13 78.723 342.228 57.484 322.251 52.182C305.292 47.681 287.348 56.816 280.986 73.168C277.829 81.283 277.921 89.782 280.566 97.316L280.555 97.3L277.718 106.669Z" fill="white"/>
<path d="M277.718 106.669C277.718 106.669 277.764 106.473 277.878 106.073C277.999 105.652 278.171 105.056 278.394 104.282C278.867 102.668 279.558 100.314 280.451 97.27L280.513 97.059L280.639 97.24L280.65 97.256L280.463 97.351C279.023 93.281 277.797 87.475 278.821 80.626C279.318 77.218 280.411 73.611 282.173 70.033C283.964 66.473 286.516 62.997 289.817 59.983C293.128 56.987 297.199 54.482 301.805 52.85C306.4 51.228 311.544 50.417 316.769 50.976C321.984 51.489 327.245 53.226 331.959 56.132C336.697 59.011 340.742 63.229 343.639 68.213C345.171 70.703 346.194 73.433 347.068 76.154C347.267 76.841 347.396 77.545 347.563 78.237C347.699 78.935 347.926 79.615 347.985 80.323C348.07 81.026 348.155 81.727 348.24 82.426L348.361 83.473L348.378 84.524C348.582 90.124 347.385 95.592 345.212 100.414C343.056 105.264 339.713 109.329 335.959 112.499C332.184 115.669 327.919 117.916 323.624 119.249C319.319 120.568 315 120.994 311.004 120.721C310.009 120.605 309.031 120.491 308.069 120.379C307.111 120.244 306.19 119.991 305.275 119.808C303.45 119.412 301.746 118.812 300.148 118.167C293.731 115.532 289.379 111.519 286.651 108.238L286.713 108.273C283.81 107.763 281.554 107.367 280.003 107.094C279.261 106.96 278.691 106.857 278.285 106.784C277.902 106.712 277.718 106.669 277.718 106.669C277.718 106.669 277.933 106.693 278.33 106.752C278.744 106.815 279.325 106.904 280.08 107.02C281.621 107.263 283.862 107.616 286.747 108.07L286.784 108.076L286.809 108.106C289.557 111.339 293.904 115.285 300.274 117.859C301.86 118.489 303.55 119.075 305.359 119.458C306.266 119.634 307.178 119.881 308.126 120.01C309.078 120.117 310.046 120.225 311.03 120.336C314.982 120.589 319.248 120.152 323.496 118.836C327.734 117.506 331.939 115.276 335.656 112.139C339.353 109.003 342.642 104.99 344.759 100.207C346.894 95.451 348.068 90.06 347.862 84.544L347.845 83.508L347.725 82.476C347.641 81.788 347.557 81.097 347.473 80.405C347.415 79.708 347.189 79.038 347.055 78.351C346.89 77.67 346.763 76.976 346.567 76.299C345.704 73.619 344.698 70.93 343.187 68.477C340.333 63.567 336.351 59.41 331.685 56.571C327.043 53.705 321.858 51.987 316.72 51.474C311.572 50.915 306.498 51.706 301.961 53.296C297.413 54.896 293.387 57.358 290.108 60.307C286.839 63.274 284.305 66.699 282.52 70.211C280.763 73.741 279.663 77.307 279.153 80.679C278.102 87.455 279.274 93.223 280.662 97.283L280.915 98.024L280.475 97.378L280.464 97.362L280.652 97.333C279.716 100.335 278.992 102.656 278.495 104.247C278.248 105.027 278.059 105.625 277.924 106.049C277.796 106.453 277.718 106.669 277.718 106.669Z" fill="#263238"/>
<path d="M320.761 69.774C318.094 68.006 314.933 67.392 312.864 67.406C310.927 67.419 308.077 67.744 305.507 69.217C303.91 70.132 302.64 71.376 301.731 72.914C300.654 74.736 300.08 76.985 300.025 79.599C300.017 79.991 300.164 80.361 300.44 80.641C300.717 80.922 301.088 81.076 301.483 81.073L306.563 81.038C307.28 81.033 307.892 80.494 307.988 79.784C308.202 78.189 309.13 75.501 312.931 75.409C315.828 75.341 317.036 77.428 317.422 78.329C318.049 79.796 317.905 81.541 317.035 82.998C315.698 85.236 313.214 85.594 311.852 85.608C310.286 85.624 309.02 86.905 309.031 88.462L309.068 93.929C309.073 94.727 309.727 95.372 310.526 95.367L315.476 95.333C316.274 95.328 316.919 94.674 316.914 93.875L316.906 92.726C316.906 92.698 316.923 92.674 316.949 92.665C318.068 92.264 320.234 91.299 322.179 89.339C324.661 86.837 325.906 83.622 325.88 79.782C325.84 74.289 323.074 71.307 320.761 69.774Z" fill="#263238"/>
<path d="M313.254 96.726L312.821 96.729C310.751 96.743 309.078 98.439 309.092 100.509C309.106 102.579 310.802 104.252 312.872 104.238L313.305 104.235C315.375 104.221 317.048 102.525 317.034 100.455C317.02 98.385 315.324 96.712 313.254 96.726Z" fill="#263238"/>
<path d="M327.049 151.747C303.438 135.866 275.365 130.208 256.966 130.208C239.735 130.208 214.377 132.926 191.425 145.872C177.171 153.913 165.798 164.898 157.621 178.523C147.936 194.661 142.694 214.629 142.041 237.874C141.943 241.361 143.231 244.661 145.669 247.168C148.118 249.687 151.401 251.074 154.915 251.074H200.096C206.471 251.074 211.952 246.317 212.843 240.01C214.847 225.842 223.256 201.986 257.067 201.403C282.824 200.961 293.452 219.607 296.826 227.646C302.317 240.727 300.925 256.24 293.1 269.142C281.077 288.964 258.96 291.999 246.847 292.043C232.917 292.094 221.583 303.403 221.583 317.252V365.87C221.583 372.97 227.359 378.746 234.459 378.746H278.479C285.579 378.746 291.355 372.97 291.355 365.87V355.655C291.355 355.41 291.508 355.198 291.744 355.115C301.716 351.616 321.045 343.162 338.455 325.852C360.681 303.755 371.95 275.234 371.95 241.083C371.951 192.207 347.533 165.525 327.049 151.747Z" fill="#263238"/>
<path d="M255.362 401.425H258.915C276.397 401.425 290.62 415.648 290.62 433.13C290.62 450.612 276.397 464.835 258.915 464.835H255.362C237.88 464.835 223.657 450.612 223.657 433.13C223.657 415.647 237.88 401.425 255.362 401.425Z" fill="#263238"/>
<path d="M234.29 388.147H278.292C285.389 388.147 291.163 382.554 291.163 375.679V355.802C291.163 355.565 291.316 355.359 291.552 355.279C296.753 353.511 304.03 350.269 312.263 345.208C284.149 345.011 232.904 344.724 221.418 345.143V375.679C221.419 382.554 227.193 388.147 234.29 388.147Z" fill="#263238"/>
<path d="M270.531 167.901L242.294 85.9C236.331 65.368 219.412 51.725 199.053 58.255L197.207 58.968C178.628 66.146 168.667 86.384 174.329 105.48C179.596 123.247 185.644 142.81 189.33 152.01C196.96 171.055 216.935 165.709 216.935 165.709C216.979 165.694 221.381 178.403 223.306 184.108L233.648 194.327L237.92 189.66L270.531 167.901Z" fill="#FFBF9D"/>
<path d="M216.934 165.709C216.934 165.709 229.269 161.757 239.004 148.716C239.004 148.716 238.568 165.419 218.807 171.073L216.934 165.709Z" fill="#FF9A6C"/>
<path d="M188.144 118.429C188.65 119.892 190.307 120.669 191.844 120.168C193.378 119.668 194.215 118.079 193.709 116.616C193.203 115.153 191.546 114.374 190.011 114.874C188.474 115.374 187.638 116.966 188.144 118.429Z" fill="#263238"/>
<path d="M181.348 111.431C181.824 111.656 183.302 109.324 186.247 108.196C189.171 107.026 191.914 107.706 192.093 107.222C192.188 107.002 191.595 106.492 190.391 106.171C189.203 105.848 187.369 105.794 185.54 106.51C183.712 107.228 182.432 108.497 181.813 109.53C181.177 110.573 181.119 111.336 181.348 111.431Z" fill="#263238"/>
<path d="M212.732 108.679C213.209 108.904 214.691 106.572 217.632 105.444C220.556 104.275 223.299 104.954 223.479 104.47C223.573 104.25 222.984 103.74 221.776 103.42C220.588 103.096 218.754 103.043 216.925 103.758C215.097 104.477 213.817 105.746 213.197 106.778C212.564 107.821 212.505 108.584 212.732 108.679Z" fill="#263238"/>
<path d="M208.619 127.648C208.568 127.476 206.618 127.866 203.51 128.631C202.729 128.844 201.961 128.97 201.636 128.506C201.25 128.032 201.251 127.101 201.277 126.086C201.281 123.996 201.284 121.805 201.288 119.51C201.227 110.177 200.873 102.621 200.497 102.626C200.121 102.633 199.866 110.201 199.927 119.534C199.961 121.829 199.99 124.016 200.022 126.108C200.068 127.071 199.953 128.228 200.771 129.206C201.19 129.689 201.899 129.883 202.43 129.827C202.969 129.788 203.394 129.633 203.774 129.512C206.818 128.521 208.672 127.82 208.619 127.648Z" fill="#263238"/>
<path d="M205.932 92.145C206.622 92.741 209.17 90.849 212.615 89.433C216.032 87.946 219.164 87.435 219.217 86.525C219.228 86.097 218.381 85.647 216.923 85.512C215.476 85.372 213.427 85.616 211.368 86.485C209.312 87.357 207.71 88.658 206.802 89.794C205.884 90.934 205.616 91.855 205.932 92.145Z" fill="#263238"/>
<path d="M177.872 102.837C178.735 103.281 180.885 101.695 183.769 100.593C186.619 99.406 189.283 99.07 189.588 98.158C189.709 97.726 189.075 97.196 187.769 96.955C186.479 96.711 184.522 96.846 182.551 97.631C180.581 98.419 179.082 99.665 178.329 100.724C177.561 101.793 177.48 102.609 177.872 102.837Z" fill="#263238"/>
<path d="M245.891 99.746C246.162 99.479 257.537 90.777 262.174 104.021C266.81 117.265 252.558 119.188 252.401 118.817C252.246 118.445 245.891 99.746 245.891 99.746Z" fill="#FFBF9D"/>
<path d="M254.691 112.383C254.734 112.32 254.978 112.463 255.431 112.506C255.872 112.547 256.568 112.438 257.168 111.937C258.387 110.934 258.788 108.3 258.016 105.89C257.628 104.673 256.973 103.614 256.214 102.813C255.47 101.986 254.607 101.528 253.858 101.65C253.1 101.734 252.749 102.33 252.718 102.759C252.67 103.191 252.847 103.426 252.784 103.474C252.759 103.52 252.422 103.351 252.337 102.767C252.3 102.484 252.345 102.118 252.568 101.755C252.795 101.385 253.216 101.09 253.725 100.971C254.771 100.684 256.019 101.302 256.854 102.18C257.746 103.044 258.51 104.225 258.946 105.592C259.795 108.29 259.304 111.266 257.583 112.49C256.736 113.06 255.861 113.05 255.35 112.878C254.826 112.694 254.653 112.423 254.691 112.383Z" fill="#FF9A6C"/>
<path d="M218.615 126.313C218.148 126.44 219.165 129.497 217.275 132.541C215.392 135.591 212.02 136.337 212.139 136.773C212.161 136.979 213.063 137.124 214.451 136.701C215.815 136.296 217.639 135.204 218.796 133.342C219.946 131.477 220.038 129.473 219.724 128.185C219.412 126.869 218.818 126.226 218.615 126.313Z" fill="#263238"/>
<path d="M141.26 96.179C141.196 95.326 141.537 94.484 142.088 93.829C143.289 92.399 145.077 91.903 146.755 91.281C150.931 89.734 154.718 87.192 157.793 83.972C156.255 83.77 154.752 83.396 153.352 82.727C150.461 81.347 148.08 78.512 148.052 75.309C148.047 74.708 148.161 74.036 148.644 73.678C149.411 73.111 150.461 73.69 151.296 74.149C154.043 75.657 156.197 75.961 159.033 74.628C160.794 73.8 162.419 72.767 163.54 71.367C163.576 71.287 163.604 71.203 163.641 71.124C164.079 70.171 164.512 69.256 164.943 68.367C164.943 68.364 164.945 68.362 164.945 68.359L164.944 68.364C168.183 61.671 171.259 56.741 175.043 53.413C180.588 48.535 191.023 43.673 198.383 43.067C205.744 42.461 213.72 45.795 217.089 52.367C219.742 47.841 225.424 45.87 230.678 46.098L230.776 46.007C236.545 46.028 241.364 50.417 244.718 55.11C244.901 55.367 245.075 55.631 245.254 55.891C247.955 58.028 251.139 59.551 254.524 60.197C255.121 60.311 255.813 60.464 256.074 61.013C256.333 61.557 256.021 62.193 255.675 62.687C254.756 64 253.529 65.082 252.135 65.872C253.041 66.949 254.016 67.962 255.103 68.875C256.027 69.651 257.127 70.582 256.981 71.779C256.868 72.705 255.981 73.382 255.065 73.562C254.15 73.741 253.208 73.531 252.299 73.323C253.353 74.49 254.406 75.658 255.46 76.825C253.72 77.801 251.747 78.329 249.754 78.417C250.387 83.688 252.758 93.028 252.667 96.784C249.176 98.083 248.188 98.002 246.622 99.215C244.599 100.783 246.902 104.532 243.514 104.43C241.789 104.378 237.431 99.445 236.377 98.077C229.39 89.002 224.397 78.403 221.834 67.241C218.914 65.726 215.7 64.78 212.425 64.47L212.727 64.596C206.653 64.623 199.88 64.931 195.641 69.281C192.353 72.655 191.468 77.613 189.652 81.96C186.211 90.199 180.998 95.785 172.712 99.112C174.012 105.222 177.154 114.857 178.79 120.41L170.289 111.137L170.301 111.182C169.699 110.675 169.162 110.14 168.634 109.6L168.462 109.44L168.454 109.415C167.612 108.546 166.792 107.667 165.828 106.854C165.816 106.876 165.804 106.897 165.792 106.919C163.756 110.566 157.999 108.115 159.21 104.117C159.45 103.324 159.805 102.568 160.274 101.881C159.371 103.624 157.571 104.941 155.609 105.021C153.647 105.101 151.642 103.793 151.146 101.893C150.807 100.596 151.311 99.153 152.273 98.254C149.952 99.278 147.328 99.619 144.83 99.165C143.191 98.866 141.402 98.058 141.26 96.179Z" fill="#263238"/>
<path d="M211.777 56.738C211.756 56.802 212.769 56.964 214.346 57.83C215.91 58.694 217.94 60.442 219.585 63.214C220.412 64.588 221.187 66.178 221.814 67.962C222.45 69.743 222.98 71.704 223.553 73.765C224.132 75.824 224.737 78.001 225.646 80.168C226.1 81.249 226.629 82.326 227.264 83.365C227.896 84.382 228.608 85.478 229.776 86.134C230.712 86.673 231.942 86.626 232.833 86.09C233.741 85.578 234.42 84.759 234.803 83.834C235.537 81.941 235.198 79.986 234.934 78.252L234.545 78.444C235.724 79.671 236.915 80.875 238.331 81.672C239.733 82.482 241.379 82.764 242.822 82.396C243.541 82.213 244.204 81.855 244.696 81.343C245.201 80.831 245.467 80.169 245.582 79.528C245.68 78.882 245.621 78.231 245.388 77.666C245.153 77.103 244.736 76.636 244.235 76.379L244.094 76.635C246.187 77.81 248.086 78.169 249.355 78.291C249.995 78.351 250.488 78.347 250.821 78.338C251.153 78.321 251.323 78.303 251.323 78.29C251.322 78.275 251.15 78.267 250.821 78.257C250.491 78.241 250.002 78.218 249.372 78.135C248.123 77.967 246.266 77.567 244.24 76.383L244.099 76.638C244.994 77.099 245.459 78.298 245.242 79.471C245.129 80.052 244.881 80.645 244.432 81.086C243.99 81.536 243.385 81.859 242.726 82.019C241.397 82.344 239.86 82.076 238.541 81.301C237.2 80.535 236.044 79.362 234.872 78.13L234.375 77.607L234.483 78.323C234.746 80.056 235.039 81.943 234.364 83.655C234.022 84.484 233.396 85.227 232.601 85.673C231.81 86.136 230.815 86.172 230.003 85.713C228.986 85.149 228.289 84.119 227.669 83.117C227.049 82.104 226.528 81.051 226.079 79.988C225.18 77.86 224.568 75.7 223.979 73.647C223.395 71.59 222.849 69.626 222.188 67.828C221.536 66.028 220.732 64.422 219.873 63.037C218.165 60.244 216.054 58.494 214.435 57.668C212.801 56.836 211.777 56.738 211.777 56.738Z" fill="#3843D6"/>
<path d="M158.496 96.699C158.493 96.706 158.562 96.733 158.698 96.776C158.862 96.825 159.062 96.885 159.306 96.958C159.573 97.042 159.907 97.132 160.312 97.195C160.714 97.269 161.177 97.368 161.709 97.4C163.809 97.621 166.993 97.454 170.526 95.97C174.028 94.51 177.87 91.734 180.695 87.534C183.585 83.388 185.536 78.092 186.659 72.42C187.242 69.578 187.542 66.769 188.026 64.103C188.501 61.438 189.166 58.895 190.277 56.681C191.365 54.465 192.871 52.581 194.665 51.327C195.552 50.683 196.528 50.264 197.489 49.951C198.462 49.665 199.436 49.539 200.366 49.519C202.233 49.491 203.905 49.939 205.261 50.528C206.624 51.124 207.668 51.893 208.446 52.593C209.954 54.063 210.406 55.189 210.469 55.145C210.477 55.141 210.447 55.075 210.382 54.947C210.3 54.795 210.202 54.611 210.081 54.386C209.804 53.901 209.315 53.228 208.575 52.458C207.804 51.724 206.754 50.916 205.37 50.282C203.993 49.656 202.286 49.172 200.362 49.179C199.403 49.189 198.396 49.308 197.383 49.595C196.384 49.908 195.358 50.341 194.436 51C192.566 52.285 191.004 54.222 189.88 56.483C188.731 58.745 188.047 61.335 187.563 64.019C187.07 66.707 186.766 69.51 186.188 72.326C185.074 77.956 183.155 83.188 180.33 87.283C177.567 91.433 173.826 94.176 170.393 95.658C166.934 97.158 163.806 97.375 161.725 97.214C159.626 97.045 158.511 96.631 158.496 96.699Z" fill="#3843D6"/>
<path d="M153.734 88.808C153.728 88.841 154.035 88.924 154.599 89.047C155.161 89.18 155.993 89.296 157.024 89.367C158.056 89.446 159.294 89.424 160.658 89.289C162.019 89.13 163.505 88.844 165.017 88.374C166.525 87.887 167.904 87.265 169.109 86.612C170.302 85.936 171.326 85.243 172.125 84.584C172.927 83.932 173.54 83.359 173.923 82.926C174.314 82.5 174.517 82.256 174.493 82.233C174.428 82.169 173.552 83.097 171.917 84.315C171.104 84.931 170.079 85.582 168.897 86.223C167.704 86.842 166.348 87.439 164.87 87.916C163.388 88.376 161.936 88.669 160.604 88.85C159.269 89.006 158.055 89.063 157.037 89.028C155 88.973 153.75 88.719 153.734 88.808Z" fill="#3843D6"/>
<path d="M190.002 227.426C189.829 227.476 192.096 238.828 194.316 250.603H195.018C192.798 238.828 190.176 227.376 190.002 227.426Z" fill="#263238"/>
<path d="M199.583 251.172C206.001 251.172 211.909 246.548 212.806 240.25C214.823 226.102 222.896 202.155 256.93 201.573C282.857 201.131 293.769 219.483 296.826 227.645C301.679 240.602 301.076 256.33 293.2 269.213C281.098 289.006 258.835 292.036 246.642 292.081C232.62 292.132 221.212 303.424 221.212 317.253V370.116L291.446 368.795V355.6C291.446 355.355 291.6 355.144 291.838 355.061C300.393 352.083 313.957 346.438 329.219 334.131L324.647 273.251C324.647 273.251 338.013 247.562 337.351 241.782C331.299 188.979 313.341 159.101 306.042 156.314C297.847 153.186 266.207 154.709 266.207 154.709C266.207 154.709 252.542 180.028 233.371 182.833C222.704 184.394 218.809 171.073 218.809 171.073L194.03 185.6C176.395 194.495 172.973 229.103 172.649 251.172H199.583Z" fill="#3843D6"/>
<g opacity="0.3">
<path d="M280.975 282.276C295.132 285.88 309.089 290.439 323.246 294.043C324.296 294.31 325.415 294.619 326.124 295.439C327.166 296.646 326.932 298.478 326.465 300.003C324.976 304.87 321.764 309.076 317.941 312.435C314.861 315.141 311.171 317.424 307.083 317.743C302.531 318.098 298.155 315.987 294.306 313.531C284.464 307.25 276.065 298.072 270.787 287.658C270.787 287.658 274.106 286.292 276.646 284.934C279.005 283.673 280.975 282.276 280.975 282.276Z" fill="black"/>
</g>
<path d="M296.536 228.012C302.197 241.074 300.761 256.564 292.695 269.447C288.218 276.598 282.518 281.702 276.301 285.126C282.997 292.41 289.794 298.827 296.513 303.596C303.744 308.727 320.41 307.268 326.729 296.035C334.525 282.175 335.177 246.767 335.177 246.767C336.658 225.421 336.658 225.421 336.658 225.421L293.061 218.743L292.711 219.938C294.581 222.742 295.683 226.044 296.536 228.012Z" fill="#FFBF9D"/>
<path d="M220.621 219.042L218.139 222.955C216.252 224.257 214.456 223.542 213.29 221.123L186.452 180.273L192.99 176.115L222.632 215.289C222.632 215.289 223.05 217.366 220.621 219.042Z" fill="#3843D6"/>
<path d="M158.616 179.572C153.362 176.607 148.955 172.034 146.228 166.157C142.869 158.919 142.53 150.805 145.274 143.311C148.018 135.817 153.515 129.84 160.755 126.481C175.698 119.547 193.497 126.063 200.432 141.007C203.791 148.246 204.129 156.36 201.386 163.854C198.642 171.348 193.145 177.324 185.906 180.684C176.839 184.89 166.72 184.146 158.616 179.572ZM187.059 129.333C179.497 125.065 170.057 124.371 161.597 128.296C154.843 131.43 149.713 137.007 147.153 143.999C144.593 150.991 144.909 158.562 148.043 165.316C151.177 172.071 156.753 177.2 163.746 179.76C170.738 182.32 178.308 182.004 185.063 178.87C191.817 175.736 196.947 170.159 199.506 163.167C202.067 156.175 201.75 148.605 198.616 141.85C196.073 136.367 191.96 132.099 187.059 129.333Z" fill="#263238"/>
<path d="M159.889 178.319C154.635 175.354 150.228 170.781 147.501 164.904C144.142 157.666 143.803 149.552 146.547 142.058C149.291 134.564 154.788 128.587 162.028 125.228C176.971 118.294 194.77 124.81 201.705 139.755C205.064 146.994 205.402 155.108 202.659 162.602C199.916 170.096 194.418 176.073 187.179 179.432C178.111 183.637 167.992 182.893 159.889 178.319ZM188.331 128.079C180.769 123.811 171.329 123.117 162.869 127.042C156.115 130.176 150.985 135.753 148.425 142.745C145.865 149.737 146.181 157.308 149.315 164.062C152.449 170.817 158.025 175.946 165.018 178.506C172.01 181.066 179.58 180.75 186.335 177.616C193.089 174.482 198.219 168.905 200.778 161.913C203.338 154.921 203.022 147.35 199.888 140.596C197.345 135.113 193.233 130.845 188.331 128.079Z" fill="#3843D6"/>
<path d="M199.452 152.748C199.441 152.748 199.431 152.578 199.421 152.257C199.397 151.936 199.435 151.462 199.364 150.856C199.296 149.641 199.024 147.888 198.374 145.814C198.055 144.775 197.602 143.672 197.066 142.512C196.486 141.375 195.848 140.163 195.023 138.985C194.218 137.797 193.293 136.599 192.217 135.465C191.149 134.327 189.966 133.213 188.631 132.231C187.303 131.242 185.906 130.418 184.495 129.748C183.076 129.093 181.646 128.606 180.261 128.233C177.475 127.532 174.866 127.339 172.697 127.466C170.526 127.586 168.787 127.928 167.614 128.255C167.019 128.389 166.578 128.566 166.267 128.647C165.959 128.739 165.795 128.783 165.791 128.772C165.787 128.762 165.943 128.698 166.245 128.586C166.55 128.485 166.987 128.288 167.58 128.135C168.748 127.77 170.494 127.391 172.684 127.24C174.872 127.083 177.511 127.253 180.334 127.947C181.738 128.317 183.189 128.804 184.628 129.464C186.059 130.139 187.478 130.973 188.824 131.975C190.175 132.969 191.371 134.098 192.447 135.252C193.532 136.401 194.462 137.615 195.269 138.821C196.096 140.015 196.732 141.244 197.307 142.398C197.838 143.574 198.283 144.693 198.592 145.747C199.22 147.85 199.46 149.625 199.49 150.849C199.543 151.46 199.484 151.937 199.487 152.259C199.474 152.58 199.463 152.748 199.452 152.748Z" fill="white"/>
<path d="M168.276 177.068C168.297 176.994 169.661 177.502 171.962 177.816C172.251 177.851 172.553 177.887 172.866 177.925C173.18 177.96 173.511 177.961 173.851 177.982C174.531 178.037 175.26 178.001 176.025 177.986C177.554 177.895 179.227 177.663 180.938 177.214C182.644 176.742 184.207 176.101 185.575 175.412C186.244 175.04 186.892 174.705 187.453 174.316C187.736 174.127 188.022 173.961 188.276 173.772C188.528 173.582 188.77 173.399 189.003 173.224C190.834 171.796 191.759 170.672 191.814 170.725C191.831 170.739 191.599 171.015 191.163 171.504C190.949 171.753 190.678 172.047 190.33 172.357C189.987 172.67 189.615 173.052 189.144 173.402C188.913 173.585 188.672 173.775 188.422 173.973C188.169 174.169 187.884 174.343 187.6 174.539C187.039 174.943 186.388 175.291 185.713 175.675C184.335 176.388 182.752 177.047 181.023 177.525C179.288 177.981 177.589 178.206 176.04 178.282C175.264 178.289 174.526 178.315 173.838 178.248C173.494 178.221 173.161 178.214 172.843 178.172C172.527 178.127 172.223 178.083 171.932 178.041C171.349 177.976 170.836 177.832 170.381 177.733C169.925 177.64 169.542 177.522 169.232 177.414C168.608 177.211 168.269 177.089 168.276 177.068Z" fill="white"/>
<path d="M188.832 157.933C188.769 157.995 184.874 154.096 180.135 149.227C175.394 144.356 171.603 140.359 171.666 140.297C171.729 140.235 175.623 144.133 180.364 149.004C185.104 153.873 188.895 157.872 188.832 157.933Z" fill="white"/>
<path d="M184.234 165.759C184.226 165.766 184.128 165.671 183.95 165.482C183.752 165.266 183.498 164.99 183.184 164.647C182.5 163.885 181.555 162.834 180.399 161.548C178.051 158.929 174.797 155.321 171.16 151.375C167.521 147.428 164.188 143.892 161.768 141.339C160.58 140.083 159.609 139.056 158.906 138.312C158.59 137.971 158.335 137.695 158.136 137.481C157.963 137.288 157.875 137.184 157.883 137.176C157.891 137.168 157.994 137.258 158.182 137.436C158.392 137.64 158.661 137.902 158.995 138.225C159.697 138.915 160.7 139.925 161.931 141.182C164.393 143.696 167.754 147.209 171.395 151.158C175.034 155.106 178.263 158.74 180.569 161.399C181.722 162.728 182.647 163.81 183.278 164.566C183.574 164.925 183.813 165.215 183.999 165.44C184.161 165.642 184.242 165.751 184.234 165.759Z" fill="white"/>
<g opacity="0.3">
<path d="M159.874 129.168L196.557 169.016C196.557 169.016 193.588 173.169 190.868 174.976L153.411 134.197C153.411 134.197 156.111 130.943 159.874 129.168Z" fill="white"/>
</g>
<g opacity="0.3">
<path d="M150.257 138.791L186.336 177.615C186.336 177.615 186.671 177.798 184.185 178.426L149.238 140.762C149.238 140.762 149.421 139.818 150.257 138.791Z" fill="white"/>
</g>
<path d="M245.229 202.847C237.523 196.659 218.638 181.524 217.775 181.121C216.689 180.613 200.068 174.708 196.884 176.605C193.7 178.502 185.164 189.217 185.164 189.217C185.164 189.217 185.975 195.881 193.42 191.112C199.101 187.474 199.982 186.909 200.082 186.845C200.076 186.849 200.071 186.852 200.071 186.852L207.986 188.701C207.986 188.701 198.332 192.733 196.29 194.853C194.248 196.973 191.019 205.09 193.033 206.959C195.047 208.828 197.386 208.988 197.386 208.988C197.386 208.988 193.401 214.648 200.47 218.065C200.47 218.065 201.502 222.823 204.989 224.688C208.476 226.552 214.973 225.893 214.973 225.893C214.973 225.893 217.986 224.111 215.748 221.157C213.51 218.203 209.381 217.794 209.381 217.794L214.498 214.809C214.498 214.809 217.16 215.624 221.104 218.671C221.104 218.671 225.776 212.69 230.441 209.309C235.677 205.515 245.229 202.847 245.229 202.847Z" fill="#FFBF9D"/>
<path d="M212.471 205.361C212.468 205.338 212.197 205.343 211.711 205.406C211.225 205.468 210.527 205.607 209.689 205.875C208.022 206.397 205.786 207.553 203.953 209.546C202.119 211.54 201.155 213.865 200.774 215.57C200.577 216.427 200.497 217.134 200.476 217.624C200.454 218.113 200.472 218.384 200.495 218.385C200.567 218.391 200.582 217.303 201.033 215.636C201.473 213.979 202.451 211.739 204.231 209.802C206.012 207.866 208.162 206.704 209.776 206.127C211.4 205.538 212.483 205.432 212.471 205.361Z" fill="#FF9A6C"/>
<path d="M212.811 196.748C212.808 196.722 212.52 196.744 211.999 196.805C211.738 196.832 211.42 196.875 211.057 196.959C210.693 197.039 210.273 197.108 209.825 197.252C208.917 197.492 207.864 197.885 206.739 198.414C205.625 198.965 204.444 199.665 203.3 200.535C202.166 201.419 201.187 202.382 200.37 203.319C199.57 204.272 198.922 205.189 198.458 206.006C198.205 206.402 198.03 206.791 197.86 207.122C197.686 207.452 197.563 207.748 197.47 207.993C197.277 208.481 197.183 208.753 197.207 208.763C197.276 208.793 197.699 207.713 198.685 206.144C199.171 205.356 199.832 204.47 200.631 203.547C201.448 202.639 202.416 201.702 203.529 200.834C204.652 199.98 205.943 199.019 207.03 198.46C208.127 197.923 209.013 197.776 209.899 197.507C211.671 196.956 212.823 196.822 212.811 196.748Z" fill="#FF9A6C"/>
<path d="M214.257 186.856C214.267 186.815 213.868 186.66 213.182 186.614C212.5 186.565 211.531 186.672 210.559 187.083C209.244 187.645 208.781 188.193 208.4 188.646C207.957 189.171 207.791 189.566 207.828 189.587C207.916 189.666 208.834 188.203 210.707 187.431C212.562 186.62 214.252 186.974 214.257 186.856Z" fill="#FF9A6C"/>
<path d="M302.967 155.517C302.967 155.517 327.357 157.857 335.1 179.047C341.245 195.866 344.584 246.253 343.044 247.28L299.982 245.903C299.415 233.616 296.107 224.143 291.469 218.013L302.967 155.517Z" fill="#3843D6"/>
<path d="M300.642 245.903C300.662 245.873 300.962 246.042 301.487 246.374C302.014 246.703 302.755 247.212 303.649 247.871C305.439 249.185 307.809 251.151 310.202 253.556C312.599 255.959 314.561 258.327 315.907 260.09C316.578 260.974 317.105 261.701 317.448 262.218C317.794 262.733 317.972 263.028 317.943 263.049C317.879 263.096 317.03 262.02 315.619 260.319C314.205 258.621 312.211 256.308 309.833 253.923C307.458 251.536 305.147 249.543 303.424 248.161C301.703 246.778 300.596 245.97 300.642 245.903Z" fill="#FF9A6C"/>
<path d="M295.513 194.073C295.655 194.097 294.865 199.476 293.748 206.086C292.631 212.698 291.611 218.037 291.469 218.013C291.327 217.989 292.117 212.611 293.234 205.999C294.351 199.389 295.371 194.049 295.513 194.073Z" fill="#263238"/>
<path d="M241.318 345.176C241.317 345.158 241.563 345.121 242.033 345.068C242.555 345.015 243.239 344.946 244.092 344.86C245.939 344.685 248.512 344.442 251.666 344.143C258.06 343.529 266.885 342.607 276.606 341.38C286.33 340.148 295.108 338.843 301.453 337.846C304.582 337.35 307.134 336.945 308.966 336.654C309.813 336.525 310.493 336.422 311.011 336.343C311.48 336.278 311.727 336.252 311.73 336.269C311.733 336.287 311.492 336.347 311.029 336.446C310.515 336.549 309.841 336.685 309 336.854C307.237 337.2 304.678 337.665 301.511 338.21C295.178 339.301 286.402 340.665 276.67 341.898C266.941 343.127 258.102 343.991 251.697 344.511C248.494 344.772 245.901 344.959 244.106 345.063C243.25 345.109 242.563 345.145 242.039 345.173C241.568 345.192 241.319 345.194 241.318 345.176Z" fill="#263238"/>
<path d="M237.511 338.739C237.51 338.703 238.142 338.648 239.286 338.578C240.515 338.513 242.15 338.426 244.131 338.32C248.301 338.106 253.912 337.819 260.112 337.501C266.312 337.142 271.921 336.817 276.09 336.575C278.071 336.464 279.705 336.372 280.934 336.303C282.078 336.247 282.713 336.233 282.715 336.269C282.718 336.305 282.089 336.387 280.949 336.505C279.809 336.624 278.158 336.774 276.116 336.942C272.032 337.28 266.385 337.679 260.14 338.021C253.897 338.361 248.241 338.579 244.145 338.688C242.097 338.743 240.439 338.774 239.293 338.78C238.146 338.788 237.512 338.775 237.511 338.739Z" fill="#263238"/>
<path d="M168.926 247.563C169.084 246.95 169.342 246.373 169.705 245.853C170.425 244.82 171.516 244.033 172.751 243.751C174.803 243.283 177.102 244.244 178.212 246.033C178.138 244.669 179.215 243.398 180.533 243.038C181.85 242.678 182.873 243.186 183.924 244.058C184.975 244.93 185.244 245.624 185.671 246.922C186.72 244.566 192.114 244.854 192.77 246.622C192.77 246.622 197.411 241.542 199.785 244.04C200.771 245.078 200.348 246.67 199.695 248.265C198.823 250.394 198.249 251.281 197.109 253.626L192.716 253.866C192.346 255.241 191.567 260.832 191.402 262.246C191.237 263.66 190.954 265.1 190.202 266.309C189.45 267.518 188.143 268.464 186.719 268.445C185.295 268.425 183.893 267.205 183.977 265.783C183.678 266.958 183.178 268.117 182.312 268.965C181.446 269.813 180.164 270.302 178.991 269.996C177.818 269.69 176.888 268.463 177.126 267.275C175.56 268.36 173.245 267.396 172.251 265.771C171.256 264.146 171.232 262.126 171.293 260.221C171.347 258.533 171.5 256.639 170.835 255.041C170.73 254.789 170.55 254.571 170.489 254.303C170.399 253.906 170.459 253.456 170.431 253.049C170.369 252.164 170.206 251.282 169.902 250.447C169.835 250.264 169.762 250.083 169.681 249.905C169.468 249.432 169.153 249.032 168.912 248.58C168.859 248.481 168.814 248.383 168.801 248.27C168.774 248.038 168.869 247.781 168.926 247.563Z" fill="#FFBF9D"/>
<path d="M163.984 245.123C162.81 245.081 161.531 245.324 160.747 246.199C159.818 247.237 159.604 249.721 159.71 251.11C161.338 251.417 162.207 251.055 163.835 251.362C164.178 251.427 164.465 251.34 164.749 251.542C165.5 252.075 165.378 253.871 165.68 254.741C166.204 256.25 168.137 256.987 169.635 256.432C171.133 255.877 172.097 254.284 172.173 252.688C172.249 251.093 171.547 249.532 170.519 248.31C168.913 246.401 166.478 245.213 163.984 245.123Z" fill="#FFBF9D"/>
<path d="M191.709 259.914C191.543 259.879 192.213 256.899 192.637 253.192C192.841 251.338 192.888 249.651 192.815 248.435C192.752 247.219 192.609 246.471 192.69 246.452C192.749 246.435 193.022 247.164 193.182 248.402C193.352 249.637 193.362 251.367 193.155 253.248C192.953 255.13 192.601 256.804 192.311 258.003C192.015 259.202 191.777 259.929 191.709 259.914Z" fill="#FF9A6C"/>
<path d="M183.78 266.314C183.707 266.298 183.895 265.215 184.215 263.474C184.532 261.732 184.979 259.328 185.317 256.656C185.655 253.983 185.776 251.547 185.74 249.785C185.714 248.022 185.586 246.933 185.67 246.921C185.728 246.911 185.986 247.988 186.108 249.77C186.239 251.55 186.176 254.024 185.834 256.721C185.493 259.417 184.986 261.823 184.576 263.55C184.162 265.277 183.848 266.33 183.78 266.314Z" fill="#FF9A6C"/>
<path d="M177.073 267.457C176.995 267.436 177.272 266.241 177.622 264.296C177.974 262.352 178.362 259.648 178.528 256.641C178.689 253.633 178.598 250.903 178.46 248.932C178.323 246.96 178.178 245.742 178.258 245.73C178.294 245.725 178.37 246.023 178.478 246.569C178.59 247.114 178.711 247.91 178.827 248.899C179.061 250.875 179.212 253.632 179.049 256.67C178.881 259.707 178.431 262.431 177.984 264.369C177.762 265.339 177.554 266.117 177.384 266.647C177.216 267.178 177.107 267.466 177.073 267.457Z" fill="#FF9A6C"/>
<path d="M168.229 247.875C168.252 247.822 168.831 247.99 169.599 248.567C170.363 249.134 171.283 250.159 171.823 251.536C172.362 252.91 172.404 254.303 172.118 255.243C171.827 256.209 171.22 256.545 171.2 256.484C171.141 256.426 171.594 256.032 171.761 255.153C171.931 254.29 171.839 253.001 171.338 251.727C170.836 250.447 170.029 249.46 169.363 248.85C168.695 248.232 168.189 247.95 168.229 247.875Z" fill="#FF9A6C"/>
</svg>
