<?xml version="1.0" encoding="utf-8"?>
<!-- Generator: Adobe Illustrator 27.5.0, SVG Export Plug-In . SVG Version: 6.00 Build 0)  -->
<svg version="1.1" xmlns="http://www.w3.org/2000/svg" xmlns:xlink="http://www.w3.org/1999/xlink" x="0px" y="0px"
	 viewBox="0 0 500 500" style="enable-background:new 0 0 500 500;" xml:space="preserve">
<g id="Background_Complete">
	<g>
		<g>
			<g>
				<path style="fill:#E0E0E0;" d="M126.913,445.206c-0.005-0.005-0.01-0.084-0.015-0.234c-0.004-0.172-0.009-0.389-0.016-0.66
					c-0.009-0.606-0.021-1.45-0.037-2.533c-0.02-2.222-0.048-5.416-0.083-9.444l0.151,0.151c-11.109,0.022-28.776,0.057-48.65,0.097
					c0.11-0.11-0.25,0.247,0.245-0.248v0.003v0.007v0.013v0.026v0.052v0.103l0,0.207v0.414v0.825c0,0.549,0,1.097,0,1.642
					c0,1.091-0.001,2.174-0.001,3.248c-0.001,2.148-0.003,4.261-0.004,6.331l-0.242-0.242c13.854,0.044,25.977,0.083,34.671,0.11
					c4.331,0.029,7.806,0.053,10.234,0.069c1.181,0.014,2.105,0.024,2.767,0.032c0.298,0.006,0.536,0.012,0.724,0.016
					C126.821,445.195,126.907,445.2,126.913,445.206c0.005,0.005-0.071,0.01-0.225,0.016c-0.18,0.004-0.408,0.009-0.694,0.016
					c-0.649,0.008-1.556,0.018-2.715,0.032c-2.414,0.016-5.871,0.04-10.178,0.069c-8.737,0.028-20.919,0.066-34.84,0.11
					l-0.242,0.001l0-0.243c-0.001-2.07-0.003-4.183-0.004-6.331c0-1.074-0.001-2.157-0.001-3.248c0-0.545,0-1.093,0-1.642l0-0.825
					v-0.414v-0.207v-0.103v-0.052v-0.026v-0.013v-0.007v-0.003c0.496-0.496,0.139-0.138,0.251-0.248
					c19.874,0.04,37.541,0.075,48.65,0.097l0.152,0l-0.001,0.151c-0.036,4.066-0.064,7.291-0.083,9.534
					c-0.016,1.068-0.028,1.902-0.037,2.499c-0.007,0.26-0.012,0.468-0.016,0.634C126.923,445.142,126.918,445.211,126.913,445.206z"
					/>
			</g>
		</g>
		<g>
			<g>
				<path style="fill:#E0E0E0;" d="M133.509,432.335c-0.006-0.006-0.012-0.089-0.019-0.245c-0.005-0.185-0.012-0.409-0.019-0.682
					c-0.011-0.633-0.026-1.494-0.044-2.581c-0.023-2.257-0.056-5.444-0.096-9.363l0.178,0.178c-7.573,0.018-17.875,0.043-29.23,0.07
					c-0.223,0.221,0.299-0.302,0.246-0.247v0.003v0.007v0.013v0.026v0.053v0.106l0,0.211v0.422l0,0.841c0,0.56,0,1.116-0.001,1.669
					c-0.001,1.106-0.002,2.199-0.002,3.276c-0.003,2.153-0.006,4.241-0.009,6.241l-0.236-0.236
					c8.439,0.045,15.704,0.084,20.911,0.112c2.568,0.027,4.626,0.049,6.091,0.065c0.684,0.012,1.229,0.022,1.643,0.03
					C133.299,432.315,133.499,432.325,133.509,432.335c0.01,0.01-0.172,0.019-0.531,0.029c-0.401,0.007-0.93,0.017-1.594,0.03
					c-1.452,0.016-3.492,0.038-6.037,0.065c-5.247,0.028-12.567,0.067-21.07,0.112l-0.236,0.001l0-0.237
					c-0.003-2-0.006-4.088-0.009-6.241c-0.001-1.077-0.002-2.17-0.002-3.276c0-0.553,0-1.11-0.001-1.669l0-0.841v-0.422v-0.211
					v-0.106v-0.053v-0.026v-0.013v-0.007v-0.003c-0.054,0.052,0.47-0.471,0.25-0.249c11.355,0.027,21.657,0.052,29.23,0.07l0.18,0
					l-0.002,0.178c-0.04,3.965-0.073,7.189-0.096,9.472c-0.019,1.07-0.034,1.917-0.044,2.541
					C133.534,432.052,133.522,432.347,133.509,432.335z"/>
			</g>
		</g>
	</g>
	<g>
		<g>
			<rect x="97.483" y="39" style="fill:#EBEBEB;" width="48.653" height="12.871"/>
		</g>
		<g>
			<g>
				<path style="fill:#E0E0E0;" d="M125.563,65.427c-0.005-0.005-0.01-0.084-0.015-0.234c-0.004-0.172-0.009-0.389-0.016-0.66
					c-0.009-0.606-0.021-1.45-0.036-2.533c-0.02-2.222-0.048-5.416-0.083-9.444l0.151,0.151c-11.109,0.022-28.776,0.058-48.65,0.097
					c0.11-0.11-0.25,0.247,0.245-0.247v0.003v0.007v0.013v0.026v0.052v0.104v0.207l0,0.414v0.825c0,0.549,0,1.097,0,1.642
					c0,1.091-0.001,2.174-0.001,3.248c-0.001,2.148-0.003,4.261-0.004,6.331l-0.242-0.242c13.854,0.044,25.977,0.083,34.671,0.11
					c4.331,0.029,7.806,0.053,10.234,0.069c1.181,0.014,2.105,0.024,2.767,0.032c0.298,0.007,0.536,0.012,0.724,0.016
					C125.472,65.417,125.558,65.422,125.563,65.427c0.005,0.005-0.071,0.01-0.225,0.016c-0.18,0.004-0.408,0.009-0.694,0.016
					c-0.649,0.008-1.557,0.018-2.715,0.032c-2.414,0.016-5.871,0.04-10.178,0.069c-8.737,0.028-20.919,0.066-34.84,0.11
					l-0.242,0.001l0-0.243c-0.001-2.07-0.003-4.183-0.004-6.331c0-1.074-0.001-2.157-0.001-3.248c0-0.545,0-1.093,0-1.642l0-0.825
					v-0.414v-0.207v-0.104v-0.052v-0.026v-0.013V52.56v-0.003c0.496-0.496,0.139-0.138,0.251-0.248
					c19.874,0.04,37.541,0.075,48.65,0.097l0.152,0l-0.001,0.151c-0.036,4.066-0.064,7.29-0.083,9.534
					c-0.016,1.068-0.028,1.902-0.037,2.499c-0.006,0.26-0.012,0.468-0.016,0.634C125.573,65.364,125.568,65.433,125.563,65.427z"/>
			</g>
		</g>
	</g>
	<g>
		<g>
			<g>
				<path style="fill:#E0E0E0;" d="M449.878,74.984c-0.005-0.005-0.01-0.084-0.015-0.234c-0.004-0.172-0.009-0.389-0.016-0.66
					c-0.009-0.606-0.021-1.45-0.037-2.533c-0.02-2.222-0.048-5.416-0.083-9.444l0.151,0.151c-11.109,0.022-28.776,0.057-48.65,0.097
					c0.11-0.11-0.25,0.247,0.245-0.248v0.003v0.007v0.013v0.026v0.052v0.104l0,0.207v0.414v0.825c0,0.549,0,1.097,0,1.642
					c0,1.091-0.001,2.174-0.001,3.248c-0.001,2.148-0.003,4.261-0.004,6.331l-0.242-0.242c13.854,0.044,25.977,0.083,34.671,0.11
					c4.331,0.029,7.806,0.053,10.234,0.069c1.181,0.014,2.105,0.024,2.767,0.032c0.298,0.006,0.536,0.011,0.724,0.015
					C449.786,74.974,449.873,74.979,449.878,74.984c0.005,0.005-0.071,0.01-0.225,0.016c-0.18,0.004-0.408,0.009-0.694,0.016
					c-0.649,0.008-1.557,0.018-2.715,0.032c-2.414,0.016-5.871,0.04-10.178,0.069c-8.737,0.028-20.919,0.066-34.84,0.11
					l-0.242,0.001l0-0.243c-0.001-2.07-0.003-4.183-0.004-6.331c0-1.074-0.001-2.157-0.001-3.248c0-0.545,0-1.093,0-1.642l0-0.825
					v-0.414v-0.207v-0.104v-0.052v-0.026v-0.013v-0.007v-0.003c0.496-0.496,0.139-0.137,0.251-0.248
					c19.874,0.04,37.541,0.075,48.65,0.097l0.152,0l-0.001,0.151c-0.036,4.066-0.064,7.291-0.083,9.534
					c-0.016,1.068-0.028,1.902-0.037,2.499c-0.007,0.26-0.012,0.468-0.016,0.634C449.888,74.92,449.883,74.989,449.878,74.984z"/>
			</g>
		</g>
		<g>
			<g>
				<path style="fill:#E0E0E0;" d="M456.475,62.113c-0.006-0.006-0.012-0.089-0.019-0.245c-0.005-0.185-0.012-0.409-0.019-0.682
					c-0.011-0.633-0.026-1.494-0.044-2.581c-0.023-2.257-0.056-5.444-0.096-9.363l0.178,0.178c-7.573,0.018-17.875,0.043-29.23,0.07
					c-0.223,0.221,0.299-0.302,0.246-0.247v0.003v0.007v0.013v0.027v0.053v0.106l0,0.212v0.422l0,0.841c0,0.559,0,1.116-0.001,1.669
					c-0.001,1.106-0.001,2.199-0.002,3.276c-0.003,2.153-0.006,4.241-0.009,6.241l-0.236-0.236
					c8.439,0.045,15.704,0.084,20.911,0.112c2.568,0.028,4.626,0.049,6.091,0.065c0.684,0.012,1.229,0.022,1.643,0.03
					C456.264,62.094,456.465,62.104,456.475,62.113c0.01,0.01-0.172,0.019-0.531,0.029c-0.401,0.007-0.93,0.017-1.594,0.03
					c-1.452,0.016-3.492,0.038-6.037,0.065c-5.247,0.028-12.567,0.067-21.07,0.112l-0.236,0.001l0-0.237
					c-0.003-2-0.006-4.088-0.009-6.241c-0.001-1.077-0.002-2.17-0.002-3.276c0-0.553,0-1.11-0.001-1.669l0-0.841v-0.422v-0.212
					v-0.106v-0.053v-0.027v-0.013v-0.007v-0.003c-0.054,0.052,0.47-0.471,0.25-0.249c11.355,0.027,21.657,0.052,29.23,0.07l0.18,0
					l-0.002,0.178c-0.04,3.965-0.073,7.189-0.096,9.472c-0.019,1.07-0.034,1.917-0.044,2.541
					C456.499,61.83,456.487,62.126,456.475,62.113z"/>
			</g>
		</g>
	</g>
	<g>
		<g>
			<g>
				<path style="fill:#E0E0E0;" d="M75.152,195.514c-0.005-0.005-0.01-0.084-0.015-0.234c-0.004-0.172-0.009-0.389-0.016-0.66
					c-0.009-0.606-0.021-1.45-0.037-2.533c-0.02-2.222-0.048-5.416-0.083-9.444l0.151,0.151c-11.109,0.022-28.776,0.057-48.65,0.097
					c0.11-0.11-0.25,0.247,0.245-0.248v0.003v0.007v0.013v0.026v0.052v0.104l0,0.207v0.414v0.825c0,0.549,0,1.097,0,1.642
					c0,1.091-0.001,2.174-0.001,3.248c-0.001,2.148-0.003,4.261-0.004,6.331l-0.242-0.242c13.854,0.044,25.977,0.083,34.671,0.11
					c4.331,0.029,7.806,0.053,10.234,0.069c1.181,0.014,2.106,0.024,2.767,0.032c0.298,0.006,0.536,0.012,0.724,0.016
					C75.06,195.504,75.147,195.509,75.152,195.514c0.005,0.005-0.071,0.01-0.225,0.016c-0.18,0.004-0.408,0.009-0.694,0.016
					c-0.649,0.008-1.557,0.018-2.715,0.032c-2.414,0.016-5.871,0.04-10.178,0.069c-8.737,0.028-20.919,0.066-34.84,0.11
					l-0.242,0.001l0-0.243c-0.001-2.07-0.003-4.183-0.004-6.331c0-1.074-0.001-2.157-0.001-3.248c0-0.545,0-1.093,0-1.642l0-0.825
					v-0.414v-0.207v-0.104v-0.052v-0.026v-0.013v-0.007v-0.003c0.496-0.496,0.139-0.137,0.251-0.248
					c19.874,0.04,37.541,0.075,48.65,0.097l0.152,0l-0.001,0.151c-0.036,4.066-0.064,7.29-0.083,9.534
					c-0.016,1.068-0.028,1.901-0.037,2.499c-0.007,0.26-0.012,0.468-0.016,0.634C75.162,195.45,75.157,195.519,75.152,195.514z"/>
			</g>
		</g>
		<g>
			<g>
				<path style="fill:#E0E0E0;" d="M81.749,182.643c-0.006-0.006-0.012-0.089-0.019-0.245c-0.005-0.185-0.012-0.409-0.019-0.682
					c-0.011-0.633-0.026-1.494-0.044-2.581c-0.023-2.257-0.056-5.444-0.096-9.363l0.178,0.178c-7.573,0.018-17.875,0.043-29.23,0.07
					c-0.223,0.221,0.299-0.302,0.246-0.247v0.003v0.007v0.013v0.027v0.053v0.106l0,0.212v0.422l0,0.842c0,0.559,0,1.116-0.001,1.669
					c-0.001,1.106-0.001,2.199-0.002,3.276c-0.003,2.153-0.006,4.241-0.009,6.241l-0.236-0.236
					c8.439,0.045,15.704,0.084,20.911,0.112c2.568,0.028,4.626,0.049,6.091,0.065c0.684,0.012,1.229,0.022,1.643,0.03
					C81.538,182.624,81.739,182.633,81.749,182.643c0.01,0.01-0.172,0.019-0.531,0.029c-0.401,0.007-0.93,0.017-1.594,0.03
					c-1.452,0.016-3.492,0.038-6.037,0.065c-5.247,0.028-12.567,0.067-21.07,0.112l-0.236,0.001l0-0.237
					c-0.003-2-0.006-4.088-0.009-6.241c-0.001-1.077-0.001-2.17-0.002-3.276c0-0.553,0-1.11-0.001-1.669l0-0.842v-0.422v-0.212
					v-0.106v-0.053v-0.027v-0.013v-0.007v-0.003c-0.054,0.052,0.47-0.471,0.25-0.249c11.355,0.027,21.657,0.052,29.23,0.07
					l0.18,0.001l-0.002,0.178c-0.04,3.965-0.073,7.189-0.096,9.472c-0.019,1.07-0.034,1.917-0.044,2.541
					C81.773,182.36,81.761,182.656,81.749,182.643z"/>
			</g>
		</g>
	</g>
	<g>
		<g>
			<g>
				<path style="fill:#E0E0E0;" d="M399.672,382.962c-3.868-2.429-8.299-3.954-12.842-4.42c-2.098-0.216-4.391-0.154-6.074,1.117
					c-0.357,0.27-0.706,0.669-0.625,1.109c0.059,0.324,0.332,0.559,0.594,0.759C385.948,385.513,393.852,386.016,399.672,382.962"/>
			</g>
			<g>
				<path style="fill:#E0E0E0;" d="M399.342,382.598c-2.907-2.269-5.832-4.553-8.295-7.298c-2.463-2.745-4.464-6.004-5.2-9.617
					c-0.223-1.096-0.292-2.348,0.411-3.218C392.87,367.629,398.064,374.307,399.342,382.598"/>
			</g>
			<g>
				<path style="fill:#E0E0E0;" d="M399.603,382.912c-0.498-3.617-0.677-7.335,0.154-10.89c0.831-3.555,2.765-6.958,5.801-8.986
					c1.143,2.67,0.651,5.747-0.153,8.538c-1.244,4.313-3.195,8.421-5.752,12.11"/>
			</g>
			<g>
				<path style="fill:#E0E0E0;" d="M406.085,394.526c-3.934,0.478-7.361,2.552-10.299,5.213c-2.938,2.66-5.026,6.245-5.891,10.113
					c3.859-0.238,7.133-2.96,9.508-6.012c2.375-3.052,4.02-6.4,6.628-9.254"/>
			</g>
			<g>
				<path style="fill:#E0E0E0;" d="M407.492,396.383c-3.169-7.806-2.021-17.212,2.933-24.027
					C412.667,380.329,411.844,389.336,407.492,396.383"/>
			</g>
			<g>
				<path style="fill:#E0E0E0;" d="M416.056,406.581c-3.571-0.222-7.201,0.629-10.302,2.414c-3.101,1.785-5.659,4.497-7.261,7.696
					c-0.218,0.435-0.41,0.988-0.118,1.377c0.253,0.338,0.743,0.37,1.165,0.343c3.461-0.224,6.529-2.307,9.06-4.678
					c2.531-2.371,4.736-5.111,7.534-7.161"/>
			</g>
			<g>
				<path style="fill:#E0E0E0;" d="M415.783,406.025c-1.842-5.894-1.957-12.316-0.327-18.272c0.644-2.352,1.724-4.828,3.899-5.931
					c0.186-0.094,0.402-0.178,0.597-0.105c0.185,0.07,0.292,0.259,0.377,0.437c0.774,1.616,0.999,3.452,0.919,5.242
					c-0.08,1.79-0.451,3.553-0.821,5.307c-0.685,3.243-1.049,6.729-2.828,9.526c-0.422,0.664-0.794,1.381-1.131,2.092
					c-0.337,0.711-0.339,0.961-0.648,1.527"/>
			</g>
			<g>
				<path style="fill:#E0E0E0;" d="M438.452,409.403c-1.679-6.388,0.103-14.133,4.129-19.371c0.297-0.386,0.689-0.799,1.174-0.754
					c0.741,0.068,0.934,1.056,0.9,1.8C444.364,397.607,442.186,404.04,438.452,409.403"/>
			</g>
			<g>
				<path style="fill:#E0E0E0;" d="M440.496,410.8c7.762,2.02,16.666,0.056,23.121-4.703c-3.826-1.939-8.336-2.492-12.517-1.536
					C446.919,405.517,443.098,407.391,440.496,410.8"/>
			</g>
			<g>
				<path style="fill:#E0E0E0;" d="M442.219,406.546c4.347-7.087,12.681-11.713,20.984-12.134c-0.957,3.377-3.732,6.002-6.863,7.588
					c-3.131,1.586-6.627,2.277-10.073,2.946C444.927,405.207,443.088,405.493,442.219,406.546"/>
			</g>
			<g>
				<path style="fill:#E0E0E0;" d="M438.884,385.905c1.177-4.033,2.361-8.101,2.684-12.289c0.323-4.189-0.274-8.561-2.448-12.156
					c-4.06,7.857-4.471,17.037-0.358,24.867"/>
			</g>
			<g>
				<path style="fill:#E0E0E0;" d="M452.554,378.996c4.749-8.63,14.436-15.524,24.239-16.49
					C473.012,371.922,462.699,379.198,452.554,378.996"/>
			</g>
			<g>
				<path style="fill:#E0E0E0;" d="M449.567,380.687c7.082,1.079,13.115,5.602,19.733,8.344c1.415,0.586,2.942,1.054,4.461,0.854
					c1.519-0.199,3.018-1.218,3.358-2.712c0.283-1.24-0.282-2.557-1.172-3.466c-0.89-0.909-2.066-1.477-3.24-1.966
					c-7.208-3.001-14.938-3.076-22.531-1.256"/>
			</g>
			<g>
				<path style="fill:#E0E0E0;" d="M445.469,385.654c1.603,0.459,2.151,1.289,3.421,2.37c4.307,3.668,9.473,6.322,14.964,7.687
					c0.572,0.142,1.322,0.199,1.605-0.318c0.247-0.451-0.066-0.997-0.387-1.399c-2.301-2.879-5.582-4.847-9.035-6.134
					c-3.453-1.286-6.445-2.836-10.567-2.503"/>
			</g>
			<g>
				<path style="fill:#E0E0E0;" d="M440.845,355.656c5.759,5.375,13.87,8.135,21.711,7.387c0.357-0.034,0.746-0.091,0.988-0.355
					c0.546-0.594-0.109-1.512-0.746-2.008C456.415,355.702,448.683,353.639,440.845,355.656"/>
			</g>
			<g>
				<path style="fill:#E0E0E0;" d="M446.327,353.649c7.612-5.707,18.05-7.429,27.092-4.47c-3.412,3.363-8.145,5.172-12.91,5.668
					C455.745,355.343,450.974,354.814,446.327,353.649"/>
			</g>
			<g>
				<path style="fill:#E0E0E0;" d="M444.148,339.864c-0.627-6.371-0.22-11.401-0.662-17.802c-0.035-0.511-0.145-1.127-0.624-1.311
					c-0.666-0.257-1.221,0.562-1.44,1.242c-1.897,5.901-0.86,12.668,2.717,17.731"/>
			</g>
			<g>
				<path style="fill:#E0E0E0;" d="M443.69,340.568c4.318-2.671,7.558-6.158,10.554-10.258c2.084-2.852,3.842-6.269,3.368-9.77
					c-2.927-0.059-5.709,1.556-7.613,3.78c-1.904,2.224-3.036,5.005-3.881,7.808C445.273,334.932,444.682,337.813,443.69,340.568"/>
			</g>
			<g>
				<path style="fill:#E0E0E0;" d="M454.059,337.687c9.477-3.505,18.319-8.718,25.973-15.315c-3.103-1.25-6.655-0.502-9.756,0.75
					c-7.087,2.861-12.877,7.689-16.352,14.496"/>
			</g>
			<g>
				<path style="fill:#E0E0E0;" d="M446.605,344.054c4.794,0.524,9.665,0.865,14.422,0.07c4.676-0.781,9.094-2.635,13.464-4.474
					c0.362-0.152,0.756-0.335,0.915-0.694c0.172-0.39-0.011-0.866-0.328-1.152c-0.316-0.286-0.737-0.423-1.148-0.538
					c-4.75-1.329-9.876-0.707-14.55,0.869C454.706,339.711,450.875,341.583,446.605,344.054"/>
			</g>
			<g>
				<path style="fill:#E0E0E0;" d="M419.228,355.873c-3.271-6.603-3.059-14.309-0.233-21.114c1.989,3.031,2.232,6.891,1.868,10.498
					s-1.462,7.32-1.533,10.944"/>
			</g>
			<g>
				<path style="fill:#E0E0E0;" d="M406.16,349.282c-8.167-0.156-16.337,3.324-21.883,9.322c4.076,0.64,8.275-0.411,11.983-2.221
					c3.708-1.811,7.003-4.351,10.268-6.873"/>
			</g>
			<g>
				<path style="fill:#E0E0E0;" d="M397.374,346.344c-3.995-0.324-7.84-0.819-11.681,0.359c-3.842,1.177-7.338,3.849-8.904,7.549
					c3.737,0.421,7.526-0.516,10.952-2.068C391.165,350.632,394.28,348.482,397.374,346.344"/>
			</g>
			<g>
				<path style="fill:#E0E0E0;" d="M410.382,346.478c-3.594-2.355-7.285-4.753-11.47-5.729c-4.185-0.976-9.035-0.255-11.954,2.9
					c3.388,1.988,7.498,2.223,11.426,2.22c3.928-0.003,8.744-0.047,12.447,1.263"/>
			</g>
			<g>
				<path style="fill:#E0E0E0;" d="M410.404,346.668c-6.145-6.034-8.474-16.874-6.002-25.123
					C409.232,328.884,411.395,337.939,410.404,346.668"/>
			</g>
			<g>
				<path style="fill:#E0E0E0;" d="M427.301,329.572c1.159-2.694,1.974-5.522,3.014-8.264c1.04-2.742,2.332-5.441,4.297-7.619
					c1.965-2.178,4.681-3.799,7.61-3.944c-1.834,8.303-7.348,15.721-14.77,19.87"/>
			</g>
			<g>
				<path style="fill:#E0E0E0;" d="M424.243,333.134c-1.918-2.64-4.134-6.223-6.734-8.193c-2.601-1.97-5.987-3.163-9.161-2.406
					C411.575,328.305,417.675,332.373,424.243,333.134"/>
			</g>
			<g>
				<path style="fill:#E0E0E0;" d="M424.854,329.791c-1.257-3.194-2.523-6.422-3.031-9.817c-0.508-3.395-0.199-7.021,1.537-9.982
					c3.373,6.376,4.459,13.221,1.667,19.872"/>
			</g>
			<g>
				<path style="fill:#E0E0E0;" d="M427.332,309.992c1.911-6.321,7.698-10.975,13.947-13.11c0.788-0.269,1.622-0.494,2.445-0.367
					c0.823,0.127,1.63,0.69,1.802,1.504c0.228,1.075-0.66,2.039-1.496,2.753C439.164,304.933,433.445,308.091,427.332,309.992"/>
			</g>
			<g>
				<path style="fill:#E0E0E0;" d="M427.4,304.823c0.243-4.076,0.497-8.21,1.823-12.071c1.326-3.862,3.88-7.484,7.597-9.174
					c0.632,4.116-1.184,8.211-3.374,11.753c-2.19,3.542-4.83,6.885-6.146,10.836"/>
			</g>
			<g>
				<path style="fill:#E0E0E0;" d="M427.301,307.628c-1.579-4.607-1.742-10.458-4.501-14.471c-1.928-2.805-5.016-4.716-6.677-7.688
					c-1.104,2.775-0.766,5.973,0.389,8.727c1.154,2.754,3.062,5.125,5.103,7.305C423.655,303.682,425.403,305.322,427.301,307.628"
					/>
			</g>
			<g>
				<g>
					<path style="fill:#E0E0E0;" d="M427.332,443.288c-0.123,0-0.229-30.73-0.238-68.629c-0.008-37.912,0.084-68.636,0.207-68.636
						c0.123,0,0.229,30.724,0.237,68.636C427.547,412.558,427.454,443.288,427.332,443.288z"/>
				</g>
			</g>
			<g>
				<g>
					<path style="fill:#E0E0E0;" d="M454.186,351.236c0.009,0.03-0.403,0.182-1.155,0.434c-0.83,0.28-1.898,0.64-3.18,1.073
						c-2.681,0.913-6.364,2.236-10.362,3.874c-3.958,1.698-7.691,3.076-9.816,4.918c-1.062,0.909-1.672,1.893-1.973,2.61
						c-0.305,0.721-0.359,1.163-0.4,1.155c-0.015-0.002-0.01-0.112,0.013-0.322c0.035-0.207,0.089-0.517,0.226-0.896
						c0.259-0.758,0.852-1.81,1.925-2.782c1.068-0.974,2.556-1.849,4.259-2.646c1.704-0.795,3.592-1.625,5.597-2.449
						c4.009-1.643,7.721-2.923,10.433-3.762c1.355-0.423,2.461-0.734,3.227-0.94C453.749,351.304,454.177,351.207,454.186,351.236z"
						/>
				</g>
			</g>
			<g>
				<g>
					<path style="fill:#E0E0E0;" d="M462.988,329.615c0.01,0.012-0.102,0.13-0.324,0.346c-0.262,0.246-0.588,0.552-0.986,0.926
						c-0.916,0.832-2.162,1.964-3.681,3.344c-3.179,2.83-7.489,6.669-12.253,10.91c-4.783,4.257-8.916,8.325-11.781,11.388
						c-1.434,1.53-2.564,2.797-3.334,3.681c-0.36,0.411-0.654,0.747-0.89,1.017c-0.206,0.23-0.321,0.347-0.333,0.337
						c-0.012-0.009,0.079-0.145,0.263-0.393c0.186-0.247,0.457-0.615,0.827-1.071c0.731-0.921,1.828-2.222,3.236-3.783
						c2.813-3.126,6.924-7.241,11.716-11.507c4.799-4.248,9.167-8.063,12.341-10.814c1.558-1.336,2.836-2.433,3.775-3.239
						c0.421-0.349,0.765-0.634,1.041-0.864C462.847,329.7,462.978,329.603,462.988,329.615z"/>
				</g>
			</g>
			<g>
				<g>
					<path style="fill:#E0E0E0;" d="M440.581,349.47c-0.125-0.056,0.874-2.363,1.869-5.28c1.005-2.917,1.478-5.379,1.605-5.359
						c0.116,0.012-0.167,2.546-1.184,5.501c-0.501,1.475-1.053,2.772-1.488,3.693C440.948,348.946,440.636,349.494,440.581,349.47z"
						/>
				</g>
			</g>
			<g>
				<g>
					<path style="fill:#E0E0E0;" d="M427.359,368.07c-0.025,0.018-0.286-0.288-0.737-0.856c-0.5-0.641-1.133-1.453-1.888-2.421
						c-1.586-2.05-3.779-4.88-6.236-7.977c-2.459-3.097-4.718-5.875-6.354-7.885c-0.772-0.955-1.418-1.756-1.929-2.388
						c-0.451-0.568-0.689-0.892-0.666-0.912c0.023-0.02,0.306,0.266,0.797,0.8c0.492,0.533,1.189,1.318,2.038,2.298
						c1.699,1.96,3.999,4.71,6.462,7.811c2.461,3.101,4.616,5.964,6.139,8.064c0.762,1.05,1.368,1.907,1.776,2.507
						C427.17,367.711,427.384,368.051,427.359,368.07z"/>
				</g>
			</g>
			<g>
				<g>
					<path style="fill:#E0E0E0;" d="M421.471,360.51c-0.072,0.078-1.644-1.786-2.467-4.618c-0.607-1.996-0.634-3.821-0.559-4.656
						l0.196,0.016c-0.088,0.356-0.152,0.543-0.187,0.538c-0.035-0.006-0.037-0.204-0.008-0.569l0.196,0.016
						c0.072,0.828,0.197,2.59,0.788,4.529C420.225,358.51,421.59,360.435,421.471,360.51z"/>
				</g>
			</g>
			<g>
				<g>
					<path style="fill:#E0E0E0;" d="M413.87,350.948c-0.057,0.062-0.563-0.576-1.722-1c-1.151-0.445-2.882-0.543-4.782-0.38
						c-1.901,0.14-3.6,0.478-4.815,0.777c-1.216,0.301-1.958,0.538-1.981,0.475c-0.02-0.052,0.687-0.395,1.897-0.778
						c1.208-0.38,2.93-0.775,4.866-0.918c1.921-0.166,3.744-0.018,4.933,0.532C413.47,350.19,413.909,350.937,413.87,350.948z"/>
				</g>
			</g>
			<g>
				<g>
					<path style="fill:#E0E0E0;" d="M412.068,348.631c-0.034,0.069-1.003-0.402-2.639-0.961c-1.632-0.562-3.958-1.151-6.583-1.355
						c-2.627-0.196-5.015,0.034-6.714,0.341c-1.701,0.304-2.731,0.623-2.754,0.55c-0.01-0.029,0.239-0.134,0.7-0.298
						c0.458-0.171,1.139-0.366,1.993-0.56c1.704-0.391,4.134-0.676,6.809-0.476c2.673,0.208,5.032,0.858,6.657,1.503
						c0.814,0.32,1.458,0.617,1.885,0.855C411.851,348.462,412.081,348.603,412.068,348.631z"/>
				</g>
			</g>
			<g>
				<g>
					<path style="fill:#E0E0E0;" d="M427.301,338.831c-0.119,0.03-0.98-2.963-1.924-6.684c-0.944-3.723-1.613-6.764-1.494-6.794
						c0.119-0.03,0.98,2.962,1.924,6.685C426.751,335.759,427.419,338.801,427.301,338.831z"/>
				</g>
			</g>
			<g>
				<g>
					<path style="fill:#E0E0E0;" d="M427.423,338.831c-0.132,0.043-0.686-1.957-2.133-4.002c-1.408-2.088-3.205-3.136-3.139-3.24
						c0.023-0.047,0.519,0.136,1.212,0.625c0.694,0.483,1.552,1.301,2.291,2.36C427.155,336.702,427.531,338.823,427.423,338.831z"
						/>
				</g>
			</g>
			<g>
				<g>
					<path style="fill:#E0E0E0;" d="M427.332,426.906c-0.048,0.007-0.138-0.739-0.485-2.044c-0.342-1.305-0.987-3.156-2.053-5.32
						c-2.123-4.339-5.987-9.84-10.896-15.35c-2.432-2.779-4.793-5.401-6.796-7.911c-2.006-2.507-3.655-4.896-4.859-7.009
						c-1.208-2.111-1.994-3.923-2.453-5.201c-0.225-0.641-0.391-1.141-0.482-1.487c-0.097-0.344-0.141-0.526-0.126-0.531
						c0.04-0.013,0.263,0.703,0.77,1.956c0.506,1.252,1.33,3.029,2.563,5.105c1.23,2.077,2.893,4.43,4.907,6.91
						c2.011,2.484,4.375,5.092,6.811,7.876c4.922,5.525,8.776,11.095,10.844,15.506c1.04,2.201,1.645,4.087,1.938,5.415
						c0.142,0.666,0.238,1.184,0.272,1.542C427.331,426.717,427.347,426.904,427.332,426.906z"/>
				</g>
			</g>
			<g>
				<g>
					<path style="fill:#E0E0E0;" d="M451.598,399.497c0.015,0.033-0.45,0.268-1.272,0.714c-0.816,0.458-1.973,1.164-3.299,2.181
						c-1.326,1.015-2.809,2.348-4.332,3.952c-1.521,1.606-3.087,3.472-4.686,5.471c-3.196,4.01-6.185,7.559-7.975,10.392
						c-0.909,1.405-1.57,2.59-2.002,3.421c-0.437,0.829-0.668,1.295-0.7,1.28c-0.014-0.006,0.027-0.13,0.118-0.361
						c0.095-0.229,0.223-0.572,0.427-0.996c0.387-0.858,1.01-2.074,1.892-3.512c1.738-2.901,4.704-6.498,7.895-10.502
						c1.602-2.003,3.187-3.872,4.736-5.476c1.552-1.601,3.074-2.926,4.44-3.92c1.365-0.996,2.56-1.668,3.407-2.082
						c0.421-0.212,0.765-0.341,0.993-0.439C451.469,399.525,451.592,399.483,451.598,399.497z"/>
				</g>
			</g>
			<g>
				<g>
					<path style="fill:#E0E0E0;" d="M452.073,408.389c0.005,0.065-1.026,0.19-2.688,0.39c-1.656,0.214-3.961,0.491-6.375,1.256
						c-2.406,0.784-4.405,1.977-5.708,2.996c-1.316,1.017-1.936,1.858-1.997,1.809c-0.021-0.015,0.107-0.245,0.398-0.619
						c0.288-0.377,0.758-0.88,1.401-1.434c1.282-1.105,3.301-2.37,5.771-3.175c2.474-0.783,4.81-1.01,6.48-1.146
						C451.03,408.345,452.068,408.331,452.073,408.389z"/>
				</g>
			</g>
			<g>
				<g>
					<path style="fill:#E0E0E0;" d="M436.089,413.863c-0.14-0.079,1.071-1.93,2.011-4.419c0.882-2.512,1.088-4.714,1.247-4.689
						c0.057,0.007,0.055,0.558-0.045,1.442c-0.105,0.881-0.317,2.107-0.784,3.398c-0.47,1.289-1.086,2.366-1.559,3.116
						C436.479,413.461,436.138,413.893,436.089,413.863z"/>
				</g>
			</g>
			<g>
				<g>
					<path style="fill:#E0E0E0;" d="M459.457,375.625c0.006,0.014-0.143,0.093-0.43,0.229c-0.334,0.151-0.751,0.341-1.263,0.574
						c-0.553,0.237-1.225,0.538-1.982,0.937c-0.76,0.392-1.646,0.795-2.569,1.35c-0.469,0.266-0.958,0.544-1.467,0.834
						c-0.508,0.293-1.012,0.64-1.547,0.975c-1.081,0.656-2.164,1.464-3.32,2.288c-2.262,1.717-4.641,3.749-6.93,6.095
						c-2.268,2.37-4.218,4.816-5.856,7.136c-0.785,1.184-1.555,2.294-2.173,3.397c-0.317,0.547-0.647,1.061-0.921,1.579
						c-0.272,0.518-0.533,1.017-0.783,1.494c-0.522,0.941-0.895,1.841-1.261,2.613c-0.373,0.77-0.651,1.451-0.869,2.012
						c-0.215,0.52-0.391,0.943-0.531,1.282c-0.126,0.292-0.199,0.443-0.214,0.438s0.03-0.166,0.129-0.468
						c0.12-0.347,0.27-0.782,0.454-1.314c0.194-0.573,0.45-1.266,0.802-2.049c0.346-0.786,0.701-1.699,1.208-2.655
						c0.243-0.484,0.498-0.991,0.763-1.517c0.269-0.526,0.593-1.048,0.905-1.602c0.609-1.118,1.373-2.244,2.154-3.443
						c1.632-2.35,3.588-4.824,5.874-7.212c2.308-2.365,4.714-4.405,7.006-6.116c1.171-0.822,2.27-1.624,3.367-2.27
						c0.543-0.331,1.054-0.673,1.57-0.959c0.517-0.282,1.014-0.554,1.49-0.814c0.938-0.54,1.839-0.926,2.612-1.298
						c0.771-0.379,1.455-0.658,2.021-0.872c0.526-0.202,0.956-0.367,1.298-0.498C459.293,375.661,459.452,375.611,459.457,375.625z"
						/>
				</g>
			</g>
			<g>
				<g>
					<path style="fill:#E0E0E0;" d="M440.252,388.493c-0.039-0.007,0.175-0.752,1.056-1.573c0.86-0.819,2.428-1.578,4.255-1.633
						c1.821-0.048,3.4,0.461,4.478,0.875c1.084,0.426,1.714,0.771,1.693,0.822c-0.025,0.062-0.7-0.181-1.796-0.526
						c-1.092-0.334-2.635-0.775-4.36-0.728c-1.719,0.053-3.204,0.715-4.064,1.427C440.633,387.867,440.323,388.536,440.252,388.493z
						"/>
				</g>
			</g>
			<g>
				<g>
					<path style="fill:#E0E0E0;" d="M437.381,391.454c-0.122-0.068,0.961-1.656,1.208-3.931c0.284-2.271-0.405-4.066-0.271-4.104
						c0.049-0.02,0.29,0.397,0.499,1.145c0.21,0.744,0.349,1.827,0.213,3.01c-0.14,1.182-0.524,2.204-0.9,2.88
						C437.755,391.134,437.424,391.485,437.381,391.454z"/>
				</g>
			</g>
		</g>
		<g>
			<path style="fill:#E0E0E0;" d="M406.107,431.309c0.662,11.744,4.201,23.687,9.644,35.763h23.671
				c5.191-11.956,8.486-23.881,9.071-35.763H406.107z"/>
		</g>
		<g>
			<g>
				<path style="fill:#FAFAFA;" d="M444.658,450.313c0,0.123-7.794,0.222-17.405,0.222c-9.615,0-17.407-0.099-17.407-0.222
					c0-0.123,7.792-0.222,17.407-0.222C436.864,450.091,444.658,450.19,444.658,450.313z"/>
			</g>
		</g>
		<g>
			<g>
				<path style="fill:#FAFAFA;" d="M444.128,454.567c0,0.123-7.306,0.222-16.317,0.222c-9.014,0-16.319-0.099-16.319-0.222
					c0-0.122,7.305-0.222,16.319-0.222C436.822,454.345,444.128,454.445,444.128,454.567z"/>
			</g>
		</g>
		<g>
			<g>
				<path style="fill:#FAFAFA;" d="M416.134,439.02c0.123,0,0.222,2.441,0.222,5.452c0,3.012-0.099,5.453-0.222,5.453
					c-0.122,0-0.222-2.441-0.222-5.453C415.912,441.461,416.011,439.02,416.134,439.02z"/>
			</g>
		</g>
		<g>
			<g>
				<path style="fill:#FAFAFA;" d="M428.816,439.02c0.123,0,0.222,2.528,0.222,5.646c0,3.119-0.099,5.647-0.222,5.647
					s-0.222-2.528-0.222-5.647C428.594,441.548,428.694,439.02,428.816,439.02z"/>
			</g>
		</g>
		<g>
			<g>
				<path style="fill:#FAFAFA;" d="M440.722,438.924c0.123,0,0.222,2.579,0.222,5.759c0,3.181-0.099,5.759-0.222,5.759
					c-0.123,0-0.222-2.578-0.222-5.759C440.5,441.503,440.6,438.924,440.722,438.924z"/>
			</g>
		</g>
		<g>
			<g>
				<path style="fill:#FAFAFA;" d="M447.742,439.02c0,0.123-9.141,0.222-20.414,0.222c-11.277,0-20.416-0.1-20.416-0.222
					c0-0.123,9.139-0.222,20.416-0.222C438.601,438.798,447.742,438.897,447.742,439.02z"/>
			</g>
		</g>
	</g>
</g>
<g id="Background_Simple" style="display:none;">
	<g style="display:inline;">
		<path style="fill:#F5F5F5;" d="M42.511,160.581l1.376,1.192c11.599,10.049,27.726,13.167,41.879,7.602
			c1.819-0.715,3.588-1.562,5.286-2.54c12.23-7.04,20.462-20.653,21.104-34.899c0.378-8.379-1.617-17.243,1.758-24.884
			c4.393-9.944,15.997-13.948,26.371-16.934c10.374-2.986,21.976-7.023,26.326-16.987c2.724-6.24,1.862-13.589-0.579-19.986
			c-6.462-16.935-23.428-28.476-41.162-31.218c-17.734-2.742-35.932,2.359-51.558,11.108c-21.89,12.255-39.981,32.381-46.918,56.705
			C19.458,114.064,24.85,142.424,42.511,160.581z"/>
	</g>
	<g style="display:inline;">
		
			<ellipse transform="matrix(0.9273 -0.3744 0.3744 0.9273 8.3996 163.967)" style="fill:#F5F5F5;" cx="426.277" cy="60.362" rx="36.286" ry="36.286"/>
	</g>
	<g style="display:inline;">
		
			<ellipse transform="matrix(0.2262 -0.9741 0.9741 0.2262 -11.246 670.8879)" style="fill:#F5F5F5;" cx="416.658" cy="342.523" rx="36.286" ry="36.286"/>
	</g>
</g>
<g id="Floor">
	<g>
		<g>
			<path style="fill:#263238;" d="M464.773,467.072c0,0.144-97.956,0.26-218.762,0.26c-120.848,0-218.783-0.117-218.783-0.26
				c0-0.144,97.935-0.26,218.783-0.26C366.817,466.812,464.773,466.928,464.773,467.072z"/>
		</g>
	</g>
</g>
<g id="Door">
	<g>
		<g>
			<g>
				<rect x="177.138" y="82.162" style="fill:#455A64;" width="190.809" height="384.91"/>
			</g>
			<g>
				<g>
					<path style="fill:#263238;" d="M367.947,82.162c0.001,2.268,0.102,160.32,0.246,384.91l0,0.246h-0.246
						c-59,0.005-123.546,0.01-190.781,0.015h-0.028h-0.26l0-0.26c0.026-148.645,0.05-284.114,0.067-384.91v-0.193l0.193,0
						C294.801,82.088,366.415,82.16,367.947,82.162c-1.53,0.002-73.146,0.074-190.809,0.193l0.193-0.193
						c0.018,100.796,0.041,236.265,0.067,384.91l-0.26-0.26h0.028c67.236,0.005,131.781,0.01,190.781,0.015l-0.245,0.246
						C367.844,242.482,367.945,84.428,367.947,82.162z"/>
				</g>
			</g>
		</g>
		<g>
			<rect x="195.03" y="99.834" style="fill:#E0E0E0;" width="155.758" height="367.238"/>
		</g>
		<g>
			<polygon style="fill:#F5F5F5;" points="195.03,467.072 318.08,445.248 318.08,99.834 195.03,99.834 			"/>
		</g>
		<g>
			<polygon style="fill:#F5F5F5;" points="196.798,467.072 305.92,445.248 350.788,445.248 350.788,467.072 			"/>
		</g>
		<g>
			<path style="fill:#E0E0E0;" d="M208.539,289.168L208.539,289.168c-1.336,0-2.42-1.083-2.42-2.42v-30.269
				c0-1.336,1.083-2.42,2.42-2.42l0,0c1.336,0,2.42,1.083,2.42,2.42v30.269C210.959,288.085,209.876,289.168,208.539,289.168z"/>
		</g>
		<g>
			<path style="fill:#E0E0E0;" d="M311.486,289.168L311.486,289.168c-1.336,0-2.42-1.083-2.42-2.42v-30.269
				c0-1.336,1.083-2.42,2.42-2.42l0,0c1.336,0,2.42,1.083,2.42,2.42v30.269C313.906,288.085,312.822,289.168,311.486,289.168z"/>
		</g>
		<g>
			<polygon style="fill:#FFFFFF;" points="313.238,287.323 207.039,287.323 207.039,266.338 210.039,266.338 210.039,284.323 
				310.238,284.323 310.238,266.338 313.238,266.338 			"/>
		</g>
		<g>
			<g>
				<path style="fill:#263238;" d="M318.079,99.834c0,0,0.018,0.41,0.027,1.21c0.006,0.811,0.014,1.997,0.026,3.551
					c0.011,3.132,0.028,7.732,0.049,13.654c0.02,11.868,0.048,29.022,0.083,50.218c0.02,42.412,0.046,100.984,0.076,165.678
					c-0.012,40.44-0.022,78.484-0.031,111.104v0.192l-0.189,0.034c-36.24,6.482-66.562,11.905-87.836,15.71
					c-10.629,1.885-18.995,3.368-24.715,4.383c-2.85,0.497-5.038,0.879-6.526,1.139c-0.732,0.124-1.29,0.218-1.676,0.283
					c-0.376,0.061-0.569,0.084-0.569,0.084s0.188-0.046,0.563-0.12c0.384-0.073,0.94-0.18,1.67-0.319
					c1.485-0.275,3.669-0.68,6.513-1.208c5.715-1.043,14.074-2.569,24.693-4.508c21.266-3.85,51.577-9.337,87.803-15.895
					l-0.188,0.225c-0.009-32.619-0.02-70.663-0.031-111.104c0.03-64.694,0.057-123.265,0.076-165.678
					c0.035-21.196,0.063-38.35,0.083-50.218c0.021-5.922,0.038-10.522,0.049-13.654c0.011-1.554,0.02-2.741,0.026-3.551
					C318.062,100.244,318.079,99.834,318.079,99.834z"/>
			</g>
		</g>
		<g>
			<g>
				<path style="fill:#263238;" d="M350.788,467.072c-0.002-2.332-0.104-154.03-0.249-367.238l0.248,0.248
					c-48.458,0.004-101.119,0.008-155.733,0.012h-0.025l0.26-0.26c-0.029,143.233-0.056,272.998-0.075,367.238l-0.185-0.185
					C291.22,467.001,349.338,467.071,350.788,467.072c-1.449,0.002-59.568,0.071-155.758,0.185l-0.185,0v-0.186
					c-0.019-94.241-0.046-224.005-0.075-367.238l0-0.26h0.261h0.025c54.614,0.004,107.275,0.008,155.733,0.012h0.249l0,0.249
					C350.892,313.042,350.79,464.741,350.788,467.072z"/>
			</g>
		</g>
		<g>
			<g>
				<path style="fill:#263238;" d="M177.138,82.162c0.101-0.102,4.189,3.771,9.129,8.65c4.942,4.881,8.865,8.919,8.764,9.022
					c-0.101,0.102-4.188-3.77-9.129-8.651C180.96,86.303,177.037,82.264,177.138,82.162z"/>
			</g>
		</g>
		<g>
			<g>
				<path style="fill:#263238;" d="M367.561,82.343c0.104,0.1-3.567,4.096-8.198,8.925c-4.633,4.831-8.471,8.665-8.575,8.566
					c-0.104-0.1,3.566-4.095,8.199-8.926C363.618,86.078,367.457,82.243,367.561,82.343z"/>
			</g>
		</g>
	</g>
</g>
<g id="Exit_Signal">
	<g>
		<g>
			<g>
				<path style="fill:#FFFFFF;" d="M309.969,70.29h-84.441c-3.564,0-6.453-2.889-6.453-6.453V27.962
					c0-3.564,2.889-6.453,6.453-6.453h84.441c3.564,0,6.453,2.889,6.453,6.453v35.874C316.422,67.401,313.533,70.29,309.969,70.29z"
					/>
			</g>
			<g>
				<g>
					<path style="fill:#263238;" d="M309.969,70.29c-0.019-0.067,1.036,0.11,2.74-0.675c0.835-0.397,1.793-1.099,2.555-2.225
						c0.371-0.566,0.681-1.235,0.868-1.989c0.201-0.756,0.203-1.585,0.19-2.478c-0.02-7.131-0.048-17.419-0.083-30.129
						c-0.004-1.59-0.007-3.217-0.011-4.881c-0.001-1.617-0.681-3.26-1.898-4.427c-1.207-1.185-2.919-1.836-4.689-1.768
						c-1.804,0.002-3.642,0.005-5.512,0.007c-7.48,0.008-15.471,0.016-23.879,0.024c-16.82,0.006-35.309,0.013-54.716,0.021
						c-2.346-0.022-4.593,1.41-5.577,3.5c-0.532,1.043-0.655,2.179-0.623,3.37c0,1.19,0,2.376-0.001,3.558
						c-0.001,4.727-0.003,9.384-0.004,13.961c-0.002,4.576-0.004,9.072-0.006,13.474c-0.001,1.101-0.001,2.196-0.002,3.284
						c-0.003,0.548-0.007,1.089,0.038,1.601c0.073,0.514,0.167,1.03,0.365,1.51c0.714,1.954,2.468,3.437,4.447,3.869
						c0.977,0.239,2.029,0.128,3.07,0.156c1.038,0.001,2.069,0.002,3.094,0.003c2.049,0.002,4.07,0.004,6.062,0.006
						c3.984,0.005,7.852,0.009,11.592,0.013c7.478,0.011,14.445,0.022,20.806,0.032c12.71,0.035,22.997,0.063,30.127,0.083
						c3.545,0.021,6.301,0.038,8.191,0.049c0.925,0.011,1.634,0.02,2.13,0.026C309.723,70.272,309.969,70.29,309.969,70.29
						s-0.246,0.018-0.726,0.027c-0.496,0.006-1.205,0.015-2.13,0.026c-1.889,0.011-4.646,0.028-8.191,0.049
						c-7.13,0.02-17.417,0.048-30.127,0.083c-6.361,0.01-13.328,0.02-20.806,0.032c-3.74,0.004-7.608,0.009-11.592,0.013
						c-1.992,0.002-4.013,0.004-6.062,0.006c-1.024,0.001-2.056,0.002-3.094,0.003c-1.026-0.028-2.092,0.093-3.174-0.162
						c-2.135-0.462-4.025-2.056-4.8-4.164c-0.213-0.518-0.318-1.074-0.396-1.629c-0.05-0.567-0.045-1.113-0.043-1.654
						c-0.001-1.089-0.001-2.184-0.002-3.284c-0.002-4.403-0.004-8.898-0.006-13.474c-0.001-4.576-0.003-9.234-0.004-13.961
						c0-1.182,0-2.368-0.001-3.558c-0.037-1.177,0.098-2.49,0.674-3.597c1.065-2.265,3.504-3.819,6.045-3.794
						c19.407,0.007,37.896,0.014,54.716,0.021c8.408,0.008,16.399,0.017,23.879,0.024c1.87,0.003,3.707,0.005,5.512,0.007
						c1.843-0.069,3.699,0.634,4.969,1.898c1.291,1.245,2.008,2.997,2.003,4.712c-0.002,1.665-0.004,3.293-0.006,4.884
						c-0.035,12.71-0.063,22.998-0.083,30.129c0.006,0.882-0.005,1.749-0.219,2.522c-0.2,0.774-0.527,1.457-0.913,2.032
						c-0.794,1.145-1.782,1.846-2.638,2.234c-0.86,0.397-1.581,0.51-2.057,0.563C310.215,70.302,309.969,70.29,309.969,70.29z"/>
				</g>
			</g>
		</g>
		<g>
			<path style="fill:#FF725E;" d="M309.78,65.956h-84.064c-1.165,0-2.109-0.944-2.109-2.109V27.952c0-1.165,0.944-2.109,2.109-2.109
				h84.064c1.165,0,2.109,0.944,2.109,2.109v35.895C311.889,65.012,310.945,65.956,309.78,65.956z"/>
		</g>
		<g>
			<path style="fill:#FFFFFF;" d="M245.512,51.84v2.831h-11.546V39.428h11.268v2.831h-7.839v3.31h6.923v2.744h-6.923v3.527H245.512z
				"/>
			<path style="fill:#FFFFFF;" d="M257.501,54.67l-3.601-5.291l-3.535,5.291h-3.963l5.517-7.751l-5.24-7.491h3.92l3.428,4.943
				l3.366-4.943h3.728l-5.197,7.36l5.56,7.882H257.501z"/>
			<path style="fill:#FFFFFF;" d="M262.842,39.428h3.451V54.67h-3.451V39.428z"/>
			<path style="fill:#FFFFFF;" d="M272.916,42.303h-4.771v-2.875h12.994v2.875h-4.772V54.67h-3.451V42.303z"/>
		</g>
		<g>
			<polygon style="fill:#FFFFFF;" points="287.656,48.071 287.656,44.042 298.735,44.042 293.195,38.503 299.238,38.503 
				306.792,46.056 299.112,53.736 293.447,53.736 298.651,48.322 			"/>
		</g>
	</g>
</g>
<g id="Lines">
	<g>
		<g>
			<path style="fill:#263238;" d="M142.015,175.928c0,0.144-12.207,0.26-27.261,0.26c-15.059,0-27.263-0.117-27.263-0.26
				s12.204-0.26,27.263-0.26C129.808,175.667,142.015,175.784,142.015,175.928z"/>
		</g>
	</g>
	<g>
		<g>
			<path style="fill:#263238;" d="M114.753,179.744c0,0.144-8.789,0.261-19.628,0.261c-10.843,0-19.63-0.117-19.63-0.261
				c0-0.144,8.787-0.26,19.63-0.26C105.964,179.484,114.753,179.601,114.753,179.744z"/>
		</g>
	</g>
	<g>
		<g>
			<path style="fill:#263238;" d="M79.678,346.71c0,0.144-8.423,0.26-18.81,0.26c-10.391,0-18.812-0.117-18.812-0.26
				s8.421-0.26,18.812-0.26C71.256,346.449,79.678,346.566,79.678,346.71z"/>
		</g>
	</g>
	<g>
		<g>
			<path style="fill:#263238;" d="M80.769,340.167c0,0.144-5.737,0.26-12.813,0.26c-7.078,0-12.814-0.117-12.814-0.26
				c0-0.144,5.736-0.26,12.814-0.26C75.032,339.906,80.769,340.023,80.769,340.167z"/>
		</g>
	</g>
</g>
<g id="Fire_Extinguisher">
	<g>
		<g>
			<rect x="382.522" y="111.031" style="fill:#FF725E;" width="76.668" height="143.622"/>
			<path style="fill:#263238;" d="M459.215,254.678h-76.719V111.006h76.719V254.678z M382.547,254.627h76.617V111.055h-76.617
				V254.627z"/>
		</g>
		<g>
			<g>
				<rect x="391.167" y="121.632" style="fill:#EBEBEB;" width="58.572" height="123.379"/>
			</g>
			<g>
				<g>
					<path style="fill:#263238;" d="M449.739,245.011c0,0-0.01-0.211-0.015-0.611c-0.004-0.411-0.009-1-0.015-1.771
						c-0.007-1.567-0.017-3.863-0.031-6.839c-0.016-5.968-0.039-14.654-0.068-25.586c-0.029-21.848-0.07-52.658-0.118-88.573
						l0.246,0.246c-18.139,0.004-37.951,0.009-58.563,0.014h-0.009l0.26-0.26c-0.027,47.782-0.051,91.255-0.07,123.379l-0.191-0.191
						c18.049,0.043,32.667,0.078,42.789,0.103c5.062,0.021,8.996,0.037,11.68,0.048c1.331,0.009,2.35,0.016,3.05,0.021
						C449.375,244.998,449.739,245.011,449.739,245.011s-0.337,0.013-1.014,0.02c-0.693,0.005-1.699,0.012-3.016,0.021
						c-2.674,0.011-6.594,0.027-11.637,0.048c-10.149,0.024-24.807,0.059-42.905,0.102l-0.191,0l0-0.191
						c-0.018-32.124-0.043-75.597-0.069-123.379l0-0.26h0.261h0.009c20.612,0.005,40.424,0.01,58.563,0.014l0.247,0l0,0.246
						c-0.048,35.982-0.089,66.849-0.118,88.738c-0.029,10.908-0.052,19.575-0.068,25.53c-0.013,2.954-0.024,5.233-0.031,6.788
						c-0.007,0.759-0.011,1.338-0.015,1.742C449.749,244.82,449.739,245.011,449.739,245.011z"/>
				</g>
			</g>
		</g>
		<g>
			<g>
				<g>
					<polygon style="fill:#FF725E;" points="428.141,141.771 428.141,143.504 423.779,143.504 					"/>
				</g>
				<g>
					<rect x="424.721" y="145.15" style="fill:#E0E0E0;" width="3.42" height="4.687"/>
				</g>
				<g>
					<rect x="422.836" y="145.15" style="fill:#E0E0E0;" width="1.885" height="2.026"/>
				</g>
				<g>
					<rect x="428.141" y="146.48" style="fill:#E0E0E0;" width="1.884" height="2.027"/>
				</g>
				<g>
					<rect x="420.796" y="144.58" style="fill:#E0E0E0;" width="2.041" height="3.167"/>
				</g>
				<g>
					<rect x="419.958" y="145.15" style="fill:#263238;" width="0.837" height="2.026"/>
				</g>
				<g>
					<rect x="418.545" y="144.723" style="fill:#263238;" width="1.413" height="2.882"/>
				</g>
				<g>
					<path style="fill:#FF725E;" d="M439.413,143.504h-15.633v1.646h17.447C441.226,144.242,440.413,143.504,439.413,143.504z"/>
				</g>
				<g>
					<path style="fill:#FF725E;" d="M426.473,153.07c-6.834,0-12.375,5.028-12.375,11.231v70.453h24.75v-70.453
						C438.848,158.098,433.308,153.07,426.473,153.07z"/>
				</g>
				<g>
					<rect x="419.107" y="169.931" style="fill:#FFFFFF;" width="14.73" height="35.353"/>
				</g>
				<g style="opacity:0.3;">
					<path style="fill:#FFFFFF;" d="M426.473,158.179v-2.618c-5.318,0-9.63,3.914-9.63,8.74h2.884
						C419.727,160.919,422.747,158.179,426.473,158.179z"/>
				</g>
				<g>
					<g>
						<g>
							<polygon style="fill:#263238;" points="411.201,234.754 396.407,234.754 400.686,205.285 406.921,205.285 							"/>
						</g>
					</g>
					<g>
						<g>
							<rect x="401.92" y="202.413" style="fill:#263238;" width="3.767" height="2.871"/>
						</g>
					</g>
				</g>
				<g>
					<path style="fill:#FF725E;" d="M437.371,136.306l-14.319,5.69l0.728,1.508l15.982-6.35
						C439.358,136.32,438.289,135.94,437.371,136.306z"/>
				</g>
				<g>
					<rect x="423.953" y="149.837" style="fill:#FF725E;" width="5.039" height="3.49"/>
				</g>
				<g>
					<path style="fill:#263238;" d="M402.857,159.543v42.871h1.893v-42.871c0-6.904,6.189-12.52,13.795-12.52v-1.718
						C409.894,145.305,402.857,151.691,402.857,159.543z"/>
				</g>
			</g>
			<g>
				<g>
					<path style="fill:#263238;" d="M438.848,228.971c0,0.144-5.541,0.26-12.374,0.26c-6.836,0-12.376-0.117-12.376-0.26
						c0-0.144,5.54-0.26,12.376-0.26C433.307,228.711,438.848,228.827,438.848,228.971z"/>
				</g>
			</g>
			<g>
				<g>
					<path style="fill:#263238;" d="M438.848,224.371c0,0.144-5.541,0.26-12.374,0.26c-6.836,0-12.376-0.117-12.376-0.26
						s5.54-0.26,12.376-0.26C433.307,224.111,438.848,224.228,438.848,224.371z"/>
				</g>
			</g>
		</g>
		<g>
			<g>
				<path style="fill:#FFFFFF;" d="M443.993,146.515c0.103,0.1-9.69,10.383-21.871,22.964
					c-12.185,12.585-22.144,22.704-22.247,22.604c-0.103-0.1,9.688-10.38,21.873-22.966
					C433.929,156.535,443.89,146.415,443.993,146.515z"/>
			</g>
		</g>
		<g>
			<g>
				<path style="fill:#FFFFFF;" d="M433.686,149.571c0.099,0.104-5.466,5.528-12.427,12.113
					c-6.964,6.587-12.687,11.84-12.786,11.735c-0.099-0.104,5.464-5.527,12.428-12.114
					C427.863,154.721,433.587,149.467,433.686,149.571z"/>
			</g>
		</g>
		<g>
			<g>
				<path style="fill:#263238;" d="M454.748,249.373c0,0-0.389,0.015-1.169,0.026c-0.794,0.008-1.953,0.021-3.47,0.037
					c-3.072,0.025-7.579,0.062-13.375,0.11c-11.653,0.078-28.48,0.191-49.228,0.329l-0.195,0.001l0-0.195
					c-0.017-34.942-0.041-81.726-0.066-133.013v-0.164v-0.261l0.26,0c23.715,0.005,46.461,0.011,67.242,0.015h0.245l0,0.245
					c-0.048,38.832-0.089,72.073-0.118,95.62c-0.029,11.738-0.052,21.057-0.067,27.456c-0.013,3.177-0.023,5.627-0.03,7.296
					c-0.007,0.817-0.012,1.44-0.015,1.872C454.758,249.167,454.748,249.373,454.748,249.373s-0.01-0.226-0.015-0.654
					c-0.003-0.439-0.008-1.071-0.015-1.901c-0.007-1.68-0.017-4.147-0.031-7.346c-0.016-6.411-0.038-15.749-0.067-27.512
					c-0.029-23.507-0.07-56.69-0.118-95.456l0.245,0.245c-20.781,0.005-43.528,0.01-67.242,0.015l0.26-0.26v0.164
					c-0.026,51.287-0.049,98.071-0.066,133.013l-0.195-0.194c20.699-0.051,37.485-0.093,49.11-0.121
					c5.815-0.006,10.337-0.01,13.419-0.013c1.532,0.002,2.703,0.004,3.505,0.005C454.332,249.362,454.748,249.373,454.748,249.373z"
					/>
			</g>
		</g>
		<g>
			<rect x="385.977" y="139.835" style="fill:#263238;" width="3.138" height="13.234"/>
		</g>
		<g>
			<rect x="385.977" y="208.863" style="fill:#263238;" width="3.138" height="13.234"/>
		</g>
		<g>
			<g>
				<path style="fill:#263238;" d="M391.039,121.701c-0.117,0.084-1-0.944-1.973-2.295c-0.973-1.352-1.667-2.516-1.55-2.6
					s1,0.944,1.973,2.296C390.461,120.453,391.156,121.618,391.039,121.701z"/>
			</g>
		</g>
		<g>
			<g>
				<path style="fill:#263238;" d="M454.841,116.602c0.099,0.105-1.001,1.3-2.456,2.67c-1.456,1.37-2.715,2.396-2.814,2.291
					c-0.099-0.105,1.001-1.3,2.457-2.67C453.483,117.523,454.743,116.498,454.841,116.602z"/>
			</g>
		</g>
		<g>
			<g>
				<path style="fill:#263238;" d="M454.748,249.373c-0.094,0.109-1.298-0.784-2.688-1.993c-1.391-1.209-2.441-2.278-2.347-2.386
					c0.094-0.109,1.298,0.784,2.689,1.993C453.792,248.197,454.843,249.265,454.748,249.373z"/>
			</g>
		</g>
		<g>
			<g>
				<path style="fill:#263238;" d="M391.036,245.097c0.112,0.09-0.594,1.162-1.577,2.394c-0.984,1.233-1.872,2.159-1.984,2.069
					c-0.112-0.09,0.594-1.161,1.577-2.394C390.036,245.934,390.924,245.008,391.036,245.097z"/>
			</g>
		</g>
	</g>
</g>
<g id="Speech_Bubble">
	<g>
		<g>
			<g>
				<path style="fill:#FFFFFF;" d="M130.279,144.33l-9.182,1.107c-3.019,4.099-7.172,7.441-12.238,9.487
					c-14.57,5.885-31.153-1.155-37.038-15.725c-5.885-14.57,1.155-31.153,15.725-37.038c14.57-5.885,31.153,1.155,37.038,15.726
					c2.457,6.084,2.654,12.516,0.997,18.377l0.008-0.014L130.279,144.33z"/>
				<g>
					<path style="fill:#263238;" d="M130.279,144.33c0,0-0.082-0.166-0.273-0.509c-0.207-0.37-0.493-0.882-0.862-1.542
						c-0.795-1.407-1.949-3.447-3.445-6.092c-0.034-0.06-0.111-0.082-0.171-0.048c-0.02,0.011-0.036,0.029-0.047,0.047l-0.008,0.014
						l0.231,0.098c1.019-3.541,1.69-8.471,0.439-14.078c-0.597-2.795-1.745-5.702-3.438-8.515c-1.688-2.813-3.977-5.52-6.869-7.777
						c-2.884-2.259-6.364-4.063-10.226-5.101c-3.856-1.042-8.094-1.307-12.32-0.589c-4.226,0.708-8.396,2.475-12.045,5.132
						c-3.648,2.654-6.771,6.246-8.805,10.492c-1.101,2.091-1.763,4.352-2.327,6.59c-0.43,2.27-0.724,4.557-0.618,6.822
						c0.117,4.528,1.313,8.901,3.305,12.701c2.022,3.791,4.833,6.988,8.028,9.399c3.195,2.419,6.761,4.06,10.318,4.956
						c7.154,1.796,14.084,0.622,19.207-1.849c5.195-2.452,8.688-5.992,10.847-8.97l-0.086,0.05c2.982-0.394,5.282-0.697,6.868-0.906
						c0.743-0.102,1.317-0.18,1.734-0.237C130.098,144.365,130.279,144.33,130.279,144.33s-0.22,0.014-0.623,0.055
						c-0.427,0.045-1.015,0.106-1.776,0.186c-1.57,0.171-3.847,0.419-6.798,0.741c-0.035,0.004-0.067,0.024-0.086,0.05
						c-2.179,2.923-5.667,6.386-10.808,8.768c-5.073,2.402-11.897,3.514-18.92,1.722c-3.492-0.894-6.989-2.519-10.117-4.902
						c-3.128-2.375-5.877-5.516-7.853-9.237c-1.946-3.731-3.111-8.018-3.222-12.453c-0.103-2.219,0.188-4.459,0.609-6.683
						c0.555-2.192,1.202-4.408,2.282-6.456c4.003-8.374,12.168-13.928,20.42-15.329c4.141-0.711,8.298-0.462,12.085,0.55
						c3.794,1.007,7.218,2.767,10.061,4.975c2.851,2.207,5.115,4.858,6.791,7.618c1.681,2.76,2.833,5.618,3.44,8.371
						c1.273,5.52,0.659,10.399-0.304,13.923c-0.019,0.067,0.019,0.137,0.086,0.157c0.056,0.016,0.116-0.01,0.145-0.058l0.008-0.014
						l-0.218-0.001c1.535,2.578,2.719,4.566,3.535,5.936c0.398,0.662,0.706,1.175,0.929,1.546
						C130.156,144.144,130.279,144.33,130.279,144.33z"/>
				</g>
			</g>
		</g>
		<g>
			<path style="fill:#FF725E;" d="M102.785,115.876l-1.497,14.624c-0.122,1.196-1.117,2.113-2.319,2.138l0,0
				c-1.268,0.026-2.333-0.946-2.424-2.211L95.49,115.63c-0.08-1.12,0.84-2.057,1.962-1.998l3.574,0.189
				C102.092,113.877,102.894,114.814,102.785,115.876z"/>
			<path style="fill:#FF725E;" d="M94.763,140.732c0.55,1.9,2.535,2.994,4.435,2.444c1.9-0.55,2.994-2.535,2.444-4.435
				c-0.55-1.9-2.535-2.994-4.435-2.444C95.307,136.847,94.213,138.833,94.763,140.732z"/>
		</g>
	</g>
</g>
<g id="Character">
	<g>
		<g>
			<g>
				<g>
					<g>
						<g>
							<g>
								<g>
									<g>
										<g>
											<g>
												<g>
													<g>
														<g>
															<path style="fill:#263238;" d="M146.976,423.343l-16.379,24.914l38.92,22.745
																c1.945-3.851-13.828-23.082-13.828-23.082l8.645-13.645L146.976,423.343z"/>
														</g>
													</g>
												</g>
											</g>
										</g>
									</g>
								</g>
							</g>
						</g>
					</g>
				</g>
				<g>
					<g>
						<g>
							<g>
								<g>
									<g>
										<g>
											<g>
												<g>
													<g>
														<g>
															<g>
																<path style="fill:#E0E0E0;" d="M144.64,439.2c-0.874-0.234-1.889,0.309-2.159,1.172
																	c-0.27,0.863,0.273,1.9,1.143,2.15c0.869,0.249,2.108-0.365,2.279-1.253c0.172-0.888-0.533-2.071-1.436-2.105"/>
															</g>
														</g>
													</g>
												</g>
											</g>
										</g>
									</g>
								</g>
							</g>
						</g>
					</g>
				</g>
				<g>
					<g>
						<g>
							<g>
								<g>
									<g>
										<g>
											<g>
												<g>
													<g>
														<g>
															<path style="fill:#E0E0E0;" d="M130.597,448.257l1.884-3.305l36.591,23.299c0,0,1.281,1.775,0.364,2.875
																L130.597,448.257z"/>
														</g>
													</g>
												</g>
											</g>
										</g>
									</g>
								</g>
							</g>
						</g>
					</g>
				</g>
				<g>
					<g>
						<g>
							<g>
								<g>
									<g>
										<g>
											<g>
												<g>
													<g>
														<g>
															<g>
																<path style="fill:#E0E0E0;" d="M156.436,448.09c-0.117,0.186-1.118-0.283-2.41-0.218
																	c-1.294,0.031-2.257,0.573-2.388,0.395c-0.154-0.139,0.794-1.11,2.36-1.16
																	C155.563,447.042,156.579,447.94,156.436,448.09z"/>
															</g>
														</g>
													</g>
												</g>
											</g>
										</g>
									</g>
								</g>
							</g>
						</g>
					</g>
				</g>
				<g>
					<g>
						<g>
							<g>
								<g>
									<g>
										<g>
											<g>
												<g>
													<g>
														<g>
															<g>
																<path style="fill:#E0E0E0;" d="M159.532,452.164c-0.064,0.21-1.076,0.052-2.191,0.479
																	c-1.128,0.394-1.799,1.168-1.983,1.049c-0.196-0.075,0.323-1.265,1.719-1.769
																	C158.469,451.407,159.633,451.981,159.532,452.164z"/>
															</g>
														</g>
													</g>
												</g>
											</g>
										</g>
									</g>
								</g>
							</g>
						</g>
					</g>
				</g>
				<g>
					<g>
						<g>
							<g>
								<g>
									<g>
										<g>
											<g>
												<g>
													<g>
														<g>
															<g>
																<path style="fill:#E0E0E0;" d="M158.995,458.405c-0.196-0.06,0.094-1.164,1.19-1.92
																	c1.091-0.764,2.227-0.65,2.215-0.445c0.016,0.219-0.887,0.44-1.778,1.074
																	C159.717,457.727,159.195,458.496,158.995,458.405z"/>
															</g>
														</g>
													</g>
												</g>
											</g>
										</g>
									</g>
								</g>
							</g>
						</g>
					</g>
				</g>
				<g>
					<g>
						<g>
							<g>
								<g>
									<g>
										<g>
											<g>
												<g>
													<g>
														<g>
															<g>
																<path style="fill:#E0E0E0;" d="M158.774,443.303c-0.181,0.127-0.9-0.645-2.016-1.2
																	c-1.106-0.577-2.152-0.705-2.156-0.926c-0.03-0.202,1.197-0.428,2.504,0.243
																	C158.416,442.082,158.954,443.208,158.774,443.303z"/>
															</g>
														</g>
													</g>
												</g>
											</g>
										</g>
									</g>
								</g>
							</g>
						</g>
					</g>
				</g>
				<g>
					<g>
						<g>
							<g>
								<g>
									<g>
										<g>
											<g>
												<g>
													<g>
														<g>
															<g>
																<path style="fill:#E0E0E0;" d="M160.546,438.144c-0.044,0.08-0.863-0.242-1.943-1.149
																	c-0.537-0.452-1.126-1.059-1.673-1.818c-0.273-0.38-0.535-0.797-0.772-1.248c-0.112-0.22-0.257-0.461-0.32-0.802
																	c-0.095-0.321,0.08-0.895,0.504-1.062c0.374-0.183,0.802-0.106,1.087,0.052c0.292,0.158,0.491,0.352,0.672,0.528
																	c0.372,0.358,0.694,0.74,0.969,1.124c0.546,0.773,0.9,1.554,1.108,2.23c0.415,1.364,0.308,2.254,0.221,2.253
																	c-0.123,0.012-0.215-0.84-0.73-2.067c-0.258-0.611-0.636-1.308-1.166-1.996c-0.267-0.342-0.572-0.68-0.917-0.999
																	c-0.349-0.349-0.698-0.557-0.911-0.436c-0.079,0.048-0.1,0.072-0.085,0.243c0.024,0.163,0.127,0.37,0.237,0.588
																	c0.213,0.426,0.445,0.823,0.686,1.19c0.482,0.734,0.997,1.343,1.462,1.823
																	C159.906,437.561,160.609,438.043,160.546,438.144z"/>
															</g>
														</g>
													</g>
												</g>
											</g>
										</g>
									</g>
								</g>
							</g>
						</g>
					</g>
				</g>
				<g>
					<g>
						<g>
							<g>
								<g>
									<g>
										<g>
											<g>
												<g>
													<g>
														<g>
															<g>
																<path style="fill:#E0E0E0;" d="M160.139,438.271c-0.084-0.01-0.063-0.911,0.586-2.183
																	c0.324-0.629,0.82-1.332,1.513-1.979c0.348-0.321,0.745-0.626,1.188-0.893c0.453-0.251,1.032-0.604,1.818-0.258
																	c0.394,0.211,0.538,0.698,0.497,1.019c-0.025,0.339-0.132,0.579-0.218,0.832c-0.194,0.496-0.463,0.937-0.766,1.313
																	c-0.606,0.757-1.348,1.248-2.009,1.527c-1.35,0.564-2.276,0.328-2.254,0.254c-0.008-0.133,0.869-0.112,2.018-0.742
																	c0.566-0.31,1.189-0.791,1.687-1.471c0.249-0.338,0.466-0.724,0.622-1.147c0.181-0.449,0.221-0.874,0.041-0.922
																	c-0.192-0.116-0.702,0.003-1.055,0.24c-0.404,0.232-0.771,0.496-1.1,0.774c-0.655,0.561-1.155,1.172-1.514,1.725
																	C160.472,437.473,160.259,438.303,160.139,438.271z"/>
															</g>
														</g>
													</g>
												</g>
											</g>
										</g>
									</g>
								</g>
							</g>
						</g>
					</g>
				</g>
			</g>
		</g>
		<g>
			<g>
				<g>
					<g>
						<g>
							<g>
								<g>
									<g>
										<g>
											<g>
												<g>
													<g>
														<g>
															<path style="fill:#263238;" d="M46.46,428.289l-20.271,21.864l34.625,28.865c2.555-3.476-9.822-25.05-9.822-25.05
																l10.782-12.028L46.46,428.289z"/>
														</g>
													</g>
												</g>
											</g>
										</g>
									</g>
								</g>
							</g>
						</g>
					</g>
				</g>
				<g>
					<g>
						<g>
							<g>
								<g>
									<g>
										<g>
											<g>
												<g>
													<g>
														<g>
															<g>
																<path style="fill:#E0E0E0;" d="M41.535,443.542c-0.823-0.375-1.914-0.008-2.323,0.799
																	c-0.409,0.807-0.045,1.919,0.771,2.309c0.816,0.39,2.14-0.011,2.455-0.859c0.316-0.848-0.183-2.131-1.069-2.313"/>
															</g>
														</g>
													</g>
												</g>
											</g>
										</g>
									</g>
								</g>
							</g>
						</g>
					</g>
				</g>
				<g>
					<g>
						<g>
							<g>
								<g>
									<g>
										<g>
											<g>
												<g>
													<g>
														<g>
															<path style="fill:#E0E0E0;" d="M26.188,450.153l2.404-2.948l32.236,29.027c0,0,0.97,1.962-0.116,2.896
																L26.188,450.153z"/>
														</g>
													</g>
												</g>
											</g>
										</g>
									</g>
								</g>
							</g>
						</g>
					</g>
				</g>
				<g>
					<g>
						<g>
							<g>
								<g>
									<g>
										<g>
											<g>
												<g>
													<g>
														<g>
															<g>
																<path style="fill:#E0E0E0;" d="M51.7,454.259c-0.147,0.165-1.056-0.463-2.341-0.614
																	c-1.281-0.183-2.32,0.192-2.42-0.005c-0.128-0.163,0.966-0.963,2.519-0.754
																	C51.011,453.081,51.865,454.135,51.7,454.259z"/>
															</g>
														</g>
													</g>
												</g>
											</g>
										</g>
									</g>
								</g>
							</g>
						</g>
					</g>
				</g>
				<g>
					<g>
						<g>
							<g>
								<g>
									<g>
										<g>
											<g>
												<g>
													<g>
														<g>
															<g>
																<path style="fill:#E0E0E0;" d="M54.079,458.789c-0.098,0.196-1.07-0.127-2.24,0.11
																	c-1.177,0.202-1.967,0.854-2.129,0.707c-0.181-0.106,0.528-1.194,1.988-1.46
																	C53.156,457.866,54.21,458.625,54.079,458.789z"/>
															</g>
														</g>
													</g>
												</g>
											</g>
										</g>
									</g>
								</g>
							</g>
						</g>
					</g>
				</g>
				<g>
					<g>
						<g>
							<g>
								<g>
									<g>
										<g>
											<g>
												<g>
													<g>
														<g>
															<g>
																<path style="fill:#E0E0E0;" d="M52.518,464.855c-0.183-0.092,0.285-1.133,1.491-1.697
																	c1.203-0.573,2.304-0.273,2.258-0.073c-0.021,0.219-0.948,0.288-1.931,0.766
																	C53.343,464.306,52.7,464.979,52.518,464.855z"/>
															</g>
														</g>
													</g>
												</g>
											</g>
										</g>
									</g>
								</g>
							</g>
						</g>
					</g>
				</g>
				<g>
					<g>
						<g>
							<g>
								<g>
									<g>
										<g>
											<g>
												<g>
													<g>
														<g>
															<g>
																<path style="fill:#E0E0E0;" d="M54.796,449.925c-0.199,0.095-0.781-0.785-1.79-1.517
																	c-0.995-0.752-2.006-1.052-1.973-1.27c0.004-0.204,1.252-0.224,2.429,0.654
																	C54.645,448.661,54.99,449.861,54.796,449.925z"/>
															</g>
														</g>
													</g>
												</g>
											</g>
										</g>
									</g>
								</g>
							</g>
						</g>
					</g>
				</g>
				<g>
					<g>
						<g>
							<g>
								<g>
									<g>
										<g>
											<g>
												<g>
													<g>
														<g>
															<g>
																<path style="fill:#E0E0E0;" d="M57.396,445.129c-0.056,0.072-0.811-0.381-1.727-1.454
																	c-0.455-0.535-0.936-1.231-1.35-2.07c-0.206-0.42-0.396-0.874-0.555-1.359c-0.074-0.236-0.177-0.497-0.183-0.844
																	c-0.041-0.332,0.227-0.87,0.672-0.964c0.399-0.118,0.808,0.028,1.063,0.231c0.262,0.204,0.426,0.428,0.575,0.632
																	c0.308,0.415,0.563,0.844,0.77,1.269c0.411,0.853,0.631,1.681,0.724,2.383c0.184,1.414-0.069,2.274-0.154,2.258
																	c-0.123-0.008-0.073-0.863-0.378-2.159c-0.153-0.645-0.411-1.395-0.82-2.161c-0.207-0.381-0.452-0.766-0.74-1.137
																	c-0.286-0.402-0.596-0.665-0.826-0.58c-0.086,0.034-0.111,0.055-0.124,0.226c-0.003,0.165,0.064,0.386,0.137,0.619
																	c0.14,0.455,0.303,0.885,0.48,1.287c0.354,0.803,0.761,1.489,1.141,2.04
																	C56.862,444.449,57.476,445.04,57.396,445.129z"/>
															</g>
														</g>
													</g>
												</g>
											</g>
										</g>
									</g>
								</g>
							</g>
						</g>
					</g>
				</g>
				<g>
					<g>
						<g>
							<g>
								<g>
									<g>
										<g>
											<g>
												<g>
													<g>
														<g>
															<g>
																<path style="fill:#E0E0E0;" d="M56.974,445.188c-0.082-0.024,0.088-0.909,0.939-2.056
																	c0.424-0.567,1.029-1.178,1.819-1.701c0.396-0.259,0.838-0.494,1.319-0.685c0.488-0.173,1.118-0.425,1.836,0.047
																	c0.354,0.273,0.415,0.778,0.321,1.087c-0.081,0.33-0.226,0.55-0.352,0.784c-0.273,0.458-0.612,0.847-0.973,1.169
																	c-0.723,0.646-1.536,1.008-2.234,1.174c-1.425,0.333-2.299-0.053-2.265-0.122c0.014-0.132,0.876,0.033,2.112-0.398
																	c0.609-0.212,1.304-0.584,1.907-1.172c0.301-0.292,0.58-0.637,0.804-1.029c0.252-0.413,0.362-0.825,0.193-0.902
																	c-0.17-0.146-0.694-0.113-1.08,0.063c-0.436,0.162-0.843,0.362-1.213,0.582c-0.739,0.445-1.332,0.965-1.779,1.45
																	C57.435,444.455,57.088,445.239,56.974,445.188z"/>
															</g>
														</g>
													</g>
												</g>
											</g>
										</g>
									</g>
								</g>
							</g>
						</g>
					</g>
				</g>
			</g>
		</g>
		<g>
			<g>
				<g>
					<g>
						<g>
							<g>
								<g>
									<g>
										<g>
											<g>
												<g>
													<g>
														<g>
															<g>
																<g>
																	<g>
																		<g>
																			<path style="fill:#FFCBB3;" d="M172.277,165.491l-4.818,39.691c-0.959,6.761-2.345,16.776,8.414,17.805l0,0
																				c9.403,0.189,12.997-8.27,13.886-14.581c0.421-2.993,0.779-5.489,0.843-5.794c0,0,10.257,0.484,12.409-9.43
																				c1.04-4.791,2.379-14.834,3.485-23.933c1.188-9.773-5.341-18.816-14.986-20.785l-0.959-0.196
																				C180.087,146.76,173.494,154.988,172.277,165.491z"/>
																		</g>
																	</g>
																</g>
															</g>
														</g>
													</g>
												</g>
											</g>
										</g>
									</g>
								</g>
							</g>
						</g>
					</g>
				</g>
			</g>
			<g>
				<g>
					<g>
						<g>
							<g>
								<g>
									<g>
										<g>
											<g>
												<g>
													<g>
														<g>
															<g>
																<g>
																	<g>
																		<g>
																			<path style="fill:#EB996E;" d="M190.628,202.615c0,0-6.34-0.912-12.16-6.468c0,0,1.674,7.904,11.775,9.035
																				L190.628,202.615z"/>
																		</g>
																	</g>
																</g>
															</g>
														</g>
													</g>
												</g>
											</g>
										</g>
									</g>
								</g>
							</g>
						</g>
					</g>
				</g>
			</g>
			<g>
				<g>
					<g>
						<g>
							<g>
								<g>
									<g>
										<g>
											<g>
												<g>
													<g>
														<g>
															<g>
																<g>
																	<g>
																		<g>
																			<g>
																				<g>
																					<g>
																						<g>
																							<path style="fill:#263238;" d="M189.119,172.628c-0.229,0.03-1.126-0.86-2.697-1.491
																								c-1.563-0.643-2.921-0.671-3.042-0.844c-0.062-0.08,0.21-0.192,0.805-0.187
																								c0.587,0.002,1.519,0.151,2.496,0.548c0.976,0.398,1.707,0.925,2.086,1.316
																								C189.155,172.365,189.23,172.618,189.119,172.628z"/>
																						</g>
																					</g>
																				</g>
																			</g>
																		</g>
																	</g>
																</g>
															</g>
														</g>
													</g>
												</g>
											</g>
										</g>
									</g>
								</g>
							</g>
						</g>
					</g>
				</g>
				<g>
					<g>
						<g>
							<g>
								<g>
									<g>
										<g>
											<g>
												<g>
													<g>
														<g>
															<g>
																<g>
																	<g>
																		<g>
																			<g>
																				<g>
																					<g>
																						<path style="fill:#263238;" d="M186.231,174.408c-0.12,0.714-0.823,1.202-1.571,1.09
																							c-0.746-0.111-1.256-0.779-1.137-1.493c0.12-0.714,0.823-1.202,1.57-1.091
																							C185.841,173.024,186.351,173.693,186.231,174.408z"/>
																					</g>
																				</g>
																			</g>
																		</g>
																	</g>
																</g>
															</g>
														</g>
													</g>
												</g>
											</g>
										</g>
									</g>
								</g>
							</g>
						</g>
					</g>
				</g>
				<g>
					<g>
						<g>
							<g>
								<g>
									<g>
										<g>
											<g>
												<g>
													<g>
														<g>
															<g>
																<g>
																	<g>
																		<g>
																			<g>
																				<g>
																					<g>
																						<path style="fill:#263238;" d="M191.789,183.403c0.01-0.088,0.993-0.059,2.572,0.059
																							c0.398,0.039,0.783,0.037,0.903-0.215c0.15-0.263,0.072-0.717-0.024-1.209
																							c-0.174-1.019-0.356-2.087-0.547-3.206c-0.738-4.556-1.188-8.269-1.004-8.298
																							c0.184-0.028,0.931,3.642,1.669,8.197c0.173,1.121,0.339,2.191,0.495,3.213
																							c0.057,0.473,0.208,1.028-0.111,1.572c-0.164,0.27-0.494,0.423-0.757,0.439
																							c-0.266,0.025-0.486-0.015-0.681-0.043C192.738,183.68,191.777,183.492,191.789,183.403z"/>
																					</g>
																				</g>
																			</g>
																		</g>
																	</g>
																</g>
															</g>
														</g>
													</g>
												</g>
											</g>
										</g>
									</g>
								</g>
							</g>
						</g>
					</g>
				</g>
			</g>
			<g>
				<g>
					<g>
						<g>
							<g>
								<g>
									<g>
										<g>
											<g>
												<g>
													<g>
														<g>
															<g>
																<g>
																	<g>
																		<path style="fill:#263238;" d="M181.438,164.107c0.112-0.394,1.493-0.296,3.091-0.596
																			c1.604-0.266,2.872-0.834,3.107-0.501c0.105,0.16-0.098,0.537-0.6,0.943c-0.497,0.405-1.306,0.811-2.266,0.982
																			c-0.96,0.169-1.855,0.065-2.456-0.146C181.707,164.578,181.391,164.293,181.438,164.107z"/>
																	</g>
																</g>
															</g>
														</g>
													</g>
												</g>
											</g>
										</g>
									</g>
								</g>
							</g>
						</g>
					</g>
				</g>
			</g>
			<g>
				<g>
					<g>
						<g>
							<g>
								<g>
									<g>
										<g>
											<g>
												<g>
													<g>
														<g>
															<g>
																<g>
																	<g>
																		<path style="fill:#263238;" d="M198.836,168.081c0.22-0.278,1.479,0.248,3.057,0.527
																			c1.574,0.307,2.923,0.266,3.044,0.607c0.051,0.162-0.249,0.395-0.837,0.556c-0.582,0.161-1.455,0.223-2.4,0.048
																			c-0.945-0.176-1.748-0.549-2.248-0.911C198.949,168.544,198.737,168.215,198.836,168.081z"/>
																	</g>
																</g>
															</g>
														</g>
													</g>
												</g>
											</g>
										</g>
									</g>
								</g>
							</g>
						</g>
					</g>
				</g>
			</g>
			<g>
				<g>
					<g>
						<g>
							<g>
								<g>
									<g>
										<g>
											<g>
												<g>
													<g>
														<g>
															<path style="fill:#FFCBB3;" d="M171.57,173.157c-0.165-0.109-6.827-3.407-7.868,3.802
																c-1.041,7.209,6.411,6.767,6.454,6.562C170.199,183.316,171.57,173.157,171.57,173.157z"/>
														</g>
													</g>
												</g>
											</g>
										</g>
									</g>
								</g>
							</g>
						</g>
					</g>
				</g>
			</g>
			<g>
				<g>
					<g>
						<g>
							<g>
								<g>
									<g>
										<g>
											<g>
												<g>
													<g>
														<g>
															<g>
																<path style="fill:#EB996E;" d="M168.349,180.472c-0.029-0.028-0.138,0.07-0.365,0.137
																	c-0.221,0.065-0.586,0.079-0.942-0.116c-0.721-0.389-1.188-1.691-1.035-2.995c0.076-0.658,0.304-1.264,0.611-1.747
																	c0.296-0.496,0.69-0.815,1.084-0.827c0.394-0.033,0.633,0.235,0.691,0.451c0.068,0.215,0.001,0.353,0.037,0.371
																	c0.018,0.021,0.172-0.098,0.157-0.405c-0.009-0.147-0.069-0.33-0.218-0.493c-0.153-0.165-0.397-0.274-0.668-0.284
																	c-0.562-0.042-1.136,0.397-1.473,0.928c-0.368,0.529-0.64,1.207-0.726,1.946c-0.163,1.459,0.384,2.926,1.383,3.378
																	c0.488,0.206,0.933,0.114,1.176-0.025C168.311,180.644,168.372,180.489,168.349,180.472z"/>
															</g>
														</g>
													</g>
												</g>
											</g>
										</g>
									</g>
								</g>
							</g>
						</g>
					</g>
				</g>
			</g>
			<g>
				<g>
					<g>
						<g>
							<g>
								<g>
									<g>
										<path style="fill:#263238;" d="M204.075,173.347c-0.182,0.139-1.404-0.132-3.075,0.143c-1.67,0.262-2.85,0.92-3.042,0.841
											c-0.094-0.034,0.082-0.26,0.595-0.555c0.505-0.292,1.381-0.639,2.422-0.807c1.041-0.167,1.937-0.106,2.461,0.021
											C203.971,173.117,204.165,173.283,204.075,173.347z"/>
									</g>
								</g>
							</g>
						</g>
					</g>
				</g>
			</g>
			<g>
				<g>
					<g>
						<g>
							<g>
								<g>
									<path style="fill:#263238;" d="M200.659,176.668c-0.12,0.714-0.823,1.202-1.571,1.09c-0.746-0.111-1.256-0.779-1.137-1.493
										c0.12-0.714,0.823-1.202,1.57-1.091C200.269,175.285,200.779,175.954,200.659,176.668z"/>
								</g>
							</g>
						</g>
					</g>
				</g>
			</g>
			<g>
				<path style="fill:#263238;" d="M221.238,162.004c-0.057-0.418-0.307-0.788-0.64-1.047c-0.725-0.565-1.637-0.62-2.509-0.747
					c-2.17-0.316-4.255-1.151-6.066-2.385c0.72-0.255,1.405-0.59,2.011-1.056c1.25-0.962,2.105-2.571,1.79-4.117
					c-0.059-0.29-0.183-0.602-0.453-0.724c-0.427-0.194-0.873,0.192-1.229,0.499c-1.168,1.008-2.174,1.376-3.676,1.025
					c-0.933-0.218-1.822-0.548-2.505-1.107c-0.026-0.035-0.048-0.072-0.074-0.107c-0.309-0.414-0.611-0.81-0.91-1.194
					c-0.001-0.001-0.001-0.002-0.002-0.004l0.001,0.002c-2.247-2.89-4.235-4.948-6.399-6.162c-3.171-1.779-8.696-3.048-12.302-2.584
					c-3.607,0.465-7.105,2.889-8.052,6.4c-1.742-1.907-4.681-2.272-7.187-1.622l-0.056-0.034c-2.775,0.603-4.645,3.211-5.778,5.816
					c-0.062,0.142-0.119,0.288-0.178,0.431c-1.081,1.306-2.458,2.367-4.021,3.026c-0.276,0.116-0.593,0.261-0.663,0.552
					c-0.069,0.288,0.147,0.563,0.364,0.765c0.577,0.538,1.28,0.933,2.032,1.17c-0.326,0.612-0.691,1.2-1.12,1.751
					c-0.365,0.468-0.8,1.03-0.606,1.591c0.15,0.434,0.646,0.669,1.106,0.662c0.459-0.008,0.891-0.206,1.307-0.399
					c-0.388,0.67-0.775,1.341-1.163,2.011c0.939,0.291,1.942,0.343,2.911,0.18c0.237,2.604,0.535,5.58,0.965,7.379
					c1.11,0.14,2.115,0.351,2.719,1.054c0.821,0.956,1.034,2.582,2.655,2.184c0.825-0.202,1.756-1.758,2.122-2.525
					c2.432-5.088,3.747-10.705,3.835-16.343c1.25-1.03,2.701-1.816,4.246-2.301l-0.132,0.092c2.927-0.611,6.22-1.159,8.709,0.5
					c1.93,1.287,2.866,3.583,4.187,5.49c2.503,3.613,5.827,5.811,10.159,6.562c0.002,3.076-0.818,6.871-1.035,9.713l3.198-4.215
					l-0.001,0.023c0.237-0.306,0.441-0.619,0.64-0.933l0.066-0.094l0.002-0.013c0.316-0.505,0.621-1.012,1.001-1.503
					c0.008,0.01,0.016,0.018,0.024,0.028c1.355,1.547,3.876-0.225,2.882-2.025c-0.197-0.357-0.446-0.685-0.742-0.967
					c0.614,0.747,1.616,1.196,2.569,1.033c0.953-0.163,1.784-0.999,1.828-1.965c0.03-0.659-0.361-1.303-0.917-1.637
					c1.223,0.255,2.521,0.149,3.678-0.326C220.584,163.497,221.363,162.923,221.238,162.004z"/>
			</g>
			<g>
				<path style="fill:#455A64;" d="M183.23,150.258c0.016,0.028-0.454,0.211-1.125,0.79c-0.665,0.577-1.462,1.627-1.97,3.131
					c-0.257,0.747-0.467,1.592-0.586,2.516c-0.123,0.923-0.177,1.921-0.241,2.973c-0.067,1.051-0.135,2.162-0.35,3.298
					c-0.107,0.568-0.251,1.14-0.45,1.706c-0.2,0.555-0.43,1.156-0.925,1.591c-0.395,0.356-0.993,0.459-1.477,0.293
					c-0.49-0.153-0.901-0.478-1.18-0.884c-0.548-0.836-0.586-1.812-0.637-2.675l0.207,0.053c-0.442,0.712-0.891,1.414-1.492,1.943
					c-0.592,0.534-1.356,0.839-2.088,0.81c-0.365-0.014-0.721-0.119-1.01-0.315c-0.296-0.195-0.492-0.486-0.613-0.783
					c-0.114-0.301-0.152-0.62-0.098-0.917c0.055-0.295,0.208-0.563,0.423-0.738l0.094,0.109c-0.887,0.781-1.765,1.149-2.363,1.338
					c-0.302,0.094-0.54,0.143-0.701,0.173c-0.162,0.026-0.246,0.035-0.247,0.028c-0.001-0.007,0.081-0.029,0.239-0.067
					c0.157-0.042,0.39-0.103,0.685-0.208c0.584-0.21,1.437-0.593,2.291-1.371l0.094,0.109c-0.383,0.314-0.484,0.939-0.259,1.481
					c0.114,0.268,0.295,0.528,0.556,0.695c0.259,0.171,0.584,0.264,0.918,0.274c0.673,0.02,1.386-0.267,1.941-0.776
					c0.567-0.506,1.003-1.19,1.441-1.904l0.186-0.303l0.021,0.356c0.052,0.861,0.105,1.801,0.605,2.555
					c0.25,0.364,0.628,0.658,1.057,0.791c0.428,0.142,0.911,0.057,1.255-0.247c0.432-0.376,0.662-0.944,0.857-1.49
					c0.195-0.551,0.337-1.112,0.444-1.67c0.215-1.117,0.287-2.22,0.36-3.269c0.07-1.05,0.131-2.052,0.264-2.986
					c0.129-0.934,0.351-1.789,0.622-2.545c0.535-1.52,1.372-2.58,2.067-3.144C182.746,150.41,183.23,150.258,183.23,150.258z"/>
			</g>
			<g>
				<path style="fill:#455A64;" d="M212.992,164.025c0.002,0.003-0.028,0.023-0.089,0.058c-0.074,0.041-0.164,0.09-0.274,0.15
					c-0.12,0.068-0.272,0.146-0.46,0.217c-0.186,0.077-0.399,0.172-0.652,0.242c-0.989,0.322-2.539,0.569-4.392,0.217
					c-1.836-0.343-3.972-1.285-5.764-3.017c-1.817-1.7-3.301-4.049-4.425-6.665c-0.572-1.309-1.006-2.63-1.513-3.865
					c-0.502-1.234-1.084-2.391-1.846-3.343c-0.752-0.955-1.67-1.708-2.663-2.127c-0.494-0.219-1.006-0.32-1.501-0.372
					c-0.498-0.038-0.979,0.002-1.43,0.088c-0.902,0.178-1.661,0.566-2.254,0.988c-0.595,0.427-1.019,0.905-1.321,1.322
					c-0.575,0.863-0.677,1.451-0.712,1.437c-0.004-0.001,0.003-0.036,0.022-0.104c0.024-0.081,0.052-0.18,0.087-0.301
					c0.084-0.262,0.25-0.637,0.527-1.083c0.296-0.433,0.718-0.93,1.319-1.377c0.599-0.443,1.371-0.851,2.298-1.046
					c0.463-0.094,0.96-0.14,1.477-0.106c0.513,0.048,1.052,0.151,1.563,0.374c1.032,0.427,1.984,1.199,2.757,2.172
					c0.785,0.971,1.381,2.148,1.89,3.391c0.514,1.243,0.948,2.562,1.516,3.859c1.115,2.596,2.577,4.919,4.358,6.6
					c1.757,1.714,3.84,2.651,5.646,3.012c1.82,0.367,3.348,0.15,4.333-0.141C212.483,164.308,212.978,163.994,212.992,164.025z"/>
			</g>
			<g>
				<path style="fill:#455A64;" d="M214.474,159.736c0.006,0.015-0.133,0.087-0.392,0.204c-0.257,0.122-0.645,0.263-1.135,0.403
					c-0.489,0.144-1.087,0.26-1.758,0.336c-0.672,0.063-1.416,0.078-2.193,0.007c-0.776-0.079-1.504-0.237-2.151-0.428
					c-0.644-0.203-1.209-0.431-1.661-0.667c-0.453-0.232-0.808-0.445-1.036-0.613c-0.232-0.165-0.355-0.262-0.346-0.275
					c0.025-0.037,0.542,0.319,1.454,0.738c0.454,0.213,1.015,0.421,1.65,0.609c0.638,0.176,1.353,0.324,2.113,0.402
					c0.761,0.069,1.49,0.061,2.15,0.011c0.659-0.062,1.249-0.159,1.736-0.281C213.881,159.946,214.457,159.695,214.474,159.736z"/>
			</g>
		</g>
		<g>
			<path style="fill:#263238;" d="M202.429,357.07c-2.049-3.024-4.803-6.781-8.436-11.198c-6.221-7.564-15.126-17.037-18.917-21.019
				c-4.15-5.127-15.391-21.039-19.219-25.417c-4.868-5.566-12.821-10.839-12.821-10.839l-47.635,5.275l-3,2.787
				c0.641,3.845,2.644,16.021,6.908,21.529c5.21,6.73,18.886,19.111,25.618,21.059c4.056,1.174,8.549,2.912,12.595,4.633
				c7.545,5.218,32.676,22.708,34.643,25.536c0.422,0.606-0.005,1.018-0.005,1.018s-9.96,10.354-14.902,20.714
				c-5.798,12.154-19.25,39.812-19.25,39.812l23.89,12.209c0,0,30.493-49.253,34.532-55.415c1.59-2.426,4.66-8.451,7.186-13.564
				C206.338,368.685,205.873,362.153,202.429,357.07z"/>
		</g>
		<g>
			<path style="fill:#263238;" d="M142.695,309.981l-35.122-12.122c0,0,0.84,14.709,2.943,18.428l-22.187,48.983
				c0,0-21.836,29.675-28.078,37.773c-8.093,10.498-21.353,32.334-21.353,32.334l19.416,14.14l48.126-57.318
				c0,0,5.32-2.324,7.256-5.422l36.487-45.282L142.695,309.981z"/>
		</g>
		<g>
			<g>
				<path style="fill:#FFCBB3;" d="M249.007,228.075l-0.796-6.789l3.842-4.707c0,0,4.133-2.338,4.655-3.027
					c0,0,0.733,0.577,0.453,1.79c0,0,1.328-1.696,2.213-1.6c0.885,0.096,1.48,1.616,1.706,2.678c0,0,0.875,0.361,1.77,1.167
					c0.895,0.806,1.083,1.821,1.083,1.821l-0.247,1.366c0,0,1.113-0.178,1.651,0.826c0.538,1.003,0.324,2.522,0.324,2.522
					s1.058-0.582,1.563,0.269c0.505,0.851,0.648,1.363,0.421,2.085c-0.227,0.721-3.625,6.428-4.793,7.318
					c-1.169,0.89-10.889,8.509-10.889,8.509l-8.431-8.845L249.007,228.075z"/>
			</g>
			<g>
				<path style="fill:#EB996E;" d="M266.397,226.802c0.04,0.033-0.453,0.724-1.462,1.648c-0.505,0.46-1.141,0.971-1.899,1.466
					c-0.369,0.238-0.834,0.54-1.418,0.508c-0.556-0.026-1.123-0.371-1.375-0.919c-0.266-0.535-0.184-1.193,0.115-1.643
					c0.29-0.458,0.684-0.764,1.042-1.038c0.72-0.542,1.398-0.988,1.982-1.337c1.17-0.697,1.949-1.02,1.974-0.971
					c0.03,0.057-0.695,0.476-1.809,1.23c-0.556,0.378-1.207,0.844-1.903,1.395c-0.343,0.273-0.696,0.569-0.923,0.943
					c-0.232,0.366-0.28,0.83-0.085,1.235c0.183,0.4,0.595,0.654,1.009,0.68c0.41,0.033,0.805-0.189,1.176-0.421
					c0.751-0.465,1.393-0.94,1.914-1.361C265.775,227.37,266.347,226.757,266.397,226.802z"/>
			</g>
			<g>
				<path style="fill:#EB996E;" d="M261.343,216.529c0.043,0.052-0.664,0.646-1.694,1.709c-0.513,0.533-1.105,1.186-1.71,1.952
					c-0.305,0.384-0.605,0.79-0.919,1.23c-0.312,0.43-0.741,0.94-1.404,1.082c-0.323,0.073-0.694,0.011-0.97-0.18
					c-0.279-0.188-0.456-0.465-0.564-0.745c-0.225-0.576-0.094-1.195,0.118-1.656c0.214-0.476,0.495-0.863,0.736-1.225
					c0.24-0.352,0.468-0.688,0.686-1.007c0.844-1.228,1.391-1.971,1.442-1.938c0.05,0.033-0.406,0.835-1.184,2.105
					c-0.365,0.64-0.918,1.379-1.311,2.223c-0.181,0.428-0.266,0.906-0.088,1.346c0.162,0.443,0.577,0.767,1.048,0.65
					c0.479-0.098,0.843-0.491,1.15-0.91c0.314-0.428,0.634-0.849,0.95-1.229c0.634-0.765,1.259-1.406,1.806-1.918
					C260.533,216.997,261.311,216.487,261.343,216.529z"/>
			</g>
			<g>
				<path style="fill:#EB996E;" d="M263.325,220.437c0.037,0.052-0.495,0.489-1.26,1.298c-0.777,0.778-1.773,2.035-3.247,2.962
					c-0.364,0.246-0.665,0.508-1.074,0.707c-0.202,0.096-0.459,0.16-0.71,0.102c-0.244-0.066-0.406-0.171-0.576-0.282
					c-0.161-0.116-0.324-0.233-0.444-0.427c-0.099-0.165-0.179-0.334-0.23-0.504c-0.11-0.34-0.131-0.673-0.106-0.968
					c0.05-0.596,0.287-1.033,0.487-1.285c0.205-0.255,0.366-0.344,0.381-0.326c0.07,0.041-0.531,0.541-0.562,1.626
					c-0.004,0.263,0.033,0.552,0.14,0.836c0.05,0.143,0.123,0.281,0.21,0.413c0.065,0.106,0.203,0.208,0.344,0.301
					c0.139,0.089,0.311,0.179,0.443,0.21c0.132,0.027,0.281-0.005,0.44-0.082c0.317-0.157,0.658-0.441,1-0.674
					c1.439-0.902,2.433-2.086,3.286-2.829C262.683,220.75,263.295,220.39,263.325,220.437z"/>
			</g>
			<g>
				<path style="fill:#EB996E;" d="M265.588,223.891c0.034,0.049-0.747,0.654-2.038,1.593c-0.685,0.489-1.45,1.037-2.28,1.63
					c-0.434,0.288-0.86,0.668-1.471,0.873c-0.306,0.096-0.648,0.126-0.987,0.028c-0.34-0.092-0.655-0.367-0.786-0.704
					c-0.286-0.681-0.017-1.401,0.328-1.878c0.354-0.493,0.73-0.886,1.082-1.287c0.712-0.786,1.403-1.455,2.026-1.966
					c0.62-0.515,1.169-0.872,1.56-1.095c0.391-0.223,0.626-0.311,0.638-0.288c0.037,0.063-0.828,0.547-1.996,1.615
					c-0.585,0.531-1.241,1.208-1.928,2c-0.336,0.397-0.719,0.816-1.029,1.26c-0.309,0.437-0.482,0.99-0.28,1.469
					c0.178,0.476,0.767,0.598,1.246,0.44c0.49-0.152,0.928-0.51,1.371-0.796c0.849-0.565,1.632-1.086,2.333-1.553
					C264.711,224.357,265.554,223.841,265.588,223.891z"/>
			</g>
			<g>
				<path style="fill:#EB996E;" d="M257.252,215.232c0.149,0.06-0.672,1.842-2.258,3.609c-0.201,0.22-0.398,0.432-0.61,0.624
					c-0.095,0.096-0.23,0.193-0.309,0.269c-0.033,0.033-0.069,0.064-0.106,0.093c-0.015,0.022-0.028,0.054-0.035,0.098
					c-0.001,0.437-0.015,0.972-0.095,1.339c-0.148,0.777-0.395,1.204-0.443,1.184c-0.063-0.022,0.075-0.478,0.139-1.225
					c0.04-0.392,0.018-0.774,0.003-1.349c0.009-0.082,0.032-0.176,0.086-0.264l0.173-0.184c0.111-0.109,0.198-0.171,0.296-0.272
					c0.194-0.183,0.384-0.391,0.578-0.603c0.766-0.864,1.404-1.704,1.849-2.319C256.966,215.617,257.194,215.209,257.252,215.232z"
					/>
			</g>
			<g>
				<path style="fill:#EB996E;" d="M256.025,225.498c-0.062,0.016-0.179-0.28-0.496-0.669c-0.315-0.382-0.821-0.91-1.382-1.436
					c-0.567-0.524-1.17-0.856-1.649-0.99c-0.475-0.143-0.799-0.124-0.807-0.19c-0.013-0.05,0.319-0.188,0.872-0.11
					c0.549,0.065,1.271,0.406,1.875,0.968c0.599,0.563,1.06,1.115,1.345,1.586C256.063,225.131,256.08,225.489,256.025,225.498z"/>
			</g>
		</g>
		<g>
			<g>
				<path style="fill:#FFCBB3;" d="M66.951,249.442c0,0,0.654,5.51,0.373,7.124c-0.28,1.614-2.018,6.606-1.768,8.849
					c0,0-1.581,1.004-2.144-0.91c-0.563-1.914-0.607-4.839-0.302-6.179c0.305-1.34-0.726-1.442-1.48-0.781
					c-0.754,0.662-5.054,5.976-5.054,5.976s-3.977,6.749-4.983,6.921c-1.006,0.171-1.359-1.041-1.563-1.485
					c-0.204-0.445,2.983-6.566,2.983-6.566l2.049-2.815c0,0-6.985,8.402-8.075,8.494c-1.09,0.092-1.367-0.672-1.383-1.315
					c-0.016-0.642,3.104-4.32,3.104-4.32l3.852-5.238l-8.673,8.596c0,0-0.923,0.708-1.582,0.082
					c-0.658-0.626-0.115-1.989-0.115-1.989l8.174-9.654c0,0-9.2,1.909-9.631,1.5c-0.431-0.409-0.898-1.104-0.391-1.374
					c0.507-0.27,10.175-4.242,10.175-4.242l8.387-6.317l2.207-1.662l7.026,5.927L66.951,249.442z"/>
			</g>
		</g>
		<g>
			<path style="fill:#455A64;" d="M56.884,241.24l22.407-32.243c2.75-3.789,7.065-6.132,11.74-6.375l41.211-2.148
				c0,0,5.923-7.116,9.443-6.381c3.52,0.735,8.979,4.302,7.473,10.85c-1.506,6.548-10.449,19.826-20.76,21.069l-34.606-0.101
				L69.88,250.649L56.884,241.24z"/>
		</g>
		<g>
			<path style="fill:#E0E0E0;" d="M135.617,293.073l20.24,6.364c2.617-2.764,9.516-18.337,9.516-18.337L135.617,293.073z"/>
		</g>
		<g>
			<path style="fill:#455A64;" d="M164.844,197.578l-23.03-2.409l-12.334,28.148l-10.07,41.77c0,0-33.59,20.252-40.14,28.952
				c-3.291,4.371,6.8,15.649,6.8,15.649s10.452,15.167,20.476,13.297c10.024-1.869,32.792-18.681,44.107-26.845
				c3.335-2.406,9.241-6.757,12.881-12.105c5.714-8.396,8.326-18.513,8.326-18.513L164.844,197.578z"/>
		</g>
		<g>
			<path style="fill:#455A64;" d="M189.672,208.735l10.648,12.058c0.51,0.865-7.872,30.736-11.816,38.164
				c-1.536,2.893-12.512,15.381-18.3,25.964v33.279l-14.345-18.762l2.193-3.21l13.809-30.704l18.718-21.894l-0.574-19.942
				L189.672,208.735z"/>
		</g>
		<g>
			<path style="fill:#455A64;" d="M227.836,241.449l-25.509-15.703l-2.008-4.953l-12.555,36.384c0,0,36.417,9.004,43.613,5.783
				c7.196-3.221,28.345-22.337,28.345-22.337l-13.018-12.181L227.836,241.449z"/>
		</g>
		<g>
			<path style="fill:#E0E0E0;" d="M164.844,197.578l2.323-3.158c0,0,6.448,5.506,10.78,11.11c2.883,3.73,6.673,10.586,6.673,10.586
				l5.269-7.004l0.69,34.517l-18.718,21.894l-6.789-65.743L164.844,197.578z"/>
		</g>
		<g>
			<g>
				<path style="fill:#263238;" d="M166.956,262.133c-0.018,0.004-0.09-0.221-0.213-0.652c-0.134-0.483-0.307-1.109-0.523-1.888
					c-0.45-1.64-1.155-3.999-2.065-6.901c-0.937-2.915-2.044-6.361-3.27-10.178c-1.224-3.834-2.57-8.055-3.714-12.569
					c-0.55-2.262-1.098-4.47-1.333-6.681c-0.249-2.209,0.036-4.387,0.587-6.339c1.155-3.918,3.086-7.043,4.374-9.782
					c1.364-2.714,2.128-5.057,2.437-6.72c0.07-0.409,0.133-0.779,0.19-1.109c0.025-0.311,0.047-0.584,0.066-0.822
					c0.039-0.445,0.068-0.68,0.087-0.68c0.018,0,0.024,0.235,0.018,0.685c-0.005,0.242-0.01,0.518-0.017,0.833
					c-0.043,0.336-0.091,0.712-0.144,1.128c-0.249,1.693-0.974,4.095-2.304,6.844c-1.256,2.774-3.143,5.917-4.244,9.753
					c-0.525,1.915-0.79,4.005-0.542,6.158c0.234,2.15,0.783,4.358,1.33,6.606c1.138,4.491,2.468,8.711,3.666,12.55
					c1.206,3.838,2.299,7.295,3.165,10.216c0.866,2.92,1.518,5.299,1.909,6.958c0.209,0.826,0.336,1.476,0.429,1.915
					C166.935,261.896,166.973,262.129,166.956,262.133z"/>
			</g>
		</g>
		<g>
			<g>
				<path style="fill:#455A64;" d="M127.817,256.465c-0.035-0.009,0.03-0.41,0.177-1.125c0.171-0.824,0.38-1.836,0.627-3.028
					c0.524-2.556,1.187-6.099,1.742-10.039c0.552-3.942,0.889-7.531,1.09-10.133c0.092-1.214,0.169-2.244,0.233-3.083
					c0.057-0.728,0.105-1.131,0.141-1.13c0.036,0.001,0.056,0.406,0.062,1.138c0.008,0.732-0.013,1.791-0.068,3.098
					c-0.108,2.615-0.388,6.225-0.942,10.183c-0.557,3.957-1.28,7.504-1.898,10.047c-0.308,1.272-0.579,2.295-0.789,2.997
					C127.983,256.091,127.852,256.474,127.817,256.465z"/>
			</g>
		</g>
		<g>
			<g>
				<path style="fill:#455A64;" d="M135.754,249.547c-0.132,0.076-1.352-1.889-3.08-4.141c-1.72-2.26-3.3-3.947-3.193-4.055
					c0.092-0.1,1.86,1.444,3.607,3.738C134.842,247.377,135.873,249.484,135.754,249.547z"/>
			</g>
		</g>
		<g>
			<g>
				<path style="fill:#455A64;" d="M139.338,241.24c0,0.129-2.382,0.045-5.081-1.027c-2.706-1.055-4.506-2.617-4.418-2.711
					c0.092-0.13,1.981,1.205,4.609,2.227C137.067,240.772,139.359,241.083,139.338,241.24z"/>
			</g>
		</g>
		<g>
			<g>
				<path style="fill:#455A64;" d="M168.715,269.171c0.009,0.016-0.13,0.111-0.404,0.277c-0.277,0.16-0.675,0.419-1.219,0.693
					c-1.072,0.578-2.675,1.328-4.737,2.046c-4.092,1.447-10.217,2.574-16.847,1.526c-6.633-1.025-12.139-3.897-15.657-6.438
					c-1.776-1.269-3.108-2.432-3.986-3.275c-0.446-0.414-0.764-0.766-0.987-0.996c-0.219-0.234-0.328-0.362-0.315-0.375
					c0.029-0.03,0.526,0.424,1.438,1.221c0.915,0.793,2.274,1.905,4.06,3.123c3.541,2.44,8.994,5.216,15.526,6.225
					c6.529,1.032,12.569-0.017,16.651-1.361c2.056-0.667,3.669-1.358,4.763-1.878C168.096,269.441,168.694,269.133,168.715,269.171z
					"/>
			</g>
		</g>
		<g>
			<g>
				<path style="fill:#263238;" d="M164.647,276.375c0.022,0.028-0.235,0.262-0.72,0.663c-0.481,0.406-1.213,0.948-2.143,1.58
					c-1.861,1.262-4.585,2.809-7.807,4.025c-3.223,1.216-6.294,1.852-8.528,2.11c-1.117,0.133-2.027,0.197-2.656,0.202
					c-0.629,0.011-0.976,0-0.978-0.036c-0.005-0.088,1.38-0.177,3.582-0.531c2.201-0.349,5.215-1.034,8.396-2.233
					c3.18-1.2,5.896-2.675,7.792-3.848C163.481,277.135,164.594,276.306,164.647,276.375z"/>
			</g>
		</g>
		<g>
			<g>
				<path style="fill:#455A64;" d="M169.67,286.928c-0.154-0.004-0.163-2.25-0.578-4.971c-0.399-2.724-1.053-4.873-0.907-4.922
					c0.124-0.05,1.013,2.064,1.422,4.845C170.029,284.658,169.802,286.939,169.67,286.928z"/>
			</g>
		</g>
		<g>
			<g>
				<path style="fill:#263238;" d="M136.091,223.92c-0.06-0.088,1.545-0.98,3.634-3.012c2.083-2.005,4.568-5.31,5.88-9.554
					c1.31-4.246,1.12-8.378,0.529-11.208c-0.58-2.856-1.403-4.497-1.304-4.536c0.028-0.013,0.254,0.383,0.585,1.138
					c0.333,0.754,0.739,1.882,1.079,3.32c0.693,2.854,0.951,7.086-0.392,11.439c-1.344,4.351-3.942,7.7-6.124,9.668
					c-1.092,0.997-2.063,1.699-2.763,2.134C136.517,223.746,136.106,223.946,136.091,223.92z"/>
			</g>
		</g>
		<g>
			<g>
				<path style="fill:#263238;" d="M170.202,284.92c-0.015-0.009,0.101-0.226,0.337-0.631c0.238-0.403,0.584-1.001,1.059-1.753
					c0.945-1.506,2.348-3.664,4.112-6.307c3.497-5.304,8.502-12.527,13.37-20.896c0.617-1.042,1.188-2.091,1.744-3.13
					c0.577-1.028,1.079-2.073,1.583-3.094c0.531-1.01,0.923-2.057,1.372-3.055c0.235-0.496,0.371-1.019,0.559-1.518
					c0.16-0.507,0.383-0.994,0.487-1.501c0.556-1.992,0.708-3.995,0.784-5.846c0.066-1.857,0.003-3.592-0.108-5.172
					c-0.231-3.16-0.615-5.704-0.855-7.463c-0.116-0.839-0.209-1.512-0.28-2.027c-0.06-0.464-0.082-0.709-0.065-0.712
					c0.018-0.003,0.075,0.237,0.168,0.695c0.096,0.511,0.221,1.18,0.376,2.012c0.302,1.751,0.743,4.29,1.022,7.466
					c0.135,1.587,0.221,3.335,0.173,5.214c-0.059,1.878-0.191,3.887-0.752,5.957c-0.106,0.524-0.326,1.015-0.487,1.533
					c-0.188,0.508-0.326,1.045-0.561,1.545c-0.447,1.01-0.843,2.073-1.373,3.09c-0.505,1.03-1.008,2.085-1.586,3.118
					c-0.557,1.045-1.13,2.1-1.749,3.145c-4.886,8.399-9.942,15.592-13.516,20.843c-1.768,2.586-3.21,4.695-4.247,6.211
					c-0.472,0.703-0.851,1.267-1.14,1.698C170.364,284.731,170.218,284.93,170.202,284.92z"/>
			</g>
		</g>
		<g>
			<g>
				<path style="fill:#263238;" d="M201.274,231.009c0.065,0.026-0.287,1.076-0.937,2.74c-0.649,1.665-1.603,3.943-2.736,6.423
					c-1.134,2.481-2.232,4.693-3.065,6.273c-0.833,1.581-1.396,2.534-1.459,2.502c-0.066-0.034,0.381-1.045,1.128-2.665
					c0.818-1.772,1.817-3.935,2.922-6.327c1.085-2.4,2.066-4.57,2.87-6.349C200.734,231.98,201.206,230.981,201.274,231.009z"/>
			</g>
		</g>
		<g>
			<g>
				<path style="fill:#263238;" d="M204.856,237.699c0.049,0.061-0.761,0.783-2.034,1.985c-1.273,1.2-2.991,2.9-4.761,4.894
					c-1.768,1.997-3.249,3.907-4.288,5.315c-1.04,1.408-1.66,2.299-1.726,2.257c-0.056-0.035,0.455-0.998,1.424-2.468
					c0.968-1.471,2.416-3.434,4.2-5.449c1.786-2.012,3.561-3.686,4.905-4.823C203.92,238.27,204.815,237.648,204.856,237.699z"/>
			</g>
		</g>
		<g>
			<g>
				<path style="fill:#263238;" d="M230.373,252.716c-0.141,0.029-0.694-2.12-1.236-4.798c-0.542-2.679-0.866-4.873-0.725-4.902
					c0.141-0.029,0.694,2.119,1.236,4.798C230.189,250.493,230.514,252.688,230.373,252.716z"/>
			</g>
		</g>
		<g>
			<g>
				<path style="fill:#263238;" d="M232.611,251.662c-0.148,0.031-0.71-2.195-1.635-4.86c-0.915-2.669-1.845-4.768-1.709-4.834
					c0.12-0.063,1.273,1.958,2.202,4.665C232.406,249.335,232.745,251.638,232.611,251.662z"/>
			</g>
		</g>
		<g>
			<g>
				<path style="fill:#263238;" d="M88.41,214.609c0.102-0.085,1.98,2.122,3.685,5.245c1.718,3.117,2.57,5.887,2.444,5.927
					c-0.145,0.055-1.204-2.601-2.901-5.676C89.957,217.023,88.286,214.703,88.41,214.609z"/>
			</g>
		</g>
		<g>
			<g>
				<path style="fill:#263238;" d="M91.336,211.493c0.139-0.038,1.021,2.719,1.971,6.158c0.95,3.44,1.608,6.259,1.469,6.297
					c-0.139,0.038-1.021-2.719-1.971-6.159C91.856,214.351,91.198,211.531,91.336,211.493z"/>
			</g>
		</g>
		<g>
			<g>
				<path style="fill:#263238;" d="M126.064,278.456c-0.003-0.036,0.544-0.115,1.535-0.228c1.083-0.122,2.494-0.281,4.193-0.473
					c3.539-0.406,8.419-1.034,13.78-1.919c5.362-0.889,10.185-1.868,13.666-2.623c1.67-0.366,3.057-0.669,4.122-0.902
					c0.974-0.212,1.517-0.313,1.526-0.278c0.009,0.035-0.517,0.202-1.477,0.475c-0.959,0.276-2.356,0.641-4.089,1.065
					c-3.465,0.848-8.289,1.887-13.663,2.778c-5.373,0.888-10.273,1.459-13.827,1.771c-1.777,0.157-3.217,0.261-4.214,0.309
					C126.619,278.481,126.067,278.492,126.064,278.456z"/>
			</g>
		</g>
		<g>
			<g>
				<path style="fill:#263238;" d="M141.099,265.088c0.029-0.072,1.171,0.33,3.023,0.949c1.852,0.62,4.422,1.437,7.298,2.206
					c2.877,0.767,5.512,1.341,7.427,1.726c1.914,0.386,3.105,0.607,3.094,0.683c-0.009,0.066-1.219-0.026-3.159-0.321
					c-1.939-0.294-4.603-0.813-7.497-1.585c-2.893-0.774-5.461-1.652-7.288-2.363C142.169,265.673,141.074,265.15,141.099,265.088z"
					/>
			</g>
		</g>
		<g>
			<g>
				<polyline style="fill:#455A64;" points="124.562,292.574 115.969,296.945 99.876,280.549 108.887,277.974 				"/>
			</g>
			<g>
				<g>
					<path style="fill:#263238;" d="M108.887,277.974c0.006,0.022-0.211,0.107-0.626,0.247c-0.487,0.156-1.085,0.347-1.808,0.578
						c-1.657,0.498-3.877,1.164-6.519,1.958l0.095-0.36c2.359,2.385,5.159,5.217,8.171,8.263c2.915,2.992,5.63,5.778,7.924,8.132
						l-0.255-0.042c2.545-1.253,4.685-2.306,6.28-3.091c0.707-0.333,1.293-0.608,1.767-0.832c0.411-0.185,0.634-0.274,0.645-0.253
						c0.01,0.02-0.193,0.149-0.584,0.372c-0.46,0.252-1.027,0.563-1.713,0.939c-1.574,0.827-3.685,1.936-6.196,3.255l-0.141,0.074
						l-0.115-0.116c-2.311-2.337-5.046-5.104-7.983-8.074c-2.989-3.068-5.768-5.921-8.109-8.324l-0.258-0.265l0.353-0.096
						c2.662-0.722,4.9-1.328,6.569-1.781c0.735-0.185,1.345-0.339,1.84-0.464C108.652,277.995,108.881,277.953,108.887,277.974z"/>
				</g>
			</g>
		</g>
		<g>
			<g>
				<path style="fill:#263238;" d="M124.562,292.574c-0.099,0.104-3.125-2.602-6.759-6.043c-3.635-3.443-6.5-6.318-6.401-6.422
					c0.099-0.104,3.125,2.601,6.759,6.044C121.795,289.595,124.661,292.47,124.562,292.574z"/>
			</g>
		</g>
		<g>
			<path style="fill:#263238;" d="M168.953,272.103l0.266,0.04c-0.829-0.406-1.944,0.125-2.205,1.045
				c-0.261,0.919,0.387,1.999,1.29,2.157c0.903,0.158,1.847-0.633,1.907-1.591C170.26,272.965,169.673,272.306,168.953,272.103z"/>
		</g>
		<g>
			<g>
				<path style="fill:#263238;" d="M158.051,290.043c-0.062-0.068,1.139-1.172,2.735-3.258c1.616-2.067,3.599-5.117,5.504-8.642
					c1.884-3.538,3.321-6.881,4.145-9.371c0.85-2.484,1.107-4.096,1.198-4.082c0.036,0.005-0.007,0.411-0.115,1.145
					c-0.121,0.73-0.345,1.782-0.733,3.048c-0.742,2.544-2.139,5.941-4.037,9.506c-1.919,3.552-3.97,6.597-5.676,8.626
					c-0.841,1.023-1.591,1.794-2.131,2.3C158.39,289.81,158.075,290.069,158.051,290.043z"/>
			</g>
		</g>
		<g>
			<g>
				<path style="fill:#455A64;" d="M155.475,394.873c-0.011-0.006,0.065-0.186,0.224-0.529c0.177-0.373,0.415-0.874,0.717-1.509
					c0.639-1.315,1.637-3.212,2.993-5.568c1.38-2.342,3.139-5.134,5.346-8.191c1.113-1.521,2.324-3.118,3.666-4.746
					c0.674-0.812,1.371-1.639,2.11-2.463c0.373-0.409,0.751-0.822,1.133-1.239c0.187-0.21,0.416-0.409,0.511-0.597
					c0.107-0.198,0.056-0.31-0.102-0.402l-0.057-0.033l-0.037-0.042c-1.214-1.366-2.848-2.566-4.42-3.835
					c-1.609-1.249-3.289-2.511-5.021-3.794c-3.465-2.562-7.143-5.194-10.938-7.888c-4.971-3.526-9.786-6.887-14.218-9.953
					l0.046,0.025c-2.676-1.093-5.003-2.615-7.376-3.711c-2.359-1.146-4.813-1.682-7.114-2.311c-4.636-1.217-8.381-3.426-10.997-5.74
					c-2.662-2.272-4.487-4.382-5.688-5.853c-0.592-0.745-1.028-1.333-1.31-1.74c-0.126-0.188-0.229-0.341-0.313-0.466
					c-0.068-0.106-0.1-0.162-0.094-0.166c0.006-0.004,0.049,0.044,0.129,0.141c0.093,0.119,0.207,0.263,0.346,0.441
					c0.304,0.389,0.76,0.96,1.369,1.685c1.236,1.432,3.09,3.5,5.759,5.722c1.335,1.104,2.879,2.249,4.711,3.193
					c1.837,0.955,3.905,1.785,6.198,2.376c2.28,0.607,4.79,1.141,7.198,2.297c2.42,1.105,4.743,2.612,7.369,3.673l0.024,0.01
					l0.022,0.015c4.445,3.054,9.265,6.408,14.239,9.937c3.797,2.695,7.474,5.333,10.938,7.906c1.731,1.288,3.411,2.557,5.02,3.816
					c1.589,1.299,3.176,2.448,4.492,3.943l-0.094-0.075c0.193,0.095,0.338,0.238,0.409,0.458c0.061,0.221-0.003,0.434-0.086,0.584
					c-0.179,0.316-0.403,0.483-0.586,0.695c-0.381,0.413-0.758,0.821-1.132,1.225c-0.739,0.815-1.438,1.633-2.113,2.437
					c-1.346,1.612-2.564,3.194-3.686,4.7c-2.224,3.028-4.008,5.79-5.419,8.106c-1.387,2.33-2.421,4.202-3.1,5.494
					c-0.328,0.621-0.587,1.111-0.78,1.475C155.586,394.71,155.487,394.879,155.475,394.873z"/>
			</g>
		</g>
		<g>
			<polygon style="fill:#FF725E;" points="186.189,214.505 183.48,214.422 183.48,214.422 182.043,216.756 183.026,219.244 
				185.688,219.587 187.196,216.401 			"/>
		</g>
		<g>
			<path style="fill:#FF725E;" d="M182.684,217.019l-4.728-2.668c0,0,1.652-2.795,5.64,0L182.684,217.019z"/>
		</g>
		<g>
			<g>
				<path style="fill:#263238;" d="M183.596,214.351c-0.018,0.023-0.294-0.135-0.782-0.443c-0.504-0.241-1.268-0.722-2.304-0.648
					c-0.506,0.049-1.052,0.204-1.574,0.535c-0.517,0.334-1.036,0.763-1.536,1.286c-1.021,1.017-2.031,2.336-3.508,3.397l-0.307,0.22
					l-0.076-0.378c-0.323-1.609-0.832-3.332-1.46-5.086c-1.635-4.499-3.603-8.388-4.992-11.208c-0.666-1.34-1.224-2.46-1.661-3.339
					c-0.385-0.792-0.584-1.239-0.552-1.256c0.032-0.017,0.291,0.397,0.731,1.161c0.439,0.764,1.064,1.876,1.809,3.265
					c1.475,2.783,3.503,6.657,5.155,11.202c0.634,1.772,1.142,3.522,1.456,5.166l-0.383-0.157c1.399-0.98,2.427-2.268,3.491-3.288
					c0.521-0.522,1.078-0.964,1.644-1.305c0.572-0.34,1.19-0.498,1.751-0.526c1.151-0.028,1.913,0.527,2.404,0.816
					C183.372,214.126,183.614,214.328,183.596,214.351z"/>
			</g>
		</g>
		<g>
			<g>
				<path style="fill:#263238;" d="M189.888,216.897c0.052,0.003,0.089,0.436-0.175,1.093c-0.254,0.644-0.878,1.511-1.946,1.98
					l-0.361,0.159l0.008-0.406c0.006-0.293,0.011-0.597-0.012-0.907c-0.138-2.548-1.369-4.337-1.23-4.409
					c0.052-0.038,0.43,0.351,0.844,1.117c0.412,0.761,0.827,1.923,0.905,3.26c0.024,0.329,0.016,0.653,0.003,0.964l-0.353-0.248
					c0.927-0.381,1.535-1.1,1.845-1.654C189.734,217.285,189.816,216.884,189.888,216.897z"/>
			</g>
		</g>
		<g>
			<g>
				<path style="fill:#263238;" d="M183.596,218.274c0.018,0.003,0.008,0.173-0.027,0.494c-0.048,0.38-0.107,0.843-0.178,1.401
					c-0.165,1.215-0.428,2.971-0.781,5.135c-0.705,4.329-1.775,10.299-3.317,16.817c-1.548,6.52-3.347,12.325-4.882,16.439
					c-0.762,2.058-1.425,3.707-1.929,4.827c-0.232,0.513-0.425,0.938-0.583,1.288c-0.139,0.292-0.219,0.442-0.236,0.435
					c-0.017-0.007,0.032-0.171,0.139-0.475c0.133-0.359,0.296-0.796,0.492-1.323c0.445-1.141,1.054-2.806,1.77-4.874
					c1.441-4.134,3.177-9.933,4.722-16.436c1.538-6.502,2.664-12.451,3.461-16.76c0.387-2.095,0.706-3.82,0.944-5.105
					c0.109-0.552,0.2-1.009,0.275-1.385C183.533,218.436,183.578,218.271,183.596,218.274z"/>
			</g>
		</g>
		<g style="opacity:0.3;">
			<g>
				<path d="M184.368,218.727c-1.645,1.456-2.614,3.54-4.179,5.082c-3.726,3.673-9.792,3.415-14.828,1.998
					c-5.037-1.417-9.998-3.759-15.219-3.428c-5.965,0.377-11.097,4.158-15.845,7.788c-2.438,1.864-5.29,3.479-7.728,5.343
					l-2.399,9.832c4.044,0.977,8.521-1.812,11.407-4.809c2.886-2.996,5.29-6.604,8.907-8.658c3.527-2.002,7.788-2.263,11.826-1.88
					c4.037,0.383,8.005,1.357,12.05,1.644c4.045,0.287,8.318-0.185,11.693-2.434C183.428,226.956,185.608,222.588,184.368,218.727z"
					/>
			</g>
		</g>
		<g>
			<g>
				<path style="fill:#FF725E;" d="M182.043,216.756c0.451,1.749-1.178,2.659-2.726,3.589c-1.548,0.93-3.957,0.791-5.758,0.665
					c-8.671-0.607-15.733-7.426-24.398-8.119c-6.028-0.482-12.423,2.395-17.57,5.571c-5.146,3.176-9.571,7.39-14.547,10.826
					c-11.896,8.214-14.57,6.948-26.428,9.252l-3.812,8.875l10.019,2.482c0,0,23.889-6.246,31.449-13.962
					c7.703-7.862,12.049-14.82,17.616-16.213c11.898-2.978,24.714,7.117,31.823,5.666c6.788-1.386,8.598-7.115,8.598-7.115
					L182.043,216.756z"/>
			</g>
		</g>
		<g style="opacity:0.3;">
			<polygon points="102.701,283.427 98.213,284.92 112.219,299.463 123.146,293.295 116.166,296.371 			"/>
		</g>
		<g style="opacity:0.3;">
			<g>
				<path d="M161.821,275.447c-10.102,5.136-21.702,6.245-32.987,7.268C138.437,284.92,152.073,283.036,161.821,275.447"/>
			</g>
		</g>
		<g>
			<g>
				<path style="fill:#EB996E;" d="M190.62,187.033c-0.47-0.313-0.948-0.629-1.485-0.803c-0.537-0.174-1.151-0.19-1.644,0.084
					c-0.679,0.378-1.32,1.378-1.32,2.362c1.112,1.547,2.126,1.603,3.83,1.54c0.227-0.883,0.783-2.115,0.779-3.026"/>
			</g>
			<g>
				<g>
					<path style="fill:#263238;" d="M190.114,190.38c0.017,0.053-0.603,0.277-1.612,0.073c-0.496-0.106-1.078-0.33-1.629-0.732
						c-0.268-0.203-0.559-0.428-0.774-0.789c-0.232-0.357-0.236-0.886-0.069-1.266c0.322-0.755,0.865-1.342,1.53-1.637
						c0.675-0.291,1.359-0.184,1.831,0.009c0.966,0.417,1.288,1.013,1.244,1.036c-0.059,0.069-0.482-0.41-1.365-0.688
						c-0.434-0.129-0.994-0.17-1.511,0.08c-0.511,0.243-0.984,0.777-1.243,1.388c-0.285,0.607,0.151,1.103,0.646,1.484
						c0.478,0.38,0.988,0.616,1.432,0.758C189.494,190.374,190.108,190.294,190.114,190.38z"/>
				</g>
			</g>
		</g>
		<g>
			<g>
				<path style="fill:#263238;" d="M190.578,257.848c0.002-0.009,0.131,0.007,0.381,0.047c0.275,0.047,0.641,0.109,1.108,0.189
					c1.001,0.181,2.428,0.439,4.251,0.768c3.721,0.667,9.056,1.623,15.636,2.803c3.304,0.555,6.925,1.207,10.829,1.661
					c1.949,0.193,3.996,0.427,6.031,0.108c2.044-0.308,3.887-1.493,5.773-2.634c1.898-1.134,3.689-2.506,5.518-3.934
					c1.826-1.427,3.651-2.936,5.509-4.472c3.705-3.087,7.498-6.336,11.355-9.696c0.866-0.758,1.727-1.512,2.581-2.26l-0.006,0.385
					c-4.513-4.228-8.876-8.316-13.011-12.189l0.312,0.023c-6.93,4.76-13.307,9.139-18.891,12.974l-0.113,0.077l-0.115-0.072
					c-7.733-4.804-14.087-8.752-18.535-11.516c-2.185-1.374-3.901-2.452-5.097-3.204c-0.563-0.362-1.003-0.645-1.326-0.852
					c-0.298-0.195-0.442-0.309-0.442-0.309s0.167,0.078,0.475,0.256c0.33,0.194,0.781,0.46,1.358,0.8
					c1.21,0.729,2.945,1.775,5.156,3.108c4.471,2.727,10.857,6.622,18.629,11.363l-0.228,0.006
					c5.571-3.855,11.932-8.257,18.845-13.041l0.165-0.114l0.147,0.137c4.139,3.868,8.507,7.951,13.025,12.173l0.21,0.196
					l-0.216,0.189c-0.855,0.749-1.717,1.504-2.583,2.262c-3.86,3.362-7.657,6.611-11.371,9.696
					c-1.863,1.535-3.694,3.043-5.529,4.471c-1.831,1.423-3.659,2.815-5.575,3.952c-1.883,1.13-3.786,2.355-5.949,2.676
					c-2.134,0.324-4.193,0.071-6.153-0.13c-3.929-0.476-7.541-1.149-10.846-1.727c-6.602-1.192-11.93-2.235-15.61-2.966
					c-1.815-0.371-3.236-0.661-4.233-0.864c-0.462-0.101-0.826-0.18-1.098-0.24C190.702,257.891,190.576,257.857,190.578,257.848z"
					/>
			</g>
		</g>
	</g>
</g>
</svg>
