<?xml version="1.0" encoding="utf-8"?>
<!-- Generator: Adobe Illustrator 27.5.0, SVG Export Plug-In . SVG Version: 6.00 Build 0)  -->
<svg version="1.1" xmlns="http://www.w3.org/2000/svg" xmlns:xlink="http://www.w3.org/1999/xlink" x="0px" y="0px"
	 viewBox="0 0 500 500" style="enable-background:new 0 0 500 500;" xml:space="preserve">
<g id="Background_Complete">
	<g>
		<g>
			<g>
				<g>
					<g>
						<g>
							<g>
								<g>
									<g>
										<g>
											<g>
												<rect x="43.214" y="43.286" style="fill:#E0E0E0;" width="121.489" height="176.094"/>
											</g>
										</g>
									</g>
								</g>
							</g>
						</g>
					</g>
				</g>
			</g>
			<g>
				<g>
					<g>
						<g>
							<g>
								<g>
									<g>
										<g>
											<g>
												<rect x="37.128" y="43.286" style="fill:#F5F5F5;" width="121.489" height="176.094"/>
											</g>
										</g>
									</g>
								</g>
							</g>
						</g>
					</g>
				</g>
			</g>
			<g>
				<g>
					<g>
						<g>
							<g>
								<g>
									<g>
										<g>
											<g>
												<g>
													<rect x="52.222" y="62.358" style="fill:#FFFFFF;" width="91.301" height="137.949"/>
												</g>
											</g>
										</g>
									</g>
								</g>
							</g>
						</g>
					</g>
				</g>
				<g>
					<g>
						<g>
							<g>
								<g>
									<g>
										<g>
											<g>
												<g>
													<g>
														<path style="fill:#E0E0E0;" d="M143.523,200.308c0,0-0.012-0.234-0.018-0.675c-0.004-0.455-0.01-1.105-0.018-1.956
															c-0.008-1.734-0.021-4.271-0.037-7.566c-0.019-6.612-0.047-16.246-0.081-28.417
															c-0.037-24.325-0.089-58.771-0.149-99.335l0.303,0.303c-27.894,0.008-58.803,0.018-91.29,0.027h-0.011l0.33-0.33
															c-0.025,52.04-0.049,100.021-0.067,137.949l-0.263-0.263c27.805,0.058,50.596,0.105,66.455,0.138
															c7.933,0.029,14.128,0.052,18.36,0.067c2.103,0.013,3.714,0.023,4.819,0.029
															C142.948,200.289,143.523,200.308,143.523,200.308s-0.537,0.019-1.611,0.028c-1.093,0.007-2.689,0.017-4.77,0.03
															c-4.218,0.015-10.394,0.038-18.301,0.067c-15.899,0.033-38.746,0.081-66.619,0.138l-0.263,0.001l0-0.264
															c-0.019-37.927-0.042-85.909-0.067-137.949l0-0.331h0.331h0.011c32.486,0.01,63.396,0.019,91.29,0.027h0.304
															l-0.001,0.303c-0.061,40.645-0.113,75.16-0.149,99.534c-0.035,12.142-0.063,21.753-0.081,28.348
															c-0.016,3.269-0.028,5.786-0.037,7.506c-0.008,0.836-0.014,1.475-0.018,1.922
															C143.535,200.098,143.523,200.308,143.523,200.308z"/>
													</g>
												</g>
											</g>
										</g>
									</g>
								</g>
							</g>
						</g>
					</g>
				</g>
			</g>
			<g>
				<g>
					<g>
						<g>
							<g>
								<g>
									<g>
										<g>
											<g>
												<g>
													<path style="fill:none;stroke:#FBFBFB;stroke-width:0.25;stroke-miterlimit:10;" d="M139.29,63.279"/>
												</g>
											</g>
										</g>
									</g>
								</g>
							</g>
						</g>
					</g>
				</g>
			</g>
			<g>
				<g>
					<g>
						<g>
							<g>
								<g>
									<g>
										<g>
											<g>
												<g>
													<path style="fill:#E0E0E0;" d="M158.958,43.286c0.071,0.055-0.754,1.259-2.165,3.146
														c-1.411,1.887-3.415,4.454-5.7,7.23c-2.287,2.776-4.423,5.234-6.005,6.981c-1.582,1.747-2.605,2.787-2.673,2.728
														c-0.07-0.061,0.829-1.209,2.319-3.033c1.629-1.976,3.633-4.407,5.849-7.097c2.214-2.69,4.216-5.122,5.843-7.099
														C157.93,44.332,158.885,43.229,158.958,43.286z"/>
												</g>
											</g>
										</g>
									</g>
								</g>
							</g>
						</g>
					</g>
				</g>
			</g>
			<g>
				<g>
					<g>
						<g>
							<g>
								<g>
									<g>
										<g>
											<g>
												<g>
													<path style="fill:#FFFFFF;" d="M143.988,199.863c4.534,7.21,9.888,13.906,15.924,19.915"/>
												</g>
											</g>
										</g>
									</g>
								</g>
							</g>
						</g>
					</g>
				</g>
				<g>
					<g>
						<g>
							<g>
								<g>
									<g>
										<g>
											<g>
												<g>
													<g>
														<path style="fill:#E0E0E0;" d="M159.912,219.779c-0.06,0.061-1.144-0.88-2.776-2.526
															c-1.632-1.644-3.796-4.012-6.007-6.775c-2.21-2.766-4.043-5.397-5.288-7.352c-1.246-1.954-1.925-3.218-1.853-3.264
															c0.082-0.051,0.9,1.123,2.24,3.002c1.339,1.88,3.221,4.451,5.417,7.201c2.198,2.746,4.292,5.148,5.831,6.868
															C159.015,218.654,159.981,219.71,159.912,219.779z"/>
													</g>
												</g>
											</g>
										</g>
									</g>
								</g>
							</g>
						</g>
					</g>
				</g>
			</g>
			<g>
				<g>
					<g>
						<g>
							<g>
								<g>
									<g>
										<g>
											<g>
												<g>
													<path style="fill:#FFFFFF;" d="M37.11,219.24c5.304-6.544,10.609-13.089,15.913-19.634"/>
												</g>
											</g>
										</g>
									</g>
								</g>
							</g>
						</g>
					</g>
				</g>
				<g>
					<g>
						<g>
							<g>
								<g>
									<g>
										<g>
											<g>
												<g>
													<g>
														<path style="fill:#E0E0E0;" d="M53.023,199.606c0.142,0.115-3.306,4.604-7.7,10.025
															c-4.395,5.423-8.072,9.724-8.214,9.609c-0.142-0.115,3.305-4.603,7.7-10.025
															C49.204,203.794,52.882,199.492,53.023,199.606z"/>
													</g>
												</g>
											</g>
										</g>
									</g>
								</g>
							</g>
						</g>
					</g>
				</g>
			</g>
			<g>
				<g>
					<g>
						<g>
							<g>
								<g>
									<g>
										<g>
											<g>
												<g>
													<path style="fill:#E0E0E0;" d="M37.128,43.286c0.143-0.113,3.602,4.021,7.724,9.233
														c4.124,5.214,7.349,9.531,7.206,9.644c-0.143,0.113-3.601-4.02-7.725-9.234C40.211,47.717,36.985,43.399,37.128,43.286
														z"/>
												</g>
											</g>
										</g>
									</g>
								</g>
							</g>
						</g>
					</g>
				</g>
			</g>
		</g>
		<g>
			<g>
				<g>
					<g>
						<g>
							<g>
								<g>
									<path style="fill:#E0E0E0;" d="M112.238,131.514c0,4.145-3.36,7.505-7.505,7.505c-4.145,0-7.505-3.36-7.505-7.505
										c0-4.145,3.36-7.505,7.505-7.505C108.878,124.008,112.238,127.369,112.238,131.514z"/>
								</g>
							</g>
						</g>
					</g>
				</g>
			</g>
			<g>
				<g>
					<g>
						<g>
							<g>
								<g>
									<path style="fill:#E0E0E0;" d="M116.268,105.08c0,3.099-2.512,5.61-5.61,5.61c-3.099,0-5.611-2.512-5.611-5.61
										c0-3.099,2.512-5.61,5.611-5.61C113.756,99.47,116.268,101.982,116.268,105.08z"/>
								</g>
							</g>
						</g>
					</g>
				</g>
			</g>
			<g>
				<g>
					<g>
						<g>
							<g>
								<g>
									<path style="fill:#E0E0E0;" d="M94.427,113.714c0,2.242-1.817,4.059-4.059,4.059c-2.242,0-4.059-1.817-4.059-4.059
										s1.817-4.059,4.059-4.059C92.61,109.655,94.427,111.472,94.427,113.714z"/>
								</g>
							</g>
						</g>
					</g>
				</g>
			</g>
			<g>
				<g>
					<g>
						<g>
							<g>
								<g>
									<path style="fill:#E0E0E0;" d="M116.812,156.271c-0.986,0.986-2.584,0.986-3.57,0c-0.986-0.986-0.986-2.584,0-3.57
										c0.986-0.986,2.584-0.986,3.57,0C117.798,153.687,117.798,155.286,116.812,156.271z"/>
								</g>
							</g>
						</g>
					</g>
				</g>
			</g>
			<g>
				<g>
					<g>
						<g>
							<g>
								<g>
									<path style="fill:#E0E0E0;" d="M82.624,136.288c0,2.242-1.817,4.059-4.059,4.059c-2.242,0-4.059-1.817-4.059-4.059
										c0-2.242,1.817-4.059,4.059-4.059C80.807,132.229,82.624,134.046,82.624,136.288z"/>
								</g>
							</g>
						</g>
					</g>
				</g>
			</g>
			<g>
				<g>
					<g>
						<g>
							<g>
								<g>
									<g>
										<path style="fill:#E0E0E0;" d="M104.733,131.514c0.253-0.118,2.762,4.714,5.604,10.792
											c2.843,6.08,4.942,11.102,4.69,11.22c-0.252,0.118-2.761-4.713-5.605-10.793
											C106.58,136.656,104.48,131.632,104.733,131.514z"/>
									</g>
								</g>
							</g>
						</g>
					</g>
				</g>
			</g>
			<g>
				<g>
					<g>
						<g>
							<g>
								<g>
									<g>
										<path style="fill:#E0E0E0;" d="M104.129,132.275c0.041,0.276-5.435,1.315-12.23,2.321
											c-6.797,1.006-12.338,1.597-12.379,1.321c-0.041-0.276,5.435-1.315,12.231-2.321
											C98.545,132.59,104.088,131.999,104.129,132.275z"/>
									</g>
								</g>
							</g>
						</g>
					</g>
				</g>
			</g>
			<g>
				<g>
					<g>
						<g>
							<g>
								<g>
									<g>
										<path style="fill:#E0E0E0;" d="M103.614,128.671c-0.172,0.199-3.659-2.642-7.159-6.916
											c-3.517-4.262-5.629-8.232-5.4-8.362c0.251-0.155,2.717,3.524,6.181,7.721
											C100.681,125.323,103.815,128.454,103.614,128.671z"/>
									</g>
								</g>
							</g>
						</g>
					</g>
				</g>
			</g>
			<g>
				<g>
					<g>
						<g>
							<g>
								<g>
									<g>
										<path style="fill:#E0E0E0;" d="M110.658,105.08l-0.026-0.006c-0.028-0.014,0.028,0.03,0.042,0.012l0.002,0.023
											l-0.019,0.189l-0.127,0.725c-0.186,0.855-0.377,1.729-0.576,2.644c-0.512,2.227-1.261,5.292-2.121,8.669
											c-1.735,6.753-3.183,12.209-3.44,12.156c-0.289-0.059,0.724-5.643,2.462-12.405c0.861-3.382,1.72-6.424,2.41-8.607
											c0.345-1.092,0.648-1.969,0.888-2.568c0.12-0.299,0.225-0.529,0.311-0.68c0.043-0.075,0.083-0.132,0.118-0.168
											l0.031-0.026c0.026-0.031,0.099,0.016,0.067,0.017C110.675,105.075,110.658,105.08,110.658,105.08z"/>
									</g>
								</g>
							</g>
						</g>
					</g>
				</g>
			</g>
		</g>
	</g>
	<g>
		<g>
			<g>
				<g>
					<path style="fill:#F5F5F5;" d="M70.357,275.175c1.511-0.913,3.12-1.605,4.779-2.077l0.984-4.73l7.992-0.14l1.15,4.692
						c1.675,0.413,3.307,1.048,4.849,1.908l4.039-2.648l5.75,5.552l-2.504,4.129c0.913,1.512,1.606,3.121,2.077,4.78l4.73,0.984
						l0.14,7.992l-4.692,1.15c-0.413,1.674-1.048,3.306-1.908,4.849l2.647,4.039l-5.551,5.75l-4.129-2.504
						c-1.511,0.913-3.12,1.605-4.78,2.077l-0.985,4.73l-7.992,0.14l-1.15-4.692c-1.675-0.413-3.306-1.048-4.849-1.908l-4.039,2.648
						l-5.75-5.552l2.504-4.129c-0.913-1.511-1.606-3.12-2.077-4.779l-4.73-0.984l-0.14-7.992l4.692-1.151
						c0.413-1.674,1.049-3.306,1.908-4.849l-2.647-4.039l5.551-5.75L70.357,275.175L70.357,275.175z M74.617,285.821
						c-3.289,3.407-3.194,8.835,0.213,12.124c3.407,3.289,8.835,3.194,12.124-0.213c3.289-3.407,3.194-8.835-0.213-12.124
						C83.334,282.319,77.906,282.415,74.617,285.821z"/>
				</g>
			</g>
		</g>
		<g>
			<g>
				<g>
					<g>
						<path style="fill:#F5F5F5;" d="M74.617,285.821c0,0,0.448-0.632,1.596-1.401c1.127-0.751,3.096-1.586,5.594-1.323
							c1.23,0.138,2.575,0.539,3.802,1.351c1.213,0.811,2.359,1.966,3.075,3.464c0.377,0.736,0.638,1.553,0.78,2.407
							c0.154,0.852,0.176,1.748,0.048,2.64c-0.217,1.791-1.064,3.556-2.38,4.943c-1.34,1.365-3.075,2.274-4.858,2.554
							c-0.887,0.16-1.783,0.169-2.64,0.045c-0.858-0.112-1.684-0.344-2.433-0.695c-1.523-0.663-2.717-1.767-3.57-2.951
							c-0.854-1.197-1.302-2.528-1.483-3.752c-0.351-2.487,0.415-4.484,1.125-5.637C74.001,286.292,74.617,285.821,74.617,285.821
							c0.046,0.039-0.518,0.563-1.178,1.74c-0.646,1.157-1.329,3.108-0.948,5.489c0.196,1.172,0.643,2.438,1.472,3.569
							c0.828,1.118,1.974,2.158,3.423,2.774c0.712,0.328,1.496,0.543,2.31,0.644c0.812,0.113,1.66,0.1,2.498-0.054
							c1.686-0.271,3.318-1.132,4.585-2.421c1.243-1.312,2.045-2.973,2.257-4.666c0.125-0.842,0.108-1.691-0.034-2.498
							c-0.129-0.809-0.371-1.585-0.724-2.285c-0.666-1.426-1.746-2.535-2.892-3.323c-1.159-0.788-2.44-1.191-3.618-1.346
							c-2.393-0.298-4.319,0.454-5.452,1.14C75.161,285.284,74.658,285.867,74.617,285.821z"/>
					</g>
				</g>
			</g>
		</g>
		<g>
			<g>
				<g>
					<g>
						<path style="fill:#F5F5F5;" d="M70.357,275.175c0,0.007-0.089-0.04-0.266-0.141c-0.194-0.112-0.455-0.263-0.792-0.458
							c-0.722-0.426-1.762-1.041-3.112-1.838l0.097-0.013c-1.413,1.481-3.271,3.428-5.518,5.782l0.015-0.155
							c0.807,1.221,1.704,2.577,2.664,4.028l0.048,0.072l-0.042,0.077c-0.785,1.422-1.444,3.04-1.877,4.817l-0.023,0.095
							l-0.095,0.024c-1.462,0.363-3.043,0.755-4.689,1.164l0.133-0.173c0.05,2.516,0.103,5.187,0.159,7.991l-0.154-0.186
							c1.465,0.302,3.078,0.634,4.731,0.975l0.121,0.025l0.034,0.119c0.439,1.543,1.125,3.183,2.063,4.725l0.067,0.109l-0.067,0.11
							c-0.774,1.281-1.628,2.694-2.498,4.133l-0.035-0.271c1.808,1.742,3.758,3.62,5.757,5.545l-0.284-0.027
							c1.257-0.826,2.638-1.732,4.036-2.651l0.118-0.077l0.124,0.069c1.41,0.786,3.057,1.457,4.791,1.881l0.14,0.034l0.034,0.14
							c0.361,1.47,0.755,3.073,1.153,4.692l-0.238-0.183c2.53-0.046,5.242-0.094,7.992-0.144l-0.234,0.195
							c0.31-1.494,0.646-3.106,0.983-4.73l0.03-0.146l0.143-0.04c1.574-0.445,3.204-1.133,4.715-2.048l0.004-0.003l0.129-0.076
							l0.126,0.076c1.387,0.841,2.764,1.676,4.129,2.504l-0.304,0.039c1.877-1.943,3.728-3.86,5.553-5.749l-0.029,0.302
							c-0.89-1.36-1.772-2.707-2.645-4.04l-0.08-0.122l0.071-0.127c0.849-1.521,1.48-3.138,1.887-4.788l0.035-0.14l0.14-0.034
							c1.587-0.388,3.15-0.77,4.693-1.147l-0.178,0.231c-0.045-2.728-0.089-5.393-0.132-7.991l0.18,0.217
							c-1.604-0.336-3.18-0.666-4.728-0.99l-0.131-0.027l-0.036-0.128c-0.479-1.694-1.178-3.286-2.047-4.73l-0.067-0.111l0.067-0.11
							c0.861-1.414,1.695-2.785,2.51-4.125l0.033,0.253c-2.019-1.957-3.924-3.805-5.739-5.563l0.234,0.022
							c-1.423,0.927-2.758,1.798-4.045,2.637l-0.09,0.059l-0.093-0.052c-1.61-0.901-3.223-1.509-4.802-1.905l-0.095-0.024
							l-0.023-0.095c-0.412-1.707-0.784-3.244-1.135-4.696l0.144,0.111c-3.096,0.041-5.734,0.075-7.992,0.105l0.106-0.088
							c-0.405,1.887-0.738,3.434-1.015,4.724l-0.01,0.047l-0.046,0.013c-1.691,0.472-2.881,1.024-3.654,1.406
							c-0.369,0.193-0.652,0.341-0.86,0.449C70.448,275.136,70.357,275.182,70.357,275.175c0-0.006,0.091-0.069,0.266-0.181
							c0.183-0.112,0.46-0.281,0.842-0.485c0.765-0.407,1.95-0.986,3.648-1.486l-0.056,0.06c0.26-1.292,0.573-2.844,0.954-4.736
							l0.017-0.086l0.089-0.002c2.258-0.049,4.895-0.107,7.991-0.175l0.116-0.003l0.028,0.113c0.36,1.45,0.742,2.984,1.166,4.688
							l-0.118-0.118c1.607,0.392,3.253,1.002,4.896,1.91l-0.182,0.007c1.284-0.846,2.614-1.723,4.033-2.657l0.125-0.082l0.109,0.105
							c1.821,1.751,3.735,3.591,5.761,5.54l0.118,0.113l-0.085,0.14c-0.811,1.342-1.64,2.716-2.496,4.133l0-0.22
							c0.893,1.473,1.612,3.098,2.106,4.829l-0.167-0.156c1.549,0.321,3.126,0.647,4.731,0.979l0.177,0.037l0.003,0.181
							c0.048,2.598,0.098,5.263,0.148,7.991l0.003,0.187l-0.182,0.045c-1.543,0.38-3.105,0.764-4.691,1.154l0.174-0.174
							c-0.415,1.691-1.06,3.349-1.928,4.909l-0.009-0.249c0.874,1.333,1.757,2.679,2.649,4.038l0.107,0.163l-0.135,0.14
							c-1.824,1.89-3.675,3.808-5.55,5.752l-0.136,0.141l-0.168-0.102c-1.365-0.827-2.743-1.663-4.13-2.503l0.254,0l-0.004,0.002
							c-1.55,0.939-3.222,1.644-4.835,2.1l0.173-0.186c-0.338,1.624-0.674,3.236-0.985,4.729l-0.04,0.191l-0.195,0.003
							c-2.749,0.047-5.462,0.093-7.992,0.137l-0.192,0.003l-0.046-0.187c-0.396-1.619-0.788-3.223-1.147-4.693l0.174,0.174
							c-1.777-0.437-3.464-1.127-4.905-1.934l0.241-0.009c-1.401,0.916-2.783,1.82-4.042,2.643l-0.153,0.1l-0.131-0.127
							c-1.994-1.93-3.94-3.813-5.743-5.559l-0.126-0.122l0.091-0.15c0.874-1.436,1.732-2.846,2.51-4.125l0,0.219
							c-0.953-1.579-1.648-3.257-2.091-4.833l0.154,0.143c-1.653-0.347-3.264-0.686-4.728-0.994l-0.151-0.032l-0.003-0.154
							c-0.043-2.804-0.084-5.475-0.122-7.992l-0.002-0.14l0.136-0.033c1.648-0.399,3.232-0.783,4.695-1.137l-0.118,0.118
							c0.45-1.804,1.131-3.443,1.938-4.88l0.005,0.149c-0.948-1.459-1.834-2.823-2.631-4.05l-0.054-0.084l0.069-0.071
							c2.274-2.329,4.154-4.254,5.585-5.718l0.044-0.046l0.053,0.033c1.32,0.821,2.336,1.454,3.042,1.893
							c0.333,0.211,0.59,0.375,0.782,0.497C70.267,275.107,70.357,275.168,70.357,275.175z"/>
					</g>
				</g>
			</g>
		</g>
	</g>
	<g>
		<g>
			<g>
				<g>
					<path style="fill:#F5F5F5;" d="M400.833,198.11c1.032-0.624,2.13-1.096,3.263-1.418l0.672-3.23l5.456-0.096l0.785,3.204
						c1.143,0.282,2.258,0.715,3.311,1.302l2.758-1.808l3.926,3.791l-1.709,2.819c0.624,1.032,1.096,2.131,1.418,3.264l3.229,0.672
						l0.096,5.456l-3.204,0.785c-0.282,1.143-0.716,2.257-1.302,3.31l1.807,2.758l-3.79,3.926l-2.819-1.709
						c-1.032,0.624-2.13,1.096-3.263,1.418l-0.672,3.23l-5.456,0.096l-0.785-3.204c-1.143-0.282-2.257-0.716-3.31-1.302
						l-2.758,1.808l-3.926-3.791l1.709-2.819c-0.624-1.032-1.096-2.13-1.418-3.263l-3.229-0.672l-0.096-5.456l3.204-0.786
						c0.282-1.143,0.716-2.257,1.302-3.31l-1.807-2.758l3.79-3.926L400.833,198.11L400.833,198.11z M403.741,205.379
						c-2.246,2.326-2.181,6.032,0.146,8.278c2.326,2.246,6.032,2.18,8.278-0.146c2.245-2.326,2.18-6.032-0.146-8.278
						C409.693,202.988,405.987,203.053,403.741,205.379z"/>
				</g>
			</g>
		</g>
		<g>
			<g>
				<g>
					<g>
						<path style="fill:#F5F5F5;" d="M403.741,205.379c0,0,0.306-0.432,1.09-0.957c0.769-0.512,2.114-1.083,3.819-0.903
							c0.84,0.094,1.758,0.368,2.596,0.922c0.828,0.554,1.611,1.342,2.099,2.365c0.257,0.502,0.436,1.061,0.533,1.643
							c0.105,0.581,0.12,1.193,0.033,1.802c-0.148,1.223-0.727,2.428-1.625,3.375c-0.915,0.932-2.099,1.552-3.316,1.744
							c-0.605,0.109-1.217,0.115-1.802,0.031c-0.586-0.076-1.15-0.235-1.661-0.475c-1.04-0.452-1.855-1.206-2.438-2.015
							c-0.583-0.818-0.889-1.726-1.013-2.562c-0.24-1.698,0.283-3.062,0.768-3.848C403.321,205.7,403.741,205.379,403.741,205.379
							c0.032,0.027-0.353,0.384-0.804,1.188c-0.441,0.79-0.907,2.122-0.647,3.747c0.134,0.8,0.439,1.664,1.005,2.436
							c0.565,0.764,1.348,1.474,2.337,1.894c0.486,0.224,1.022,0.37,1.577,0.439c0.554,0.077,1.134,0.069,1.706-0.037
							c1.151-0.185,2.265-0.773,3.13-1.653c0.848-0.895,1.396-2.029,1.541-3.186c0.085-0.575,0.074-1.154-0.023-1.706
							c-0.088-0.552-0.253-1.082-0.494-1.56c-0.455-0.974-1.192-1.73-1.974-2.269c-0.792-0.538-1.665-0.813-2.47-0.919
							c-1.634-0.203-2.949,0.31-3.723,0.778C404.113,205.012,403.769,205.41,403.741,205.379z"/>
					</g>
				</g>
			</g>
		</g>
		<g>
			<g>
				<g>
					<g>
						<path style="fill:#F5F5F5;" d="M400.832,198.11c0,0.005-0.061-0.027-0.182-0.096c-0.133-0.077-0.31-0.179-0.541-0.313
							c-0.493-0.291-1.203-0.711-2.125-1.255l0.066-0.009c-0.965,1.011-2.233,2.34-3.768,3.948l0.01-0.106
							c0.551,0.833,1.163,1.76,1.819,2.75l0.033,0.049l-0.029,0.053c-0.536,0.971-0.986,2.076-1.281,3.288l-0.016,0.065
							l-0.065,0.016c-0.998,0.248-2.078,0.516-3.202,0.795l0.091-0.118c0.034,1.718,0.07,3.541,0.108,5.456l-0.105-0.127
							c1,0.206,2.102,0.433,3.23,0.666l0.082,0.017l0.023,0.081c0.3,1.053,0.768,2.173,1.408,3.226l0.046,0.075l-0.046,0.075
							c-0.529,0.874-1.111,1.839-1.705,2.821l-0.024-0.185c1.234,1.189,2.566,2.471,3.931,3.786l-0.194-0.018
							c0.858-0.564,1.801-1.183,2.756-1.81l0.081-0.053l0.084,0.047c0.962,0.536,2.087,0.995,3.271,1.284l0.095,0.023l0.023,0.096
							c0.247,1.003,0.516,2.098,0.788,3.203l-0.163-0.125c1.728-0.031,3.579-0.064,5.456-0.098l-0.16,0.133
							c0.212-1.02,0.441-2.121,0.671-3.229l0.021-0.1l0.098-0.028c1.074-0.304,2.188-0.774,3.219-1.398l0.003-0.002l0.088-0.052
							l0.086,0.052c0.947,0.574,1.887,1.144,2.819,1.71l-0.207,0.027c1.281-1.326,2.545-2.635,3.791-3.925l-0.019,0.206
							c-0.608-0.929-1.21-1.848-1.806-2.758l-0.055-0.083l0.049-0.087c0.579-1.038,1.01-2.143,1.288-3.269l0.024-0.096l0.095-0.023
							c1.083-0.265,2.15-0.526,3.204-0.783l-0.122,0.158c-0.031-1.863-0.061-3.682-0.09-5.456l0.123,0.148
							c-1.095-0.229-2.171-0.455-3.228-0.676l-0.089-0.019l-0.024-0.087c-0.327-1.157-0.804-2.243-1.398-3.229l-0.046-0.076
							l0.046-0.075c0.588-0.966,1.158-1.902,1.714-2.816l0.023,0.173c-1.378-1.336-2.679-2.598-3.918-3.798l0.16,0.015
							c-0.971,0.633-1.883,1.228-2.762,1.801l-0.061,0.04l-0.063-0.035c-1.099-0.615-2.201-1.031-3.278-1.301l-0.065-0.016
							l-0.015-0.065c-0.282-1.165-0.535-2.214-0.775-3.206l0.098,0.076c-2.114,0.028-3.915,0.051-5.457,0.072l0.072-0.06
							c-0.277,1.288-0.504,2.345-0.693,3.225l-0.007,0.032l-0.031,0.009c-1.155,0.322-1.967,0.699-2.495,0.96
							c-0.252,0.132-0.445,0.233-0.587,0.307C400.895,198.083,400.832,198.115,400.832,198.11c0-0.004,0.062-0.047,0.182-0.124
							c0.125-0.077,0.314-0.192,0.575-0.331c0.522-0.278,1.332-0.673,2.491-1.014l-0.038,0.041c0.178-0.882,0.391-1.942,0.651-3.234
							l0.012-0.059l0.061-0.001c1.542-0.034,3.342-0.073,5.456-0.12l0.079-0.002l0.019,0.077c0.246,0.99,0.507,2.038,0.796,3.201
							l-0.081-0.081c1.097,0.268,2.221,0.684,3.343,1.304l-0.124,0.004c0.876-0.577,1.785-1.176,2.753-1.814l0.086-0.056
							l0.074,0.072c1.244,1.196,2.55,2.452,3.934,3.782l0.08,0.077l-0.058,0.096c-0.553,0.916-1.12,1.854-1.704,2.822l0-0.15
							c0.61,1.005,1.101,2.115,1.438,3.297l-0.114-0.106c1.057,0.219,2.134,0.441,3.23,0.668l0.121,0.025l0.002,0.124
							c0.033,1.774,0.067,3.593,0.101,5.456l0.002,0.128l-0.124,0.031c-1.053,0.259-2.12,0.521-3.203,0.788l0.119-0.119
							c-0.284,1.155-0.723,2.287-1.316,3.352l-0.006-0.17c0.597,0.91,1.2,1.829,1.809,2.757l0.073,0.111l-0.092,0.096
							c-1.245,1.29-2.509,2.6-3.789,3.927l-0.093,0.096l-0.114-0.07c-0.932-0.565-1.873-1.135-2.819-1.709l0.174,0l-0.003,0.002
							c-1.058,0.641-2.199,1.122-3.301,1.434l0.118-0.127c-0.231,1.109-0.46,2.209-0.673,3.229l-0.027,0.131l-0.133,0.002
							c-1.877,0.032-3.729,0.064-5.456,0.093l-0.131,0.002l-0.031-0.128c-0.27-1.106-0.538-2.201-0.783-3.204l0.119,0.119
							c-1.213-0.298-2.365-0.769-3.349-1.321l0.165-0.006c-0.956,0.625-1.9,1.243-2.759,1.805l-0.105,0.069l-0.09-0.087
							c-1.361-1.318-2.69-2.603-3.921-3.795l-0.086-0.083l0.062-0.102c0.596-0.981,1.182-1.943,1.713-2.816l0,0.15
							c-0.651-1.078-1.125-2.224-1.427-3.3l0.105,0.098c-1.128-0.237-2.229-0.468-3.228-0.678l-0.103-0.022l-0.002-0.105
							c-0.029-1.914-0.057-3.738-0.083-5.456l-0.001-0.096l0.093-0.023c1.125-0.272,2.207-0.535,3.206-0.776l-0.081,0.081
							c0.307-1.231,0.772-2.351,1.323-3.332l0.004,0.102c-0.647-0.996-1.252-1.927-1.796-2.765l-0.037-0.058l0.047-0.048
							c1.553-1.59,2.836-2.904,3.813-3.904l0.03-0.031l0.036,0.023c0.901,0.561,1.595,0.992,2.077,1.292
							c0.228,0.144,0.403,0.256,0.534,0.339C400.771,198.064,400.832,198.105,400.832,198.11z"/>
					</g>
				</g>
			</g>
		</g>
	</g>
	<g>
		<g>
			<g>
				<g>
					<path style="fill:#EBEBEB;" d="M374.825,117.065c2.427-1.467,5.012-2.579,7.677-3.336l1.581-7.599l12.838-0.225l1.848,7.537
						c2.69,0.663,5.312,1.684,7.79,3.065l6.488-4.253l9.237,8.919l-4.022,6.632c1.467,2.428,2.579,5.013,3.336,7.679l7.598,1.581
						l0.225,12.838l-7.538,1.848c-0.663,2.69-1.684,5.311-3.065,7.789l4.253,6.489l-8.918,9.238l-6.633-4.022
						c-2.428,1.467-5.012,2.579-7.678,3.336l-1.582,7.599l-12.838,0.225l-1.848-7.538c-2.69-0.663-5.311-1.684-7.789-3.065
						l-6.488,4.253l-9.238-8.919l4.022-6.633c-1.467-2.428-2.58-5.012-3.337-7.678l-7.598-1.581l-0.225-12.838l7.538-1.848
						c0.663-2.69,1.685-5.311,3.064-7.789l-4.253-6.489l8.918-9.237L374.825,117.065L374.825,117.065z M381.668,134.167
						c-5.284,5.473-5.131,14.193,0.342,19.477c5.473,5.284,14.193,5.13,19.476-0.343c5.283-5.473,5.131-14.193-0.342-19.477
						C395.672,128.542,386.952,128.695,381.668,134.167z"/>
				</g>
			</g>
		</g>
		<g>
			<g>
				<g>
					<g>
						<path style="fill:#EBEBEB;" d="M381.668,134.167c0,0,0.72-1.015,2.565-2.251c1.81-1.206,4.974-2.548,8.986-2.124
							c1.976,0.222,4.137,0.866,6.108,2.17c1.949,1.303,3.79,3.157,4.939,5.565c0.605,1.182,1.025,2.495,1.253,3.866
							c0.248,1.368,0.283,2.808,0.077,4.24c-0.349,2.878-1.709,5.713-3.824,7.941c-2.152,2.193-4.939,3.653-7.803,4.103
							c-1.424,0.257-2.864,0.271-4.241,0.072c-1.379-0.18-2.706-0.553-3.909-1.117c-2.446-1.064-4.365-2.839-5.736-4.741
							c-1.372-1.923-2.091-4.062-2.382-6.028c-0.564-3.995,0.667-7.204,1.808-9.055
							C380.679,134.923,381.668,134.167,381.668,134.167c0.074,0.063-0.832,0.904-1.893,2.795c-1.037,1.858-2.135,4.993-1.523,8.818
							c0.315,1.883,1.033,3.916,2.365,5.733c1.33,1.797,3.171,3.467,5.499,4.456c1.144,0.526,2.404,0.871,3.71,1.034
							c1.304,0.182,2.667,0.161,4.013-0.087c2.708-0.435,5.33-1.819,7.366-3.889c1.996-2.107,3.286-4.775,3.625-7.496
							c0.201-1.353,0.174-2.716-0.055-4.013c-0.208-1.299-0.596-2.546-1.163-3.671c-1.07-2.291-2.804-4.072-4.646-5.338
							c-1.862-1.266-3.919-1.913-5.812-2.162c-3.844-0.478-6.938,0.729-8.759,1.831C382.542,133.305,381.734,134.24,381.668,134.167
							z"/>
					</g>
				</g>
			</g>
		</g>
		<g>
			<g>
				<g>
					<g>
						<path style="fill:#EBEBEB;" d="M374.824,117.065c0,0.011-0.144-0.065-0.428-0.226c-0.312-0.18-0.73-0.422-1.272-0.735
							c-1.16-0.685-2.83-1.672-4.999-2.953l0.156-0.02c-2.27,2.378-5.254,5.506-8.865,9.289l0.024-0.249
							c1.296,1.961,2.737,4.14,4.279,6.471l0.077,0.116l-0.068,0.124c-1.261,2.283-2.32,4.884-3.015,7.738l-0.037,0.152
							l-0.153,0.038c-2.348,0.583-4.889,1.213-7.533,1.87l0.214-0.278c0.081,4.042,0.166,8.332,0.255,12.837l-0.247-0.298
							c2.353,0.485,4.944,1.019,7.6,1.566l0.194,0.04l0.054,0.19c0.706,2.478,1.808,5.113,3.314,7.591l0.107,0.176l-0.107,0.177
							c-1.244,2.057-2.615,4.327-4.012,6.639l-0.056-0.436c2.904,2.798,6.037,5.815,9.248,8.907l-0.457-0.043
							c2.02-1.327,4.238-2.783,6.484-4.259l0.19-0.125l0.199,0.11c2.264,1.262,4.91,2.34,7.697,3.022l0.224,0.054l0.055,0.225
							c0.58,2.361,1.214,4.936,1.853,7.537l-0.383-0.294c4.065-0.073,8.421-0.151,12.838-0.231l-0.377,0.313
							c0.499-2.4,1.037-4.99,1.58-7.598l0.048-0.234l0.23-0.065c2.528-0.715,5.147-1.82,7.574-3.291l0.007-0.004l0.207-0.122
							l0.202,0.123c2.227,1.351,4.44,2.693,6.633,4.022l-0.488,0.063c3.015-3.121,5.989-6.2,8.921-9.235l-0.046,0.486
							c-1.43-2.185-2.847-4.349-4.249-6.49l-0.129-0.197l0.114-0.204c1.363-2.443,2.377-5.041,3.031-7.692l0.056-0.225l0.225-0.054
							c2.549-0.623,5.06-1.237,7.539-1.842l-0.287,0.372c-0.072-4.382-0.143-8.664-0.213-12.838l0.289,0.349
							c-2.577-0.539-5.109-1.07-7.596-1.591l-0.21-0.044l-0.058-0.206c-0.769-2.722-1.892-5.279-3.288-7.598l-0.107-0.178
							l0.107-0.176c1.383-2.272,2.724-4.475,4.033-6.626l0.053,0.406c-3.243-3.144-6.304-6.112-9.219-8.937l0.376,0.035
							c-2.286,1.49-4.43,2.888-6.499,4.236l-0.144,0.094l-0.149-0.083c-2.586-1.447-5.178-2.425-7.714-3.06l-0.153-0.038
							l-0.037-0.152c-0.662-2.742-1.259-5.211-1.823-7.544l0.231,0.178c-4.974,0.065-9.211,0.12-12.839,0.169l0.17-0.141
							c-0.651,3.031-1.185,5.517-1.63,7.588l-0.017,0.076l-0.073,0.021c-2.717,0.758-4.628,1.645-5.871,2.258
							c-0.594,0.31-1.048,0.547-1.381,0.722C374.972,117.002,374.824,117.076,374.824,117.065c0.001-0.01,0.147-0.111,0.428-0.291
							c0.293-0.18,0.738-0.452,1.353-0.78c1.228-0.654,3.133-1.584,5.861-2.387l-0.089,0.096c0.418-2.076,0.92-4.57,1.532-7.609
							l0.028-0.138l0.143-0.003c3.627-0.079,7.864-0.173,12.837-0.281l0.186-0.004l0.046,0.182c0.579,2.329,1.192,4.794,1.873,7.531
							l-0.189-0.19c2.581,0.63,5.225,1.61,7.865,3.069l-0.293,0.011c2.062-1.359,4.2-2.767,6.478-4.269l0.201-0.132l0.175,0.168
							c2.926,2.813,5.999,5.769,9.255,8.9l0.189,0.182l-0.136,0.225c-1.302,2.156-2.635,4.363-4.01,6.639l0.001-0.353
							c1.434,2.366,2.59,4.977,3.383,7.758l-0.268-0.25c2.488,0.515,5.021,1.039,7.6,1.572l0.284,0.059l0.005,0.291
							c0.078,4.174,0.157,8.455,0.239,12.837l0.005,0.3l-0.292,0.072c-2.478,0.61-4.988,1.227-7.536,1.854l0.28-0.28
							c-0.667,2.717-1.702,5.381-3.097,7.886l-0.015-0.401c1.404,2.141,2.823,4.303,4.255,6.487l0.171,0.261l-0.217,0.225
							c-2.93,3.036-5.903,6.118-8.916,9.24l-0.219,0.227l-0.269-0.164c-2.193-1.329-4.407-2.671-6.634-4.021l0.409,0l-0.007,0.003
							c-2.49,1.508-5.175,2.641-7.767,3.373l0.278-0.299c-0.543,2.608-1.083,5.198-1.583,7.598l-0.064,0.307l-0.313,0.005
							c-4.417,0.076-8.774,0.15-12.838,0.22l-0.309,0.005l-0.073-0.3c-0.636-2.602-1.266-5.178-1.843-7.539l0.28,0.28
							c-2.855-0.702-5.564-1.81-7.88-3.107l0.388-0.014c-2.25,1.472-4.47,2.924-6.493,4.247l-0.246,0.161l-0.211-0.204
							c-3.203-3.1-6.329-6.125-9.226-8.93l-0.203-0.196l0.146-0.24c1.404-2.307,2.782-4.573,4.032-6.626l0,0.352
							c-1.531-2.536-2.648-5.232-3.359-7.765l0.247,0.23c-2.655-0.557-5.244-1.102-7.595-1.596l-0.243-0.051l-0.004-0.248
							c-0.069-4.505-0.134-8.795-0.196-12.838l-0.004-0.225l0.218-0.053c2.647-0.641,5.192-1.258,7.543-1.827l-0.189,0.19
							c0.723-2.897,1.817-5.531,3.113-7.839l0.009,0.24c-1.522-2.344-2.946-4.534-4.227-6.505l-0.087-0.135l0.111-0.114
							c3.653-3.741,6.674-6.834,8.971-9.186l0.071-0.073l0.084,0.053c2.12,1.319,3.753,2.335,4.887,3.041
							c0.535,0.34,0.948,0.602,1.257,0.798C374.681,116.956,374.824,117.054,374.824,117.065z"/>
					</g>
				</g>
			</g>
		</g>
	</g>
	<g>
		<g>
			<g>
				<g>
					<g>
						<g>
							<g>
								<path style="fill:#E0E0E0;" d="M85.737,234.699l1.107,1.84c1.243,2.065,3.052,3.732,5.213,4.8l1.925,0.952l-1.84,1.107
									c-2.066,1.243-3.732,3.052-4.8,5.213l-0.952,1.925l-1.107-1.84c-1.243-2.066-3.052-3.731-5.213-4.8l-1.925-0.952l1.84-1.107
									c2.066-1.243,3.731-3.052,4.8-5.213L85.737,234.699z"/>
							</g>
						</g>
					</g>
				</g>
			</g>
		</g>
	</g>
	<g>
		<g>
			<g>
				<g>
					<g>
						<g>
							<g>
								<path style="fill:#E0E0E0;" d="M338.966,86.914l0.554,0.92c0.621,1.033,1.526,1.866,2.606,2.4l0.962,0.476l-0.92,0.554
									c-1.033,0.621-1.866,1.526-2.4,2.606l-0.476,0.963l-0.554-0.92c-0.622-1.033-1.526-1.866-2.606-2.4l-0.963-0.476l0.92-0.554
									c1.033-0.621,1.866-1.526,2.4-2.606L338.966,86.914z"/>
							</g>
						</g>
					</g>
				</g>
			</g>
		</g>
	</g>
	<g>
		<g>
			<g>
				<g>
					<g>
						<g>
							<g>
								<path style="fill:#E0E0E0;" d="M322.483,58.468l1.704,2.832c1.912,3.178,4.696,5.742,8.021,7.386l2.962,1.465l-2.831,1.704
									c-3.179,1.912-5.742,4.696-7.386,8.021l-1.465,2.962l-1.704-2.831c-1.912-3.178-4.696-5.742-8.021-7.386l-2.962-1.465
									l2.832-1.704c3.178-1.912,5.741-4.696,7.386-8.021L322.483,58.468z"/>
							</g>
						</g>
					</g>
				</g>
			</g>
		</g>
	</g>
	<g>
		<g>
			<g>
				<g>
					<g>
						<g>
							<g>
								<path style="fill:#E0E0E0;" d="M371.033,417.568l0.554,0.92c0.621,1.033,1.526,1.866,2.606,2.4l0.963,0.476l-0.92,0.554
									c-1.033,0.621-1.866,1.526-2.4,2.606l-0.476,0.962l-0.554-0.92c-0.621-1.033-1.526-1.866-2.606-2.4l-0.963-0.476l0.92-0.554
									c1.033-0.621,1.866-1.526,2.4-2.606L371.033,417.568z"/>
							</g>
						</g>
					</g>
				</g>
			</g>
		</g>
	</g>
	<g>
		<g>
			<g>
				<g>
					<g>
						<g>
							<g>
								<path style="fill:#E0E0E0;" d="M428.759,255.151l1.704,2.832c1.912,3.178,4.696,5.742,8.021,7.386l2.962,1.465l-2.831,1.704
									c-3.179,1.912-5.742,4.696-7.386,8.021l-1.465,2.962l-1.704-2.832c-1.912-3.178-4.696-5.741-8.021-7.386l-2.962-1.465
									l2.832-1.704c3.178-1.912,5.741-4.696,7.386-8.021L428.759,255.151z"/>
							</g>
						</g>
					</g>
				</g>
			</g>
		</g>
	</g>
</g>
<g id="Background_Simple" style="display:none;">
	<g style="display:inline;">
		<path style="fill:#F5F5F5;" d="M412.342,104.297l-2.115-3.485c-17.826-29.376-50.056-47.084-84.038-44.935
			c-4.368,0.276-8.717,0.868-13.009,1.786c-30.896,6.613-57.779,29.977-68.922,59.899c-6.553,17.598-8.384,37.859-20.821,51.828
			c-16.185,18.179-43.663,18.75-67.822,17.997c-24.159-0.753-51.655-0.111-67.762,18.14c-10.087,11.43-13.293,27.684-12.479,42.992
			c2.153,40.527,30.393,76.763,66.306,94.775c35.914,18.012,78.198,19.625,117.503,11.702
			c55.062-11.099,107.425-41.581,138.9-88.661S437.525,155.111,412.342,104.297z"/>
	</g>
</g>
<g id="Table">
	<g>
		<g>
			<path style="fill:#263238;" d="M440.428,460.049c0,0.144-86.608,0.26-193.419,0.26c-106.848,0-193.438-0.117-193.438-0.26
				c0-0.144,86.589-0.26,193.438-0.26C353.821,459.788,440.428,459.905,440.428,460.049z"/>
		</g>
	</g>
</g>
<g id="Character_1_">
	<g>
		<g>
			<g>
				<path style="fill:#E0E0E0;" d="M170.073,245.47c-9.43,3.746-15.351,9.856-21.512,17.918
					c-11.156,14.6-76.234,86.086-76.442,87.611c-8.341,26.936,30.404,51.655,55.134,31.505c12.796-10.425,52.318-63.71,52.318-63.71
					l-1.896-76.344L170.073,245.47z"/>
			</g>
			<g>
				<g>
					<path style="fill:#E0E0E0;" d="M356.914,243.644c-7.694-6.595-31.951-10.575-31.951-10.575l-3.921,1.21
						c2.069,10.557,14.988,76.543,14.988,78.06c0,1.649,106.066,69.795,106.066,69.795l12.105-47.472
						C454.202,334.663,364.608,250.239,356.914,243.644z"/>
				</g>
			</g>
			<g>
				<polygon style="fill:#E0E0E0;" points="176.835,243.126 219.563,231.786 233.417,213.972 297.776,215.996 308.573,228.192 
					346.303,238.587 343.483,423.692 354.827,459.766 157.635,459.766 173.381,409.045 165.903,321.921 				"/>
			</g>
			<g>
				<g>
					<g>
						<g>
							<path style="fill:#263238;" d="M312.622,96.038c-13.562-16.576-31.774-26.119-53.188-26.473
								c-12.081-0.2-17.081,2.311-25.781,4.658c-8.7,2.347-16.55,7.015-21.74,14.382c-6.165,8.75-11.343,18.548-12.509,29.188
								c-1.197,10.929-2.396,21.933-1.571,32.896c0.825,10.964,3.802,22.005,10.258,30.904l27.896,4.847
								c15.406,0.525,31.026,1.03,46.036-2.484c15.009-3.515,29.593-11.59,37.631-24.744
								C330.821,140.936,326.184,112.614,312.622,96.038z"/>
						</g>
					</g>
					<g>
						<g>
							<g>
								<g>
									<path style="fill:#E0E0E0;" d="M216.531,197.3c0.055,0.065-0.454,0.688-1.666,1.463c-1.201,0.775-3.159,1.637-5.747,1.941
										c-2.562,0.269-5.806-0.063-8.868-1.798c-3.083-1.694-5.61-4.969-6.666-8.849c-1.044-3.884-0.512-7.987,1.297-11.005
										c1.771-3.042,4.406-4.963,6.754-6.022c2.389-1.041,4.514-1.283,5.942-1.219c1.436,0.059,2.19,0.341,2.175,0.424
										c0.02,0.332-3.249-0.359-7.607,1.856c-2.111,1.11-4.426,2.969-5.927,5.713c-1.531,2.705-1.958,6.331-1.028,9.818
										c0.954,3.48,3.15,6.395,5.835,7.96c2.679,1.614,5.616,2.053,7.999,1.948C213.905,199.249,216.381,197.002,216.531,197.3z"
										/>
								</g>
							</g>
						</g>
					</g>
					<g>
						<g>
							<path style="fill:#263238;" d="M339.66,177.024c-0.692-6.294-3.991-12.479-9.443-15.7c-5.452-3.221-13.069-2.888-17.61,1.526
								l-4.383,5.224c-6.871,2.925-11.19,10.737-10.359,18.158c0.831,7.421,6.539,13.964,13.682,16.144
								c7.143,2.179,15.334,0.068,20.796-5.025C337.804,192.259,340.477,184.447,339.66,177.024z"/>
						</g>
					</g>
					<g>
						<g>
							<g>
								<path style="fill:#455A64;" d="M334.131,195.835c-0.204-0.095,1.731-1.88,1.501-5.551c-0.235-3.57-2.827-8.25-6.385-12.54
									c-3.629-4.311-7.904-7.259-11.178-8.962c-3.268-1.755-5.515-2.396-5.445-2.624c0.028-0.135,2.394,0.176,5.872,1.755
									c3.474,1.524,8.021,4.461,11.796,8.947c1.89,2.226,3.405,4.585,4.51,6.859c1.122,2.261,1.816,4.55,1.798,6.535
									c0.007,1.988-0.635,3.528-1.251,4.423C334.719,195.581,334.182,195.894,334.131,195.835z"/>
							</g>
						</g>
					</g>
					<g>
						<g>
							<g>
								<path style="fill:#455A64;" d="M320.634,204.074c-0.455-0.028,1.442-8.461-1.244-18.423
									c-2.539-10.004-8.324-16.426-7.94-16.673c0.112-0.104,1.702,1.327,3.687,4.141c1.986,2.8,4.233,7.079,5.578,12.185
									c1.327,5.108,1.464,9.939,1.104,13.353C321.468,202.083,320.783,204.11,320.634,204.074z"/>
							</g>
						</g>
					</g>
					<g>
						<g>
							<g>
								<path style="fill:#A26760;" d="M297.631,105.839c-0.188-5.376-4.459-9.713-9.831-9.985l-37.19-14.783l-9.715,1.129
									c-21.86,0.077-36.937,24.187-37.081,41.892c-0.159,19.67,0.422,43.692,3.548,58.191c6.285,29.154,29.032,31.66,29.032,31.66
									c0.001-0.045-0.229,7.97,1.348,15.953l27.823,86.129l33.184-85.659L297.631,105.839z"/>
							</g>
							<g>
								<g>
									<path style="fill:#7B4B45;" d="M251.092,175.46c-0.202-1.536-1.056-2.895-2.146-3.829
										c-2.179-1.867-5.363-2.048-7.694-0.439c-2.332,1.609-3.667,4.909-3.227,7.975l0,0c1.308,1.799,3.311,3.013,5.527,3.206
										c0.345,0.03,0.691,0.042,1.038,0.033c1.681-0.043,3.39-0.611,4.674-1.85C250.547,179.318,251.342,177.356,251.092,175.46z"
										/>
								</g>
							</g>
							<g>
								<g>
									<g>
										<g>
											<g>
												<g>
													<g>
														<g>
															<g>
																<g>
																	<g>
																		<g>
																			<g>
																				<g>
																					<g>
																						<g>
																							<g>
																								<g>
																									<g>
																										<g>
																											<path style="fill:#263238;" d="M218.271,144.237c0.039,1.997,1.761,3.609,3.846,3.606
																												c2.081-0.002,3.74-1.618,3.702-3.614c-0.039-1.995-1.762-3.61-3.841-3.608
																												C219.891,140.623,218.232,142.242,218.271,144.237z"/>
																										</g>
																									</g>
																								</g>
																							</g>
																						</g>
																					</g>
																				</g>
																			</g>
																		</g>
																	</g>
																</g>
															</g>
														</g>
													</g>
												</g>
											</g>
										</g>
										<g>
											<g>
												<g>
													<g>
														<g>
															<g>
																<g>
																	<g>
																		<g>
																			<g>
																				<g>
																					<g>
																						<g>
																							<g>
																								<g>
																									<g>
																										<g>
																											<g>
																												<path style="fill:#263238;" d="M211.053,135.01c0.495,0.467,3.236-1.804,7.296-2.018
																													c4.051-0.27,7.145,1.655,7.558,1.133c0.205-0.232-0.322-1.093-1.669-1.967
																													c-1.328-0.87-3.557-1.664-6.084-1.516c-2.527,0.153-4.603,1.201-5.773,2.22
																													C211.186,133.89,210.811,134.803,211.053,135.01z"/>
																											</g>
																										</g>
																									</g>
																								</g>
																							</g>
																						</g>
																					</g>
																				</g>
																			</g>
																		</g>
																	</g>
																</g>
															</g>
														</g>
													</g>
												</g>
											</g>
										</g>
										<g>
											<g>
												<g>
													<g>
														<g>
															<g>
																<g>
																	<g>
																		<g>
																			<g>
																				<g>
																					<g>
																						<g>
																							<g>
																								<g>
																									<g>
																										<g>
																											<path style="fill:#263238;" d="M236.561,165.758c0.007-0.231-2.54-0.529-6.657-0.827
																												c-1.042-0.051-2.035-0.202-2.248-0.9c-0.285-0.736,0.087-1.877,0.523-3.109
																												c0.837-2.562,1.713-5.247,2.632-8.061c3.639-11.469,6.214-20.879,5.751-21.02
																												c-0.464-0.143-3.79,9.038-7.429,20.508c-0.872,2.827-1.707,5.522-2.5,8.1
																												c-0.328,1.2-0.929,2.573-0.314,4.098c0.322,0.759,1.113,1.279,1.788,1.422
																												c0.676,0.166,1.259,0.145,1.774,0.148C234.005,166.112,236.558,165.99,236.561,165.758z"/>
																										</g>
																									</g>
																								</g>
																							</g>
																						</g>
																					</g>
																				</g>
																			</g>
																		</g>
																	</g>
																</g>
															</g>
														</g>
													</g>
												</g>
											</g>
										</g>
										<g>
											<g>
												<g>
													<g>
														<g>
															<g>
																<g>
																	<g>
																		<g>
																			<g>
																				<g>
																					<g>
																						<g>
																							<g>
																								<g>
																									<g>
																										<path style="fill:#7B4B45;" d="M236.394,213.942c0,0,19.855,0.19,38.811-12.668
																											c0,0-9.01,21.006-38.596,19.87L236.394,213.942z"/>
																									</g>
																								</g>
																							</g>
																						</g>
																					</g>
																				</g>
																			</g>
																		</g>
																	</g>
																</g>
															</g>
														</g>
													</g>
												</g>
											</g>
										</g>
										<g>
											<g>
												<g>
													<g>
														<g>
															<g>
																<g>
																	<g>
																		<g>
																			<g>
																				<g>
																					<g>
																						<g>
																							<g>
																								<g>
																									<g>
																										<g>
																											<path style="fill:#263238;" d="M248.66,167.911c-0.662-0.002-0.429,4.404-4.029,7.738
																												c-3.591,3.344-8.315,3.107-8.315,3.724c-0.047,0.28,1.093,0.799,3.077,0.744
																												c1.948-0.04,4.754-0.821,6.955-2.86c2.196-2.043,3.045-4.657,3.095-6.472
																												C249.511,168.933,248.96,167.868,248.66,167.911z"/>
																										</g>
																									</g>
																								</g>
																							</g>
																						</g>
																					</g>
																				</g>
																			</g>
																		</g>
																	</g>
																</g>
															</g>
														</g>
													</g>
												</g>
											</g>
										</g>
										<g>
											<g>
												<g>
													<g>
														<g>
															<g>
																<g>
																	<g>
																		<g>
																			<g>
																				<g>
																					<g>
																						<g>
																							<g>
																								<g>
																									<g>
																										<g>
																											<g>
																												<g>
																													<path style="fill:#263238;" d="M211.86,119.712c0.736,0.954,3.808,0.12,7.456,0.223
																														c3.65-0.015,6.709,0.893,7.458-0.043c0.331-0.455-0.118-1.399-1.432-2.327
																														c-1.294-0.924-3.489-1.726-5.998-1.758c-2.508-0.028-4.713,0.719-6.019,1.612
																														C211.999,118.315,211.537,119.248,211.86,119.712z"/>
																												</g>
																											</g>
																										</g>
																									</g>
																								</g>
																							</g>
																						</g>
																					</g>
																				</g>
																			</g>
																		</g>
																	</g>
																</g>
															</g>
														</g>
													</g>
												</g>
											</g>
										</g>
										<g>
											<g>
												<g>
													<g>
														<g>
															<g>
																<g>
																	<g>
																		<g>
																			<g>
																				<g>
																					<g>
																						<g>
																							<g>
																								<g>
																									<g>
																										<g>
																											<path style="fill:#263238;" d="M265.502,143.161c0.105,1.994-1.496,3.726-3.576,3.874
																												c-2.075,0.148-3.847-1.343-3.953-3.337c-0.105-1.993,1.496-3.728,3.571-3.876
																												C263.625,139.674,265.397,141.169,265.502,143.161z"/>
																										</g>
																									</g>
																								</g>
																							</g>
																						</g>
																					</g>
																				</g>
																			</g>
																		</g>
																	</g>
																</g>
															</g>
														</g>
													</g>
												</g>
											</g>
										</g>
										<g>
											<g>
												<g>
													<g>
														<g>
															<g>
																<g>
																	<g>
																		<g>
																			<g>
																				<g>
																					<g>
																						<g>
																							<g>
																								<g>
																									<g>
																										<g>
																											<g>
																												<path style="fill:#263238;" d="M266.674,133.556c-0.46,0.501-3.358-1.566-7.423-1.486
																													c-4.06,0.023-7.007,2.167-7.456,1.676c-0.221-0.216,0.242-1.114,1.523-2.082
																													c1.262-0.964,3.428-1.917,5.959-1.951c2.532-0.03,4.678,0.865,5.918,1.798
																													C266.461,132.448,266.901,133.331,266.674,133.556z"/>
																											</g>
																										</g>
																									</g>
																								</g>
																							</g>
																						</g>
																					</g>
																				</g>
																			</g>
																		</g>
																	</g>
																</g>
															</g>
														</g>
													</g>
												</g>
											</g>
										</g>
										<g>
											<g>
												<g>
													<g>
														<g>
															<g>
																<g>
																	<g>
																		<g>
																			<g>
																				<g>
																					<g>
																						<g>
																							<g>
																								<g>
																									<g>
																										<g>
																											<g>
																												<g>
																													<path style="fill:#263238;" d="M269.008,124.831c-0.784,0.936-3.937,0.034-7.708,0.054
																														c-3.771-0.097-6.953,0.741-7.704-0.211c-0.331-0.463,0.157-1.396,1.536-2.295
																														c1.36-0.894,3.646-1.646,6.239-1.622c2.592,0.029,4.852,0.825,6.179,1.748
																														C268.899,123.432,269.353,124.375,269.008,124.831z"/>
																												</g>
																											</g>
																										</g>
																									</g>
																								</g>
																							</g>
																						</g>
																					</g>
																				</g>
																			</g>
																		</g>
																	</g>
																</g>
															</g>
														</g>
													</g>
												</g>
											</g>
										</g>
									</g>
								</g>
							</g>
							<g>
								<g>
									<g>
										<g>
											<g>
												<g>
													<g>
														<g>
															<g>
																<g>
																	<g>
																		<g>
																			<g>
																				<g>
																					<g>
																						<g>
																							<g>
																								<path style="fill:#A26760;" d="M292.579,155.262c-0.115-2.19,2.133-7.493,4.278-7.95
																									c5.727-1.217,16.163-1.325,17.065,13.339c1.233,20.045-19.146,17.148-19.217,16.575
																									C294.65,176.779,292.976,162.826,292.579,155.262z"/>
																							</g>
																						</g>
																					</g>
																				</g>
																			</g>
																		</g>
																	</g>
																</g>
															</g>
														</g>
													</g>
												</g>
											</g>
										</g>
									</g>
								</g>
								<g>
									<g>
										<g>
											<g>
												<g>
													<g>
														<g>
															<g>
																<g>
																	<g>
																		<g>
																			<g>
																				<g>
																					<g>
																						<g>
																							<g>
																								<g>
																									<path style="fill:#7B4B45;" d="M299.784,169.564c0.084-0.069,0.364,0.223,0.97,0.457
																										c0.592,0.227,1.594,0.349,2.614-0.107c2.07-0.907,3.646-4.379,3.521-7.998
																										c-0.061-1.828-0.549-3.541-1.284-4.941c-0.703-1.428-1.714-2.395-2.792-2.518
																										c-1.075-0.181-1.791,0.504-2.002,1.082c-0.235,0.578-0.082,0.971-0.186,1.01
																										c-0.053,0.054-0.451-0.308-0.34-1.146c0.058-0.404,0.264-0.892,0.712-1.306
																										c0.457-0.42,1.151-0.663,1.899-0.629c1.553,0.013,3.031,1.349,3.839,2.884
																										c0.893,1.537,1.486,3.461,1.554,5.513c0.12,4.047-1.715,7.954-4.562,8.97
																										c-1.387,0.454-2.59,0.102-3.226-0.334C299.85,170.046,299.717,169.604,299.784,169.564z"/>
																								</g>
																							</g>
																						</g>
																					</g>
																				</g>
																			</g>
																		</g>
																	</g>
																</g>
															</g>
														</g>
													</g>
												</g>
											</g>
										</g>
									</g>
								</g>
							</g>
						</g>
					</g>
					<g>
						<g>
							<g>
								<path style="fill:#263238;" d="M298.38,146.815l-5.799,5.838c-21.993-21.051-64.975-73.76-62.575-70.62
									c0,0,15.066-6.196,31.42-3.411c16.353,2.786,47.372,10.971,46.896,30.259C307.846,128.168,298.38,146.815,298.38,146.815z"
									/>
							</g>
						</g>
					</g>
					<g>
						<g>
							<g>
								<g>
									<path style="fill:#E0E0E0;" d="M297.205,197.3c-0.055,0.065,0.454,0.688,1.665,1.463c1.201,0.775,3.159,1.637,5.747,1.941
										c2.562,0.269,5.806-0.063,8.868-1.798c3.083-1.694,5.61-4.969,6.666-8.849c1.044-3.884,0.512-7.987-1.297-11.005
										c-1.77-3.042-4.406-4.963-6.754-6.022c-2.389-1.041-4.514-1.283-5.942-1.219c-1.436,0.059-2.19,0.341-2.175,0.424
										c-0.021,0.332,3.249-0.359,7.607,1.856c2.111,1.11,4.426,2.969,5.927,5.713c1.531,2.705,1.958,6.331,1.028,9.818
										c-0.954,3.48-3.15,6.395-5.835,7.96c-2.679,1.614-5.616,2.053-7.998,1.948C299.831,199.249,297.355,197.002,297.205,197.3z
										"/>
								</g>
							</g>
						</g>
					</g>
				</g>
				<g>
					<g>
						<g>
							<path style="fill:#455A64;" d="M326.801,142.944c0.034-0.011-0.072-0.408-0.307-1.16c-0.24-0.748-0.669-1.833-1.367-3.16
								c-1.394-2.639-4.06-6.211-8.377-9.426c-4.253-3.302-10.15-5.997-16.867-8.113c-6.705-2.185-14.264-3.88-21.683-7.065
								c-7.469-3.066-14.127-7.02-19.805-11.092c-5.66-4.115-10.332-8.382-13.978-12.22c-3.646-3.843-6.297-7.225-8.083-9.592
								c-0.82-1.127-1.486-2.042-2.011-2.764c-0.465-0.629-0.724-0.951-0.754-0.932c-0.03,0.019,0.171,0.379,0.581,1.046
								c0.419,0.661,1.011,1.658,1.859,2.882c1.694,2.449,4.272,5.92,7.878,9.856c3.604,3.93,8.267,8.293,13.951,12.489
								c5.702,4.154,12.417,8.176,19.967,11.276c7.517,3.224,15.129,4.9,21.792,7.019c6.688,2.055,12.492,4.629,16.721,7.795
								c4.29,3.081,6.981,6.502,8.461,9.038C326.249,141.379,326.697,142.982,326.801,142.944z"/>
						</g>
					</g>
				</g>
				<g>
					<g>
						<g>
							<path style="fill:#455A64;" d="M320.967,146.099c0,0,0.203-1.642-0.778-4.381c-0.935-2.718-3.307-6.412-7.532-9.438
								c-4.186-3.126-10.16-5.058-16.727-6.557c-6.594-1.455-13.749-3.316-20.786-6.596c-7.025-3.254-13.328-7.196-18.531-11.439
								c-5.232-4.212-9.452-8.586-12.704-12.487c-3.294-3.88-5.501-7.37-7.083-9.736c-0.69-1.14-1.252-2.069-1.699-2.807
								c-0.399-0.637-0.623-0.965-0.654-0.948c-0.031,0.017,0.132,0.376,0.473,1.047c0.404,0.766,0.913,1.73,1.538,2.914
								c1.483,2.441,3.614,6.017,6.863,9.99c3.208,3.993,7.416,8.464,12.671,12.763c5.226,4.329,11.59,8.345,18.7,11.638
								c7.106,3.317,14.421,5.187,20.998,6.584c6.557,1.444,12.407,3.269,16.521,6.227c4.164,2.872,6.554,6.383,7.579,8.989
								C320.886,144.484,320.831,146.122,320.967,146.099z"/>
						</g>
					</g>
				</g>
			</g>
			<g style="opacity:0.3;">
				<g>
					<path d="M338.839,341.118c-0.514-1.643-1.257-3.349-2.717-4.26c-2.173-1.356-5.141-0.397-7.014,1.351
						c-1.873,1.747-3.005,4.124-4.462,6.232c-4.594,6.642-12.857,10.561-20.907,9.915c-5.631-0.452-10.944-2.942-16.574-3.414
						c-6.701-0.561-14.436,1.198-20.759,3.489l0.409,13.238c-0.256,2.594,2.796,3.637,5.394,3.427
						c2.598-0.21,5.314-1.223,7.714-0.207c1.638,0.693,2.756,2.195,3.982,3.483c5.862,6.158,15.904,7.839,23.452,3.926
						c2.927-1.517,5.568-3.8,8.819-4.349c2.984-0.505,6.052,0.542,9.053,0.147c3.914-0.515,7.122-3.405,9.413-6.62
						C339.993,359.967,341.594,349.917,338.839,341.118z"/>
				</g>
			</g>
			<g style="opacity:0.3;">
				<g>
					<path d="M156.838,262.31c1.764-2.463,2.467-6.155,0.406-8.377c-4.81,4.377-12.655,5.065-16.144,10.554
						c-1.737,2.732-1.993,6.118-2.192,9.349c-1.21,19.565-2.136,39.147-2.778,58.739l0.918,4.998
						c5.587-14.544,11.175-29.089,16.763-43.633c1.487-3.872,2.867-8.601,0.298-11.857c-1.482-1.878-4.014-2.8-5.217-4.869
						c-1.523-2.619-0.288-6.037,1.652-8.364C152.484,266.523,155.074,264.773,156.838,262.31z"/>
				</g>
			</g>
			<g>
				<polygon style="fill:#E0E0E0;" points="112.563,260.046 72.119,350.999 123.564,375.459 152.599,286.345 				"/>
			</g>
			<g>
				<g>
					<path style="fill:#263238;" d="M112.563,260.046c0.004-0.006,0.075,0.031,0.21,0.111c0.155,0.095,0.35,0.215,0.593,0.363
						c0.546,0.346,1.304,0.827,2.271,1.441c1.999,1.292,4.857,3.138,8.421,5.442c7.178,4.688,17.194,11.23,28.679,18.731
						l0.143,0.093l-0.029,0.119c-0.292,1.209-0.654,2.226-0.987,3.348c-0.349,1.099-0.702,2.211-1.059,3.335
						c-0.723,2.243-1.461,4.532-2.208,6.852c-5.288,16.292-10.164,31.01-13.712,41.657c-1.779,5.294-3.223,9.59-4.234,12.597
						c-0.503,1.458-0.897,2.603-1.177,3.416c-0.132,0.367-0.237,0.659-0.319,0.884c-0.075,0.198-0.117,0.298-0.126,0.296
						c-0.008-0.003,0.017-0.109,0.075-0.312c0.069-0.23,0.158-0.527,0.27-0.9c0.258-0.821,0.622-1.976,1.085-3.447
						c0.973-3.02,2.363-7.333,4.077-12.649c3.481-10.7,8.272-25.429,13.566-41.703c0.749-2.319,1.487-4.606,2.211-6.849
						c0.358-1.122,0.712-2.233,1.062-3.331c0.171-0.55,0.341-1.096,0.51-1.639l0.244-0.802l0.106-0.378l0.054-0.188l0.028-0.094
						l0.014-0.047l0.007-0.023l0.004-0.012l0.002-0.006l0.001-0.003l0.191-0.003l-0.076,0.212
						c-11.445-7.562-21.427-14.156-28.58-18.882c-3.53-2.357-6.36-4.246-8.339-5.568c-0.948-0.644-1.69-1.149-2.224-1.512
						c-0.233-0.164-0.42-0.296-0.569-0.4C112.621,260.102,112.558,260.052,112.563,260.046z"/>
				</g>
			</g>
			<g>
				<g>
					<path style="fill:#263238;" d="M133.176,357.072c-0.072-0.015,0.153-1.372,0.539-3.558c0.402-2.325,0.914-5.278,1.479-8.544
						c0.522-3.274,0.995-6.234,1.366-8.564c0.343-2.193,0.568-3.549,0.642-3.54c0.036,0.004,0.027,0.349-0.019,0.97
						c-0.045,0.62-0.133,1.516-0.258,2.62c-0.249,2.209-0.661,5.253-1.217,8.6c-0.557,3.346-1.153,6.359-1.632,8.53
						c-0.239,1.085-0.446,1.961-0.604,2.563C133.314,356.75,133.211,357.079,133.176,357.072z"/>
				</g>
			</g>
			<g>
				<g>
					<path style="fill:#263238;" d="M162.293,287.359c0.009-0.001,0.032,0.101,0.07,0.303c0.039,0.23,0.09,0.527,0.154,0.898
						c0.125,0.791,0.321,1.957,0.531,3.464c0.187,1.522,0.414,3.367,0.676,5.502c0.226,2.155,0.483,4.601,0.767,7.301
						c1.073,10.826,2.302,25.802,3.605,42.345c1.303,16.548,2.474,31.528,3.453,42.358c0.255,2.702,0.486,5.149,0.69,7.304
						c0.228,2.138,0.425,3.984,0.588,5.508c0.185,1.481,0.331,2.644,0.434,3.473c0.042,0.375,0.076,0.673,0.102,0.905
						c0.02,0.204,0.026,0.31,0.017,0.311c-0.009,0.002-0.032-0.101-0.07-0.303c-0.039-0.23-0.09-0.526-0.154-0.898
						c-0.125-0.791-0.321-1.957-0.531-3.464c-0.187-1.522-0.414-3.367-0.676-5.502c-0.226-2.155-0.483-4.6-0.767-7.301
						c-1.073-10.826-2.303-25.803-3.606-42.352c-1.303-16.543-2.473-31.521-3.452-42.351c-0.255-2.702-0.486-5.149-0.69-7.305
						c-0.228-2.138-0.425-3.984-0.588-5.508c-0.185-1.481-0.331-2.644-0.434-3.473c-0.042-0.375-0.076-0.673-0.102-0.905
						C162.29,287.466,162.284,287.36,162.293,287.359z"/>
				</g>
			</g>
			<g>
				<g>
					<path style="fill:#263238;" d="M266.268,352.571c-0.008,0.004-0.08-0.109-0.214-0.334c-0.144-0.249-0.336-0.582-0.582-1.007
						c-0.515-0.916-1.251-2.223-2.192-3.895c-1.897-3.418-4.619-8.322-7.977-14.371c-6.703-12.18-15.94-28.966-26.144-47.507
						c-4.909-8.964-9.593-17.518-13.852-25.295l-0.133-0.243l0.259-0.098c3.503-1.328,6.845-2.594,10.017-3.797l-0.043,0.395
						c-6.347-4.185-11.923-7.861-16.501-10.88l-0.148-0.098l0.108-0.139c3.346-4.317,6.004-7.745,7.843-10.118
						c0.905-1.152,1.608-2.046,2.104-2.676c0.23-0.286,0.412-0.51,0.551-0.682c0.126-0.152,0.193-0.226,0.199-0.222
						s-0.049,0.089-0.162,0.25c-0.13,0.178-0.299,0.412-0.515,0.709c-0.479,0.642-1.159,1.554-2.035,2.728
						c-1.811,2.395-4.428,5.854-7.723,10.21l-0.04-0.237c4.596,2.992,10.194,6.635,16.565,10.782l0.366,0.238l-0.409,0.157
						c-3.168,1.213-6.506,2.491-10.004,3.831l0.126-0.341c4.269,7.772,8.965,16.319,13.885,25.277
						c10.151,18.569,19.342,35.382,26.01,47.581c3.296,6.082,5.969,11.013,7.832,14.451c0.904,1.692,1.611,3.015,2.106,3.942
						c0.226,0.435,0.404,0.777,0.536,1.031C266.219,352.445,266.276,352.566,266.268,352.571z"/>
				</g>
			</g>
			<g>
				<g>
					<path style="fill:#263238;" d="M266.268,352.571c-0.008-0.004,0.042-0.13,0.148-0.372c0.119-0.264,0.278-0.618,0.481-1.071
						c0.445-0.962,1.081-2.337,1.894-4.095c1.677-3.572,4.084-8.696,7.052-15.018c6.01-12.681,14.294-30.158,23.444-49.462
						c4.512-9.469,8.813-18.496,12.716-26.687l0.132,0.328c-3.498-1.34-6.836-2.618-10.004-3.831l-0.408-0.156l0.365-0.238
						c6.371-4.146,11.969-7.79,16.566-10.782l-0.04,0.236c-3.297-4.358-5.913-7.817-7.725-10.211
						c-0.876-1.174-1.556-2.086-2.035-2.728c-0.216-0.297-0.385-0.531-0.515-0.709c-0.114-0.161-0.168-0.245-0.162-0.249
						s0.073,0.07,0.199,0.222c0.138,0.171,0.32,0.396,0.55,0.682c0.495,0.629,1.198,1.524,2.103,2.676
						c1.839,2.373,4.496,5.801,7.844,10.12l0.108,0.139l-0.148,0.097c-4.578,3.019-10.155,6.696-16.501,10.88l-0.043-0.393
						c3.172,1.202,6.515,2.469,10.017,3.797l0.244,0.092l-0.112,0.236c-3.892,8.196-8.182,17.229-12.681,26.704
						c-9.203,19.278-17.536,36.732-23.582,49.396c-3.031,6.292-5.489,11.392-7.202,14.947c-0.851,1.74-1.516,3.1-1.982,4.053
						c-0.223,0.443-0.397,0.79-0.527,1.048C266.342,352.456,266.276,352.575,266.268,352.571z"/>
				</g>
			</g>
			<g>
				<path style="fill:#455A64;" d="M237.549,230.421c0,0,25.031,46.739,61.198-0.056l-32.885,100.441L237.549,230.421z"/>
			</g>
			<g>
				<g>
					<path style="fill:#263238;" d="M274.003,453.364c-0.009,0.001-0.029-0.105-0.061-0.312c-0.032-0.236-0.074-0.54-0.126-0.923
						c-0.104-0.847-0.25-2.038-0.436-3.554c-0.352-3.126-0.855-7.587-1.475-13.086c-1.189-11.056-2.737-26.343-3.941-43.271
						c-1.196-16.934-1.75-32.295-1.976-43.413c-0.107-5.559-0.164-10.059-0.164-13.168c0.001-1.528,0.002-2.727,0.003-3.581
						c0.006-0.386,0.01-0.693,0.014-0.931c0.006-0.21,0.014-0.317,0.023-0.317c0.009,0,0.019,0.107,0.031,0.317
						c0.01,0.238,0.022,0.545,0.038,0.931c0.023,0.853,0.054,2.052,0.095,3.579c0.079,3.143,0.191,7.631,0.33,13.162
						c0.32,11.112,0.932,26.461,2.128,43.386c1.203,16.918,2.693,32.206,3.788,43.27c0.551,5.506,0.997,9.973,1.31,13.103
						c0.144,1.521,0.258,2.715,0.339,3.565c0.031,0.385,0.056,0.691,0.075,0.928C274.009,453.256,274.012,453.363,274.003,453.364z"
						/>
				</g>
			</g>
			<g style="opacity:0.3;">
				<polygon points="316.769,242.617 318.742,245.02 308.668,251.76 318.45,255.331 273.849,336.634 312.219,255.969 
					302.209,252.156 				"/>
			</g>
			<g>
				<g>
					<path style="fill:#263238;" d="M346.084,276.688c0.009,0,0.017,0.127,0.024,0.374c0.004,0.273,0.01,0.637,0.017,1.098
						c0.004,0.996,0.008,2.412,0.015,4.221c-0.014,3.696-0.035,8.992-0.061,15.524c-0.084,13.108-0.259,31.215-0.575,51.212
						c-0.313,20.004-0.716,38.11-1.13,51.213c-0.215,6.551-0.397,11.852-0.576,15.513c-0.089,1.807-0.158,3.221-0.207,4.216
						c-0.028,0.46-0.05,0.823-0.067,1.096c-0.018,0.247-0.032,0.373-0.041,0.373c-0.009,0-0.013-0.127-0.013-0.375
						c0.004-0.273,0.009-0.636,0.015-1.098c0.026-0.995,0.062-2.41,0.109-4.219c0.098-3.694,0.238-8.987,0.411-15.516
						c0.32-13.103,0.665-31.208,0.978-51.211c0.284-19.984,0.541-38.076,0.727-51.208c0.095-6.531,0.173-11.826,0.227-15.522
						c0.036-1.809,0.064-3.225,0.083-4.22c0.014-0.461,0.026-0.824,0.034-1.097C346.065,276.815,346.075,276.688,346.084,276.688z"
						/>
				</g>
			</g>
			<g>
				<g>
					<g>
						<path style="fill:#263238;" d="M233.776,337.945c-0.005-0.005-0.01-0.08-0.015-0.221c-0.004-0.165-0.009-0.369-0.016-0.621
							c-0.009-0.574-0.021-1.367-0.037-2.382c-0.02-2.093-0.049-5.095-0.085-8.879l0.154,0.154
							c-11.14,0.024-29.19,0.063-49.554,0.106c0.115-0.116-0.262,0.26,0.257-0.26v0.003v0.006v0.012v0.024v0.049v0.097v0.194v0.388
							v0.774l0,1.541c0,1.024-0.001,2.041-0.001,3.051c-0.001,2.02-0.003,4.009-0.004,5.963l-0.255-0.255
							c14.078,0.046,26.424,0.086,35.289,0.115c4.414,0.031,7.959,0.056,10.44,0.073c1.204,0.014,2.148,0.026,2.826,0.034
							c0.303,0.007,0.547,0.012,0.74,0.017C233.682,337.934,233.77,337.939,233.776,337.945c0.006,0.006-0.072,0.011-0.23,0.017
							c-0.185,0.004-0.418,0.01-0.708,0.017c-0.665,0.008-1.59,0.019-2.77,0.034c-2.466,0.017-5.992,0.042-10.381,0.073
							c-8.91,0.029-21.319,0.069-35.468,0.115l-0.255,0.001l0-0.256c-0.001-1.954-0.003-3.944-0.004-5.963
							c0-1.01-0.001-2.027-0.001-3.051l0-1.541l0-0.774v-0.388v-0.194v-0.097v-0.049v-0.024v-0.012v-0.006v-0.003
							c0.521-0.521,0.146-0.144,0.263-0.26c20.364,0.044,38.414,0.082,49.554,0.106l0.156,0l-0.001,0.154
							c-0.036,3.823-0.065,6.856-0.085,8.97c-0.016,1-0.028,1.782-0.037,2.347c-0.007,0.242-0.012,0.437-0.016,0.594
							C233.786,337.885,233.781,337.95,233.776,337.945z"/>
					</g>
				</g>
				<g style="opacity:0.3;">
					<path d="M186.937,337.945c0,0,23.139,9.102,44.426,0H186.937z"/>
				</g>
				<g>
					<path style="fill:#455A64;" d="M222.903,307.566h-0.307c-2.04,0-3.693,1.654-3.693,3.693v14.582h7.694V311.26
						C226.596,309.22,224.943,307.566,222.903,307.566z"/>
				</g>
				<g>
					<path style="fill:#455A64;" d="M224.749,344.138h-0.154c-1.02,0-1.847-0.827-1.847-1.847v-20.549h3.847v20.549
						C226.596,343.311,225.769,344.138,224.749,344.138z"/>
				</g>
				<g>
					<g>
						<path style="fill:#263238;" d="M226.822,346.944c0.036-0.001,0.08,0.462,0.129,1.3c0.046,0.838,0.09,2.053,0.115,3.554
							c0.047,3.002-0.004,7.153-0.289,11.727c-0.141,2.288-0.325,4.464-0.528,6.439c-0.223,1.96-0.326,3.787-0.948,5.222
							c-0.592,1.45-1.688,2.271-2.494,2.549c-0.409,0.144-0.747,0.179-0.972,0.17c-0.225-0.006-0.341-0.036-0.339-0.051
							c-0.004-0.056,0.483,0.018,1.236-0.307c0.737-0.32,1.717-1.124,2.228-2.5c0.545-1.36,0.616-3.16,0.811-5.129
							c0.177-1.973,0.345-4.144,0.486-6.425c0.284-4.561,0.393-8.699,0.441-11.695c0.02-1.418,0.037-2.607,0.051-3.55
							C226.762,347.409,226.787,346.944,226.822,346.944z"/>
					</g>
				</g>
				<g>
					<g>
						<path style="fill:#263238;" d="M216.873,367.897c-0.144-0.001-0.241-4.021-0.217-8.979c0.024-4.959,0.16-8.978,0.304-8.977
							s0.241,4.02,0.217,8.979C217.152,363.878,217.016,367.898,216.873,367.897z"/>
					</g>
				</g>
			</g>
		</g>
		<g>
			<g>
				<g>
					<g>
						<g>
							<g>
								<path style="fill:#FF725E;" d="M276.56,288.19c2.88-1.74,5.945-3.06,9.107-3.958l1.876-9.015l15.231-0.267l2.192,8.942
									c3.192,0.786,6.302,1.997,9.242,3.636l3.81-5.086l3.888,0.041l10.959,10.581l-4.771,7.868
									c1.741,2.881,3.06,5.948,3.958,9.11l9.014,1.876l0.268,15.231l-8.943,2.192c-0.786,3.191-1.997,6.301-3.635,9.24
									l5.045,7.698l-10.58,10.959l-4.148-0.198l-3.722-4.573c-2.88,1.74-5.946,3.06-9.109,3.957l-1.876,9.015l-15.23,0.267
									l-2.192-8.943c-3.191-0.787-6.301-1.998-9.241-3.636l-7.698,5.046l-3.888-0.041l-7.071-10.54l4.771-7.869
									c-1.74-2.88-3.061-5.946-3.958-9.109l-9.014-1.876l-0.267-15.23l8.943-2.193c0.786-3.191,1.998-6.301,3.635-9.24
									l-5.045-7.698l6.692-11l3.888,0.041L276.56,288.19L276.56,288.19z M284.679,308.479c-6.269,6.493-6.087,16.838,0.406,23.106
									c6.493,6.269,16.838,6.087,23.106-0.406c6.268-6.493,6.087-16.838-0.406-23.106
									C301.292,301.805,290.947,301.987,284.679,308.479z"/>
							</g>
						</g>
					</g>
					<g style="opacity:0.3;">
						<g>
							<g>
								<path d="M276.56,288.19c2.88-1.74,5.945-3.06,9.107-3.958l1.876-9.015l15.231-0.267l2.192,8.942
									c3.192,0.786,6.302,1.997,9.242,3.636l3.81-5.086l3.888,0.041l10.959,10.581l-4.771,7.868
									c1.741,2.881,3.06,5.948,3.958,9.11l9.014,1.876l0.268,15.231l-8.943,2.192c-0.786,3.191-1.997,6.301-3.635,9.24
									l5.045,7.698l-10.58,10.959l-4.148-0.198l-3.722-4.573c-2.88,1.74-5.946,3.06-9.109,3.957l-1.876,9.015l-15.23,0.267
									l-2.192-8.943c-3.191-0.787-6.301-1.998-9.241-3.636l-7.698,5.046l-3.888-0.041l-7.071-10.54l4.771-7.869
									c-1.74-2.88-3.061-5.946-3.958-9.109l-9.014-1.876l-0.267-15.23l8.943-2.193c0.786-3.191,1.998-6.301,3.635-9.24
									l-5.045-7.698l6.692-11l3.888,0.041L276.56,288.19L276.56,288.19z M284.679,308.479c-6.269,6.493-6.087,16.838,0.406,23.106
									c6.493,6.269,16.838,6.087,23.106-0.406c6.268-6.493,6.087-16.838-0.406-23.106
									C301.292,301.805,290.947,301.987,284.679,308.479z"/>
							</g>
						</g>
					</g>
				</g>
				<g>
					<g>
						<path style="fill:#FF725E;" d="M272.672,288.149c2.88-1.74,5.945-3.06,9.107-3.958l1.876-9.015l15.231-0.267l2.192,8.942
							c3.192,0.786,6.302,1.997,9.242,3.636l7.698-5.046l10.959,10.581l-4.771,7.868c1.741,2.881,3.06,5.948,3.958,9.11l9.014,1.876
							l0.268,15.231l-8.942,2.192c-0.787,3.191-1.998,6.301-3.636,9.24l5.045,7.698l-10.58,10.959l-7.87-4.772
							c-2.88,1.741-5.947,3.06-9.109,3.958l-1.876,9.015l-15.23,0.267l-2.192-8.943c-3.192-0.787-6.301-1.998-9.241-3.636
							l-7.698,5.046l-10.959-10.581l4.771-7.869c-1.741-2.88-3.061-5.946-3.958-9.109l-9.014-1.876l-0.267-15.23l8.943-2.193
							c0.787-3.191,1.998-6.301,3.635-9.24l-5.045-7.698l10.58-10.959L272.672,288.149L272.672,288.149z M280.791,308.439
							c-6.269,6.493-6.087,16.838,0.406,23.107c6.493,6.269,16.838,6.087,23.106-0.406c6.268-6.493,6.087-16.838-0.406-23.106
							C297.404,301.764,287.059,301.946,280.791,308.439z"/>
					</g>
				</g>
				<g>
					<g>
						<path style="fill:#263238;" d="M332.864,293.083c0,0.144-0.871,0.26-1.945,0.26c-1.074,0-1.945-0.117-1.945-0.26
							c0-0.144,0.871-0.26,1.945-0.26C331.993,292.822,332.864,292.939,332.864,293.083z"/>
					</g>
				</g>
				<g>
					<g>
						<path style="fill:#263238;" d="M328.214,300.832c-0.001,0.144-0.842,0.253-1.878,0.243c-1.036-0.01-1.874-0.134-1.873-0.278
							c0.001-0.144,0.842-0.253,1.878-0.243C327.377,300.564,328.215,300.688,328.214,300.832z"/>
					</g>
				</g>
				<g>
					<g>
						<path style="fill:#263238;" d="M340.619,311.931c0.008,0.144-0.761,0.302-1.717,0.354c-0.956,0.052-1.737-0.023-1.745-0.166
							c-0.008-0.144,0.761-0.302,1.717-0.353C339.83,311.713,340.611,311.788,340.619,311.931z"/>
					</g>
				</g>
				<g>
					<g>
						<path style="fill:#263238;" d="M340.522,327.176c-0.004,0.144-0.718,0.239-1.594,0.213c-0.876-0.026-1.583-0.164-1.579-0.308
							c0.004-0.144,0.718-0.239,1.594-0.213C339.819,326.895,340.526,327.033,340.522,327.176z"/>
					</g>
				</g>
				<g>
					<g>
						<path style="fill:#263238;" d="M328.787,338.768c-0.014,0.143-0.845,0.177-1.854,0.075c-1.01-0.102-1.816-0.3-1.802-0.443
							s0.844-0.177,1.854-0.075C327.995,338.427,328.801,338.625,328.787,338.768z"/>
					</g>
				</g>
				<g>
					<g>
						<path style="fill:#263238;" d="M333.598,346.215c0.004,0.144-0.833,0.282-1.868,0.308c-1.036,0.026-1.878-0.069-1.882-0.212
							c-0.004-0.144,0.833-0.282,1.868-0.308C332.752,345.976,333.594,346.071,333.598,346.215z"/>
					</g>
				</g>
				<g>
					<g>
						<path style="fill:#263238;" d="M306.19,356.648c-0.025,0.144-0.906,0.11-1.98,0.043c-1.074-0.071-1.952-0.151-1.958-0.297
							c-0.007-0.141,0.887-0.296,1.992-0.223C305.349,356.241,306.215,356.509,306.19,356.648z"/>
					</g>
				</g>
				<g>
					<g>
						<path style="fill:#263238;" d="M305.138,284.024c-0.004,0.144-0.846,0.239-1.882,0.212c-1.036-0.026-1.872-0.165-1.868-0.308
							c0.004-0.144,0.846-0.239,1.882-0.212C304.305,283.742,305.141,283.881,305.138,284.024z"/>
					</g>
				</g>
				<g>
					<g>
						<path style="fill:#FFFFFF;" d="M264.354,285.911c0.1,0.103-1.715,2.029-4.054,4.301c-2.34,2.273-4.317,4.031-4.417,3.928
							c-0.1-0.103,1.715-2.029,4.055-4.302C262.276,287.567,264.254,285.808,264.354,285.911z"/>
					</g>
				</g>
				<g>
					<g>
						<path style="fill:#FFFFFF;" d="M285.818,302.245c0.045,0.105-1.767,0.606-4.202,2.29c-2.415,1.643-5.395,4.696-6.906,8.949
							c-1.499,4.258-1.101,8.507-0.256,11.303c0.835,2.84,1.929,4.368,1.827,4.422c-0.024,0.016-0.309-0.35-0.739-1.07
							c-0.432-0.718-0.971-1.815-1.44-3.244c-0.953-2.823-1.429-7.191,0.117-11.585c1.559-4.387,4.676-7.484,7.191-9.08
							c1.264-0.817,2.373-1.331,3.16-1.617C285.357,302.323,285.809,302.218,285.818,302.245z"/>
					</g>
				</g>
				<g>
					<g>
						<path style="fill:#FFFFFF;" d="M292.447,301.444c0.009,0.144-0.513,0.293-1.166,0.334c-0.653,0.041-1.19-0.043-1.198-0.186
							c-0.009-0.143,0.513-0.293,1.166-0.334C291.901,301.217,292.438,301.3,292.447,301.444z"/>
					</g>
				</g>
				<g>
					<g>
						<path style="fill:#FFFFFF;" d="M283.967,277.794c0.143,0.016,0.127,1.223-0.036,2.697c-0.163,1.474-0.411,2.655-0.554,2.64
							c-0.143-0.016-0.127-1.223,0.036-2.697C283.576,278.96,283.824,277.778,283.967,277.794z"/>
					</g>
				</g>
				<g>
					<g>
						<path style="fill:#FFFFFF;" d="M316.071,284.427c0.092,0.111-0.594,0.83-1.531,1.607c-0.938,0.777-1.772,1.316-1.864,1.206
							c-0.092-0.111,0.594-0.83,1.531-1.607C315.145,284.856,315.979,284.316,316.071,284.427z"/>
					</g>
				</g>
				<g>
					<g>
						<path style="fill:#FFFFFF;" d="M335.171,313.633c-0.033,0.14-1.255-0.028-2.728-0.375c-1.474-0.347-2.642-0.742-2.609-0.882
							c0.033-0.14,1.254,0.028,2.728,0.375C334.035,313.099,335.203,313.493,335.171,313.633z"/>
					</g>
				</g>
				<g>
					<g>
						<path style="fill:#FFFFFF;" d="M253.296,313.281c0.083,0.106-0.926,0.913-2.453,1.215c-1.524,0.314-2.768-0.036-2.732-0.167
							c0.022-0.152,1.215-0.049,2.629-0.344C252.157,313.708,253.217,313.15,253.296,313.281z"/>
					</g>
				</g>
				<g>
					<g>
						<path style="fill:#FFFFFF;" d="M259.493,341.933c0.128,0.066-0.327,1.191-1.015,2.512c-0.455,0.874-0.898,1.615-1.179,1.989
							l-0.222-0.145c0.187-0.17,0.309-0.249,0.348-0.219c0.038,0.031-0.014,0.167-0.14,0.386l-0.624,1.081l0.402-1.226
							c0.146-0.445,0.499-1.233,0.954-2.107C258.705,342.884,259.366,341.867,259.493,341.933z"/>
					</g>
				</g>
				<g>
					<g>
						<path style="fill:#FFFFFF;" d="M286.913,363.823c-0.138,0.04-0.629-1.223-1.096-2.82c-0.467-1.598-0.734-2.926-0.596-2.967
							c0.138-0.04,0.629,1.222,1.096,2.821C286.784,362.454,287.051,363.782,286.913,363.823z"/>
					</g>
				</g>
			</g>
			<g>
				<g>
					<path style="fill:#A26760;" d="M338.333,308.877c0,0-3.078-5.959-7.406-6.372c-4.328-0.413-44.807,10.577-44.807,10.577
						s0.941,5.899,5.454,5.671c4.513-0.229,14.827-2.747,14.827-2.747l-19.002,8.075c0,0,3.029,7.335,10.967,5.105
						c7.938-2.23,21.71-4.933,21.71-4.933l-24.871,10.919c0,0,1.838,6.644,8.428,4.512c6.59-2.132,14.948-3.007,14.948-3.007
						l-15.506,6.913c0,0,0.516,5.568,7.47,4.584c6.954-0.985,19.6-3.163,19.6-3.163s3.777,6.703,8.64,12.217
						c10.799,12.244,17.14,5.004,17.14,5.004l9.787,3.512c0.385-2.04,5.482-33.318,5.482-33.318l-19.375-2.458
						c0,0-7.587-16.755-8.916-18.449C341.134,309.263,338.333,308.877,338.333,308.877z"/>
				</g>
				<g>
					<g>
						<path style="fill:#7B4B45;" d="M328.573,309.411c0.042,0.138-5.235,1.856-11.783,3.837
							c-6.551,1.982-11.894,3.476-11.935,3.338c-0.042-0.137,5.234-1.855,11.785-3.837
							C323.187,310.768,328.531,309.274,328.573,309.411z"/>
					</g>
				</g>
				<g>
					<g>
						<path style="fill:#7B4B45;" d="M329.598,320.307c0.014,0.033-0.451,0.276-1.306,0.687c-0.948,0.441-2.172,1.01-3.641,1.694
							c-3.085,1.408-7.362,3.317-12.104,5.383c-4.744,2.067-9.056,3.899-12.197,5.179c-1.57,0.64-2.849,1.141-3.738,1.472
							c-0.893,0.324-1.393,0.484-1.406,0.451c-0.013-0.034,0.462-0.258,1.329-0.639c0.955-0.422,2.189-0.968,3.671-1.623
							c3.193-1.399,7.438-3.26,12.133-5.317c4.706-2.028,8.963-3.863,12.164-5.243c1.497-0.622,2.743-1.141,3.708-1.542
							C329.09,320.455,329.583,320.275,329.598,320.307z"/>
					</g>
				</g>
				<g>
					<g>
						<path style="fill:#7B4B45;" d="M336.458,330.614c0.047,0.136-4.107,1.693-9.276,3.478c-5.171,1.785-9.4,3.122-9.447,2.986
							c-0.047-0.136,4.106-1.693,9.277-3.478C332.181,331.815,336.411,330.478,336.458,330.614z"/>
					</g>
				</g>
				<g>
					<g>
						<path style="fill:#7B4B45;" d="M339.34,342.93c0.053,0.124-2.079,1.108-4.888,1.762c-2.808,0.665-5.155,0.732-5.162,0.597
							c-0.014-0.152,2.279-0.45,5.043-1.104C337.099,343.541,339.285,342.787,339.34,342.93z"/>
					</g>
				</g>
			</g>
			<g>
				<g>
					<path style="fill:#7B4B45;" d="M358.099,343.486c-1.113-2.326-3.35-7.004-6.639-13.882c-3.274-6.877-5.5-11.552-6.608-13.877
						c0.243-0.198,3.412,5.99,7.077,13.653C355.591,337.051,358.391,343.386,358.099,343.486z"/>
				</g>
			</g>
		</g>
		<g>
			<g>
				<polygon style="fill:#455A64;" points="179.956,180.665 147.741,245.831 154.501,248.801 185.81,182.857 				"/>
			</g>
			<g>
				<g>
					<g>
						<circle style="fill:#A26760;" cx="195.82" cy="152.001" r="33.671"/>
					</g>
					<g>
						<g>
							<path style="fill:#263238;" d="M229.454,153.563c-0.09-0.004-0.181-0.748-0.271-2.144c-0.02-0.351-0.043-0.74-0.067-1.169
								c-0.042-0.428-0.13-0.894-0.198-1.398c-0.146-1.009-0.274-2.175-0.631-3.449c-0.528-2.58-1.647-5.638-3.431-8.893
								c-1.801-3.243-4.423-6.651-8.036-9.593c-3.603-2.915-8.172-5.451-13.506-6.614c-1.34-0.242-2.687-0.576-4.097-0.638
								c-0.701-0.052-1.405-0.15-2.117-0.167c-0.714,0.008-1.432,0.017-2.157,0.025c-0.361,0.01-0.726-0.008-1.089,0.025
								l-1.09,0.123c-0.728,0.091-1.466,0.144-2.199,0.264c-1.449,0.333-2.945,0.559-4.379,1.091
								c-1.475,0.403-2.872,1.067-4.307,1.679c-0.7,0.342-1.374,0.748-2.069,1.12c-0.707,0.354-1.359,0.807-2.013,1.263
								c-1.357,0.846-2.556,1.929-3.811,2.963c-1.14,1.16-2.339,2.287-3.337,3.614c-2.044,2.59-3.861,5.484-5.025,8.704
								c-1.201,3.198-1.926,6.618-2.138,10.126c-0.115,3.514,0.289,6.987,1.188,10.284c0.859,3.316,2.401,6.366,4.196,9.135
								c0.871,1.414,1.959,2.648,2.988,3.909c1.154,1.146,2.247,2.336,3.52,3.304c0.609,0.515,1.216,1.027,1.888,1.445
								c0.658,0.435,1.291,0.902,1.957,1.307c1.372,0.743,2.702,1.534,4.134,2.072c1.379,0.663,2.848,1.026,4.26,1.492
								c0.719,0.188,1.449,0.309,2.165,0.467l1.074,0.224c0.358,0.067,0.723,0.082,1.082,0.126c0.72,0.076,1.435,0.15,2.145,0.225
								c0.711,0.048,1.421,0.016,2.124,0.029c1.41,0.069,2.783-0.139,4.139-0.256c5.419-0.665,10.204-2.766,14.061-5.336
								c3.87-2.595,6.796-5.746,8.889-8.808c2.078-3.076,3.475-6.017,4.24-8.536c0.473-1.236,0.709-2.385,0.948-3.376
								c0.115-0.496,0.245-0.951,0.327-1.374c0.064-0.424,0.123-0.81,0.175-1.157C229.205,154.29,229.364,153.559,229.454,153.563
								c0.09,0.004,0.106,0.745,0.053,2.167c-0.016,0.358-0.034,0.756-0.053,1.193c-0.042,0.437-0.133,0.909-0.21,1.424
								c-0.163,1.029-0.328,2.227-0.738,3.525c-0.639,2.641-1.942,5.756-3.995,9.046c-2.068,3.275-5.04,6.679-9.057,9.52
								c-4.003,2.814-9.043,5.152-14.81,5.96c-1.443,0.152-2.908,0.39-4.412,0.344c-0.75-0.002-1.508,0.04-2.269,0
								c-0.76-0.068-1.525-0.137-2.296-0.207c-0.385-0.042-0.775-0.056-1.159-0.122l-1.154-0.223
								c-0.77-0.158-1.554-0.282-2.327-0.474c-1.521-0.476-3.101-0.857-4.592-1.549c-1.543-0.566-2.984-1.395-4.465-2.186
								c-0.72-0.43-1.408-0.923-2.118-1.387c-0.725-0.447-1.384-0.989-2.044-1.538c-1.376-1.035-2.567-2.302-3.814-3.534
								c-1.121-1.347-2.296-2.675-3.247-4.193c-1.954-2.976-3.624-6.268-4.566-9.847c-0.982-3.56-1.424-7.317-1.296-11.108
								c0.224-3.785,1.013-7.484,2.321-10.936c1.271-3.475,3.238-6.597,5.459-9.378c1.087-1.423,2.38-2.636,3.621-3.873
								c1.355-1.11,2.659-2.261,4.124-3.164c0.708-0.485,1.415-0.965,2.178-1.342c0.751-0.396,1.481-0.823,2.237-1.184
								c1.548-0.65,3.059-1.342,4.647-1.763c1.548-0.55,3.156-0.784,4.715-1.116c0.787-0.12,1.58-0.171,2.361-0.257l1.169-0.115
								c0.389-0.03,0.779-0.008,1.165-0.014c0.774,0.002,1.543,0.005,2.305,0.007c0.761,0.03,1.512,0.142,2.259,0.21
								c1.502,0.093,2.938,0.466,4.361,0.751c5.667,1.337,10.469,4.133,14.194,7.305c3.737,3.201,6.381,6.865,8.137,10.318
								c1.74,3.466,2.749,6.689,3.141,9.378c0.288,1.33,0.342,2.538,0.408,3.578c0.029,0.52,0.076,0.999,0.077,1.437
								c-0.021,0.437-0.04,0.835-0.058,1.193C229.629,152.831,229.544,153.567,229.454,153.563z"/>
						</g>
					</g>
				</g>
				<g>
					<g>
						<g>
							<g>
								<g>
									<g>
										<g>
											<g>
												<g>
													<g>
														<g>
															<g>
																<g>
																	<g>
																		<g>
																			<g>
																				<g>
																					<path style="fill:#263238;" d="M206.001,157.761c0.023,3.621-3.024,6.625-6.805,6.718
																						c-3.772,0.094-6.857-2.757-6.881-6.378c-0.022-3.62,3.025-6.629,6.796-6.722
																						C202.893,151.284,205.978,154.141,206.001,157.761z"/>
																				</g>
																			</g>
																		</g>
																	</g>
																</g>
															</g>
														</g>
													</g>
												</g>
											</g>
										</g>
									</g>
								</g>
							</g>
						</g>
					</g>
				</g>
				<g>
					<g>
						<g>
							<g>
								<g>
									<g>
										<g>
											<g>
												<g>
													<g>
														<g>
															<g>
																<g>
																	<g>
																		<g>
																			<g>
																				<g>
																					<g>
																						<path style="fill:#263238;" d="M208.932,140.456c-0.875,0.868-5.952-3.12-13.323-3.316
																							c-7.358-0.3-12.878,3.336-13.65,2.409c-0.382-0.411,0.532-1.998,2.934-3.644
																							c2.368-1.64,6.371-3.185,10.961-3.034c4.59,0.159,8.403,1.962,10.572,3.755
																							C208.64,138.43,209.361,140.067,208.932,140.456z"/>
																					</g>
																				</g>
																			</g>
																		</g>
																	</g>
																</g>
															</g>
														</g>
													</g>
												</g>
											</g>
										</g>
									</g>
								</g>
							</g>
						</g>
					</g>
				</g>
				<g>
					<g>
						<path style="fill:#FFFFFF;" d="M176.828,172.778c-0.181,0.25-2.447-0.921-5.138-3.979c-2.676-3.004-5.595-8.123-6.35-14.392
							c-0.751-6.271,0.875-11.936,2.763-15.488c1.891-3.608,3.815-5.282,4.05-5.082c0.325,0.242-1.024,2.272-2.368,5.832
							c-1.356,3.526-2.539,8.743-1.859,14.427c0.685,5.681,3.068,10.47,5.22,13.575
							C175.295,170.812,177.087,172.466,176.828,172.778z"/>
					</g>
				</g>
				<g>
					<g>
						<path style="fill:#FFFFFF;" d="M185.681,178.408c-0.056,0.351-0.394,0.636-0.939,0.731c-0.54,0.098-1.281-0.015-1.974-0.404
							c-0.693-0.389-1.176-0.963-1.374-1.475c-0.203-0.515-0.136-0.952,0.134-1.183c0.574-0.446,1.577-0.123,2.514,0.386
							C184.963,176.998,185.762,177.686,185.681,178.408z"/>
					</g>
				</g>
			</g>
			<g>
				<path style="fill:#A26760;" d="M128.021,241.775c0,0,14.586-32.582,16.584-34.22c1.999-1.637,22.479-16.259,22.479-16.259
					s3.672-0.406,6.103,1.052c1.924,1.154,6.458,8.328,8.266,11.272c0.489,0.796,0.614,1.76,0.345,2.656l-2.378,6.481
					c0,0,2.475,3.911,1.772,6.631c-0.703,2.72-2.314,5.029-2.314,5.029s2.177,3.968,0.656,7.742
					c-1.521,3.774-5.668,5.308-5.668,5.308s-1.743,6.739-1.998,8.073c-0.254,1.334-7.686,4.065-8.445,3.837
					c-0.758-0.227-6.032-2.587-6.032-2.587s-2.819,11.02-6.004,13.371c-3.185,2.351-7.24,2.74-7.24,2.74l-2.206,15.864
					l-25.399-16.104L128.021,241.775z"/>
			</g>
			<g>
				<g>
					<path style="fill:#7B4B45;" d="M161.078,233.203c0.055-0.14,2.905,0.884,6.397,2.187c3.49,1.309,6.341,2.305,6.3,2.442
						c-0.04,0.139-2.979-0.64-6.482-1.954C163.792,234.571,161.028,233.331,161.078,233.203z"/>
				</g>
			</g>
			<g>
				<g>
					<path style="fill:#7B4B45;" d="M161.719,219.406c0.016-0.068,1.029,0.098,2.646,0.462c1.617,0.364,3.836,0.934,6.256,1.668
						c2.421,0.735,4.583,1.493,6.129,2.09c1.547,0.596,2.481,1.02,2.456,1.086c-0.026,0.07-1.005-0.233-2.579-0.738
						c-1.574-0.506-3.746-1.206-6.158-1.939c-2.412-0.731-4.606-1.356-6.196-1.81C162.684,219.771,161.702,219.479,161.719,219.406z
						"/>
				</g>
			</g>
			<g>
				<g>
					<path style="fill:#7B4B45;" d="M159.489,208.507c0.003-0.066,1.132-0.081,2.951,0.06c1.818,0.139,4.322,0.461,7.045,1.049
						c2.723,0.591,5.137,1.334,6.849,1.959c1.714,0.624,2.735,1.105,2.711,1.166c-0.028,0.073-1.094-0.285-2.828-0.816
						c-1.733-0.532-4.142-1.213-6.843-1.799c-2.7-0.583-5.175-0.959-6.973-1.191C160.604,208.7,159.484,208.585,159.489,208.507z"/>
				</g>
			</g>
			<g>
				<path style="fill:#455A64;" d="M174.298,210.883c-0.588-1.554-0.737-3.27-0.426-4.902c-1.577,0.099-3.186-0.513-4.298-1.637
					c-1.295,1.408-3.039,3.354-4.334,4.762L174.298,210.883z"/>
			</g>
		</g>
		<g>
			<g>
				<path style="fill:#E0E0E0;" d="M368.534,324.464l54.508-19.122l34.682,32.595c24.23,32.896-3.522,61.195-29.75,56.84
					c-19.322-3.209-71.601-23.944-71.601-23.944L368.534,324.464z"/>
			</g>
			<g>
				<g>
					<path style="fill:#263238;" d="M356.373,370.832c-0.007-0.002,0.005-0.078,0.035-0.224c0.039-0.171,0.088-0.385,0.148-0.649
						c0.148-0.603,0.353-1.438,0.614-2.501c0.563-2.211,1.368-5.37,2.372-9.311c2.069-7.956,4.958-19.061,8.275-31.814l0.058-0.222
						l0.228,0.037c4.444,0.722,9.157,1.488,14.006,2.276c16.374,2.7,31.194,5.144,41.962,6.919c5.339,0.906,9.67,1.641,12.706,2.156
						c1.471,0.261,2.627,0.466,3.45,0.612c0.37,0.071,0.665,0.128,0.895,0.172c0.201,0.042,0.304,0.067,0.302,0.076
						c-0.001,0.009-0.107,0.001-0.311-0.024c-0.232-0.031-0.53-0.071-0.904-0.121c-0.828-0.123-1.988-0.296-3.466-0.516
						c-3.042-0.476-7.383-1.155-12.733-1.992c-10.775-1.737-25.603-4.128-41.987-6.769c-4.848-0.793-9.56-1.564-14.003-2.291
						l0.285-0.185c-3.388,12.735-6.337,23.824-8.451,31.768c-1.065,3.924-1.919,7.07-2.516,9.272
						c-0.296,1.055-0.528,1.882-0.696,2.48c-0.078,0.26-0.141,0.47-0.191,0.638C356.407,370.763,356.38,370.834,356.373,370.832z"/>
				</g>
			</g>
			<g>
				<g>
					<path style="fill:#263238;" d="M433.978,329.962c0.025,0.142-4.851,1.12-10.889,2.186c-6.04,1.066-10.956,1.815-10.981,1.673
						s4.85-1.12,10.89-2.186C429.036,330.569,433.953,329.82,433.978,329.962z"/>
				</g>
			</g>
		</g>
	</g>
</g>
<g id="Device">
	<g>
		<g>
			<path style="fill:#263238;" d="M248.44,460.082H98.349c-3.541,0-6.574-2.533-7.205-6.017L72.559,351.461
				c-0.814-4.493,2.639-8.627,7.205-8.627h150.091c3.54,0,6.574,2.533,7.205,6.017l18.585,102.605
				C256.459,455.948,253.007,460.082,248.44,460.082z"/>
		</g>
		<g>
			<path style="fill:#263238;" d="M327.738,450.279h-86.977v9.803h96.388v-0.392C337.149,454.493,332.936,450.279,327.738,450.279z"
				/>
		</g>
		<g>
			<g>
				<path style="fill:#455A64;" d="M228.277,342.834c0.141-0.028,5.471,26.191,11.903,58.554
					c6.435,32.374,11.535,58.633,11.394,58.661c-0.141,0.028-5.47-26.185-11.904-58.56
					C233.238,369.126,228.136,342.862,228.277,342.834z"/>
			</g>
		</g>
		<g>
			<path style="fill:#455A64;" d="M159.122,403.12c-0.495-2.043-2.415-3.621-4.479-3.834l0.442-0.01
				c-2.887-0.552-5.971,1.88-6.108,4.816c-0.137,2.936,2.707,5.645,5.633,5.364C157.536,409.176,159.814,405.977,159.122,403.12z"/>
		</g>
	</g>
</g>
</svg>
