<svg width="540" height="532" viewBox="0 0 540 532" fill="none" xmlns="http://www.w3.org/2000/svg">
<path d="M167.708 38.886H43.998V240.627H167.708V38.886Z" fill="#E0E0E0"/>
<path d="M163.593 38.886H39.8833V240.627H163.593V38.886Z" fill="#EBEBEB"/>
<path d="M158.326 42.9771H45.1515V236.536H158.326V42.9771Z" fill="white"/>
<path d="M136.29 68.1289H66.6974V211.385H136.29V68.1289Z" fill="#EBEBEB"/>
<path d="M66.6975 160.69C66.5366 147.308 78.7503 134.245 92.2006 132.376C98.6147 131.486 105.43 132.739 111.422 130.319C122.12 125.997 125.524 111.994 136.289 107.842L136.781 211.385H66.6975V160.69Z" fill="#E0E0E0"/>
<path d="M491.239 29.7314V140.747H329.393L323.562 30.5082L491.239 29.7314Z" fill="#E0E0E0"/>
<path d="M323.562 30.5071V140.513H485.408V30.5071L323.562 30.5071Z" fill="white"/>
<path d="M486.176 141.27H322.794V29.7517H486.175V141.27H486.176ZM324.329 139.757H484.64V31.2637H324.329V139.757Z" fill="#E0E0E0"/>
<path d="M467.879 44.175H341.091V126.846H467.879V44.175Z" fill="white"/>
<path d="M467.879 44.1752C467.879 44.1752 467.661 44.189 467.253 44.1964C466.824 44.2018 466.227 44.2082 465.451 44.2177C463.844 44.2273 461.512 44.2422 458.488 44.2614C452.398 44.2837 443.543 44.3167 432.361 44.3582C410.002 44.4018 378.354 44.4635 341.092 44.5359L341.458 44.1741C341.468 69.4324 341.48 97.4199 341.492 126.835V126.845L341.092 126.451C388.92 126.481 433.016 126.509 467.88 126.531L467.561 126.845C467.631 101.686 467.689 81.0587 467.729 66.6947C467.763 59.5149 467.791 53.9065 467.81 50.0612C467.825 48.1609 467.837 46.7032 467.845 45.6903C467.856 44.7008 467.879 44.1752 467.879 44.1752C467.879 44.1752 467.901 44.6561 467.913 45.6254C467.922 46.6245 467.934 48.063 467.949 49.9378C467.967 53.7661 467.995 59.3521 468.03 66.5C468.07 80.9108 468.127 101.606 468.197 126.845L468.198 127.159H467.879C433.015 127.181 388.919 127.209 341.091 127.238H340.691V126.844V126.834C340.703 97.4188 340.714 69.4324 340.725 44.173V43.8113L341.092 43.8123C378.453 43.8847 410.184 43.9464 432.602 43.99C443.749 44.0315 452.575 44.0645 458.646 44.0869C461.638 44.106 463.946 44.1209 465.535 44.1305C466.294 44.1401 466.876 44.1464 467.297 44.1518C467.69 44.1603 467.879 44.1752 467.879 44.1752Z" fill="#E0E0E0"/>
<path d="M323.562 30.1984C323.63 30.1123 324.688 30.7964 326.345 31.9743C328 33.1521 330.255 34.8226 332.69 36.742C335.124 38.6626 337.266 40.4777 338.773 41.8386C340.281 43.1984 341.162 44.0953 341.091 44.1751C340.941 44.3422 337.05 41.1811 332.19 37.357C327.325 33.5383 323.419 30.3783 323.562 30.1984Z" fill="#E0E0E0"/>
<path d="M485.408 30.5081C485.545 30.6784 481.732 33.8768 476.892 37.6508C472.051 41.4258 468.016 44.3465 467.88 44.1752C467.743 44.005 471.555 40.8077 476.397 37.0326C481.235 33.2586 485.271 30.3368 485.408 30.5081Z" fill="#E0E0E0"/>
<path d="M485.28 140.529C479.264 135.726 473.25 130.923 467.234 126.12L485.28 140.529Z" fill="white"/>
<path d="M467.234 126.12C467.373 125.951 471.526 129.04 476.508 133.018C481.492 136.997 485.418 140.36 485.28 140.529C485.14 140.698 480.989 137.609 476.005 133.63C471.023 129.652 467.096 126.289 467.234 126.12Z" fill="#E0E0E0"/>
<path d="M323.562 140.513C323.424 140.343 327.198 137.177 331.988 133.445C336.78 129.711 340.775 126.823 340.911 126.994C341.048 127.164 337.275 130.328 332.484 134.062C327.694 137.795 323.699 140.683 323.562 140.513Z" fill="#E0E0E0"/>
<path d="M366.834 69.9318V97.6128H446.612V69.9318H366.834Z" fill="#E0E0E0"/>
<path d="M245.765 398.557C245.765 393.729 249.517 390.241 254.558 390.241C257.232 390.241 259.53 391.188 261.054 392.944L259.084 394.77C257.889 393.499 256.41 392.875 254.699 392.875C251.299 392.875 248.836 395.231 248.836 398.558C248.836 401.886 251.299 404.242 254.699 404.242C256.41 404.242 257.888 403.618 259.084 402.324L261.054 404.172C259.53 405.928 257.232 406.875 254.535 406.875C249.517 406.875 245.765 403.386 245.765 398.557Z" fill="#EBEBEB"/>
<path d="M229.103 411.229H208.752L208.751 391.179H229.103V411.229ZM209.831 410.165H228.021V392.244H209.83L209.831 410.165Z" fill="#EBEBEB"/>
<path d="M204.872 415.397C204.272 414.947 209.129 407.756 216.616 400.128C224.084 392.478 231.202 387.438 231.68 388.011C232.196 388.614 225.989 394.522 218.641 402.051C211.271 409.557 205.501 415.883 204.872 415.397Z" fill="#E0E0E0"/>
<path d="M232.016 414.996C231.362 415.459 225.811 408.805 218.469 401.099C211.154 393.364 204.787 387.463 205.3 386.851C205.764 386.275 213.06 391.319 220.523 399.208C228.01 407.068 232.631 414.578 232.016 414.996Z" fill="#E0E0E0"/>
<path d="M92.8951 333.17L82.8954 332.471L80.595 336.892L76.7664 336.625L87.1851 317.552L90.8431 317.808L98.4506 338.141L94.5648 337.869L92.8951 333.17ZM91.8734 330.215L88.723 321.338L84.3598 329.689L91.8734 330.215Z" fill="#EBEBEB"/>
<path d="M60.251 337.709L35.6951 335.99L37.4393 311.799L61.9952 313.517L60.251 337.709ZM36.8485 335.005L59.2499 336.572L60.8418 314.503L38.4404 312.935L36.8485 335.005Z" fill="#EBEBEB"/>
<path d="M30.4744 340.846C29.9117 340.36 36.5548 332.115 46.332 323.473C56.0898 314.803 65.111 309.166 65.542 309.768C66.0161 310.408 57.8426 316.974 48.2123 325.533C38.5614 334.061 31.0716 341.378 30.4744 340.846Z" fill="#E0E0E0"/>
<path d="M63.5807 342.672C62.8895 343.093 56.8199 334.425 48.5373 324.393C40.2894 314.327 32.9421 306.682 33.5037 306.103C34.0016 305.564 42.3381 312.419 50.7222 322.649C59.1386 332.847 64.22 342.304 63.5807 342.672Z" fill="#E0E0E0"/>
<path d="M507.226 227.919C508.162 231.177 506.118 233.801 501.157 235.184L491.567 237.859L486.105 218.854L495.144 216.333C499.773 215.042 502.808 216.277 503.674 219.291C504.236 221.246 503.657 222.961 502.395 224.164C504.649 224.239 506.517 225.448 507.226 227.919ZM490.484 220.625L491.989 225.864L497.059 224.45C499.54 223.758 500.696 222.497 500.197 220.76C499.689 218.996 498.033 218.518 495.554 219.211L490.484 220.625ZM503.514 228.573C502.968 226.672 501.265 226.239 498.565 226.993L492.778 228.607L494.354 234.09L500.14 232.476C502.84 231.722 504.061 230.473 503.514 228.573Z" fill="#EBEBEB"/>
<path d="M449.993 251.776L443.287 228.44L466.974 221.833L473.68 245.169L449.993 251.776ZM444.62 229.173L450.737 250.461L472.347 244.434L466.228 223.145L444.62 229.173Z" fill="#EBEBEB"/>
<path d="M446.758 258.09C446.062 257.821 449.464 247.843 455.678 236.441C461.863 225.019 468.402 216.696 469.016 217.119C469.682 217.563 464.261 226.475 458.158 237.749C452.023 249.002 447.503 258.391 446.758 258.09Z" fill="#E0E0E0"/>
<path d="M478.524 248.721C478.02 249.348 469.322 243.229 458.07 236.568C446.84 229.863 437.293 225.134 437.621 224.402C437.904 223.728 448.109 227.384 459.524 234.196C470.957 240.968 478.997 248.161 478.524 248.721Z" fill="#E0E0E0"/>
<path d="M504.627 458.529C504.627 458.682 398.632 458.805 267.91 458.805C137.144 458.805 31.172 458.681 31.172 458.529C31.172 458.375 137.144 458.252 267.91 458.252C398.632 458.251 504.627 458.375 504.627 458.529Z" fill="black"/>
<path d="M365.476 82.1707H88.1194V359.361H365.476V82.1707Z" fill="white"/>
<path d="M365.476 359.361C365.476 359.361 365.467 359.244 365.462 359.023C365.459 358.8 365.455 358.475 365.448 358.047C365.442 357.182 365.433 355.902 365.421 354.213C365.408 350.837 365.389 345.838 365.364 339.319C365.335 326.298 365.292 307.212 365.237 282.929C365.176 234.436 365.091 165.194 364.988 82.1706L365.475 82.6504C284.759 82.6717 189.608 82.6972 88.1453 82.7238H88.1183L88.6809 82.1695C88.6529 183.754 88.6259 278.902 88.6043 359.36L88.1193 358.882C171.284 358.983 240.567 359.067 289.066 359.125C313.352 359.18 332.433 359.221 345.448 359.25C351.963 359.274 356.959 359.293 360.332 359.305C362.019 359.317 363.299 359.327 364.162 359.332C364.591 359.338 364.916 359.343 365.138 359.346C365.359 359.352 365.476 359.361 365.476 359.361C365.481 359.365 365.377 359.369 365.166 359.374C364.949 359.378 364.634 359.382 364.217 359.388C363.365 359.395 362.102 359.403 360.439 359.415C357.087 359.428 352.122 359.446 345.648 359.47C332.657 359.499 313.614 359.542 289.375 359.595C240.801 359.653 171.411 359.737 88.1193 359.838L87.6344 359.839V359.361C87.6117 278.903 87.5858 183.755 87.5577 82.1706V81.6162H88.1204H88.1474C189.61 81.6428 284.761 81.6683 365.477 81.6896H365.966L365.964 82.1695C365.862 165.32 365.777 234.668 365.716 283.236C365.661 307.471 365.618 326.521 365.589 339.517C365.564 345.996 365.544 350.964 365.531 354.318C365.52 355.984 365.51 357.246 365.504 358.1C365.498 358.517 365.494 358.833 365.49 359.05C365.485 359.262 365.481 359.365 365.476 359.361Z" fill="#263238"/>
<path d="M109.886 127.383V134.736H108.499V128.529H106.921V127.384L109.886 127.383Z" fill="black"/>
<path d="M111.324 133.937C111.324 133.412 111.718 133.066 112.199 133.066C112.679 133.066 113.074 133.413 113.074 133.937C113.074 134.442 112.68 134.81 112.199 134.81C111.718 134.81 111.324 134.442 111.324 133.937Z" fill="black"/>
<path d="M202.888 97.6645C202.888 95.4908 204.594 93.8831 206.907 93.8831C209.222 93.8831 210.927 95.4791 210.927 97.6645C210.927 99.85 209.221 101.446 206.907 101.446C204.594 101.447 202.888 99.8393 202.888 97.6645ZM209.531 97.6645C209.531 96.1621 208.411 95.0811 206.907 95.0811C205.404 95.0811 204.284 96.1632 204.284 97.6645C204.284 99.1669 205.404 100.249 206.907 100.249C208.411 100.249 209.531 99.1669 209.531 97.6645Z" fill="black"/>
<path d="M219.029 93.9883V101.342H217.888L213.772 96.3621V101.342H212.397V93.9883H213.538L217.653 98.9678V93.9883H219.029Z" fill="black"/>
<path d="M221.032 93.9883H222.417V100.186H226.319V101.342H221.032V93.9883Z" fill="black"/>
<path d="M227.417 93.9883H228.802V101.342H227.417V93.9883Z" fill="black"/>
<path d="M237.449 93.9883V101.342H236.307L232.191 96.3621V101.342H230.817V93.9883H231.957L236.073 98.9678V93.9883H237.449Z" fill="black"/>
<path d="M245.05 100.197V101.342H239.452V93.9883H244.9V95.1331H240.838V97.0452H244.442V98.1687H240.838V100.196L245.05 100.197Z" fill="black"/>
<path d="M251.05 95.1438H248.577V93.9883H254.91V95.1438H252.436V101.342H251.05V95.1438Z" fill="black"/>
<path d="M261.551 100.197V101.342H255.953V93.9883H261.401V95.1331H257.339V97.0452H260.943V98.1687H257.339V100.196L261.551 100.197Z" fill="black"/>
<path d="M262.467 100.564L262.947 99.5031C263.544 99.9755 264.493 100.312 265.41 100.312C266.572 100.312 267.062 99.9021 267.062 99.3563C267.062 97.7698 262.627 98.8094 262.627 96.0781C262.627 94.8917 263.587 93.8831 265.634 93.8831C266.529 93.8831 267.467 94.1139 268.118 94.5342L267.68 95.595C267.008 95.2067 266.273 95.0173 265.622 95.0173C264.47 95.0173 264.001 95.4588 264.001 96.0153C264.001 97.5805 268.425 96.5611 268.425 99.2616C268.425 100.437 267.456 101.446 265.408 101.446C264.247 101.447 263.085 101.09 262.467 100.564Z" fill="black"/>
<path d="M271.209 95.1438H268.735V93.9883H275.068V95.1438H272.595V101.342H271.21L271.209 95.1438Z" fill="black"/>
<path d="M144.446 159.684H140.713L139.978 161.385H138.549L141.908 154.032H143.273L146.642 161.385H145.192L144.446 159.684ZM143.987 158.613L142.579 155.398L141.182 158.613H143.987Z" fill="black"/>
<path d="M106.836 101.342C108.515 101.342 109.876 100.001 109.876 98.3465C109.876 96.6923 108.515 95.3513 106.836 95.3513C105.157 95.3513 103.796 96.6923 103.796 98.3465C103.796 100.001 105.157 101.342 106.836 101.342Z" fill="black"/>
<path d="M116.027 101.342C117.706 101.342 119.067 100.001 119.067 98.3465C119.067 96.6923 117.706 95.3513 116.027 95.3513C114.347 95.3513 112.986 96.6923 112.986 98.3465C112.986 100.001 114.347 101.342 116.027 101.342Z" fill="black"/>
<path d="M125.217 101.342C126.896 101.342 128.258 100.001 128.258 98.3465C128.258 96.6923 126.896 95.3513 125.217 95.3513C123.538 95.3513 122.177 96.6923 122.177 98.3465C122.177 100.001 123.538 101.342 125.217 101.342Z" fill="black"/>
<path d="M365.476 113.136C365.476 113.289 303.697 113.413 227.506 113.413C151.289 113.413 89.5222 113.288 89.5222 113.136C89.5222 112.983 151.289 112.859 227.506 112.859C303.697 112.858 365.476 112.983 365.476 113.136Z" fill="black"/>
<path d="M335.142 133.69C335.142 133.844 287.048 133.967 227.734 133.967C168.4 133.967 120.316 133.843 120.316 133.69C120.316 133.538 168.4 133.414 227.734 133.414C287.049 133.413 335.142 133.537 335.142 133.69Z" fill="black"/>
<path d="M203.217 140.88C203.217 141.033 184.813 141.157 162.116 141.157C139.41 141.157 121.01 141.032 121.01 140.88C121.01 140.728 139.41 140.603 162.116 140.603C184.813 140.603 203.217 140.728 203.217 140.88Z" fill="black"/>
<path d="M132.788 162.551H122.949V152.858H132.788V162.551ZM124.028 161.487H131.707V153.922H124.028V161.487Z" fill="black"/>
<path d="M146.186 177.79C146.186 179.051 145.183 179.786 143.264 179.786H139.554V172.433H143.051C144.843 172.433 145.802 173.179 145.802 174.345C145.802 175.1 145.419 175.658 144.842 175.962C145.641 176.214 146.186 176.835 146.186 177.79ZM140.939 173.504V175.531H142.9C143.86 175.531 144.404 175.195 144.404 174.523C144.404 173.839 143.859 173.504 142.9 173.504H140.939ZM144.788 177.654C144.788 176.919 144.223 176.593 143.178 176.593H140.939V178.715H143.178C144.223 178.715 144.788 178.389 144.788 177.654Z" fill="black"/>
<path d="M132.788 180.952H122.949V171.259H132.788V180.952ZM124.028 179.888H131.707V172.323H124.028V179.888Z" fill="black"/>
<path d="M139.02 194.51C139.02 192.315 140.726 190.728 143.018 190.728C144.233 190.728 145.278 191.159 145.971 191.957L145.075 192.787C144.532 192.209 143.859 191.925 143.082 191.925C141.535 191.925 140.416 192.997 140.416 194.509C140.416 196.022 141.536 197.093 143.082 197.093C143.86 197.093 144.532 196.809 145.075 196.222L145.971 197.062C145.277 197.86 144.233 198.291 143.006 198.291C140.726 198.292 139.02 196.706 139.02 194.51Z" fill="black"/>
<path d="M132.788 199.353H122.949V189.66H132.788V199.353ZM124.028 198.289H131.707V190.724H124.028V198.289Z" fill="black"/>
<path d="M139.553 209.236H142.816C145.236 209.236 146.889 210.706 146.889 212.912C146.889 215.117 145.236 216.589 142.816 216.589H139.553V209.236ZM142.751 215.432C144.414 215.432 145.491 214.434 145.491 212.911C145.491 211.388 144.414 210.39 142.751 210.39H140.939V215.432H142.751Z" fill="black"/>
<path d="M132.788 217.754H122.949V208.061H132.788V217.754ZM124.028 216.69H131.707V209.125H124.028V216.69Z" fill="black"/>
<path d="M227.73 157.705C227.73 157.858 211.499 157.982 191.481 157.982C171.455 157.982 155.227 157.857 155.227 157.705C155.227 157.553 171.455 157.428 191.481 157.428C211.499 157.427 227.73 157.552 227.73 157.705Z" fill="black"/>
<path d="M327.519 176.105C327.519 176.258 288.946 176.381 241.377 176.381C193.791 176.381 155.226 176.257 155.226 176.105C155.226 175.953 193.79 175.828 241.377 175.828C288.947 175.828 327.519 175.953 327.519 176.105Z" fill="black"/>
<path d="M178.935 212.906C178.935 213.06 173.628 213.183 167.082 213.183C160.534 213.183 155.228 213.058 155.228 212.906C155.228 212.753 160.534 212.63 167.082 212.63C173.627 212.63 178.935 212.753 178.935 212.906Z" fill="black"/>
<path d="M241.374 194.506C241.374 194.659 222.088 194.782 198.303 194.782C174.51 194.782 155.228 194.658 155.228 194.506C155.228 194.352 174.51 194.229 198.303 194.229C222.087 194.229 241.374 194.353 241.374 194.506Z" fill="black"/>
<path d="M110.104 239.099V240.254H104.602V239.34L107.566 236.568C108.291 235.885 108.419 235.455 108.419 235.045C108.419 234.373 107.949 233.983 107.033 233.983C106.309 233.983 105.701 234.225 105.285 234.75L104.315 234.015C104.891 233.248 105.925 232.797 107.151 232.797C108.771 232.797 109.817 233.606 109.817 234.908C109.817 235.622 109.614 236.273 108.579 237.229L106.585 239.099H110.104Z" fill="black"/>
<path d="M110.966 239.456C110.966 238.931 111.36 238.585 111.84 238.585C112.32 238.585 112.715 238.932 112.715 239.456C112.715 239.961 112.321 240.329 111.84 240.329C111.36 240.328 110.966 239.961 110.966 239.456Z" fill="black"/>
<path d="M141.84 265.203H138.107L137.372 266.904H135.943L139.302 259.551H140.667L144.036 266.904H142.586L141.84 265.203ZM141.381 264.132L139.973 260.917L138.576 264.132H141.381Z" fill="black"/>
<path d="M332.535 239.209C332.535 239.362 284.441 239.485 225.127 239.485C165.793 239.485 117.709 239.361 117.709 239.209C117.709 239.055 165.793 238.932 225.127 238.932C284.441 238.932 332.535 239.055 332.535 239.209Z" fill="black"/>
<path d="M200.609 246.399C200.609 246.552 182.205 246.676 159.507 246.676C136.801 246.676 118.401 246.551 118.401 246.399C118.401 246.247 136.801 246.122 159.507 246.122C182.205 246.122 200.609 246.246 200.609 246.399Z" fill="black"/>
<path d="M130.18 268.07H120.341V258.377H130.18V268.07ZM121.421 267.006H129.1V259.441H121.421V267.006Z" fill="black"/>
<path d="M143.577 283.31C143.577 284.571 142.575 285.306 140.656 285.306H136.945V277.953H140.442C142.234 277.953 143.193 278.699 143.193 279.865C143.193 280.621 142.809 281.178 142.233 281.482C143.034 281.734 143.577 282.354 143.577 283.31ZM138.332 279.024V281.051H140.293C141.253 281.051 141.796 280.715 141.796 280.043C141.796 279.359 141.253 279.024 140.293 279.024H138.332ZM142.181 283.174C142.181 282.439 141.616 282.113 140.571 282.113H138.332V284.235H140.571C141.616 284.235 142.181 283.908 142.181 283.174Z" fill="black"/>
<path d="M130.18 286.471H120.341V276.778H130.18V286.471ZM121.421 285.407H129.1V277.842H121.421V285.407Z" fill="black"/>
<path d="M136.413 300.03C136.413 297.835 138.119 296.247 140.411 296.247C141.627 296.247 142.671 296.678 143.363 297.476L142.468 298.306C141.925 297.728 141.252 297.444 140.474 297.444C138.928 297.444 137.809 298.516 137.809 300.029C137.809 301.541 138.929 302.613 140.474 302.613C141.253 302.613 141.925 302.329 142.468 301.742L143.363 302.581C142.67 303.38 141.626 303.81 140.399 303.81C138.119 303.81 136.413 302.225 136.413 300.03Z" fill="black"/>
<path d="M130.18 304.872H120.341V295.179H130.18V304.872ZM121.421 303.808H129.1V296.243H121.421V303.808Z" fill="black"/>
<path d="M136.946 314.753H140.209C142.629 314.753 144.282 316.225 144.282 318.431C144.282 320.636 142.629 322.107 140.209 322.107H136.946V314.753ZM140.144 320.951C141.807 320.951 142.884 319.953 142.884 318.431C142.884 316.907 141.807 315.909 140.144 315.909H138.332V320.951H140.144Z" fill="black"/>
<path d="M130.18 323.272H120.341V313.58H130.18V323.272ZM121.421 322.208H129.1V314.644H121.421V322.208Z" fill="black"/>
<path d="M225.122 263.223C225.122 263.376 208.89 263.5 188.873 263.5C168.847 263.5 152.619 263.375 152.619 263.223C152.619 263.071 168.847 262.946 188.873 262.946C208.89 262.946 225.122 263.07 225.122 263.223Z" fill="black"/>
<path d="M324.912 281.624C324.912 281.777 286.339 281.9 238.77 281.9C191.184 281.9 152.619 281.776 152.619 281.624C152.619 281.472 191.183 281.347 238.77 281.347C286.339 281.347 324.912 281.471 324.912 281.624Z" fill="black"/>
<path d="M176.327 318.425C176.327 318.579 171.019 318.702 164.474 318.702C157.926 318.702 152.62 318.577 152.62 318.425C152.62 318.273 157.926 318.149 164.474 318.149C171.02 318.149 176.327 318.272 176.327 318.425Z" fill="black"/>
<path d="M238.765 300.024C238.765 300.178 219.48 300.301 195.695 300.301C171.901 300.301 152.62 300.177 152.62 300.024C152.62 299.872 171.902 299.748 195.695 299.748C219.48 299.748 238.765 299.871 238.765 300.024Z" fill="black"/>
<path d="M308.512 343.669H264.049C256.514 343.669 250.406 337.651 250.406 330.227C250.406 322.804 256.514 316.786 264.049 316.786H308.512C316.047 316.786 322.155 322.804 322.155 330.227C322.155 337.651 316.047 343.669 308.512 343.669Z" fill="#FF725E"/>
<path d="M275.146 327.032V334.34H273.737L270.039 329.903V334.34H268.343V327.032H269.762L273.449 331.469V327.032H275.146Z" fill="white"/>
<path d="M282.646 332.982V334.339H276.903V327.031H282.509V328.388H278.609V329.974H282.053V331.289H278.609V332.981H282.646V332.982Z" fill="white"/>
<path d="M288.609 334.34L286.819 331.803L285.06 334.34H283.089L285.833 330.623L283.227 327.032H285.176L286.883 329.403L288.557 327.032H290.412L287.825 330.56L290.591 334.34H288.609Z" fill="white"/>
<path d="M292.719 328.41H290.345V327.032H296.809V328.41H294.435V334.34H292.719V328.41Z" fill="white"/>
<path d="M306.167 333.784C305.993 333.784 305.822 333.701 305.718 333.547C305.552 333.302 305.619 332.972 305.868 332.81L309.314 330.546C309.475 330.44 309.489 330.281 309.487 330.218C309.485 330.153 309.463 329.995 309.296 329.898L305.892 327.916C305.636 327.766 305.55 327.441 305.702 327.186C305.854 326.934 306.185 326.852 306.442 326.999L309.847 328.981C310.283 329.237 310.553 329.687 310.567 330.188C310.581 330.689 310.336 331.153 309.914 331.431L306.467 333.694C306.374 333.755 306.271 333.784 306.167 333.784Z" fill="white"/>
<path d="M121.783 180.784C121.454 180.46 123.543 177.875 126.45 175.012C129.357 172.148 131.98 170.09 132.31 170.415C132.639 170.739 130.55 173.324 127.643 176.188C124.736 179.051 122.112 181.109 121.783 180.784Z" fill="#FF725E"/>
<path d="M134.106 181.796C133.776 182.121 130.98 179.893 127.861 176.82C124.741 173.746 122.48 170.992 122.809 170.668C123.138 170.343 125.933 172.571 129.054 175.645C132.174 178.717 134.435 181.471 134.106 181.796Z" fill="#FF725E"/>
<path d="M119.415 268.592C119.085 268.267 121.175 265.683 124.081 262.82C126.989 259.955 129.612 257.898 129.941 258.222C130.271 258.547 128.182 261.131 125.275 263.995C122.367 266.859 119.744 268.916 119.415 268.592Z" fill="#FF725E"/>
<path d="M131.737 269.604C131.408 269.928 128.612 267.7 125.493 264.628C122.373 261.554 120.111 258.8 120.442 258.475C120.771 258.151 123.566 260.379 126.686 263.453C129.805 266.525 132.067 269.279 131.737 269.604Z" fill="#FF725E"/>
<path d="M328.885 484.7L253.054 460.7C252.852 460.636 252.64 460.612 252.429 460.627L194.093 464.926C183.847 440.495 171.007 409.869 165.162 395.895C163.202 391.208 158.847 387.915 153.744 387.259L90.5947 379.133C87.2888 378.707 84.7691 381.988 86.0835 385.007L121.65 466.717C122.604 468.908 124.445 470.606 126.727 471.399L198.966 499.787C200.619 500.436 202.408 500.672 204.175 500.471L208.791 499.972C224.805 498.327 303.788 490.383 328.553 487.846C330.322 487.666 330.576 485.235 328.885 484.7Z" fill="#E0E0E0"/>
<path d="M328.885 484.7C328.885 484.7 329.018 484.73 329.253 484.852C329.485 484.968 329.825 485.245 329.98 485.753C330.145 486.235 330.077 487.008 329.458 487.529C329.158 487.794 328.709 487.899 328.267 487.927C327.82 487.974 327.344 488.025 326.837 488.079C322.771 488.503 316.792 489.126 309.093 489.928C293.671 491.51 271.374 493.798 243.822 496.625C236.933 497.328 229.714 498.066 222.193 498.833C218.432 499.216 214.596 499.607 210.686 500.006C208.734 500.215 206.762 500.425 204.773 500.637C202.782 500.939 200.632 500.735 198.721 499.94C183.588 494.002 167.419 487.658 150.405 480.981C146.152 479.312 141.845 477.621 137.489 475.911C135.311 475.056 133.121 474.196 130.919 473.331C129.817 472.899 128.713 472.465 127.605 472.031C127.054 471.806 126.496 471.61 125.928 471.367C125.366 471.117 124.831 470.809 124.333 470.45C123.336 469.731 122.49 468.804 121.87 467.743C121.266 466.652 120.876 465.555 120.372 464.46C119.418 462.267 118.458 460.064 117.493 457.85C115.564 453.421 113.617 448.95 111.653 444.439C103.796 426.394 95.6599 407.709 87.3287 388.572L86.1861 385.948C85.8038 385.116 85.3599 384.116 85.4625 383.095C85.5359 381.051 87.197 379.223 89.2306 378.896C89.4801 378.843 89.7382 378.846 89.992 378.823C90.2426 378.841 90.5083 378.847 90.7459 378.878L92.1682 379.061L95.0086 379.427C96.8997 379.67 98.7865 379.913 100.669 380.155C108.196 381.125 115.649 382.084 123.012 383.032C130.375 383.982 137.652 384.919 144.831 385.844C146.626 386.074 148.415 386.305 150.197 386.535C151.978 386.796 153.754 386.912 155.538 387.336C159.067 388.226 162.184 390.456 164.134 393.418C165.136 394.902 165.712 396.57 166.389 398.137C167.054 399.726 167.716 401.308 168.376 402.883C169.696 406.035 171.005 409.161 172.302 412.259C174.896 418.456 177.445 424.544 179.944 430.514C184.941 442.455 189.74 453.923 194.309 464.841L194.074 464.699C214.933 463.177 234.012 461.785 250.9 460.554C251.43 460.516 251.959 460.478 252.485 460.441C252.772 460.421 253.085 460.511 253.316 460.592L254.06 460.828C255.051 461.143 256.033 461.455 257.008 461.764C258.956 462.383 260.871 462.991 262.751 463.589C266.512 464.784 270.136 465.936 273.617 467.042C280.577 469.256 286.965 471.287 292.732 473.121C304.255 476.797 313.294 479.68 319.462 481.648C322.533 482.636 324.888 483.393 326.484 483.907C328.073 484.417 328.885 484.7 328.885 484.7C328.885 484.7 328.058 484.464 326.463 483.971C324.862 483.472 322.5 482.737 319.42 481.778C313.242 479.838 304.191 476.996 292.65 473.372C286.877 471.555 280.484 469.541 273.516 467.347C270.033 466.249 266.407 465.106 262.643 463.92C260.761 463.326 258.845 462.723 256.895 462.108C255.92 461.8 254.937 461.491 253.946 461.178C253.448 461.049 252.945 460.792 252.499 460.811C251.978 460.849 251.454 460.889 250.929 460.927C234.044 462.184 214.966 463.605 194.111 465.158L193.941 465.171L193.876 465.016C189.296 454.102 184.484 442.639 179.475 430.704C176.972 424.736 174.418 418.65 171.818 412.454C170.519 409.357 169.208 406.232 167.886 403.081C167.225 401.506 166.562 399.925 165.896 398.336C165.211 396.747 164.643 395.116 163.685 393.705C161.804 390.854 158.802 388.708 155.404 387.853C153.715 387.449 151.9 387.325 150.128 387.067C148.346 386.838 146.556 386.609 144.761 386.378C137.582 385.455 130.305 384.52 122.941 383.574C115.576 382.627 108.125 381.669 100.597 380.701C98.7141 380.459 96.8273 380.216 94.9363 379.973L92.0959 379.608C91.1379 379.518 90.1951 379.261 89.3278 379.44C87.5534 379.723 86.0835 381.337 86.0241 383.125C85.9388 384.032 86.3006 384.844 86.7023 385.73L87.845 388.353C96.1739 407.492 104.305 426.178 112.159 444.225C114.121 448.738 116.068 453.21 117.994 457.639C118.958 459.854 119.917 462.058 120.87 464.251C121.364 465.329 121.785 466.485 122.338 467.478C122.919 468.475 123.713 469.347 124.65 470.023C125.119 470.361 125.621 470.651 126.149 470.886C126.676 471.111 127.243 471.313 127.794 471.537C128.901 471.972 130.006 472.407 131.107 472.839C133.309 473.705 135.499 474.567 137.677 475.424C142.033 477.137 146.339 478.831 150.591 480.504C167.601 487.198 183.765 493.56 198.894 499.514C200.747 500.282 202.759 500.478 204.723 500.188C206.713 499.979 208.685 499.771 210.639 499.566C214.548 499.173 218.386 498.787 222.146 498.409C229.668 497.654 236.888 496.929 243.779 496.237C271.338 493.484 293.643 491.255 309.069 489.714C316.773 488.957 322.756 488.368 326.824 487.968C327.332 487.919 327.809 487.874 328.256 487.83C328.706 487.806 329.111 487.712 329.403 487.465C329.995 486.98 330.076 486.238 329.924 485.77C329.783 485.278 329.462 485.001 329.237 484.879C329.012 484.748 328.88 484.709 328.885 484.7Z" fill="#263238"/>
<path d="M231.294 469.91L259.732 481.633L295.166 477.996L265.362 465.868L231.294 469.91Z" fill="#F5F5F5"/>
<path d="M209.849 492.067L265.362 487.13L212.355 466.423L195.319 467.692L204.322 489.094L209.849 492.067Z" fill="#F5F5F5"/>
<path d="M323.387 484.667C323.388 484.676 323.257 484.698 323.002 484.73C322.718 484.763 322.344 484.805 321.869 484.859C320.839 484.965 319.376 485.115 317.509 485.305C313.686 485.671 308.214 486.196 301.464 486.842C287.881 488.089 269.173 489.806 248.507 491.703C233.111 493.076 218.801 494.351 206.904 495.412L206.731 495.427L206.667 495.271C202.851 486.094 199.684 478.478 197.457 473.122C196.374 470.478 195.521 468.394 194.925 466.937C194.649 466.245 194.433 465.702 194.276 465.305C194.132 464.935 194.076 464.737 194.076 464.737C194.076 464.737 194.177 464.917 194.343 465.279C194.517 465.67 194.753 466.203 195.055 466.885C195.68 468.33 196.573 470.399 197.707 473.022C199.978 478.359 203.207 485.949 207.1 495.095L206.862 494.954C218.757 493.866 233.063 492.559 248.456 491.152C269.127 489.318 287.842 487.658 301.427 486.452C308.183 485.88 313.662 485.415 317.489 485.09C319.36 484.943 320.826 484.829 321.858 484.748C322.335 484.716 322.712 484.691 322.996 484.673C323.254 484.66 323.385 484.657 323.387 484.667Z" fill="black"/>
<path d="M87.9217 382.129C87.9227 382.119 88.0858 382.132 88.4023 382.166C88.7435 382.207 89.209 382.261 89.8063 382.331C91.0666 382.492 92.8778 382.724 95.1976 383.021C99.9032 383.653 106.665 384.561 115.009 385.683C123.37 386.83 133.325 388.207 144.368 389.816C147.127 390.235 149.955 390.664 152.843 391.102C153.564 391.223 154.29 391.345 155.019 391.469C155.38 391.523 155.755 391.606 156.132 391.69C156.319 391.734 156.51 391.768 156.695 391.821C156.872 391.896 157.055 391.957 157.227 392.046C157.927 392.37 158.59 392.811 159.123 393.398C159.383 393.692 159.635 394.017 159.781 394.41L160.204 395.448C162.462 401.002 164.8 406.752 167.196 412.641C176.738 436.212 185.374 457.546 191.637 473.018C194.731 480.734 197.239 486.987 198.985 491.338C199.832 493.485 200.494 495.162 200.956 496.329C201.168 496.884 201.334 497.316 201.454 497.633C201.564 497.927 201.615 498.081 201.607 498.084C201.598 498.087 201.528 497.941 201.402 497.654C201.268 497.342 201.084 496.917 200.85 496.371C200.366 495.213 199.671 493.549 198.78 491.418C196.996 487.082 194.432 480.852 191.267 473.163C184.965 457.707 176.274 436.394 166.672 412.847C164.281 406.956 161.946 401.204 159.691 395.649L159.27 394.61C159.157 394.298 158.945 394.019 158.712 393.756C158.242 393.235 157.639 392.831 156.994 392.531C156.835 392.449 156.665 392.392 156.501 392.322C156.33 392.273 156.153 392.245 155.98 392.204C155.634 392.127 155.289 392.05 154.919 391.993C154.194 391.87 153.472 391.747 152.754 391.624C149.869 391.18 147.045 390.745 144.289 390.321C133.252 388.722 123.311 387.281 114.952 386.07C106.619 384.875 99.8643 383.907 95.1652 383.233C92.8519 382.893 91.045 382.626 89.7879 382.441C89.1939 382.347 88.7306 382.275 88.3915 382.222C88.0804 382.169 87.9195 382.139 87.9217 382.129Z" fill="black"/>
<path d="M143.748 431.039C146.448 434.599 146.993 438.696 144.966 440.188C142.939 441.681 139.106 440.004 136.406 436.444C133.706 432.884 133.161 428.788 135.188 427.295C137.215 425.802 141.048 427.478 143.748 431.039Z" fill="white"/>
<path d="M485.438 370.284C481.82 350.113 459.128 337.879 451.638 331.158L462.901 345.998C468.636 368.928 470.871 393.482 469.424 417.636C469.267 420.254 469.561 423.799 471.462 424.179C472.113 424.31 472.763 423.97 473.361 423.592C480.017 419.387 484.336 409.777 485.303 399.836C486.271 389.895 487.113 379.627 485.438 370.284Z" fill="#FF725E"/>
<path d="M468.824 347.634C467.753 345.596 468.194 339.131 462.376 345.886L462.008 343.354L425.861 316.044L345.398 320.162C337.675 320.636 326.071 333.811 323.181 339.269C320.805 359.731 320.324 377.89 320.324 377.89C320.324 377.89 317.559 400.641 320.324 411.397C323.088 422.152 326.36 426.042 330.644 434.401C334.928 442.761 342.242 450.035 342.242 450.035L346.005 478.773L430.061 486.204L468.549 484.03C468.549 484.03 465.1 427.379 465.1 426.376C465.1 425.911 469.906 414.972 475.066 403.362C483.854 383.587 478.89 366.809 468.824 347.634Z" fill="#455A64"/>
<path d="M257.714 450.676C258.135 450.631 262.334 422.71 265.084 416.355C267.676 410.362 323.181 339.268 323.181 339.268L336.253 380.725L330.644 402.912L300.372 438.758L291.828 464.738L257.714 450.676Z" fill="#455A64"/>
<path d="M480.02 368.892C476.03 344.002 456.355 345.086 456.355 345.086L436.797 378.61L436.78 447.914L342.426 455.956L340.679 479.301C340.679 479.301 434.686 500.477 456.406 493.38C470.777 488.684 482.919 476.843 484.248 457.487C485.578 438.131 484.01 393.782 480.02 368.892Z" fill="#455A64"/>
<path d="M300.503 438.761C300.391 438.776 300.313 436.898 299.394 434.056C298.499 431.233 296.572 427.448 293.216 424.332C289.856 421.215 285.905 419.547 282.992 418.834C280.059 418.1 278.152 418.136 278.159 418.024C278.159 417.992 278.632 417.956 279.489 417.982C280.344 418.006 281.584 418.129 283.085 418.453C286.071 419.079 290.153 420.729 293.601 423.927C297.047 427.127 298.963 431.041 299.774 433.941C300.192 435.397 300.391 436.609 300.467 437.45C300.544 438.291 300.536 438.758 300.503 438.761Z" fill="black"/>
<path d="M345.665 455.028C345.664 455.019 345.802 454.993 346.072 454.952C346.37 454.91 346.767 454.854 347.273 454.782C348.363 454.641 349.915 454.44 351.899 454.183C355.951 453.683 361.759 452.967 368.925 452.083C383.334 450.359 403.19 447.985 425.12 445.362C429.395 444.857 433.591 444.364 437.6 443.89L437.356 444.152C438.08 425.303 438.407 408.684 438.307 396.778C438.273 390.825 438.175 386.052 438.097 382.768C438.058 381.149 438.027 379.885 438.007 378.994C438.002 378.585 437.998 378.262 437.995 378.016C437.995 377.796 437.999 377.683 438.008 377.683C438.017 377.683 438.03 377.795 438.047 378.014C438.063 378.26 438.084 378.582 438.11 378.989C438.154 379.88 438.216 381.143 438.296 382.76C438.438 386.045 438.591 390.819 438.675 396.774C438.873 408.686 438.615 425.318 437.912 444.171L437.903 444.405L437.668 444.433C433.66 444.907 429.464 445.404 425.19 445.911C403.25 448.471 383.388 450.789 368.974 452.471C361.801 453.281 355.984 453.939 351.928 454.397C349.938 454.61 348.382 454.776 347.289 454.893C346.78 454.942 346.381 454.979 346.082 455.008C345.806 455.031 345.666 455.038 345.665 455.028Z" fill="black"/>
<path d="M485.551 455.028C485.56 455.029 485.559 455.172 485.547 455.45C485.531 455.756 485.509 456.167 485.48 456.689C485.435 457.779 485.26 459.38 484.931 461.426C484.595 463.472 484.013 465.95 483.081 468.753C482.101 471.536 480.715 474.631 478.678 477.763C476.662 480.902 473.9 484.014 470.398 486.712C466.916 489.424 462.544 491.544 457.69 492.687C455.271 493.307 452.733 493.648 450.141 493.933C447.542 494.149 444.88 494.269 442.17 494.228C436.753 494.156 431.161 493.603 425.498 492.7C414.194 490.867 403.426 489.12 393.628 487.531C388.732 486.73 384.079 485.968 379.723 485.254C375.382 484.473 371.337 483.745 367.642 483.079C360.263 481.72 354.282 480.688 350.133 480.069C348.081 479.772 346.476 479.541 345.352 479.378C344.827 479.303 344.415 479.244 344.107 479.2C343.828 479.156 343.684 479.13 343.685 479.12C343.686 479.111 343.831 479.119 344.114 479.144C344.423 479.175 344.837 479.215 345.366 479.267C346.465 479.381 348.084 479.571 350.164 479.857C354.326 480.409 360.325 481.384 367.713 482.694C371.411 483.339 375.459 484.044 379.802 484.801C384.16 485.498 388.815 486.243 393.713 487.027C403.513 488.603 414.283 490.335 425.589 492.153C431.23 493.053 436.795 493.606 442.179 493.685C444.871 493.731 447.513 493.615 450.091 493.407C452.659 493.129 455.176 492.798 457.566 492.191C462.367 491.073 466.66 489.01 470.114 486.348C473.58 483.702 476.329 480.644 478.345 477.55C480.383 474.464 481.783 471.406 482.784 468.652C483.737 465.878 484.348 463.421 484.715 461.39C485.077 459.359 485.285 457.765 485.367 456.68C485.419 456.16 485.46 455.753 485.49 455.448C485.52 455.17 485.541 455.028 485.551 455.028Z" fill="black"/>
<path d="M343.121 456.745C343.108 456.748 343.076 456.598 343.026 456.305C342.973 455.974 342.905 455.545 342.82 455.008C342.648 453.822 342.409 452.156 342.104 450.051L342.139 450.124C340.246 448.061 337.822 445.418 334.985 442.324L334.976 442.314L334.969 442.305C333.694 440.482 332.395 438.449 331.205 436.178C330.024 433.905 328.907 431.423 327.905 428.762C325.946 423.427 324.414 417.393 323.608 410.978C322.709 403.992 322.83 397.27 323.146 391.205C323.486 385.132 324.123 379.691 324.722 375.135C325.328 370.579 325.903 366.906 326.308 364.368C326.513 363.136 326.675 362.161 326.793 361.449C326.85 361.144 326.895 360.895 326.933 360.693C326.968 360.523 326.99 360.436 327 360.438C327.01 360.439 327.006 360.528 326.99 360.7C326.968 360.906 326.94 361.157 326.905 361.465C326.812 362.18 326.685 363.16 326.524 364.399C326.186 366.945 325.672 370.626 325.117 375.182C324.568 379.74 323.973 385.176 323.662 391.231C323.376 397.282 323.272 403.972 324.165 410.907C324.964 417.284 326.474 423.281 328.397 428.585C329.38 431.23 330.475 433.697 331.63 435.961C332.795 438.222 334.067 440.247 335.313 442.065L335.298 442.047C338.094 445.179 340.482 447.853 342.346 449.94L342.375 449.973L342.379 450.015C342.628 452.128 342.824 453.798 342.964 454.989C343.02 455.529 343.064 455.961 343.099 456.294C343.127 456.591 343.133 456.744 343.121 456.745Z" fill="black"/>
<path d="M451.174 459.332C451.105 459.377 450.387 458.403 449.211 456.846C448.035 455.29 446.382 453.162 444.458 450.892C442.529 448.624 440.695 446.646 439.347 445.231C437.999 443.816 437.154 442.947 437.211 442.888C437.261 442.836 438.205 443.604 439.631 444.955C441.057 446.305 442.95 448.254 444.89 450.537C446.827 452.82 448.44 454.999 449.537 456.621C450.634 458.241 451.236 459.294 451.174 459.332Z" fill="black"/>
<path d="M280.837 454.095C280.035 449.555 275.828 446.002 275.828 446.002C275.828 446.002 273.824 440.476 270.819 439.018C267.813 437.56 265.409 440.476 262.805 439.686C260.2 438.897 254.59 438.699 252.788 439.686C250.984 440.673 248.781 446.2 248.781 446.2C248.781 446.2 246.177 446.2 243.572 447.581C241.548 448.655 240.495 449.963 240.125 450.494C238.629 449.758 236.734 450.394 235.552 451.565C234.366 452.739 233.738 454.336 233.14 455.886C232.655 457.141 232.171 458.398 231.686 459.653C231.459 460.242 231.228 460.861 231.312 461.485C231.455 462.54 232.528 463.317 233.607 463.363C234.686 463.41 235.72 462.853 236.478 462.094C237.177 461.395 237.894 460.576 238.406 459.72L238.763 462.188C238.763 462.188 239.362 466.096 242.57 466.333C244.777 466.496 247.178 463.965 247.178 463.965L252.788 463.372L253.589 468.898C253.589 468.898 254.69 472.499 258.798 472.451C260.811 472.428 263.407 469.095 263.407 469.095L268.615 471.069C268.615 471.069 274.626 475.214 277.43 473.832C280.235 472.45 279.434 469.49 279.434 469.49C279.434 469.49 281.437 467.319 282.238 464.95C283.04 462.58 281.638 458.635 280.837 454.095Z" fill="#FFBE9D"/>
<path d="M238.726 461.246C238.579 461.248 238.463 458.605 238.927 455.385C239.381 452.164 240.232 449.655 240.372 449.696C240.531 449.739 239.932 452.282 239.484 455.462C239.025 458.64 238.889 461.248 238.726 461.246Z" fill="#EB996E"/>
<path d="M247.435 456.051C247.591 456.043 247.807 457.884 247.918 460.16C247.991 461.296 247.927 462.395 247.61 463.129C247.302 463.872 246.857 464.159 246.819 464.11C246.75 464.051 247.054 463.693 247.233 463.005C247.425 462.318 247.428 461.321 247.357 460.185C247.245 457.91 247.281 456.058 247.435 456.051Z" fill="#EB996E"/>
<path d="M251.173 453.697C251.285 453.805 250.546 454.722 249.524 455.745C248.502 456.77 247.585 457.513 247.474 457.405C247.363 457.298 248.102 456.38 249.123 455.357C250.144 454.333 251.062 453.59 251.173 453.697Z" fill="#EB996E"/>
<path d="M251.919 443.079C252 443.083 252.017 444.232 252.046 446.085C252.074 447.939 252.13 450.498 252.28 453.319C252.433 456.142 252.65 458.692 252.819 460.539C252.988 462.385 253.094 463.529 253.013 463.541C252.939 463.552 252.695 462.425 252.424 460.584C252.153 458.744 251.871 456.185 251.719 453.348C251.569 450.512 251.575 447.939 251.647 446.081C251.722 444.222 251.845 443.076 251.919 443.079Z" fill="#EB996E"/>
<path d="M272.936 445.2C272.976 445.222 272.705 445.729 272.319 446.684C271.935 447.641 271.477 449.06 271.073 450.858C270.88 451.772 270.671 452.761 270.447 453.815C270.221 454.88 269.966 456.034 269.498 457.198C269.036 458.356 268.311 459.531 267.211 460.415C266.141 461.307 264.561 461.82 263.062 461.427C262.323 461.244 261.618 460.868 261.121 460.294C260.614 459.723 260.361 459.006 260.242 458.326C260.036 456.949 260.128 455.671 260.172 454.436C260.315 451.975 260.713 449.783 261.191 447.984C261.659 446.182 262.202 444.771 262.608 443.815C262.813 443.336 262.984 442.971 263.113 442.728C263.238 442.485 263.312 442.36 263.33 442.368C263.373 442.386 263.155 442.917 262.814 443.892C262.473 444.867 261.992 446.283 261.579 448.077C261.156 449.867 260.804 452.036 260.691 454.462C260.659 455.665 260.588 456.974 260.786 458.232C260.899 458.854 261.126 459.465 261.545 459.932C261.956 460.408 262.556 460.73 263.199 460.89C264.51 461.23 265.878 460.799 266.867 459.993C267.875 459.191 268.564 458.108 269.018 457.006C269.905 454.776 270.185 452.552 270.688 450.768C271.145 448.965 271.669 447.541 272.119 446.599C272.347 446.129 272.542 445.773 272.688 445.54C272.834 445.307 272.919 445.19 272.936 445.2Z" fill="#EB996E"/>
<path d="M275.051 447.59C275.197 447.593 274.955 449.28 273.543 450.738C272.147 452.211 270.451 452.545 270.439 452.402C270.38 452.247 271.86 451.712 273.134 450.357C274.432 449.027 274.89 447.541 275.051 447.59Z" fill="#EB996E"/>
<path d="M263.458 461.355C263.607 461.343 263.87 463.361 263.725 465.857C263.63 467.629 263.356 469.144 263.157 469.843L263.135 469.918L263.098 469.931C262.812 470.031 262.691 469.824 262.668 469.738C262.643 469.626 262.698 469.581 262.714 469.59C262.737 469.596 262.743 469.641 262.787 469.684C262.819 469.728 262.943 469.768 262.969 469.72L262.91 469.807C262.926 469.083 263.071 467.575 263.165 465.827C263.306 463.369 263.297 461.364 263.458 461.355Z" fill="#EB996E"/>
<path d="M276.169 456.941C276.228 456.995 275.645 457.695 274.698 458.813C273.763 459.933 272.449 461.478 271.4 463.409C270.353 465.339 269.909 467.31 269.892 468.735C269.858 470.168 270.144 471.039 270.047 471.065C269.998 471.089 269.566 470.239 269.494 468.74C269.407 467.251 269.812 465.157 270.903 463.15C271.992 461.147 273.384 459.614 274.401 458.553C275.43 457.495 276.114 456.892 276.169 456.941Z" fill="#EB996E"/>
<path d="M273.953 466.753C273.953 466.753 272.659 462.912 276.421 460.281C280.182 457.65 291.467 450.721 291.712 450.721C291.957 450.721 304.959 446.497 310.438 445.911C315.917 445.323 339.877 457.086 339.877 457.086C339.877 457.086 345.438 464.981 344.538 472.553C343.639 480.126 338.638 480.563 338.638 480.563L331.679 478.898L324.503 477.549C324.503 477.549 308.639 481.899 306.186 481.094C303.734 480.289 302.834 477.63 305.532 476.179C308.231 474.729 315.998 472.473 315.998 472.473L321.967 469.976L302.506 472.715C302.506 472.715 286.069 475.938 284.189 475.454C282.309 474.971 281.981 473.601 281.817 472.231C281.817 472.231 275.194 475.454 273.231 473.681C271.269 471.91 270.339 468.204 273.953 466.753Z" fill="#FFBE9D"/>
<path d="M315.91 462.096C315.909 462.136 315.391 462.157 314.457 462.173C313.523 462.192 312.172 462.195 310.51 462.28C308.852 462.378 306.87 462.539 304.755 463.078C303.699 463.346 302.617 463.715 301.544 464.208C300.468 464.703 299.393 465.31 298.275 465.918C297.157 466.526 296.037 467.102 294.885 467.518C293.739 467.949 292.551 468.167 291.44 468.255C289.223 468.429 287.218 468.369 285.674 468.895C284.121 469.408 283.074 470.293 282.536 471.013C281.98 471.734 281.873 472.252 281.817 472.232C281.799 472.227 281.822 472.101 281.884 471.862C281.962 471.629 282.091 471.282 282.356 470.889C282.864 470.098 283.925 469.113 285.542 468.526C287.174 467.918 289.222 467.949 291.392 467.746C293.584 467.613 295.795 466.673 298.004 465.432C299.117 464.826 300.205 464.216 301.313 463.715C302.422 463.213 303.545 462.843 304.63 462.583C306.806 462.057 308.821 461.937 310.495 461.888C312.173 461.852 313.527 461.91 314.461 461.957C315.395 462.008 315.91 462.059 315.91 462.096Z" fill="#EB996E"/>
<path d="M310.031 454.016C310.039 454.034 309.919 454.097 309.682 454.201C309.449 454.311 309.092 454.443 308.627 454.6C307.697 454.912 306.31 455.234 304.584 455.516C302.862 455.812 300.793 456.043 298.589 456.622C296.384 457.196 294.119 458.299 291.788 459.55C287.134 462.125 282.639 463.949 279.352 465.101C277.706 465.681 276.359 466.107 275.424 466.383C274.488 466.66 273.962 466.788 273.952 466.752C273.939 466.715 274.441 466.518 275.354 466.179C276.365 465.8 277.66 465.315 279.211 464.734C282.458 463.489 286.881 461.628 291.52 459.062C293.856 457.808 296.179 456.69 298.456 456.127C300.722 455.562 302.802 455.374 304.522 455.127C306.246 454.895 307.626 454.637 308.565 454.392C309.505 454.153 310.014 453.972 310.031 454.016Z" fill="#EB996E"/>
<path d="M325.811 458.536C325.724 458.535 325.703 458.027 325.497 457.261C325.296 456.498 324.862 455.47 324.055 454.58C323.247 453.692 322.257 453.153 321.51 452.873C320.759 452.586 320.248 452.51 320.257 452.424C320.259 452.358 320.795 452.293 321.63 452.499C322.458 452.698 323.582 453.229 324.474 454.21C325.365 455.191 325.777 456.35 325.887 457.182C326.003 458.024 325.878 458.542 325.811 458.536Z" fill="#EB996E"/>
<path d="M334.754 470.535C334.654 470.518 334.849 469.818 334.596 468.748C334.36 467.69 333.582 466.301 332.246 465.271C330.897 464.242 329.403 463.692 328.339 463.291C327.266 462.897 326.594 462.648 326.618 462.572C326.64 462.503 327.345 462.617 328.464 462.919C329.57 463.23 331.144 463.734 332.592 464.835C334.043 465.95 334.836 467.505 334.987 468.676C335.153 469.864 334.8 470.561 334.754 470.535Z" fill="#EB996E"/>
<path d="M281.817 472.232C281.835 472.263 281.512 472.485 280.876 472.791C280.241 473.098 279.294 473.484 278.092 473.867C277.48 474.051 276.853 474.265 276.077 474.407C275.304 474.512 274.467 474.435 273.64 474.159C272.756 473.903 272.058 473.128 271.671 472.291C271.277 471.449 271.019 470.481 271.156 469.461C271.228 468.734 271.659 468.027 272.179 467.59C272.692 467.125 273.264 466.789 273.835 466.516L273.692 466.827C273.268 465.43 273.358 463.924 273.971 462.829C274.561 461.734 275.339 460.969 276.019 460.394C276.706 459.824 277.308 459.453 277.726 459.211C278.146 458.97 278.386 458.864 278.402 458.889C278.452 458.96 277.533 459.485 276.245 460.644C275.619 461.228 274.896 462.01 274.386 463.031C273.86 464.05 273.802 465.362 274.212 466.684L274.276 466.89L274.069 466.995C273.052 467.515 271.835 468.282 271.713 469.54C271.594 470.402 271.817 471.296 272.17 472.061C272.527 472.828 273.08 473.451 273.813 473.679C274.553 473.941 275.327 474.029 276.017 473.953C276.697 473.848 277.385 473.648 277.978 473.493C279.18 473.163 280.136 472.836 280.789 472.594C281.444 472.352 281.798 472.195 281.817 472.232Z" fill="#EB996E"/>
<path d="M365.491 257.002C363.146 233.953 358.193 211.013 359.219 187.871L339.987 199.671C340.942 208.838 332.574 215.947 327.723 223.825C321.85 233.364 321.046 245.753 325.641 255.951C327.366 259.781 329.826 263.394 330.454 267.54C331.518 274.544 327.144 281.664 328.76 288.567C330.619 296.514 340.496 300.883 348.454 298.642C356.413 296.399 362.108 289.109 364.454 281.289C366.799 273.466 366.318 265.116 365.491 257.002Z" fill="#263238"/>
<path d="M341.024 195.749C343.132 184.56 351.712 174.784 362.643 171.111C373.576 167.437 386.43 170.012 395.039 177.601C398.548 180.694 401.424 184.566 405.487 186.911C410.075 189.56 410.665 188.664 415.724 190.274C420.784 191.885 430.687 204.883 430.866 210.12L434.792 232.884C434.931 238.265 428.122 241.715 422.855 240.284C417.587 238.852 413.865 234.312 410.844 229.827C407.823 225.342 404.947 220.472 400.291 217.655C392.57 212.985 382.657 215.363 373.911 217.694C365.165 220.025 354.998 221.93 347.721 216.614C341.452 212.033 339.598 203.311 341.024 195.749Z" fill="#263238"/>
<path d="M338.229 228.765C338.272 213.786 347.188 194.883 362.377 195.561L410.22 204.501C414.833 204.706 418.52 208.356 418.707 212.903L420.506 325.157C420.619 325.176 420.723 325.19 420.836 325.207C420.836 325.207 404.214 366.391 372.462 358.662C366.166 357.129 370.815 341.695 369.157 334.926L368.841 334.986C368.777 334.174 368.718 333.418 368.659 332.643C367.132 324.806 367.5 317.284 367.5 317.284C366.84 308.253 366.615 304.546 366.615 304.63C366.615 304.63 347.071 302.612 341.541 277.977C338.791 265.726 338.183 245.406 338.229 228.765Z" fill="#FFBE9D"/>
<path d="M346.625 248.357C346.667 250.045 348.153 251.402 349.944 251.39C351.73 251.379 353.148 250.005 353.106 248.316C353.063 246.628 351.577 245.27 349.79 245.281C348 245.293 346.582 246.669 346.625 248.357Z" fill="#263238"/>
<path d="M343.34 239.051C343.766 239.444 346.111 237.509 349.595 237.311C353.073 237.065 355.738 238.68 356.09 238.236C356.265 238.039 355.809 237.312 354.647 236.579C353.502 235.849 351.585 235.187 349.416 235.324C347.246 235.464 345.468 236.36 344.468 237.228C343.448 238.103 343.131 238.877 343.34 239.051Z" fill="#263238"/>
<path d="M378.109 246.625C378.151 248.313 379.637 249.67 381.428 249.658C383.214 249.646 384.632 248.273 384.59 246.584C384.548 244.896 383.061 243.538 381.275 243.549C379.483 243.559 378.066 244.937 378.109 246.625Z" fill="#263238"/>
<path d="M377.627 237.66C378.055 238.052 380.402 236.119 383.885 235.922C387.363 235.675 390.028 237.289 390.38 236.847C390.554 236.649 390.104 235.923 388.937 235.191C387.792 234.46 385.876 233.798 383.707 233.935C381.537 234.077 379.76 234.972 378.759 235.84C377.74 236.711 377.42 237.486 377.627 237.66Z" fill="#263238"/>
<path d="M366.539 263.867C366.543 263.671 364.355 263.431 360.818 263.196C359.923 263.158 359.071 263.035 358.884 262.445C358.636 261.824 358.95 260.858 359.319 259.812C360.027 257.641 360.765 255.365 361.543 252.981C364.615 243.261 366.783 235.29 366.386 235.172C365.987 235.054 363.173 242.836 360.1 252.555C359.365 254.95 358.659 257.235 357.99 259.419C357.713 260.435 357.203 261.599 357.738 262.887C358.018 263.527 358.7 263.964 359.279 264.082C359.86 264.219 360.361 264.199 360.803 264.199C364.345 264.177 366.537 264.064 366.539 263.867Z" fill="#263238"/>
<path d="M366.614 304.631C366.614 304.631 383.665 304.702 399.883 293.74C399.883 293.74 392.41 311.561 367 310.732L366.614 304.631Z" fill="#EB996E"/>
<path d="M368.518 272.053C369.671 270.347 371.812 269.32 374.005 269.422C375.527 269.492 377.098 270.12 378.091 271.279C379.083 272.436 379.381 274.148 378.617 275.354C377.756 276.713 375.81 277.13 374.118 276.763C372.426 276.395 370.93 275.402 369.505 274.408C369.111 274.133 368.708 273.845 368.447 273.451C368.187 273.059 368.105 272.528 368.374 272.174" fill="#EB996E"/>
<path d="M376.937 265.633C376.369 265.634 376.59 269.36 373.514 272.197C370.445 275.042 366.388 274.862 366.39 275.385C366.351 275.622 367.332 276.055 369.036 276C370.709 275.957 373.114 275.285 374.995 273.549C376.871 271.811 377.589 269.597 377.624 268.06C377.673 266.495 377.195 265.597 376.937 265.633Z" fill="#263238"/>
<path d="M375.96 224.652C376.361 225.565 379.812 224.916 383.929 225.159C388.053 225.321 391.42 226.304 391.911 225.435C392.129 225.02 391.501 224.176 390.112 223.352C388.736 222.528 386.575 221.796 384.105 221.672C381.635 221.553 379.412 222.07 377.959 222.755C376.496 223.439 375.786 224.218 375.96 224.652Z" fill="#263238"/>
<path d="M344.014 229.041C344.674 229.784 347.025 228.832 349.909 228.623C352.785 228.314 355.271 228.83 355.784 227.981C356.007 227.571 355.574 226.813 354.461 226.137C353.364 225.465 351.567 224.968 349.586 225.145C347.608 225.324 345.932 226.133 344.977 226.991C344.006 227.854 343.72 228.676 344.014 229.041Z" fill="#263238"/>
<path d="M362.804 189.149L364.774 186.319C379.439 187.063 393.999 189.785 407.92 194.385C413.487 196.225 419.151 198.493 423.146 202.731C428.647 208.566 429.998 216.994 431.082 224.886C435.206 254.927 439.01 285.897 431.189 315.215C428.639 311.684 423.994 310.31 419.631 309.756C415.268 309.202 410.725 309.205 406.693 307.471C402.272 305.572 398.873 301.632 397.382 297.113C395.89 292.594 396.247 287.564 398.066 283.162C400.103 278.235 403.988 273.364 402.637 268.213C401.223 262.822 394.661 260.085 392.828 254.817C389.662 245.712 402.338 236.581 399.079 227.507C397.876 224.156 394.695 221.852 391.371 220.47C388.048 219.088 384.461 218.422 381.101 217.128C369.895 212.812 362.161 200.984 362.804 189.149Z" fill="#263238"/>
<path d="M437.516 203.989C421.811 182.304 411.172 179.682 396.408 178.869L416.942 224.198C420.016 231.49 424.256 240.343 424.913 248.213C425.692 257.536 422.406 265.351 418.014 273.645C412.744 283.595 406.95 293.09 397.896 299.901C388.841 306.713 368.658 315.274 358.181 310.864L372.791 318.912L407.699 319.042L448.358 319.198C448.358 319.198 453.115 315.097 457.294 304.497C467.76 277.946 455.031 228.175 437.516 203.989Z" fill="#FF725E"/>
<path d="M466.475 345.224C466.475 345.224 457.726 327.546 446.31 317.819C434.894 308.092 427.885 308.19 411.598 309.551C395.309 310.913 372.525 313.439 367.127 312.095L366.615 304.63C363.942 304.37 352.957 299.097 350.819 295.916C346.732 300.032 344.953 304.412 345.884 309.102L343.214 310.094C335.134 313.1 330.316 321.588 332.496 329.822C333.51 333.65 335.97 336 340.893 336.839C360.441 340.17 412.699 326.257 428.44 326.177C444.18 326.098 466.475 345.224 466.475 345.224Z" fill="#FF725E"/>
<path d="M339.169 336.659C339.173 336.628 339.643 336.656 340.532 336.737C341.42 336.821 342.728 336.958 344.417 337.074C347.791 337.325 352.692 337.582 358.734 337.31C364.771 337.026 371.941 336.189 379.753 334.497C383.658 333.659 387.731 332.634 391.908 331.445C396.077 330.178 400.391 328.868 404.809 327.525C413.646 324.868 422.521 323.068 430.625 323.855C438.711 324.548 445.639 327.263 450.89 330.282C456.15 333.355 459.791 336.721 462.046 339.223C463.17 340.483 464 341.494 464.507 342.224C465.034 342.937 465.298 343.319 465.273 343.337C465.248 343.355 464.935 343.008 464.363 342.335C463.814 341.643 462.944 340.674 461.789 339.46C459.473 337.048 455.804 333.791 450.572 330.826C445.348 327.916 438.502 325.307 430.556 324.672C422.605 323.943 413.875 325.73 405.068 328.377C400.648 329.686 396.355 331.08 392.156 332.282C387.949 333.466 383.859 334.478 379.927 335.299C372.063 336.957 364.835 337.735 358.759 337.94C352.677 338.133 347.759 337.778 344.384 337.42C342.694 337.25 341.39 337.057 340.508 336.916C339.625 336.776 339.164 336.69 339.169 336.659Z" fill="#263238"/>
<path d="M467.416 339.396C447.693 314.138 409.877 304.482 380.185 317.121L348.822 323.667C340.557 325.076 327.306 327.726 326.675 335.266C326.044 342.807 327.944 351.702 331.768 358.264C339.048 370.756 335.091 387.496 342.37 399.988C345.81 405.892 349.321 411.886 354.327 416.577C359.334 421.268 366.141 424.558 373.01 423.827C380.658 423.013 386.916 417.509 391.778 411.637C402.245 398.991 408.777 383.621 418.58 370.469C428.383 357.317 439.924 347.642 460.508 346.389C464.254 346.162 474.907 351.069 474.907 351.069C475.259 349.602 468.352 340.593 467.416 339.396Z" fill="#FF725E"/>
<g opacity="0.3">
<path d="M425.262 324.388C411.645 324.417 398.283 330.84 385.06 333.709C331.971 345.225 331.971 325.496 331.971 325.496C330.306 334.761 339.137 339.027 348.442 341.148C366.193 345.196 385.116 347.365 397.969 343.337C408.289 340.103 419.076 337.766 429.489 334.84C439.902 331.914 454.934 333.017 462.824 340.323C455.743 328.864 438.878 324.359 425.262 324.388Z" fill="black"/>
</g>
<g opacity="0.3">
<path d="M356.26 322.982C357.396 325.769 360.064 327.751 362.959 328.696C365.854 329.64 368.973 329.666 372.016 329.46C383.121 328.714 393.786 325.065 404.295 321.447C395.896 321.156 387.768 324.039 379.527 325.664C371.286 327.288 361.998 327.433 355.301 322.43" fill="black"/>
</g>
<path d="M470.078 347.515C470.07 347.522 469.988 347.44 469.836 347.275C469.665 347.085 469.446 346.842 469.17 346.534C468.606 345.868 467.722 344.929 466.568 343.738C464.215 341.446 460.59 338.085 455.025 335.91C452.247 334.864 449.041 334.14 445.543 333.895C442.047 333.601 438.288 333.693 434.381 334.239C426.549 335.289 418.256 338.023 409.474 340.491C400.738 343.069 392.286 345.535 384.303 345.946C376.353 346.317 369.199 345.534 363.303 344.466C357.401 343.391 352.709 342.171 349.458 341.375C347.864 340.973 346.612 340.658 345.721 340.432C345.319 340.326 345 340.242 344.752 340.176C344.535 340.115 344.424 340.079 344.426 340.07C344.428 340.061 344.543 340.079 344.765 340.122C345.017 340.174 345.34 340.24 345.747 340.324C346.644 340.525 347.905 340.806 349.51 341.165C352.776 341.896 357.481 343.058 363.372 344.08C369.255 345.096 376.382 345.833 384.272 345.436C392.174 345.003 400.572 342.54 409.315 339.96C418.092 337.496 426.403 334.767 434.311 333.733C438.249 333.196 442.061 333.12 445.582 333.437C449.112 333.705 452.363 334.462 455.17 335.546C460.799 337.802 464.41 341.242 466.724 343.588C467.86 344.806 468.718 345.771 469.257 346.462C469.515 346.783 469.72 347.04 469.88 347.238C470.018 347.416 470.085 347.51 470.078 347.515Z" fill="black"/>
<path d="M450.255 321.489C450.248 321.495 450.171 321.434 450.027 321.309C449.862 321.16 449.656 320.974 449.401 320.744C448.869 320.227 448.038 319.518 446.956 318.619C444.775 316.848 441.394 314.515 436.811 312.402C432.237 310.289 426.434 308.487 419.81 307.587C413.186 306.695 405.776 306.741 398.111 307.647C390.424 308.513 383.243 310.15 376.682 311.58C373.393 312.246 370.16 312.638 367.15 312.327C364.152 312.038 361.393 311.079 359.338 309.538C357.259 308.033 355.808 306.203 354.698 304.54C353.607 302.855 352.848 301.303 352.287 300.015C351.73 298.724 351.369 297.697 351.133 296.998C351.031 296.671 350.949 296.407 350.883 296.195C350.83 296.013 350.808 295.92 350.817 295.917C350.827 295.913 350.867 296.002 350.937 296.177C351.017 296.384 351.115 296.641 351.239 296.959C351.509 297.645 351.902 298.657 352.486 299.927C353.074 301.194 353.857 302.72 354.958 304.369C356.079 305.996 357.529 307.776 359.57 309.22C361.579 310.694 364.259 311.604 367.193 311.868C370.137 312.154 373.311 311.754 376.576 311.079C383.104 309.626 390.328 307.964 398.044 307.096C405.746 306.185 413.207 306.153 419.88 307.08C426.552 308.014 432.392 309.872 436.979 312.047C441.574 314.223 444.946 316.621 447.094 318.453C448.161 319.382 448.971 320.119 449.479 320.663C449.718 320.91 449.912 321.109 450.067 321.269C450.199 321.408 450.263 321.482 450.255 321.489Z" fill="black"/>
<path d="M443.896 320.961C443.894 320.97 443.8 320.962 443.62 320.935C443.407 320.901 443.143 320.859 442.818 320.807C442.071 320.684 441.044 320.517 439.743 320.305C437.067 319.912 433.179 319.399 428.348 319.177C423.521 318.948 417.746 319.002 411.396 319.706C405.042 320.391 398.186 321.993 390.998 323.676C383.823 325.385 376.843 326.819 370.382 326.778C367.16 326.771 364.095 326.408 361.314 325.698C358.522 324.932 356.161 323.54 354.319 321.968C350.604 318.808 348.585 315.359 347.384 312.981C346.206 310.562 345.884 309.103 345.884 309.103C345.894 309.099 345.934 309.183 346.002 309.351C346.08 309.548 346.176 309.793 346.294 310.095C346.558 310.746 346.967 311.699 347.58 312.884C348.83 315.215 350.888 318.601 354.574 321.667C356.401 323.194 358.72 324.528 361.431 325.253C364.172 325.932 367.197 326.275 370.381 326.267C376.772 326.28 383.694 324.847 390.868 323.137C398.053 321.454 404.939 319.86 411.338 319.198C417.726 318.518 423.526 318.504 428.37 318.784C433.217 319.057 437.109 319.631 439.779 320.092C441.113 320.335 442.147 320.535 442.841 320.696C443.162 320.769 443.421 320.83 443.632 320.879C443.809 320.925 443.898 320.951 443.896 320.961Z" fill="black"/>
<path d="M444.868 273.217C444.906 273.227 444.759 273.862 444.46 275.005C444.318 275.579 444.125 276.276 443.838 277.067C443.559 277.859 443.283 278.779 442.85 279.746C442.45 280.727 442.001 281.797 441.424 282.905C440.9 284.038 440.214 285.184 439.518 286.403C438.047 288.795 436.249 291.321 434.102 293.764C431.928 296.186 429.625 298.278 427.413 300.031C426.279 300.874 425.218 301.695 424.146 302.357C423.108 303.068 422.091 303.648 421.157 304.168C420.24 304.719 419.352 305.111 418.592 305.488C417.835 305.873 417.16 306.154 416.6 306.369C415.49 306.813 414.87 307.041 414.856 307.006C414.842 306.97 415.433 306.675 416.511 306.172C417.054 305.929 417.712 305.621 418.45 305.212C419.192 304.809 420.061 304.398 420.957 303.829C421.871 303.291 422.867 302.697 423.884 301.977C424.934 301.306 425.975 300.478 427.088 299.633C429.26 297.875 431.527 295.795 433.677 293.4C435.802 290.983 437.592 288.494 439.073 286.14C439.775 284.94 440.469 283.815 441.005 282.701C441.595 281.613 442.061 280.561 442.48 279.597C442.933 278.647 443.233 277.743 443.539 276.966C443.853 276.19 444.075 275.507 444.248 274.944C444.612 273.825 444.831 273.208 444.868 273.217Z" fill="black"/>
<path d="M443.24 336.639C443.235 336.658 442.935 336.63 442.369 336.56C442.07 336.521 441.723 336.476 441.325 336.424C440.912 336.376 440.429 336.381 439.891 336.351C437.74 336.273 434.58 336.523 430.91 337.722C429.082 338.331 427.135 339.153 425.111 340.171C423.093 341.202 421.012 342.443 418.88 343.836C414.62 346.628 410.171 350.06 405.397 353.515C395.888 360.441 387.282 366.708 380.998 371.283C377.894 373.51 375.367 375.324 373.566 376.617C372.715 377.213 372.036 377.688 371.528 378.045C371.058 378.366 370.806 378.528 370.794 378.512C370.782 378.497 371.012 378.305 371.46 377.954C371.952 377.578 372.61 377.074 373.434 376.443C375.209 375.116 377.701 373.255 380.759 370.969C387.018 366.36 395.59 360.046 405.061 353.07C409.832 349.617 414.287 346.198 418.593 343.41C420.745 342.022 422.851 340.784 424.897 339.762C426.949 338.753 428.927 337.942 430.786 337.351C434.518 336.184 437.732 335.99 439.9 336.136C440.443 336.183 440.929 336.195 441.343 336.261C441.742 336.334 442.088 336.396 442.387 336.451C442.95 336.556 443.243 336.62 443.24 336.639Z" fill="black"/>
<path d="M478.089 369.265C478.051 369.274 477.889 368.739 477.625 367.764C477.358 366.79 476.992 365.377 476.478 363.653C475.959 361.931 475.283 359.894 474.265 357.753C473.24 355.625 471.84 353.385 469.889 351.468C467.956 349.536 465.635 348.197 463.345 347.57C461.05 346.929 458.86 346.898 457.057 347.027C453.433 347.328 451.277 348.12 451.248 347.999C451.242 347.981 451.372 347.924 451.626 347.83C451.878 347.733 452.256 347.61 452.749 347.466C453.734 347.184 455.184 346.82 457.022 346.636C458.852 346.455 461.098 346.441 463.484 347.078C465.867 347.698 468.298 349.083 470.287 351.075C472.298 353.052 473.717 355.358 474.734 357.537C475.745 359.728 476.387 361.8 476.86 363.545C477.329 365.295 477.635 366.723 477.837 367.713C478.037 368.705 478.127 369.257 478.089 369.265Z" fill="black"/>
<path d="M458.93 170.677C480.167 169.705 496.583 151.956 495.597 131.033C494.61 110.111 476.594 93.9378 455.357 94.9097C434.12 95.8816 417.704 113.63 418.69 134.553C419.677 155.475 437.693 171.649 458.93 170.677Z" fill="white"/>
<path d="M435.733 176.611C435.747 176.649 436.127 176.461 436.861 176.365C437.585 176.267 438.707 176.323 439.875 176.927C440.451 177.231 441.034 177.669 441.49 178.274C441.937 178.88 442.258 179.648 442.301 180.495C442.425 182.159 441.552 184.155 439.774 185.05C437.978 185.912 435.834 185.397 434.56 184.298C433.9 183.753 433.469 183.039 433.247 182.322C433.03 181.599 433.027 180.876 433.128 180.241C433.34 178.957 433.971 178.041 434.485 177.531C435.006 177.011 435.386 176.825 435.364 176.791C435.359 176.781 435.264 176.824 435.089 176.919C434.999 176.964 434.894 177.027 434.778 177.117C434.658 177.2 434.522 177.3 434.387 177.432C433.826 177.929 433.133 178.857 432.876 180.198C432.754 180.862 432.741 181.626 432.96 182.403C433.184 183.174 433.641 183.953 434.342 184.542C435.026 185.144 435.924 185.58 436.907 185.749C437.886 185.934 438.969 185.826 439.935 185.366C440.887 184.883 441.628 184.097 442.067 183.215C442.52 182.34 442.707 181.371 442.632 180.471C442.575 179.564 442.219 178.735 441.729 178.096C441.231 177.456 440.604 177.006 439.992 176.703C438.751 176.099 437.58 176.084 436.841 176.226C436.652 176.254 436.489 176.3 436.349 176.344C436.208 176.383 436.092 176.425 436.003 176.47C435.819 176.553 435.727 176.601 435.733 176.611Z" fill="#263238"/>
<path d="M425.096 154.373C425.096 154.373 424.994 154.186 424.782 153.834C424.564 153.475 424.248 152.954 423.835 152.276C423.626 151.933 423.391 151.551 423.134 151.13C422.897 150.697 422.68 150.201 422.419 149.676C422.166 149.149 421.891 148.581 421.599 147.975C421.441 147.677 421.315 147.353 421.199 147.014C421.077 146.678 420.951 146.331 420.821 145.975C419.69 143.158 418.845 139.499 418.549 135.214C418.277 130.933 418.725 125.965 420.47 120.829C420.692 120.19 420.918 119.542 421.146 118.887C421.413 118.248 421.725 117.617 422.017 116.971C422.166 116.649 422.315 116.325 422.465 116C422.612 115.673 422.761 115.344 422.956 115.038C423.323 114.411 423.694 113.779 424.069 113.139C424.258 112.821 424.439 112.496 424.638 112.179C424.858 111.875 425.079 111.571 425.302 111.266C425.747 110.654 426.196 110.036 426.649 109.412C427.121 108.803 427.669 108.245 428.183 107.651C428.445 107.358 428.707 107.063 428.972 106.767C429.106 106.621 429.232 106.467 429.372 106.327L429.814 105.921C431.004 104.849 432.151 103.684 433.526 102.746C434.197 102.26 434.844 101.727 435.55 101.267C436.273 100.833 437 100.395 437.734 99.9533C438.104 99.7395 438.461 99.4958 438.846 99.3043C439.236 99.1202 439.628 98.9351 440.021 98.7489C440.811 98.3871 441.589 97.9828 442.404 97.6476C444.072 97.0773 445.725 96.3762 447.507 96.0133C447.946 95.9037 448.387 95.7931 448.829 95.6835C449.05 95.6303 449.27 95.5686 449.494 95.5228L450.173 95.4217C451.08 95.2866 451.993 95.1504 452.911 95.0142C453.833 94.9206 454.77 94.9046 455.706 94.8451C456.175 94.8312 456.645 94.7716 457.117 94.7951L458.536 94.8557C460.439 94.86 462.332 95.1919 464.251 95.4484C465.193 95.6697 466.14 95.892 467.09 96.1144L467.804 96.2825C468.039 96.3527 468.269 96.4368 468.502 96.5134L469.899 96.9837L471.302 97.4561L472.661 98.0573L474.023 98.6659L474.707 98.9713C474.928 99.0862 475.142 99.2149 475.36 99.3373C476.229 99.831 477.102 100.326 477.978 100.823C478.801 101.401 479.627 101.982 480.456 102.565C483.682 105.017 486.564 107.988 488.972 111.363C491.29 114.8 493.056 118.524 494.204 122.377C494.454 123.351 494.704 124.32 494.953 125.285C495.106 126.27 495.257 127.251 495.407 128.229L495.516 128.961L495.556 129.7L495.637 131.171L495.713 132.636L495.65 134.096L495.587 135.549L495.553 136.273L495.451 136.989C495.317 137.943 495.183 138.894 495.05 139.838C494.596 141.693 494.223 143.552 493.534 145.301L493.076 146.626C492.927 147.067 492.699 147.477 492.517 147.902C492.12 148.741 491.765 149.594 491.342 150.407C490.88 151.2 490.418 151.988 489.962 152.772L489.619 153.36C489.495 153.548 489.356 153.728 489.225 153.912C488.96 154.278 488.696 154.643 488.432 155.006C487.442 156.509 486.178 157.772 485.032 159.096C484.419 159.721 483.755 160.29 483.125 160.883C482.807 161.177 482.489 161.468 482.174 161.76C481.852 162.044 481.492 162.282 481.155 162.545C480.472 163.058 479.792 163.568 479.119 164.073C478.428 164.553 477.689 164.954 476.985 165.394C475.599 166.316 474.08 166.944 472.633 167.647L472.09 167.906C471.905 167.983 471.714 168.044 471.527 168.113C471.151 168.248 470.777 168.382 470.405 168.515C469.656 168.771 468.93 169.073 468.182 169.284C467.427 169.473 466.68 169.661 465.94 169.846C465.57 169.94 465.201 170.033 464.835 170.124C464.462 170.183 464.09 170.24 463.72 170.298C462.979 170.409 462.247 170.52 461.521 170.63C461.159 170.698 460.795 170.715 460.432 170.732C460.069 170.751 459.709 170.771 459.35 170.79C458.633 170.823 457.923 170.881 457.221 170.893C456.519 170.865 455.825 170.837 455.139 170.809C449.648 170.545 444.787 169.152 440.838 167.347C440.342 167.124 439.848 166.915 439.374 166.691C438.917 166.433 438.469 166.18 438.029 165.931C437.588 165.683 437.156 165.439 436.734 165.201C436.524 165.079 436.308 164.971 436.109 164.839C435.915 164.703 435.722 164.568 435.532 164.435C434.769 163.902 434.039 163.391 433.344 162.904C432.662 162.398 432.078 161.84 431.489 161.354C431.199 161.105 430.917 160.863 430.644 160.629C430.364 160.4 430.105 160.166 429.88 159.913C429.412 159.425 428.976 158.967 428.569 158.541C428.167 158.113 427.777 157.734 427.454 157.358C427.15 156.969 426.873 156.615 426.626 156.299C426.133 155.673 425.755 155.193 425.495 154.863C425.235 154.532 425.096 154.373 425.096 154.373C425.096 154.373 425.214 154.546 425.462 154.876C425.716 155.212 426.084 155.698 426.564 156.335C426.809 156.655 427.082 157.014 427.382 157.407C427.701 157.787 428.087 158.172 428.486 158.605C428.89 159.035 429.324 159.498 429.788 159.992C430.012 160.248 430.271 160.484 430.549 160.716C430.822 160.954 431.103 161.198 431.392 161.449C431.978 161.942 432.563 162.507 433.243 163.019C433.94 163.511 434.669 164.028 435.431 164.568C435.622 164.703 435.815 164.839 436.009 164.978C436.208 165.111 436.424 165.22 436.633 165.344C437.058 165.585 437.49 165.832 437.931 166.084C438.373 166.335 438.822 166.592 439.28 166.853C439.756 167.082 440.25 167.293 440.748 167.519C444.711 169.352 449.594 170.77 455.121 171.053C455.811 171.083 456.51 171.114 457.216 171.143C457.922 171.133 458.637 171.077 459.36 171.046C459.72 171.027 460.084 171.008 460.449 170.989C460.814 170.973 461.182 170.957 461.547 170.89C462.278 170.782 463.017 170.672 463.763 170.561C464.135 170.504 464.512 170.455 464.887 170.389C465.257 170.298 465.628 170.205 466.001 170.112C466.747 169.926 467.501 169.739 468.261 169.55C469.015 169.338 469.748 169.037 470.503 168.78C470.879 168.646 471.256 168.512 471.635 168.377C471.823 168.307 472.016 168.247 472.202 168.168L472.751 167.91C474.21 167.205 475.741 166.572 477.141 165.647C477.851 165.205 478.597 164.803 479.293 164.32C479.974 163.811 480.658 163.3 481.349 162.784C481.689 162.52 482.05 162.279 482.377 161.993C482.696 161.7 483.016 161.406 483.338 161.111C483.973 160.514 484.645 159.942 485.264 159.312C486.421 157.979 487.696 156.706 488.698 155.191C488.964 154.825 489.23 154.457 489.498 154.089C489.63 153.903 489.77 153.723 489.896 153.532L490.242 152.941C490.705 152.15 491.17 151.355 491.638 150.556C492.065 149.737 492.425 148.876 492.826 148.031C493.011 147.602 493.24 147.189 493.392 146.744L493.856 145.408C494.551 143.644 494.931 141.77 495.39 139.898C495.525 138.945 495.661 137.986 495.797 137.023L495.899 136.301L495.935 135.571L495.999 134.103L496.062 132.631L495.988 131.152L495.907 129.667L495.866 128.922L495.757 128.182C495.605 127.196 495.452 126.205 495.3 125.212C495.049 124.237 494.798 123.258 494.545 122.276C493.388 118.387 491.607 114.628 489.267 111.158C486.837 107.752 483.928 104.754 480.67 102.28C479.833 101.692 478.999 101.106 478.168 100.523C477.283 100.021 476.402 99.5213 475.525 99.0245C475.305 98.9021 475.089 98.7712 474.865 98.6552L474.176 98.3477L472.801 97.7349L471.43 97.1295L470.014 96.6528L468.605 96.1793C468.369 96.1027 468.137 96.0176 467.9 95.9474L467.18 95.7782C466.22 95.5537 465.265 95.3302 464.315 95.1079C462.378 94.8493 460.468 94.5174 458.548 94.5152L457.117 94.4556C456.64 94.4333 456.167 94.4929 455.694 94.5078C454.749 94.5684 453.805 94.5854 452.874 94.6812C451.949 94.8206 451.028 94.9578 450.113 95.0951L449.427 95.1983C449.201 95.2441 448.98 95.3079 448.756 95.3611C448.31 95.4728 447.865 95.5845 447.422 95.6952C445.626 96.0644 443.96 96.772 442.278 97.3508C441.458 97.6902 440.672 98.0988 439.878 98.4648C439.482 98.6531 439.088 98.8404 438.694 99.0266C438.305 99.2213 437.947 99.4671 437.574 99.6831C436.835 100.129 436.103 100.572 435.375 101.011C434.664 101.475 434.013 102.013 433.338 102.505C431.954 103.453 430.8 104.629 429.604 105.712L429.16 106.121C429.017 106.263 428.891 106.419 428.757 106.566C428.491 106.865 428.228 107.163 427.964 107.459C427.448 108.059 426.896 108.622 426.422 109.237C425.967 109.867 425.516 110.489 425.069 111.107C424.845 111.416 424.623 111.723 424.402 112.029C424.204 112.348 424.021 112.677 423.831 112.998C423.455 113.643 423.084 114.28 422.715 114.912C422.519 115.222 422.37 115.553 422.223 115.882C422.073 116.211 421.923 116.538 421.774 116.862C421.481 117.514 421.17 118.15 420.903 118.794C420.675 119.453 420.451 120.105 420.227 120.75C418.487 125.926 418.054 130.924 418.347 135.226C418.663 139.532 419.533 143.203 420.688 146.021C420.821 146.378 420.95 146.725 421.076 147.062C421.194 147.401 421.323 147.725 421.484 148.024C421.783 148.629 422.063 149.196 422.322 149.723C422.587 150.246 422.81 150.741 423.053 151.172C423.317 151.591 423.557 151.971 423.772 152.312C424.198 152.984 424.525 153.499 424.751 153.855C424.975 154.2 425.096 154.373 425.096 154.373Z" fill="#263238"/>
<path d="M437.718 133.754L443.418 128.14L454.41 137.766L475.987 117.31L481.279 122.925L453.596 148.595L437.718 133.754Z" fill="#FF725E"/>
</svg>
